<?xml version="1.0" encoding="UTF-8" standalone="no"?>
<!-- Created with Inkscape (http://www.inkscape.org/) -->

<svg
   width="210mm"
   height="297mm"
   viewBox="0 0 210 297"
   version="1.1"
   id="svg5"
   sodipodi:docname="drawing.svg"
   inkscape:version="1.2.2 (b0a8486541, 2022-12-01)"
   xmlns:inkscape="http://www.inkscape.org/namespaces/inkscape"
   xmlns:sodipodi="http://sodipodi.sourceforge.net/DTD/sodipodi-0.dtd"
   xmlns="http://www.w3.org/2000/svg"
   xmlns:svg="http://www.w3.org/2000/svg">
  <sodipodi:namedview
     id="namedview7"
     pagecolor="#ffffff"
     bordercolor="#000000"
     borderopacity="0.25"
     inkscape:showpageshadow="2"
     inkscape:pageopacity="0.0"
     inkscape:pagecheckerboard="0"
     inkscape:deskcolor="#d1d1d1"
     inkscape:document-units="mm"
     showgrid="false"
     inkscape:zoom="1.3489949"
     inkscape:cx="218.68133"
     inkscape:cy="717.20062"
     inkscape:window-width="2544"
     inkscape:window-height="1392"
     inkscape:window-x="2568"
     inkscape:window-y="244"
     inkscape:window-maximized="0"
     inkscape:current-layer="layer1" />
  <defs
     id="defs2" />
  <g
     inkscape:label="Layer 1"
     inkscape:groupmode="layer"
     id="layer1">
    <path
       id="rect720"
       style="stroke-width:0.264583"
       d="M -36.807 121.354 C -36.807 121.354 -36.7891 121.343 -36.7733 121.341 C -36.7564 121.336 -36.7405 121.339 -36.7485 121.371 C -36.756 121.402 -36.7721 121.448 -36.7972 121.509 C -36.8217 121.568 -36.8549 121.643 -36.8964 121.731 C -36.9376 121.819 -36.9874 121.922 -37.0456 122.039 C -37.1026 122.154 -37.1681 122.284 -37.2421 122.428 C -37.315 122.571 -37.3964 122.729 -37.4854 122.901 C -37.574 123.073 -37.6701 123.258 -37.7739 123.457 C -37.8766 123.655 -37.9869 123.868 -38.1048 124.095 C -38.2217 124.321 -38.3455 124.56 -38.4765 124.814 C -38.6064 125.067 -38.7434 125.335 -38.8869 125.616 C -39.0293 125.896 -39.178 126.191 -39.3332 126.499 C -39.4871 126.807 -39.647 127.128 -39.8131 127.463 C -39.9772 127.798 -40.1474 128.147 -40.3232 128.509 C -40.4973 128.871 -40.6766 129.247 -40.8612 129.637 C -41.0438 130.026 -41.2311 130.428 -41.4236 130.845 C -41.6135 131.261 -41.808 131.691 -42.0071 132.135 C -42.2037 132.579 -42.4044 133.036 -42.6086 133.506 C -42.8103 133.977 -43.0158 134.461 -43.2245 134.959 C -43.43 135.456 -43.6392 135.968 -43.8509 136.493 C -44.0596 137.017 -44.2708 137.555 -44.4842 138.107 C -44.6945 138.659 -44.9066 139.224 -45.1206 139.803 C -45.3309 140.381 -45.5428 140.973 -45.7558 141.578 C -45.965 142.184 -46.1751 142.802 -46.386 143.434 C -46.5925 144.066 -46.7994 144.711 -47.0066 145.369 C -47.2093 146.028 -47.4116 146.699 -47.6136 147.384 C -47.8108 148.069 -48.007 148.766 -48.2023 149.477 C -48.3926 150.187 -48.5814 150.91 -48.7685 151.647 C -48.9503 152.383 -49.1301 153.132 -49.3075 153.893 C -49.4794 154.655 -49.6485 155.429 -49.8146 156.216 C -49.975 157.001 -50.1319 157.8 -50.2854 158.611 C -50.4326 159.422 -50.5759 160.245 -50.715 161.08 C -50.8475 161.914 -50.9755 162.76 -51.0986 163.619 C -51.2148 164.477 -51.3258 165.346 -51.4313 166.228 C -51.5296 167.108 -51.6221 167.999 -51.7085 168.902 C -51.7874 169.804 -51.8598 170.717 -51.9254 171.641 C -51.9832 172.564 -52.0339 173.498 -52.0774 174.441 C -52.1127 175.384 -52.1402 176.337 -52.1599 177.3 C -52.171 178.262 -52.1739 179.234 -52.1684 180.214 C -52.154 181.194 -52.1306 182.184 -52.0982 183.182 C -52.0569 184.178 -52.006 185.183 -51.9455 186.197 C -51.8756 187.209 -51.7957 188.229 -51.7055 189.258 C -51.6058 190.284 -51.4952 191.319 -51.3741 192.361 C -51.2433 193.399 -51.101 194.446 -50.9478 195.5 C -50.7843 196.55 -50.6092 197.607 -50.4223 198.671 C -50.225 199.732 -50.0155 200.799 -49.7939 201.872 C -49.5613 202.942 -49.3165 204.016 -49.059 205.096 C -48.7906 206.172 -48.5091 207.253 -48.2149 208.338 C -47.9089 209.42 -47.5902 210.505 -47.2571 211.595 C -46.9137 212.678 -46.5558 213.767 -46.1844 214.858 C -45.8011 215.945 -45.4045 217.032 -44.9922 218.125 C -44.5702 219.209 -44.1326 220.297 -43.68 221.387 C -43.2167 222.47 -42.7383 223.554 -42.2442 224.641 C -41.7393 225.719 -41.2192 226.798 -40.6838 227.878 C -40.137 228.95 -39.5745 230.022 -38.997 231.093 C -38.408 232.155 -37.8034 233.217 -37.1825 234.278 C -36.5499 235.331 -35.9019 236.382 -35.2389 237.429 C -34.5632 238.469 -33.872 239.505 -33.1658 240.538 C -32.4484 241.56 -31.713 242.581 -30.964 243.596 C -30.2027 244.601 -29.4248 245.603 -28.6322 246.598 C -27.8272 247.584 -27.008 248.563 -26.1726 249.536 C -25.3251 250.499 -24.4636 251.454 -23.5846 252.404 C -22.6953 253.341 -21.7907 254.271 -20.871 255.192 C -19.9416 256.101 -18.9951 257.002 -18.0343 257.894 L -3.28338 269.109 L 12.9817 277.28 L 30.1576 282.238 L 47.6248 283.925 L 64.7792 282.404 L 81.044 277.845 L 95.9045 270.514 L 108.898 260.772 L 119.654 249.045 L 127.891 235.814 L 133.43 221.591 L 136.188 206.916 L 136.186 192.304 L 133.545 178.268 L 128.467 165.263 L 121.242 153.703 L 112.216 143.92 L 101.794 136.179 L 90.4043 130.652 L 78.4959 127.427 L 66.5167 126.504 L 54.8985 127.799 L 44.0352 131.15 L 34.2778 136.328 L 25.9178 143.044 L 19.1794 150.97 L 14.215 159.748 L 11.1041 169.001 L 9.8479 178.363 L 10.3787 187.475 L 12.5621 196.01 L 16.2079 203.685 L 21.0743 210.258 L 26.8902 215.555 L 33.3583 219.458 L 40.1736 221.914 L 47.0337 222.934 L 53.654 222.588 L 59.7772 221.001 L 65.1834 218.342 L 69.698 214.819 L 73.1981 210.665 L 75.6149 206.126 L 76.9344 201.452 L 77.1956 196.881 L 76.4878 192.633 L 74.9422 188.898 L 72.7264 185.827 L 70.0324 183.525 L 67.0685 182.05 L 64.0435 181.405 L 61.1599 181.539 L 58.5939 182.345 L 56.4798 183.652 L 54.8651 185.227 L 53.6629 186.787 L 52.6448 188.082 L 51.5688 188.972 L 50.3184 189.391 L 48.9027 189.294 L 47.4072 188.638 L 45.958 187.403 L 44.7003 185.594 L 43.7849 183.25 C 43.7327 183.089 43.6961 182.962 43.673 182.869 C 43.6511 182.775 43.6413 182.716 43.6444 182.691 C 43.6476 182.667 43.6623 182.677 43.689 182.719 C 43.7152 182.762 43.7544 182.836 43.8054 182.94 C 43.8577 183.042 43.9231 183.171 44.002 183.326 C 44.0833 183.476 44.1801 183.648 44.292 183.84 C 44.4068 184.023 44.5391 184.221 44.6878 184.431 C 44.8412 184.628 45.0115 184.832 45.2003 185.038 C 45.3928 185.228 45.603 185.415 45.8306 185.594 C 46.0606 185.752 46.307 185.897 46.5687 186.025 C 46.8312 186.126 47.1072 186.203 47.3951 186.255 C 47.6815 186.274 47.9783 186.261 48.2849 186.211 C 48.5873 186.126 48.8994 186 49.2203 185.832 C 49.54 185.624 49.8724 185.37 50.2189 185.069 C 50.5733 184.73 50.9517 184.344 51.3599 183.913 C 51.7928 183.452 52.2701 182.954 52.8008 182.424 C 53.3784 181.883 54.0249 181.328 54.749 180.769 C 55.5377 180.233 56.4142 179.718 57.3811 179.242 C 58.419 178.828 59.5472 178.481 60.7626 178.22 C 62.0358 178.063 63.3815 178.022 64.7913 178.11 C 66.2266 178.34 67.6992 178.725 69.1902 179.276 C 70.6626 179.992 72.1163 180.89 73.5301 181.973 C 74.8637 183.228 76.1147 184.669 77.2553 186.292 C 78.2524 188.072 79.0954 190.018 79.7591 192.118 C 80.2163 194.333 80.4542 196.668 80.451 199.098 C 80.1928 201.581 79.6637 204.109 78.852 206.654 C 77.7569 209.165 76.3664 211.63 74.6792 214.012 C 72.71 216.265 70.4536 218.367 67.922 220.282 C 65.144 221.969 62.1242 223.404 58.8882 224.553 C 55.4764 225.386 51.905 225.882 48.2115 226.014 C 44.4437 225.766 40.6293 225.122 36.8138 224.072 C 33.048 222.612 29.368 220.738 25.8233 218.456 C 22.4611 215.778 19.3212 212.713 16.4517 209.286 C 13.8925 205.519 11.6822 201.442 9.85915 197.095 C 8.45149 192.504 7.49064 187.721 6.99954 182.791 C 6.99685 177.756 7.49636 172.671 8.50501 167.589 C 10.0281 162.555 12.0598 157.629 14.5864 152.872 C 17.6067 148.311 21.089 144.016 25.0024 140.037 C 29.3396 136.396 34.0439 133.155 39.0728 130.35 C 44.4109 128 49.9901 126.144 55.7469 124.807 C 61.6776 123.997 67.6921 123.734 73.7259 124.021 C 79.7825 124.864 85.7571 126.254 91.5961 128.175 C 97.3073 130.635 102.788 133.593 107.989 137.019 C 112.924 140.922 117.504 145.235 121.692 149.911 C 125.509 154.976 128.878 160.328 131.782 165.917 C 134.24 171.778 136.204 177.792 137.672 183.908 C 138.657 190.174 139.143 196.453 139.142 202.691 C 138.658 208.97 137.71 215.13 136.321 221.135 C 134.48 227.066 132.238 232.781 129.635 238.235 C 126.628 243.54 123.313 248.54 119.726 253.224 C 115.808 257.686 111.679 261.801 107.382 265.564 C 102.827 269.068 98.1662 272.208 93.4397 274.991 C 88.5219 277.503 83.5995 279.661 78.7062 281.482 C 73.6894 283.036 68.7482 284.273 63.917 285.215 C 59.0209 285.907 54.2674 286.335 49.6898 286.524 C 45.0853 286.494 40.6781 286.262 36.4909 285.854 C 32.3059 285.264 28.3553 284.537 24.6512 283.703 C 20.9694 282.724 17.5419 281.675 14.375 280.585 C 11.2382 279.386 8.36075 278.178 5.7554 276.992 C 3.17393 275.728 0.852472 274.513 -1.20077 273.372 C -3.23253 272.182 -5.01039 271.088 -6.52797 270.113 C -8.03185 269.11 -9.2866 268.243 -10.2877 267.531 C -11.2798 266.808 -12.0308 266.249 -12.5282 265.872 C -13.0258 265.49 -13.2792 265.295 -13.2792 265.295 C -14.3276 264.468 -15.3659 263.627 -16.388 262.778 C -17.4002 261.914 -18.3984 261.04 -19.3794 260.158 C -20.3524 259.261 -21.3112 258.354 -22.2547 257.438 C -23.1899 256.508 -24.107 255.572 -25.0082 254.628 C -25.9011 253.67 -26.7775 252.706 -27.6378 251.735 C -28.4885 250.751 -29.323 249.761 -30.1408 248.765 C -30.9488 247.758 -31.7396 246.746 -32.5158 245.727 C -33.2815 244.697 -34.0299 243.664 -34.7632 242.626 C -35.4836 241.579 -36.1885 240.529 -36.8781 239.474 C -37.5563 238.409 -38.2173 237.343 -38.8638 236.273 C -39.4976 235.195 -40.1171 234.113 -40.7185 233.033 C -41.3106 231.941 -41.8847 230.852 -42.4441 229.76 C -42.9923 228.659 -43.5241 227.56 -44.0413 226.46 C -44.5454 225.354 -45.0347 224.248 -45.5091 223.143 C -45.9719 222.031 -46.4189 220.921 -46.8522 219.811 C -47.2727 218.697 -47.6783 217.586 -48.0695 216.477 C -48.4499 215.36 -48.815 214.248 -49.1654 213.14 C -49.5054 212.026 -49.8308 210.916 -50.1421 209.81 C -50.442 208.7 -50.7286 207.594 -51.0014 206.493 C -51.2629 205.389 -51.5114 204.289 -51.747 203.194 C -51.971 202.098 -52.1829 201.005 -52.3816 199.92 C -52.5702 198.83 -52.7465 197.747 -52.9099 196.673 C -53.0634 195.594 -53.2051 194.522 -53.335 193.459 C -53.455 192.392 -53.5636 191.333 -53.661 190.283 C -53.7488 189.229 -53.8256 188.185 -53.8917 187.15 C -53.9485 186.113 -53.9952 185.083 -54.0317 184.064 C -54.0591 183.042 -54.0767 182.031 -54.0853 181.028 C -54.0848 180.025 -54.0753 179.03 -54.0568 178.048 C -54.03 177.063 -53.9946 176.089 -53.9513 175.124 C -53.8995 174.16 -53.8401 173.205 -53.7732 172.262 C -53.6982 171.318 -53.6161 170.384 -53.5272 169.463 C -53.4306 168.542 -53.3275 167.631 -53.2182 166.732 C -53.1017 165.831 -52.9793 164.944 -52.8512 164.069 C -52.7163 163.192 -52.576 162.328 -52.431 161.476 C -52.2792 160.624 -52.1229 159.785 -51.9623 158.957 C -51.7954 158.13 -51.6247 157.316 -51.4502 156.513 C -51.2698 155.711 -51.0861 154.922 -50.8994 154.146 C -50.707 153.37 -50.5121 152.607 -50.3149 151.857 C -50.1121 151.106 -49.9075 150.37 -49.7011 149.646 C -49.4897 148.923 -49.2768 148.212 -49.063 147.516 C -48.8444 146.819 -48.6251 146.136 -48.4051 145.467 C -48.1808 144.797 -47.9564 144.141 -47.7322 143.499 C -47.5037 142.857 -47.2757 142.229 -47.0483 141.614 C -46.8172 140.999 -46.5871 140.399 -46.3583 139.812 C -46.1258 139.224 -45.8949 138.652 -45.666 138.092 C -45.4337 137.533 -45.2036 136.988 -44.9758 136.456 C -44.7451 135.925 -44.5169 135.408 -44.292 134.905 C -44.064 134.401 -43.8391 133.912 -43.618 133.437 C -43.3941 132.961 -43.1737 132.499 -42.9577 132.052 C -42.739 131.604 -42.5247 131.171 -42.3149 130.752 C -42.1027 130.332 -41.8955 129.926 -41.6931 129.535 C -41.4886 129.143 -41.2892 128.765 -41.0954 128.402 C -40.8996 128.038 -40.7094 127.688 -40.5252 127.352 C -40.3393 127.017 -40.1592 126.695 -39.9854 126.387 C -39.8102 126.079 -39.6414 125.785 -39.4792 125.505 C -39.3157 125.225 -39.1589 124.959 -39.0089 124.707 C -38.8578 124.455 -38.7138 124.217 -38.5773 123.993 C -38.4394 123.768 -38.3092 123.558 -38.1861 123.362 C -38.0626 123.165 -37.9467 122.983 -37.8385 122.816 C -37.7294 122.647 -37.6286 122.493 -37.5358 122.353 C -37.4419 122.212 -37.3567 122.087 -37.2797 121.976 C -37.2019 121.863 -37.1326 121.765 -37.0721 121.683 C -37.0106 121.598 -36.9456 121.519 -36.8949 121.457 C -36.8434 121.396 -36.807 121.354 -36.807 121.354 L -36.807 121.354 L -36.807 121.354 L -36.807 121.354 Z"
       sodipodi:nodetypes="cssssssssssssssssssssssssssssssssssssssssssssssssssssssssssssssssccccccccccccccccccccccccccccccccccccccccccccccccccccccccccccccccsssssssssssssssssssssssssssssssssssssssssssssssssssssssssssssssssssssssssssssssssssssssssssssssssssssssssssssssssssssssssssssssccccc" />
    <path
       id="path763"
       style="stroke-width:0.266861"
       d="M 141.415 277.589 C 141.16 277.876 141.403 277.619 141.772 277.222 C 142.145 276.815 142.641 276.266 142.908 275.97 C 143.173 275.675 143.447 275.368 143.731 275.046 C 144.016 274.72 144.306 274.387 144.605 274.04 C 144.904 273.689 145.208 273.331 145.524 272.953 C 145.836 272.577 146.156 272.188 146.483 271.787 C 146.807 271.387 147.141 270.968 147.478 270.543 C 147.815 270.113 148.158 269.671 148.512 269.21 C 148.856 268.758 149.21 268.287 149.569 267.804 C 149.927 267.316 150.29 266.817 150.658 266.305 C 151.02 265.796 151.39 265.269 151.764 264.73 C 152.136 264.187 152.512 263.633 152.894 263.061 C 153.269 262.492 153.648 261.911 154.033 261.312 C 154.41 260.717 154.794 260.103 155.179 259.479 C 155.56 258.852 155.943 258.214 156.33 257.558 C 156.71 256.906 157.093 256.237 157.48 255.552 C 157.859 254.869 158.241 254.17 158.622 253.461 C 158.999 252.748 159.377 252.02 159.755 251.282 C 160.127 250.541 160.497 249.791 160.871 249.017 C 161.236 248.248 161.599 247.471 161.964 246.67 C 162.321 245.874 162.677 245.062 163.032 244.235 C 163.378 243.413 163.723 242.575 164.066 241.722 C 164.402 240.868 164.736 239.998 165.065 239.121 C 165.386 238.243 165.705 237.35 166.02 236.441 C 166.327 235.532 166.629 234.616 166.928 233.679 C 167.217 232.748 167.502 231.803 167.781 230.843 C 168.052 229.883 168.318 228.91 168.577 227.93 C 168.827 226.944 169.071 225.949 169.308 224.942 C 169.536 223.93 169.757 222.911 169.971 221.879 C 170.174 220.848 170.369 219.812 170.558 218.754 C 170.736 217.701 170.905 216.64 171.066 215.566 C 171.216 214.489 171.358 213.406 171.49 212.312 C 171.611 211.219 171.723 210.11 171.825 208.997 C 171.916 207.88 171.996 206.755 172.066 205.619 C 172.125 204.48 172.173 203.334 172.209 202.183 C 172.234 201.029 172.247 199.866 172.248 198.695 C 172.237 197.521 172.214 196.347 172.178 195.16 C 172.13 193.973 172.069 192.787 171.995 191.583 C 171.909 190.39 171.809 189.185 171.695 187.976 C 171.569 186.769 171.429 185.559 171.274 184.341 C 171.107 183.127 170.925 181.907 170.73 180.686 C 170.521 179.467 170.298 178.245 170.06 177.021 C 169.808 175.799 169.54 174.57 169.259 173.345 C 168.964 172.122 168.653 170.893 168.327 169.667 C 167.989 168.449 167.634 167.226 167.263 166 C 166.88 164.786 166.48 163.567 166.065 162.35 C 165.638 161.142 165.195 159.933 164.734 158.723 C 164.26 157.521 163.771 156.32 163.268 155.125 C 162.748 153.933 162.215 152.745 161.667 151.564 C 161.104 150.388 160.526 149.216 159.934 148.049 C 159.328 146.891 158.705 145.735 158.071 144.591 C 157.421 143.451 156.755 142.314 156.075 141.187 C 155.382 140.068 154.678 138.961 153.955 137.855 C 153.222 136.762 152.473 135.675 151.711 134.597 C 150.936 133.53 150.145 132.468 149.345 131.42 C 148.531 130.381 147.702 129.35 146.861 128.329 C 146.01 127.322 145.144 126.322 144.269 125.337 C 143.378 124.359 142.478 123.396 141.563 122.441 C 140.64 121.5 139.704 120.57 138.761 119.656 C 137.806 118.752 136.835 117.857 135.86 116.981 C 134.87 116.112 133.873 115.259 132.867 114.421 C 131.85 113.594 130.826 112.782 129.79 111.983 C 128.747 111.198 127.697 110.428 126.64 109.673 C 125.571 108.93 124.499 108.204 123.412 107.489 L 107.21 98.8867 L 90.0641 93.3722 L 72.545 91.003 L 55.2152 91.7343 L 38.6092 95.4229 L 23.2158 101.837 L 9.46425 110.666 L -2.2855 121.538 L -11.7545 134.029 L -18.7455 147.681 L -23.1531 162.018 L -24.9593 176.574 L -24.2279 190.886 L -21.1016 204.528 L -15.7934 217.113 L -8.57451 228.309 L 0.234251 237.844 L 10.2855 245.52 L 21.2043 251.203 L 32.6145 254.833 L 44.1362 256.416 L 55.4242 256.029 L 66.1506 253.803 L 76.03 249.922 L 84.8218 244.611 L 92.3432 238.124 L 98.4585 230.736 L 103.091 222.733 L 106.218 214.395 L 107.867 205.995 L 108.114 197.784 L 107.073 189.984 L 104.893 182.787 L 101.746 176.34 L 97.8211 170.758 L 93.3167 166.11 L 88.4294 162.426 L 83.3484 159.699 L 78.2496 157.887 L 73.2895 156.92 L 68.6 156.704 L 64.2876 157.129 L 60.4313 158.071 L 57.0817 159.404 L 54.2648 161.001 L 51.9834 162.743 L 50.2197 164.518 L 48.9415 166.23 L 48.1083 167.798 L 47.6723 169.156 L 47.5891 170.26 L 47.8185 171.079 L 48.332 171.604 L 49.1116 171.839 L 50.1567 171.811 L 51.4778 171.561 L 53.0941 171.152 L 55.0306 170.666 L 57.307 170.202 L 59.9261 169.876 L 62.8724 169.812 L 66.104 170.136 L 69.5411 170.966 L 73.081 172.406 C 73.3057 172.527 73.4788 172.621 73.6052 172.688 C 73.7298 172.755 73.8059 172.793 73.8349 172.802 C 73.8639 172.811 73.8441 172.791 73.7807 172.743 C 73.7173 172.696 73.6085 172.622 73.4561 172.522 C 73.3039 172.424 73.11 172.303 72.8726 172.159 C 72.6375 172.02 72.3628 171.862 72.0486 171.688 C 71.7374 171.52 71.3872 171.338 71.0037 171.146 C 70.6259 170.962 70.212 170.77 69.7715 170.574 C 69.3361 170.387 68.8734 170.197 68.3875 170.007 C 67.9117 169.829 67.4157 169.651 66.9041 169.476 C 66.4057 169.312 65.8964 169.151 65.3787 168.994 C 64.8794 168.847 64.3766 168.702 63.8759 168.561 C 63.4001 168.426 62.9295 168.292 62.4696 168.158 C 62.0391 168.026 61.624 167.891 61.2294 167.75 C 60.8701 167.607 60.5373 167.456 60.2333 167.293 C 59.9691 167.123 59.7425 166.939 59.5534 166.739 C 59.4129 166.527 59.3177 166.297 59.2729 166.048 C 59.2824 165.785 59.348 165.503 59.4751 165.202 C 59.6645 164.889 59.9226 164.559 60.2529 164.215 C 60.6555 163.867 61.1366 163.51 61.703 163.15 C 62.3484 162.798 63.0848 162.453 63.9148 162.124 C 64.8289 161.821 65.841 161.548 66.9533 161.315 C 68.15 161.134 69.4469 161.013 70.8415 160.963 C 72.3149 160.996 73.88 161.123 75.5314 161.357 C 77.2452 161.707 79.0309 162.188 80.8787 162.813 C 82.7611 163.586 84.6816 164.524 86.6262 165.638 C 88.5639 166.928 90.492 168.41 92.3916 170.091 C 94.2319 171.964 96.0022 174.042 97.6814 176.327 C 99.2381 178.805 100.657 181.483 101.916 184.356 C 102.984 187.4 103.846 190.619 104.477 193.994 C 104.854 197.499 104.96 201.127 104.776 204.85 C 104.285 208.643 103.473 212.479 102.328 216.33 C 100.842 220.163 99.0071 223.951 96.8223 227.656 C 94.2884 231.244 91.4097 234.681 88.193 237.933 C 84.6518 240.964 80.7968 243.743 76.6575 246.231 C 72.2394 248.407 67.5845 250.234 62.7185 251.686 C 57.6603 252.744 52.4617 253.381 47.1587 253.584 C 41.7741 253.336 36.361 252.629 30.9724 251.46 C 25.6149 249.817 20.3641 247.712 15.2624 245.154 C 10.3219 242.138 5.61223 238.695 1.17666 234.85 C -2.9845 230.594 -6.80449 225.981 -10.2498 221.049 C -13.3187 215.787 -15.9598 210.272 -18.1525 204.548 C -19.9005 198.591 -21.1664 192.507 -21.9468 186.337 C -22.2406 180.053 -22.0396 173.771 -21.3519 167.528 C -20.1711 161.294 -18.5192 155.187 -16.4166 149.245 C -13.8458 143.42 -10.8591 137.83 -7.48943 132.509 C -3.70212 127.401 0.416395 122.618 4.82832 118.181 C 9.58501 114.033 14.5763 110.265 19.7539 106.891 C 25.2017 103.851 30.7687 101.224 36.4187 99.0023 C 42.2491 97.1427 48.0908 95.6906 53.9154 94.6298 C 59.8419 93.9311 65.6895 93.6077 71.4245 93.6376 C 77.1882 94.0119 82.794 94.7088 88.215 95.6999 C 93.6018 97.0017 98.7782 98.5602 103.717 100.341 C 108.58 102.39 113.188 104.618 117.53 106.993 C 121.771 109.588 125.738 112.285 129.425 115.048 C 133.004 117.989 136.303 120.952 139.331 123.908 C 142.249 127 144.904 130.046 147.305 133.017 C 149.604 136.083 151.66 139.038 153.494 141.867 C 155.239 144.754 156.78 147.49 158.123 150.039 C 159.401 152.631 160.505 155.023 161.445 157.19 C 162.342 159.388 163.093 161.345 163.714 163.052 C 164.305 164.769 164.783 166.226 165.153 167.406 C 165.509 168.589 165.771 169.491 165.942 170.097 C 166.111 170.708 166.195 171.017 166.195 171.017 C 166.526 172.27 166.844 173.527 167.143 174.774 C 167.428 176.028 167.697 177.274 167.949 178.513 C 168.188 179.759 168.412 181.003 168.619 182.234 C 168.814 183.477 168.992 184.707 169.156 185.931 C 169.306 187.154 169.442 188.375 169.563 189.585 C 169.671 190.796 169.767 192.009 169.848 193.204 C 169.916 194.404 169.971 195.596 170.013 196.776 C 170.043 197.961 170.061 199.137 170.066 200.3 C 170.059 201.473 170.04 202.628 170.01 203.772 C 169.968 204.924 169.915 206.058 169.851 207.186 C 169.776 208.315 169.69 209.432 169.595 210.535 C 169.488 211.644 169.372 212.741 169.247 213.824 C 169.111 214.906 168.966 215.981 168.813 217.042 C 168.649 218.1 168.477 219.152 168.298 220.187 C 168.109 221.221 167.912 222.246 167.708 223.261 C 167.496 224.268 167.275 225.272 167.049 226.259 C 166.814 227.244 166.573 228.218 166.327 229.174 C 166.072 230.134 165.811 231.084 165.547 232.015 C 165.273 232.951 164.996 233.866 164.712 234.778 C 164.422 235.685 164.13 236.574 163.832 237.457 C 163.527 238.335 163.222 239.194 162.911 240.048 C 162.594 240.896 162.273 241.738 161.952 242.56 C 161.623 243.384 161.293 244.195 160.964 244.984 C 160.625 245.782 160.288 246.559 159.948 247.329 C 159.604 248.093 159.257 248.85 158.91 249.592 C 158.56 250.328 158.211 251.049 157.86 251.763 C 157.506 252.47 157.15 253.169 156.797 253.852 C 156.438 254.536 156.081 255.205 155.728 255.858 C 155.369 256.511 155.01 257.156 154.655 257.784 C 154.298 258.406 153.939 259.025 153.588 259.621 C 153.231 260.218 152.877 260.805 152.528 261.376 C 152.171 261.953 151.823 262.508 151.478 263.052 C 151.128 263.596 150.782 264.13 150.442 264.648 C 150.099 265.165 149.759 265.672 149.423 266.168 C 149.088 266.658 148.756 267.137 148.433 267.6 C 148.103 268.068 147.782 268.52 147.465 268.961 C 147.146 269.401 146.836 269.825 146.532 270.238 C 146.221 270.657 145.92 271.058 145.629 271.443 C 145.332 271.833 145.041 272.213 144.761 272.575 C 144.479 272.937 144.203 273.289 143.935 273.629 C 143.666 273.969 143.403 274.297 143.152 274.609 C 142.896 274.927 142.652 275.227 142.415 275.517 C 142.173 275.812 141.943 276.09 141.722 276.357 C 141.5 276.624 141.286 276.88 141.085 277.119 C 140.879 277.363 140.682 277.597 140.498 277.814 C 140.314 278.031 140.134 278.243 139.963 278.443 C 139.796 278.638 139.639 278.822 139.491 278.995 C 139.343 279.168 139.204 279.33 139.075 279.482 C 138.945 279.633 138.831 279.768 138.725 279.893 C 138.615 280.023 138.52 280.137 138.429 280.246 C 138.343 280.349 138.267 280.442 138.201 280.524 C 138.135 280.607 138.083 280.673 138.042 280.73 C 137.995 280.792 137.964 280.838 137.942 280.874 C 137.92 280.91 137.913 280.931 137.916 280.941 C 137.918 280.952 137.93 280.953 137.953 280.944 C 137.979 280.93 138.015 280.906 138.061 280.872 C 138.112 280.833 138.171 280.784 138.24 280.726 C 138.309 280.669 138.392 280.596 138.488 280.508 C 138.579 280.427 138.684 280.33 138.803 280.219 C 138.92 280.109 139.046 279.989 139.19 279.85 C 139.329 279.716 139.48 279.569 139.644 279.407 C 139.807 279.245 139.982 279.07 140.17 278.88 C 140.355 278.691 140.797 278.226 141.127 277.877 C 141.454 277.53 141.673 277.296 141.42 277.584 L 141.42 277.584 L 141.42 277.584 L 141.42 277.584 Z"
       sodipodi:nodetypes="sssssssssssssssssssssssssssssssssssssssssssssssssssssssssssssssssccccccccccccccccccccccccccccccccccccccccccccccccccccccccccccccccsssssssssssssssssssssssssssssssssssssssssssssssssssssssssssssssssssssssssssssssssssssssssssssssssssssssssssssssssssssssssssssssscccs" />
    <path
       id="path972"
       style="stroke-width:0.264583"
       d="M 10.0851 122.888 C 10.1776 122.801 9.7967 123.134 9.29629 123.579 C 8.80316 124.025 8.1937 124.587 7.80883 124.948 C 7.42724 125.309 7.04011 125.682 6.65304 126.059 C 6.26757 126.44 5.87834 126.831 5.4851 127.231 C 5.09573 127.633 4.70705 128.04 4.31233 128.46 C 3.9236 128.879 3.53408 129.306 3.14281 129.74 C 2.75168 130.182 2.3626 130.628 1.97231 131.081 C 1.58255 131.542 1.19247 132.011 0.80274 132.487 C 0.419621 132.961 0.0327117 133.449 -0.3534 133.944 C -0.736464 134.443 -1.11847 134.949 -1.49965 135.463 C -1.87905 135.984 -2.2553 136.509 -2.6299 137.041 C -3.00078 137.577 -3.3716 138.123 -3.74211 138.679 C -4.10486 139.233 -4.46704 139.796 -4.82986 140.373 C -5.18502 140.948 -5.53737 141.529 -5.88977 142.123 C -6.23575 142.718 -6.58003 143.322 -6.92082 143.933 C -7.25499 144.544 -7.58779 145.167 -7.91696 145.797 C -8.23927 146.427 -8.55803 147.065 -8.8742 147.713 C -9.18443 148.365 -9.48898 149.019 -9.79055 149.685 C -10.0858 150.353 -10.3763 151.027 -10.6627 151.711 C -10.9416 152.394 -11.2154 153.084 -11.4853 153.785 C -11.7468 154.482 -12.0043 155.193 -12.2556 155.907 C -12.4992 156.62 -12.7379 157.345 -12.9696 158.072 C -13.1948 158.804 -13.4131 159.539 -13.6253 160.283 C -13.83 161.029 -14.028 161.781 -14.2189 162.536 C -14.402 163.293 -14.5781 164.057 -14.7471 164.827 C -14.908 165.598 -15.0613 166.372 -15.2072 167.154 C -15.3446 167.934 -15.4745 168.724 -15.5962 169.514 C -15.7096 170.305 -15.8147 171.1 -15.9116 171.9 C -15.9999 172.701 -16.0797 173.505 -16.151 174.313 C -16.2135 175.122 -16.2673 175.933 -16.312 176.751 C -16.3479 177.565 -16.375 178.383 -16.393 179.202 C -16.4015 180.025 -16.4013 180.845 -16.3915 181.672 C -16.3723 182.498 -16.3444 183.323 -16.3063 184.155 C -16.2588 184.987 -16.2017 185.82 -16.1348 186.657 C -16.0584 187.491 -15.9722 188.327 -15.8752 189.168 C -15.7695 190.004 -15.653 190.844 -15.5263 191.684 C -15.3901 192.521 -15.2428 193.362 -15.0853 194.203 C -14.9194 195.037 -14.741 195.877 -14.5538 196.712 C -14.357 197.543 -14.1488 198.376 -13.9293 199.211 C -13.7015 200.038 -13.4623 200.866 -13.2132 201.691 C -12.9547 202.512 -12.6863 203.329 -12.4066 204.146 C -12.1174 204.958 -11.8186 205.766 -11.5084 206.574 C -11.1889 207.376 -10.86 208.173 -10.5218 208.966 C -10.1723 209.756 -9.81576 210.538 -9.44813 211.317 C -9.07145 212.09 -8.68353 212.862 -8.28916 213.623 C -7.88357 214.382 -7.46935 215.134 -7.04671 215.88 C -6.61522 216.62 -6.17549 217.352 -5.72503 218.081 C -5.26855 218.8 -4.80407 219.512 -4.32921 220.219 C -3.84845 220.917 -3.35734 221.611 -2.86153 222.293 C -2.35742 222.969 -1.84306 223.64 -1.3244 224.3 C -0.797664 224.953 -0.263815 225.598 0.273892 226.231 C 0.822514 226.861 1.37485 227.48 1.93387 228.09 C 2.50052 228.693 3.07063 229.285 3.647 229.869 C 4.22768 230.443 4.81459 231.008 5.40757 231.565 C 6.00458 232.112 6.60425 232.648 7.20977 233.176 C 7.82247 233.697 8.43412 234.204 9.05133 234.703 C 9.67563 235.195 10.2985 235.673 10.9268 236.144 C 11.5549 236.603 12.1884 237.053 12.8235 237.493 C 13.4618 237.924 14.1017 238.345 14.7431 238.756 C 15.3837 239.155 16.0295 239.547 16.6729 239.927 C 17.319 240.298 17.9664 240.66 18.6113 241.01 C 19.2589 241.352 19.9075 241.685 20.5497 242.005 C 21.1981 242.318 21.8439 242.621 22.4868 242.913 C 23.1283 243.196 23.7708 243.471 24.4104 243.735 L 33.6178 246.666 L 42.8236 248.072 L 51.7882 248.04 L 60.2992 246.691 L 68.1714 244.175 L 75.264 240.665 L 81.4684 236.348 L 86.7199 231.414 L 90.9872 226.055 L 94.2736 220.456 L 96.6156 214.786 L 98.074 209.197 L 98.7323 203.82 L 98.6893 198.767 L 98.056 194.122 L 96.948 189.941 L 95.4834 186.265 L 93.7747 183.106 L 91.931 180.465 L 90.0478 178.321 L 88.2109 176.645 L 86.4958 175.402 L 84.959 174.549 L 83.648 174.047 L 82.5936 173.856 L 81.8204 173.947 L 81.3335 174.294 L 81.1336 174.886 L 81.2082 175.721 L 81.5296 176.802 L 82.0666 178.15 L 82.7689 179.786 L 83.5761 181.735 L 84.4171 184.024 L 85.2037 186.67 L 85.8403 189.682 L 86.2225 193.053 L 86.2386 196.751 L 85.7806 200.724 L 84.7462 204.896 L 83.0454 209.163 L 80.6081 213.398 L 77.3891 217.454 L 73.3748 221.166 L 68.5872 224.362 L 63.0844 226.869 L 56.9669 228.517 L 50.3709 229.156 L 43.4715 228.657 L 36.4727 226.922 L 29.6066 223.897 L 23.1218 219.568 L 17.2714 213.972 L 12.3138 207.201 L 8.49021 199.398 L 6.0191 190.756 L 5.08408 181.513 L 5.82574 171.948 L 8.33261 162.374 L 12.6324 153.125 L 18.6897 144.542 L 26.404 136.963 L 35.602 130.717 L 46.0568 126.093 C 46.805 125.847 47.3728 125.667 47.7688 125.544 C 48.1652 125.423 48.385 125.357 48.4355 125.34 C 48.4822 125.324 48.3629 125.356 48.0704 125.44 C 47.7848 125.523 47.3332 125.658 46.7235 125.848 C 46.1184 126.042 45.3578 126.297 44.4549 126.613 C 43.5559 126.944 42.5188 127.344 41.3505 127.821 C 40.1995 128.316 38.92 128.901 37.5318 129.574 C 36.1695 130.275 34.7037 131.078 33.1492 131.986 C 31.6298 132.933 30.0345 133.995 28.3767 135.177 C 26.7705 136.403 25.1189 137.754 23.4322 139.239 C 21.817 140.769 20.1855 142.435 18.5575 144.235 C 17.0161 146.083 15.4968 148.065 14.0155 150.179 C 12.6392 152.339 11.3215 154.624 10.076 157.034 C 8.95646 159.472 7.9283 162.024 7.00561 164.68 C 6.22384 167.352 5.56322 170.112 5.03622 172.948 C 4.66163 175.774 4.4311 178.66 4.35421 181.594 C 4.43399 184.485 4.6731 187.404 5.07597 190.33 C 5.63197 193.186 6.35175 196.03 7.23586 198.843 C 8.2603 201.556 9.44111 204.216 10.7736 206.808 C 12.2292 209.278 13.8221 211.659 15.5451 213.939 C 17.3637 216.076 19.2924 218.097 21.3235 219.994 C 23.4148 221.734 25.5857 223.341 27.8225 224.809 C 30.0841 226.118 32.3901 227.286 34.7242 228.312 C 37.0504 229.186 39.3828 229.923 41.7097 230.525 C 43.9969 230.992 46.2598 231.335 48.4849 231.561 C 50.6465 231.674 52.7568 231.685 54.8061 231.602 C 56.776 231.435 58.674 231.193 60.4966 230.885 C 62.2279 230.524 63.8795 230.116 65.4474 229.67 C 66.9199 229.202 68.3101 228.715 69.6141 228.219 C 70.8275 227.726 71.9571 227.242 73.0045 226.774 C 73.9688 226.329 74.8534 225.916 75.6619 225.537 C 76.3917 225.204 77.049 224.916 77.6348 224.679 C 78.1482 224.499 78.5933 224.377 78.97 224.317 C 79.2798 224.318 79.5199 224.388 79.6947 224.521 C 79.8003 224.722 79.8356 224.991 79.8021 225.324 C 79.6955 225.723 79.5163 226.184 79.2611 226.705 C 78.9273 227.283 78.5106 227.919 78.0132 228.6 C 77.4259 229.331 76.7524 230.098 75.9856 230.901 C 75.1223 231.734 74.1626 232.587 73.1078 233.451 C 71.9473 234.326 70.685 235.198 69.3255 236.057 C 67.8542 236.902 66.2831 237.717 64.6158 238.494 C 62.8394 239.228 60.9696 239.905 59.0127 240.516 C 56.9511 241.058 54.8086 241.516 52.5969 241.883 C 50.2937 242.154 47.9284 242.319 45.5156 242.371 C 43.0304 242.305 40.5118 242.115 37.97 241.799 C 35.3805 241.346 32.7849 240.76 30.2021 240.04 C 27.5973 239.174 25.0181 238.172 22.4839 237.041 C 19.9529 235.758 17.4808 234.347 15.0807 232.817 C 12.716 231.141 10.4371 229.353 8.25832 227.466 C 6.13199 225.439 4.1205 223.328 2.22602 221.142 C 0.406251 218.832 -1.28473 216.466 -2.847 214.056 C -4.31884 211.542 -5.65804 209 -6.86089 206.45 C -7.9669 203.816 -8.94041 201.187 -9.78274 198.582 C -10.5262 195.912 -11.1445 193.282 -11.6443 190.706 C -12.0491 188.081 -12.3436 185.527 -12.538 183.051 C -12.644 180.548 -12.6614 178.135 -12.6004 175.827 C -12.4624 173.502 -12.2598 171.292 -12.004 169.2 C -11.6846 167.103 -11.3263 165.131 -10.941 163.294 C -10.5059 161.457 -10.058 159.756 -9.60952 158.201 C -9.12437 156.648 -8.65162 155.24 -8.20126 153.979 C -7.72731 152.724 -7.28748 151.617 -6.89104 150.661 C -6.48267 149.714 -6.12587 148.914 -5.83192 148.274 C -5.53088 147.634 -5.29803 147.15 -5.13968 146.825 C -4.98034 146.503 -4.89833 146.338 -4.89833 146.338 C -4.58468 145.713 -4.26801 145.096 -3.94756 144.484 C -3.624 143.88 -3.29802 143.284 -2.97168 142.7 C -2.63888 142.115 -2.3053 141.541 -1.97095 140.977 C -1.6327 140.417 -1.29292 139.864 -0.953305 139.322 C -0.609052 138.782 -0.262924 138.249 0.0793895 137.731 C 0.428089 137.212 0.778149 136.699 1.12363 136.202 C 1.47524 135.704 1.82639 135.215 2.1735 134.738 C 2.52779 134.26 2.87976 133.792 3.23077 133.331 C 3.58363 132.876 3.93382 132.43 4.28359 131.991 C 4.63877 131.552 4.98819 131.126 5.3353 130.708 C 5.68898 130.288 6.03747 129.881 6.38196 129.482 C 6.73282 129.082 7.07791 128.693 7.41846 128.315 C 7.76367 127.936 8.10686 127.563 8.44504 127.2 C 8.78637 126.839 9.12372 126.486 9.45554 126.142 C 9.7916 125.799 10.1235 125.463 10.4477 125.138 C 10.7776 124.812 11.1043 124.492 11.4229 124.183 C 11.7455 123.873 12.0629 123.572 12.3735 123.28 C 12.6893 122.986 12.9995 122.701 13.3009 122.425 C 13.609 122.147 13.9113 121.876 14.2043 121.616 C 14.5022 121.354 14.7923 121.101 15.0776 120.854 C 15.3645 120.608 15.6464 120.368 15.92 120.137 C 16.1966 119.905 16.4663 119.681 16.7307 119.463 C 16.9998 119.242 17.2582 119.032 17.5094 118.829 C 17.7651 118.624 18.0116 118.428 18.2523 118.237 C 18.4974 118.044 18.7313 117.861 18.9592 117.683 C 19.1897 117.505 19.4104 117.335 19.6285 117.168 C 19.8437 117.004 20.0525 116.845 20.2567 116.691 C 20.4597 116.538 20.6544 116.392 20.8424 116.251 C 21.0346 116.107 21.2165 115.972 21.388 115.845 C 21.5672 115.712 21.7322 115.59 21.8922 115.471 C 22.0563 115.351 22.2078 115.239 22.3525 115.132 C 22.4973 115.025 22.6388 114.92 22.7677 114.825 C 22.8987 114.728 23.0206 114.637 23.1336 114.552 C 23.2505 114.465 23.3565 114.384 23.4571 114.307 C 23.556 114.232 23.6496 114.16 23.7321 114.095 C 23.8186 114.027 23.8903 113.969 23.9604 113.911 C 24.0287 113.855 24.0879 113.805 24.136 113.761 C 24.1881 113.714 24.2329 113.673 24.2648 113.638 C 24.3025 113.601 24.3273 113.571 24.3449 113.545 C 24.3627 113.519 24.3733 113.498 24.3749 113.481 C 24.3748 113.467 24.3657 113.457 24.3496 113.451 C 24.3355 113.444 24.3107 113.443 24.277 113.448 C 24.2436 113.453 24.2015 113.462 24.1524 113.476 C 24.1018 113.491 24.0426 113.511 23.9766 113.534 C 23.9074 113.561 23.8314 113.591 23.7471 113.626 C 23.6651 113.66 23.5691 113.702 23.4687 113.747 C 23.3689 113.792 23.2571 113.845 23.1373 113.903 C 23.0183 113.96 22.8911 114.023 22.7525 114.093 C 22.6185 114.16 22.4749 114.234 22.3181 114.317 C 22.1676 114.396 22.0062 114.482 21.8355 114.575 C 21.6661 114.667 21.4856 114.767 21.2981 114.872 C 21.11 114.979 20.9152 115.09 20.7097 115.209 C 20.5094 115.325 20.297 115.45 20.0764 115.582 C 19.8554 115.715 19.6249 115.856 19.388 116.002 C 19.153 116.147 18.9068 116.302 18.6565 116.46 C 18.4029 116.623 18.1441 116.789 17.8761 116.965 C 17.6085 117.142 17.3305 117.328 17.0459 117.52 C 16.764 117.712 16.4736 117.912 16.1769 118.119 C 15.8778 118.33 15.5727 118.547 15.2599 118.773 C 14.947 119.001 14.6286 119.235 14.3009 119.48 C 13.9755 119.725 13.6432 119.978 13.3041 120.24 C 12.9637 120.507 12.6188 120.779 12.2667 121.061 C 11.9147 121.347 11.3208 121.839 10.8372 122.247 C 10.3622 122.654 9.99558 122.972 10.088 122.885 L 10.088 122.885 L 10.088 122.885 L 10.088 122.885 Z"
       sodipodi:nodetypes="sssssssssssssssssssssssssssssssssssssssssssssssssssssssssssssssssccccccccccccccccccccccccccccccccccccccccccccccccccccccccccccccccsssssssssssssssssssssssssssssssssssssssssssssssssssssssssssssssssssssssssssssssssssssssssssssssssssssssssssssssssssssssssssssssscccs" />
    <path
       id="path974"
       style="stroke-width:0.264583"
       d="M 96.2668 165.707 C 96.3921 165.839 96.5543 165.977 96.7227 166.114 C 96.892 166.254 97.0681 166.395 97.2168 166.524 C 97.3661 166.655 97.5108 166.782 97.6507 166.905 C 97.7911 167.03 97.9271 167.151 98.0583 167.267 C 98.1901 167.385 98.3173 167.499 98.4405 167.61 C 98.5638 167.721 98.683 167.828 98.7979 167.931 C 98.9133 168.035 99.0243 168.135 99.1312 168.231 C 99.2391 168.328 99.3416 168.419 99.4415 168.508 C 99.542 168.599 99.6371 168.683 99.7292 168.763 C 99.8225 168.847 99.9105 168.923 99.9961 168.997 C 100.082 169.072 100.163 169.141 100.241 169.205 C 100.32 169.272 100.393 169.333 100.464 169.389 C 100.536 169.447 100.604 169.501 100.668 169.55 C 100.733 169.6 100.794 169.645 100.852 169.686 C 100.911 169.728 100.965 169.765 101.016 169.797 C 101.068 169.83 101.117 169.86 101.162 169.883 C 101.208 169.908 101.25 169.929 101.289 169.945 C 101.328 169.961 101.365 169.974 101.398 169.981 C 101.431 169.99 101.461 169.994 101.488 169.993 C 101.515 169.994 101.539 169.989 101.56 169.98 C 101.581 169.971 101.599 169.959 101.614 169.941 C 101.63 169.925 101.642 169.904 101.651 169.878 C 101.66 169.853 101.666 169.824 101.669 169.79 C 101.673 169.757 101.673 169.72 101.67 169.678 C 101.667 169.637 101.661 169.591 101.652 169.541 C 101.644 169.492 101.632 169.438 101.617 169.38 C 101.602 169.323 101.584 169.261 101.563 169.195 C 101.542 169.13 101.518 169.061 101.49 168.986 C 101.464 168.914 101.433 168.836 101.399 168.755 C 101.366 168.674 101.33 168.59 101.289 168.5 C 101.25 168.412 101.207 168.32 101.16 168.223 C 101.114 168.128 101.064 168.028 101.011 167.924 C 100.958 167.821 100.903 167.715 100.844 167.606 C 100.786 167.498 100.725 167.386 100.661 167.272 C 100.597 167.158 100.531 167.041 100.461 166.921 C 100.392 166.802 100.319 166.68 100.244 166.554 C 100.168 166.43 100.09 166.302 100.008 166.171 C 99.9268 166.042 99.8419 165.909 99.7534 165.773 C 99.6654 165.638 99.5742 165.5 99.4788 165.358 C 99.3842 165.219 99.2857 165.075 99.1833 164.929 C 99.0814 164.784 98.9757 164.636 98.8658 164.484 C 98.7564 164.334 98.643 164.18 98.5254 164.024 C 98.4083 163.869 98.2867 163.71 98.1611 163.549 C 98.0357 163.389 97.9056 163.226 97.7713 163.06 C 97.6372 162.895 97.4986 162.728 97.3551 162.557 C 97.212 162.387 97.0642 162.215 96.9111 162.04 C 96.7588 161.866 96.601 161.69 96.4382 161.51 C 96.2759 161.332 96.1081 161.152 95.935 160.968 C 95.7618 160.786 95.5835 160.602 95.3996 160.414 C 95.2154 160.229 95.0259 160.041 94.8304 159.85 C 94.6351 159.661 94.4341 159.469 94.2267 159.275 C 94.0193 159.083 93.8063 158.889 93.5861 158.692 C 93.3667 158.497 93.1407 158.3 92.9076 158.101 C 92.6746 157.904 92.4353 157.705 92.1889 157.503 C 91.9425 157.305 91.6892 157.104 91.4289 156.901 C 91.1688 156.701 90.901 156.5 90.6254 156.296 C 90.3503 156.096 90.0677 155.894 89.7774 155.69 C 89.4866 155.49 89.1886 155.288 88.8825 155.085 C 88.5759 154.885 88.2615 154.685 87.9394 154.483 C 87.6162 154.285 87.2854 154.087 86.9461 153.887 C 86.606 153.692 86.2577 153.496 85.9014 153.3 C 85.5438 153.108 85.1781 152.917 84.8035 152.725 C 84.4284 152.538 84.0449 152.351 83.6517 152.165 C 83.2579 151.984 82.8561 151.803 82.4448 151.624 L 76.5496 149.56 L 70.7245 148.371 L 65.0961 147.974 L 59.7636 148.272 L 54.8056 149.156 L 50.2735 150.516 L 46.1998 152.236 L 42.5931 154.208 L 39.4437 156.332 L 36.7312 158.512 L 34.42 160.669 L 32.4705 162.73 L 30.8367 164.64 L 29.4744 166.344 L 28.3388 167.808 L 27.3914 168.998 L 26.5992 169.891 L 25.9365 170.47 L 25.3872 170.718 L 24.9438 170.626 L 24.6087 170.188 L 24.3935 169.403 L 24.3202 168.268 L 24.4185 166.793 L 24.7265 164.99 L 25.2896 162.874 L 26.1564 160.478 L 27.3788 157.84 L 29.0137 155.003 L 31.1099 152.032 L 33.7155 149 L 36.8704 145.991 L 40.6076 143.098 L 44.9379 140.432 L 49.8606 138.107 L 55.36 136.241 L 61.3906 134.958 L 67.8867 134.381 L 74.7656 134.624 L 81.9097 135.793 L 89.1799 137.977 L 96.426 141.248 L 103.466 145.65 L 110.107 151.195 L 116.156 157.873 L 121.4 165.623 L 125.64 174.359 L 128.68 183.948 L 130.345 194.222 L 130.479 204.979 L 128.962 215.98 L 125.71 226.963 L 120.682 237.636 L 113.888 247.702 L 105.388 256.857 L 95.3 264.795 L 83.7951 271.228 L 71.1003 275.891 L 57.4915 278.555 L 43.2877 279.035 L 28.8492 277.195 L 14.5667 272.965 L 0.845287 266.337 L -11.9014 257.377 C -12.7978 256.62 -13.455 256.054 -13.8845 255.678 C -14.3125 255.3 -14.5131 255.122 -14.5044 255.131 C -14.4926 255.144 -14.2661 255.348 -13.8299 255.737 C -13.3912 256.124 -12.7383 256.689 -11.8751 257.421 C -11.0034 258.142 -9.91425 259.02 -8.60905 260.037 C -7.28874 261.03 -5.74313 262.149 -3.9736 263.372 C -2.18081 264.553 -0.156492 265.819 2.10056 267.148 C 4.38586 268.41 6.90844 269.711 9.66724 271.025 C 12.4556 272.243 15.4826 273.447 18.7398 274.608 C 22.0249 275.643 25.5391 276.603 29.269 277.462 C 33.0145 278.161 36.9661 278.725 41.1102 279.128 C 45.2462 279.339 49.5556 279.355 54.0126 279.153 C 58.4287 278.731 62.9654 278.063 67.6 277.126 C 72.1448 275.949 76.7463 274.484 81.3714 272.716 C 85.8565 270.699 90.3197 268.368 94.7266 265.717 C 98.9323 262.822 103.028 259.613 106.982 256.085 C 110.669 252.343 114.159 248.305 117.419 243.98 C 120.354 239.485 123.009 234.74 125.352 229.768 C 127.322 224.691 128.942 219.434 130.189 214.029 C 131.028 208.601 131.469 203.088 131.497 197.528 C 131.109 192.04 130.302 186.573 129.071 181.167 C 127.444 175.936 125.408 170.833 122.972 165.905 C 120.187 161.246 117.038 156.826 113.549 152.684 C 109.784 148.889 105.728 145.423 101.422 142.318 C 96.9351 139.62 92.2601 137.314 87.4389 135.422 C 82.5519 133.966 77.592 132.935 72.6056 132.336 C 67.6705 132.168 62.7824 132.42 57.9875 133.085 C 53.3498 134.142 48.8755 135.578 44.5966 137.374 C 40.5674 139.494 36.7938 141.92 33.2982 144.625 C 30.1173 147.564 27.2538 150.715 24.7232 154.042 C 22.5404 157.5 20.7031 161.067 19.2157 164.701 C 18.0766 168.366 17.2789 172.03 16.8129 175.662 C 16.6666 179.229 16.8242 182.703 17.268 186.06 C 17.9773 189.274 18.9307 192.327 20.1029 195.197 C 21.4702 197.873 23.0068 200.343 24.6842 202.594 C 26.4793 204.626 28.3661 206.436 30.3141 208.02 C 32.3072 209.386 34.3168 210.537 36.3179 211.478 C 38.3004 212.225 40.2369 212.784 42.1095 213.169 C 43.9163 213.396 45.6315 213.478 47.2458 213.431 C 48.7618 213.27 50.1628 213.012 51.443 212.673 C 52.6097 212.265 53.6525 211.807 54.5696 211.312 C 55.3733 210.79 56.0563 210.255 56.6228 209.72 C 57.0835 209.188 57.4347 208.672 57.6846 208.18 C 57.8393 207.711 57.9016 207.274 57.8764 206.873 C 57.7696 206.501 57.5838 206.166 57.3257 205.864 C 56.9944 205.589 56.598 205.341 56.142 205.116 C 55.6205 204.904 55.0449 204.703 54.422 204.506 C 53.7416 204.303 53.0213 204.089 52.2648 203.86 C 51.4652 203.602 50.6393 203.314 49.7987 202.992 C 48.9267 202.624 48.0503 202.213 47.1767 201.757 C 46.2913 201.242 45.4219 200.679 44.5761 200.071 C 43.7369 199.399 42.9311 198.682 42.1677 197.927 C 41.4254 197.112 40.7329 196.263 40.0938 195.389 C 39.4874 194.461 38.9395 193.517 38.4499 192.565 C 38.0012 191.569 37.6129 190.575 37.2818 189.591 C 36.994 188.575 36.7618 187.578 36.5821 186.608 C 36.4429 185.616 36.3513 184.66 36.3007 183.745 C 36.2867 182.816 36.3078 181.936 36.3574 181.109 C 36.4367 180.275 36.5377 179.499 36.6531 178.783 C 36.7914 178.067 36.9367 177.413 37.0827 176.827 C 37.2442 176.24 37.4 175.722 37.5443 175.275 C 37.6975 174.828 37.8338 174.453 37.9481 174.151 C 38.0666 173.849 38.1596 173.621 38.223 173.468 C 38.2878 173.315 38.3211 173.238 38.3211 173.238 C 38.4639 172.9 38.6116 172.564 38.7638 172.228 C 38.9216 171.894 39.0839 171.561 39.251 171.229 C 39.4235 170.899 39.6007 170.569 39.7823 170.242 C 39.9696 169.916 40.1611 169.592 40.3573 169.27 C 40.5588 168.949 40.7648 168.631 40.9752 168.315 C 41.191 168.001 41.4108 167.688 41.6352 167.379 C 41.8647 167.072 42.0983 166.767 42.3363 166.465 C 42.5791 166.166 42.8261 165.869 43.0771 165.575 C 43.3331 165.284 43.5931 164.995 43.8568 164.71 C 44.1253 164.428 44.3976 164.149 44.6736 163.873 C 44.9542 163.6 45.2384 163.331 45.5261 163.065 C 45.8184 162.803 46.114 162.543 46.4129 162.288 C 46.7163 162.036 47.0227 161.788 47.332 161.543 C 47.6459 161.302 47.9626 161.065 48.2819 160.832 C 48.6056 160.603 48.9318 160.378 49.2606 160.157 C 49.5936 159.939 49.9287 159.726 50.2665 159.517 C 50.6079 159.312 50.9514 159.111 51.2971 158.915 C 51.6463 158.722 51.9977 158.534 52.3506 158.351 C 52.7073 158.171 53.0655 157.996 53.4252 157.825 C 53.7884 157.658 54.1528 157.496 54.5186 157.339 C 54.8876 157.185 55.2576 157.037 55.6289 156.893 C 56.0029 156.753 56.378 156.618 56.7538 156.487 C 57.1325 156.36 57.5117 156.238 57.8915 156.121 C 58.274 156.008 58.6566 155.899 59.0397 155.796 C 59.4251 155.696 59.8107 155.601 60.1963 155.511 C 60.5843 155.425 60.9722 155.343 61.3597 155.266 C 61.7495 155.194 62.1386 155.126 62.5274 155.062 C 62.9182 155.002 63.3082 154.947 63.6976 154.896 C 64.089 154.85 64.4793 154.808 64.8686 154.771 C 65.2596 154.737 65.6496 154.708 66.0381 154.683 C 66.4284 154.662 66.8173 154.646 67.2048 154.633 C 67.5936 154.625 67.9808 154.62 68.3664 154.62 C 68.7534 154.624 69.1384 154.632 69.5215 154.643 C 69.9057 154.659 70.2882 154.678 70.6684 154.701 C 71.0496 154.728 71.429 154.759 71.8057 154.793 C 72.1835 154.831 72.5586 154.873 72.9317 154.917 C 73.3052 154.966 73.6764 155.019 74.045 155.074 C 74.4141 155.133 74.7806 155.195 75.1441 155.26 C 75.5082 155.329 75.8696 155.401 76.2282 155.475 C 76.5869 155.554 76.943 155.635 77.2955 155.718 C 77.6491 155.805 77.9987 155.895 78.3455 155.987 C 78.6927 156.083 79.0364 156.18 79.3768 156.28 C 79.7177 156.384 80.0551 156.49 80.389 156.597 C 80.7231 156.708 81.0533 156.82 81.3802 156.935 C 81.7074 157.053 82.0308 157.172 82.3504 157.292 C 82.6706 157.417 82.9865 157.542 83.2988 157.668 C 83.6111 157.798 83.92 157.929 84.2247 158.061 C 84.5294 158.196 84.8307 158.332 85.1277 158.469 C 85.4247 158.608 85.7179 158.749 86.0071 158.889 C 86.2967 159.034 86.5814 159.178 86.8626 159.322 C 87.1437 159.47 87.4209 159.617 87.694 159.765 C 87.9672 159.916 88.2361 160.066 88.5008 160.216 C 88.7661 160.369 89.0267 160.522 89.2832 160.674 C 89.54 160.829 89.7924 160.983 90.0407 161.137 C 90.2892 161.293 90.5334 161.449 90.7734 161.603 C 91.0136 161.76 91.2495 161.917 91.4814 162.072 C 91.7133 162.229 91.941 162.386 92.1646 162.541 C 92.3883 162.698 92.6078 162.854 92.823 163.008 C 93.0388 163.165 93.2499 163.32 93.4572 163.473 C 93.6646 163.629 93.8676 163.782 94.0669 163.934 C 94.2661 164.088 94.4611 164.24 94.6525 164.39 C 94.8438 164.541 95.0312 164.691 95.2142 164.838 C 95.3974 164.987 95.5967 165.137 95.7825 165.283 C 95.9691 165.433 96.1417 165.578 96.2675 165.708 L 96.2675 165.708 L 96.2677 165.709 L 96.2677 165.709 Z"
       sodipodi:nodetypes="sssssssssssssssssssssssssssssssssssssssssssssssssssssssssssssssssccccccccccccccccccccccccccccccccccccccccccccccccccccccccccccccccsssssssssssssssssssssssssssssssssssssssssssssssssssssssssssssssssssssssssssssssssssssssssssssssssssssssssssssssssssssssssssssssscccs" />
    <path
       id="path976"
       style="stroke-width:0.183855"
       d="M 112.605 238.317 C 112.573 238.345 112.431 238.536 112.262 238.765 C 112.093 238.992 111.897 239.257 111.76 239.433 C 111.623 239.609 111.487 239.781 111.355 239.948 C 111.221 240.115 111.091 240.278 110.962 240.435 C 110.833 240.594 110.706 240.747 110.582 240.896 C 110.457 241.045 110.335 241.19 110.215 241.331 C 110.095 241.47 109.977 241.606 109.862 241.739 C 109.746 241.87 109.632 241.998 109.522 242.121 C 109.411 242.245 109.302 242.366 109.197 242.48 C 109.09 242.596 108.986 242.708 108.885 242.816 C 108.784 242.924 108.684 243.028 108.588 243.128 C 108.491 243.229 108.398 243.324 108.307 243.417 C 108.214 243.51 108.125 243.599 108.039 243.684 C 107.952 243.77 107.868 243.852 107.787 243.93 C 107.704 244.009 107.625 244.084 107.549 244.155 C 107.471 244.227 107.397 244.296 107.326 244.36 C 107.254 244.425 107.185 244.486 107.119 244.544 C 107.052 244.602 106.987 244.658 106.926 244.71 C 106.864 244.761 106.804 244.81 106.749 244.855 C 106.692 244.9 106.637 244.943 106.586 244.982 C 106.534 245.022 106.485 245.057 106.439 245.09 C 106.392 245.123 106.348 245.153 106.306 245.18 C 106.264 245.208 106.226 245.231 106.189 245.252 C 106.152 245.274 106.117 245.292 106.086 245.307 C 106.054 245.323 106.025 245.335 105.998 245.345 C 105.97 245.355 105.946 245.362 105.925 245.365 C 105.902 245.37 105.883 245.372 105.866 245.369 C 105.847 245.37 105.833 245.364 105.821 245.357 C 105.81 245.349 105.799 245.341 105.791 245.328 C 105.783 245.316 105.778 245.301 105.775 245.283 C 105.77 245.268 105.769 245.248 105.773 245.222 C 105.776 245.197 105.778 245.175 105.784 245.146 C 105.789 245.119 105.799 245.087 105.807 245.056 C 105.816 245.025 105.828 244.99 105.834 244.961 C 105.845 244.928 105.857 244.892 105.869 244.857 C 105.881 244.821 105.894 244.785 105.915 244.738 C 105.931 244.698 105.951 244.654 105.97 244.61 C 105.988 244.568 106.011 244.52 106.032 244.473 C 106.053 244.428 106.077 244.377 106.104 244.324 C 106.127 244.276 106.156 244.219 106.185 244.163 C 106.215 244.106 106.245 244.05 106.278 243.988 C 106.311 243.928 106.345 243.865 106.383 243.799 C 106.418 243.736 106.458 243.666 106.499 243.595 C 106.539 243.524 106.582 243.451 106.628 243.375 C 106.672 243.3 106.72 243.22 106.769 243.138 C 106.819 243.056 106.871 242.971 106.925 242.882 C 106.979 242.794 107.036 242.703 107.096 242.607 C 107.154 242.513 107.216 242.414 107.281 242.311 C 107.344 242.21 107.411 242.105 107.481 241.995 C 107.55 241.887 107.622 241.774 107.697 241.656 C 107.771 241.54 107.848 241.419 107.929 241.294 C 108.008 241.169 108.091 241.039 108.177 240.906 C 108.262 240.772 108.35 240.635 108.442 240.492 C 108.532 240.349 108.626 240.202 108.724 240.049 C 108.82 239.898 108.92 239.74 109.023 239.578 C 109.125 239.416 109.231 239.249 109.339 239.076 C 109.447 238.904 109.558 238.726 109.673 238.542 C 109.786 238.36 109.903 238.17 110.024 237.974 C 110.143 237.78 110.265 237.579 110.391 237.371 C 110.516 237.165 110.644 236.952 110.776 236.731 C 110.906 236.512 111.04 236.286 111.177 236.053 C 111.312 235.82 111.451 235.58 111.593 235.334 C 111.734 235.087 111.878 234.833 112.025 234.572 C 112.17 234.311 112.319 234.043 112.471 233.766 L 114.337 230.085 L 115.9 226.468 L 117.183 222.939 L 118.206 219.521 L 118.995 216.232 L 119.572 213.089 L 119.961 210.103 L 120.186 207.289 L 120.268 204.651 L 120.231 202.198 L 120.094 199.934 L 119.879 197.863 L 119.601 195.984 L 119.28 194.3 L 118.929 192.809 L 118.564 191.511 L 118.196 190.404 L 117.835 189.486 L 117.491 188.755 L 117.169 188.208 L 116.877 187.844 L 116.618 187.66 L 116.394 187.657 L 116.205 187.831 L 116.05 188.181 L 115.926 188.708 L 115.829 189.411 L 115.751 190.289 L 115.685 191.342 L 115.623 192.57 L 115.552 193.972 L 115.46 195.548 L 115.332 197.296 L 115.154 199.215 L 114.908 201.3 L 114.575 203.548 L 114.137 205.954 L 113.573 208.509 L 112.861 211.205 L 111.981 214.03 L 110.91 216.971 L 109.626 220.009 L 108.109 223.127 L 106.337 226.303 L 104.291 229.511 L 101.955 232.721 L 99.3098 235.906 L 96.3457 239.029 L 93.0511 242.054 L 89.4207 244.942 L 85.4529 247.65 L 81.1517 250.134 L 76.5207 252.353 L 71.5739 254.258 L 66.3334 255.804 L 60.8236 256.944 L 55.0733 257.636 L 49.1191 257.837 L 43.0063 257.508 L 36.7848 256.612 L 30.5134 255.12 L 24.2471 253.005 L 18.0567 250.249 L 12.0126 246.84 C 11.5276 246.535 11.1797 246.312 10.9605 246.17 C 10.745 246.029 10.6616 245.973 10.7056 246 C 10.7523 246.029 10.9205 246.137 11.2175 246.326 C 11.5141 246.513 11.9331 246.775 12.4802 247.11 C 13.0234 247.438 13.6944 247.833 14.4884 248.289 C 15.2816 248.731 16.2012 249.228 17.2408 249.769 C 18.2869 250.292 19.4525 250.851 20.7429 251.44 C 22.0343 251.999 23.4487 252.577 24.9838 253.165 C 26.5209 253.714 28.1759 254.261 29.9455 254.797 C 31.7211 255.284 33.6036 255.747 35.5967 256.177 C 37.587 256.546 39.6789 256.871 41.8678 257.141 C 44.051 257.34 46.3212 257.472 48.673 257.531 C 51.011 257.508 53.423 257.4 55.896 257.2 C 58.3388 256.912 60.8376 256.523 63.3787 256.027 C 65.8792 255.436 68.4066 254.734 70.9536 253.915 C 73.4429 253 75.9363 251.966 78.4234 250.81 C 80.8359 249.562 83.2249 248.194 85.5826 246.704 C 87.8479 245.129 90.0678 243.436 92.227 241.632 C 94.2818 239.751 96.264 237.766 98.1653 235.679 C 99.9474 233.534 101.637 231.297 103.227 228.978 C 104.688 226.618 106.041 224.189 107.28 221.696 C 108.385 219.185 109.371 216.626 110.235 214.03 C 110.965 211.435 111.572 208.817 112.054 206.187 C 112.408 203.58 112.639 200.976 112.75 198.381 C 112.743 195.831 112.621 193.306 112.387 190.814 C 112.049 188.382 111.609 185.994 111.072 183.659 C 110.447 181.396 109.736 179.194 108.946 177.058 C 108.088 175.004 107.162 173.022 106.177 171.114 C 105.144 169.293 104.063 167.55 102.944 165.887 C 101.795 164.309 100.62 162.811 99.4249 161.393 C 98.2197 160.057 97.0068 158.797 95.7927 157.614 C 94.5839 156.506 93.3847 155.469 92.2006 154.501 C 91.0354 153.6 89.8942 152.761 88.7807 151.983 C 87.6983 151.262 86.6504 150.594 85.641 149.977 C 84.6718 149.407 83.7445 148.88 82.8663 148.394 C 82.0316 147.946 81.248 147.532 80.5151 147.15 C 79.834 146.796 79.2058 146.47 78.631 146.167 C 78.1113 145.886 77.6465 145.625 77.2398 145.383 C 76.8852 145.157 76.5882 144.946 76.3475 144.749 C 76.1631 144.565 76.0321 144.394 75.9592 144.234 C 75.9386 144.086 75.9729 143.949 76.0606 143.823 C 76.2028 143.708 76.3971 143.606 76.6393 143.515 C 76.9344 143.437 77.2762 143.372 77.6652 143.322 C 78.103 143.286 78.5865 143.267 79.1089 143.264 C 79.6763 143.28 80.2834 143.314 80.9257 143.369 C 81.611 143.445 82.3275 143.543 83.0703 143.663 C 83.8542 143.809 84.6626 143.979 85.49 144.174 C 86.3516 144.397 87.2281 144.646 88.1188 144.921 C 89.0363 145.227 89.9638 145.56 90.895 145.918 C 91.8483 146.31 92.8035 146.727 93.7522 147.167 C 94.7181 147.642 95.678 148.14 96.6236 148.657 C 97.5814 149.209 98.5231 149.78 99.4454 150.366 C 100.378 150.987 101.284 151.62 102.164 152.262 C 103.048 152.935 103.903 153.615 104.726 154.296 C 105.549 155.006 106.338 155.714 107.093 156.418 C 107.843 157.143 108.557 157.86 109.232 158.563 C 109.904 159.286 110.536 159.991 111.125 160.671 C 111.712 161.369 112.258 162.039 112.761 162.676 C 113.261 163.326 113.717 163.938 114.133 164.51 C 114.547 165.093 114.918 165.63 115.247 166.118 C 115.572 166.61 115.86 167.053 116.105 167.438 C 116.347 167.827 116.551 168.158 116.714 168.426 C 116.876 168.696 116.998 168.901 117.08 169.04 C 117.161 169.178 117.202 169.249 117.202 169.249 C 117.387 169.574 117.571 169.902 117.752 170.232 C 117.933 170.565 118.113 170.901 118.292 171.242 C 118.468 171.583 118.645 171.929 118.818 172.275 C 118.99 172.626 119.161 172.979 119.331 173.336 C 119.497 173.692 119.663 174.054 119.827 174.417 C 119.989 174.783 120.15 175.152 120.307 175.521 C 120.463 175.894 120.617 176.27 120.769 176.648 C 120.919 177.028 121.067 177.409 121.213 177.794 C 121.357 178.182 121.498 178.57 121.636 178.96 C 121.773 179.353 121.907 179.747 122.038 180.143 C 122.168 180.542 122.296 180.942 122.419 181.343 C 122.542 181.747 122.661 182.153 122.777 182.558 C 122.891 182.966 123.003 183.376 123.112 183.788 C 123.218 184.2 123.322 184.613 123.422 185.029 C 123.521 185.447 123.616 185.864 123.709 186.283 C 123.799 186.704 123.885 187.124 123.97 187.547 C 124.051 187.971 124.13 188.396 124.205 188.819 C 124.278 189.244 124.348 189.671 124.415 190.098 C 124.479 190.528 124.54 190.956 124.599 191.386 C 124.653 191.814 124.706 192.246 124.756 192.677 C 124.802 193.108 124.846 193.539 124.886 193.971 C 124.924 194.402 124.959 194.835 124.99 195.266 C 125.019 195.699 125.045 196.132 125.068 196.564 C 125.088 196.996 125.106 197.43 125.12 197.86 C 125.131 198.293 125.14 198.725 125.145 199.156 C 125.147 199.586 125.147 200.018 125.144 200.448 C 125.138 200.878 125.13 201.307 125.118 201.735 C 125.104 202.164 125.086 202.589 125.066 203.015 C 125.043 203.443 125.018 203.867 124.99 204.291 C 124.959 204.714 124.925 205.138 124.889 205.558 C 124.85 205.979 124.808 206.398 124.764 206.817 C 124.717 207.235 124.668 207.65 124.616 208.064 C 124.561 208.479 124.504 208.89 124.445 209.302 C 124.383 209.711 124.319 210.12 124.252 210.525 C 124.183 210.931 124.112 211.335 124.038 211.737 C 123.962 212.139 123.884 212.536 123.803 212.934 C 123.721 213.329 123.636 213.725 123.549 214.116 C 123.46 214.509 123.369 214.897 123.276 215.282 C 123.181 215.669 123.084 216.051 122.985 216.432 C 122.883 216.813 122.781 217.189 122.676 217.565 C 122.569 217.939 122.461 218.31 122.351 218.678 C 122.24 219.046 122.126 219.411 122.011 219.774 C 121.895 220.136 121.777 220.493 121.657 220.85 C 121.536 221.205 121.413 221.557 121.289 221.905 C 121.164 222.253 121.037 222.599 120.909 222.941 C 120.779 223.282 120.649 223.62 120.517 223.955 C 120.384 224.289 120.25 224.62 120.115 224.947 C 119.978 225.276 119.841 225.599 119.703 225.92 C 119.564 226.239 119.424 226.554 119.284 226.867 C 119.141 227.18 118.998 227.49 118.856 227.795 C 118.711 228.1 118.567 228.4 118.421 228.698 C 118.275 228.995 118.128 229.289 117.982 229.579 C 117.833 229.87 117.685 230.154 117.537 230.436 C 117.387 230.719 117.238 230.996 117.089 231.27 C 116.938 231.545 116.788 231.815 116.638 232.082 C 116.487 232.349 116.336 232.611 116.185 232.869 C 116.034 233.126 115.883 233.381 115.732 233.632 C 115.58 233.882 115.429 234.13 115.278 234.372 C 115.127 234.615 114.976 234.854 114.826 235.089 C 114.674 235.324 114.524 235.555 114.375 235.781 C 114.224 236.008 114.074 236.232 113.926 236.451 C 113.776 236.67 113.628 236.885 113.481 237.097 C 113.332 237.309 113.13 237.601 112.956 237.846 C 112.781 238.093 112.635 238.291 112.603 238.319 L 112.603 238.319 L 112.603 238.319 L 112.603 238.319 Z"
       sodipodi:nodetypes="sssssssssssssssssssssssssssssssssssssssssssssssssssssssssssssssssccccccccccccccccccccccccccccccccccccccccccccccccccccccccccccccccsssssssssssssssssssssssssssssssssssssssssssssssssssssssssssssssssssssssssssssssssssssssssssssssssssssssssssssssssssssssssssssssscccs" />
    <path
       id="path978"
       style="stroke-width:0.171853"
       d="M -36.4905 233.353 C -36.3898 233.523 -36.4527 233.402 -36.5532 233.213 C -36.6534 233.023 -36.7903 232.766 -36.8364 232.671 C -36.8839 232.574 -36.9251 232.488 -36.9617 232.41 C -36.9983 232.332 -37.0294 232.263 -37.0557 232.203 C -37.0821 232.142 -37.1033 232.091 -37.1193 232.048 C -37.1349 232.006 -37.1461 231.972 -37.1525 231.947 C -37.1593 231.921 -37.1604 231.905 -37.1561 231.899 C -37.1535 231.89 -37.1451 231.891 -37.1317 231.9 C -37.1183 231.91 -37.1007 231.927 -37.0777 231.954 C -37.0553 231.98 -37.0284 232.014 -36.9954 232.058 C -36.9633 232.101 -36.9263 232.153 -36.885 232.212 C -36.8432 232.272 -36.797 232.339 -36.7455 232.416 C -36.6947 232.491 -36.6395 232.574 -36.5789 232.666 C -36.5181 232.758 -36.4528 232.858 -36.3825 232.966 C -36.3124 233.073 -36.2381 233.188 -36.1579 233.312 C -36.0787 233.434 -35.9944 233.564 -35.905 233.703 C -35.8152 233.841 -35.7208 233.987 -35.6224 234.139 C -35.5232 234.292 -35.4188 234.453 -35.3095 234.621 C -35.2012 234.787 -35.0867 234.962 -34.9681 235.144 C -34.8487 235.325 -34.7248 235.513 -34.5953 235.709 C -34.4664 235.904 -34.3315 236.106 -34.1924 236.315 C -34.0524 236.523 -33.9069 236.739 -33.7575 236.961 C -33.6068 237.182 -33.4509 237.411 -33.2901 237.645 C -33.1289 237.879 -32.9625 238.119 -32.7907 238.366 C -32.6189 238.612 -32.4404 238.865 -32.2583 239.123 C -32.0744 239.381 -31.8854 239.645 -31.6911 239.915 C -31.4963 240.184 -31.2964 240.458 -31.09 240.739 C -30.8831 241.019 -30.6712 241.304 -30.4537 241.595 C -30.2346 241.886 -30.0101 242.182 -29.7799 242.483 C -29.5497 242.782 -29.3127 243.087 -29.0703 243.398 C -28.8265 243.708 -28.5778 244.021 -28.3229 244.341 C -28.0662 244.659 -27.8051 244.981 -27.5371 245.309 C -27.2675 245.635 -26.993 245.965 -26.7126 246.3 C -26.4311 246.633 -26.1425 246.971 -25.8502 247.311 C -25.5545 247.651 -25.2536 247.995 -24.9483 248.341 C -24.6391 248.687 -24.3255 249.036 -24.0062 249.388 C -23.6839 249.74 -23.3564 250.094 -23.0224 250.452 C -22.6878 250.807 -22.3463 251.166 -21.9988 251.528 C -21.6503 251.887 -21.294 252.251 -20.9321 252.617 C -20.5698 252.98 -20.1992 253.347 -19.8235 253.715 C -19.4451 254.083 -19.0606 254.452 -18.6703 254.823 C -18.2781 255.192 -17.8787 255.564 -17.4728 255.938 C -17.0647 256.309 -16.6509 256.682 -16.2291 257.058 C -15.8077 257.43 -15.3781 257.804 -14.9412 258.18 C -14.5037 258.553 -14.0579 258.928 -13.6066 259.304 C -13.1527 259.677 -12.6916 260.052 -12.224 260.427 C -11.7551 260.799 -11.2779 261.173 -10.795 261.547 C -10.3101 261.917 -9.81609 262.29 -9.31648 262.662 C -8.81494 263.031 -8.30615 263.4 -7.79017 263.77 C -7.27185 264.136 -6.74774 264.502 -6.21526 264.868 C -5.68005 265.231 -5.13973 265.592 -4.59068 265.954 C -4.03849 266.313 -3.48001 266.671 -2.91575 267.027 C -2.34755 267.38 -1.77226 267.732 -1.18946 268.084 C -0.606762 268.43 -0.0147111 268.776 0.584117 269.121 C 1.1852 269.461 1.79342 269.8 2.41075 270.138 C 3.02812 270.47 3.65236 270.801 4.28549 271.13 C 4.92107 271.455 5.56328 271.777 6.21249 272.097 C 6.86396 272.412 7.52123 272.724 8.18844 273.034 C 8.85547 273.339 9.53251 273.641 10.2147 273.94 C 10.8982 274.234 11.5907 274.524 12.2902 274.812 C 12.9908 275.094 13.7002 275.372 14.4157 275.647 C 15.1325 275.916 15.8558 276.181 16.5873 276.442 C 17.3229 276.697 18.0621 276.948 18.809 277.195 C 19.5598 277.435 20.3137 277.671 21.0786 277.902 L 32.0703 280.48 L 43.1505 281.71 L 54.1528 281.609 L 64.9195 280.214 L 75.305 277.579 L 85.1661 273.774 L 94.3731 268.888 L 102.814 263.018 L 110.383 256.283 L 117.002 248.796 L 122.596 240.694 L 127.116 232.109 L 130.527 223.183 L 132.813 214.053 L 133.976 204.859 L 134.032 195.735 L 133.016 186.813 L 130.976 178.218 L 127.976 170.064 L 124.092 162.457 L 119.406 155.483 L 114.021 149.232 L 108.032 143.762 L 101.552 139.13 L 94.6945 135.373 L 87.5725 132.515 L 80.3034 130.563 L 72.9939 129.512 L 65.7551 129.343 L 58.6961 130.022 L 51.9079 131.507 L 45.4814 133.742 L 39.4981 136.662 L 34.0261 140.196 L 29.1263 144.262 L 24.8453 148.776 L 21.22 153.648 L 18.2709 158.794 L 16.0117 164.118 L 14.4419 169.534 L 13.5506 174.954 L 13.3161 180.297 L 13.707 185.483 L 14.6822 190.44 L 16.1952 195.111 L 18.1898 199.434 L 20.6058 203.364 L 23.381 206.865 L 26.4476 209.91 L 29.7373 212.478 L 33.1826 214.562 L 36.7161 216.161 L 40.2738 217.286 L 43.7944 217.954 L 47.2211 218.189 L 50.5035 218.023 L 53.5961 217.493 L 56.4606 216.641 L 59.0664 215.514 L 61.39 214.159 L 63.4154 212.625 L 65.1324 210.964 L 66.5402 209.223 L 67.6452 207.451 C 67.6987 207.338 67.7412 207.251 67.7729 207.189 C 67.8043 207.126 67.8262 207.089 67.839 207.074 C 67.8514 207.061 67.8546 207.07 67.8489 207.103 C 67.8429 207.136 67.8271 207.192 67.8025 207.271 C 67.7764 207.351 67.7407 207.453 67.6929 207.579 C 67.6438 207.705 67.5824 207.854 67.5083 208.025 C 67.4303 208.198 67.3375 208.394 67.2294 208.612 C 67.1151 208.831 66.9832 209.073 66.8319 209.337 C 66.6726 209.602 66.4915 209.889 66.2865 210.197 C 66.0707 210.505 65.8281 210.834 65.5577 211.182 C 65.2724 211.53 64.956 211.896 64.6068 212.278 C 64.2391 212.657 63.8343 213.051 63.3911 213.457 C 62.9262 213.857 62.4188 214.267 61.867 214.683 C 61.2903 215.089 60.6663 215.498 59.9921 215.906 C 59.2905 216.297 58.5371 216.683 57.7302 217.059 C 56.893 217.411 56.0005 217.747 55.0527 218.062 C 54.0736 218.344 53.0378 218.598 51.9458 218.818 C 50.8238 218.995 49.6466 219.13 48.4155 219.217 C 47.1583 219.25 45.8489 219.227 44.4919 219.14 C 43.1145 218.989 41.6935 218.766 40.234 218.465 C 38.7638 218.087 37.2622 217.624 35.7355 217.069 C 34.2112 216.428 32.6714 215.688 31.1241 214.844 C 29.5959 213.908 28.0709 212.86 26.5612 211.703 C 25.0893 210.446 23.6455 209.075 22.2399 207.588 C 20.8954 206.003 19.6056 204.302 18.3802 202.487 C 17.2389 200.577 16.1799 198.557 15.2142 196.434 C 14.3561 194.224 13.6079 191.918 12.9793 189.521 C 12.4818 187.054 12.1199 184.513 11.9017 181.901 C 11.835 179.243 11.9255 176.534 12.1797 173.785 C 12.6015 171.016 13.1971 168.227 13.9697 165.434 C 14.9201 162.654 16.0523 159.892 17.3694 157.159 C 18.8662 154.477 20.5457 151.853 22.4072 149.297 C 24.4436 146.828 26.6533 144.458 29.0325 142.196 C 31.5747 140.056 34.274 138.05 37.1195 136.192 C 40.1057 134.491 43.2224 132.957 46.4552 131.602 C 49.8026 130.432 53.2428 129.458 56.7655 128.686 C 60.3638 128.123 64.0175 127.774 67.7071 127.644 C 71.4356 127.736 75.178 128.052 78.9093 128.593 C 82.6359 129.362 86.3321 130.355 89.9724 131.567 C 93.5673 133.004 97.0868 134.655 100.506 136.51 C 103.843 138.579 107.058 140.839 110.138 143.28 C 113.099 145.914 115.908 148.715 118.546 151.66 C 121.038 154.776 123.348 158.02 125.465 161.372 C 127.414 164.867 129.162 168.447 130.705 172.096 C 132.059 175.848 133.207 179.648 134.147 183.475 C 134.892 187.373 135.429 191.276 135.764 195.161 C 135.903 199.088 135.845 202.976 135.598 206.814 C 135.162 210.658 134.547 214.431 133.765 218.117 C 132.804 221.786 131.69 225.357 130.435 228.813 C 129.019 232.225 127.477 235.519 125.827 238.677 C 124.032 241.778 122.147 244.739 120.186 247.555 C 118.101 250.303 115.96 252.901 113.776 255.351 C 111.492 257.721 109.181 259.946 106.864 262.019 C 104.464 264.014 102.073 265.864 99.7038 267.572 C 97.2723 269.204 94.8797 270.699 92.5415 272.06 C 90.1526 273.355 87.8293 274.526 85.5871 275.577 C 83.3093 276.569 81.1176 277.454 79.033 278.234 C 76.9219 278.966 74.92 279.607 73.0404 280.162 C 71.1434 280.679 69.3752 281.121 67.7435 281.496 C 66.1009 281.842 64.6023 282.13 63.2501 282.369 C 61.8942 282.587 60.6938 282.763 59.6494 282.903 C 58.6059 283.031 57.7251 283.13 57.0135 283.203 C 56.3009 283.271 55.7625 283.319 55.3985 283.349 C 55.0371 283.378 54.8496 283.392 54.8496 283.392 C 54.0577 283.448 53.265 283.497 52.4713 283.539 C 51.6756 283.574 50.8832 283.602 50.0901 283.624 C 49.2954 283.639 48.5008 283.647 47.7097 283.648 C 46.9173 283.643 46.125 283.63 45.3333 283.612 C 44.5442 283.586 43.7557 283.554 42.9682 283.515 C 42.1798 283.469 41.3926 283.417 40.607 283.358 C 39.8241 283.293 39.043 283.222 38.2638 283.144 C 37.4806 283.059 36.703 282.968 35.9313 282.871 C 35.1559 282.767 34.3832 282.658 33.6133 282.542 C 32.8433 282.419 32.0801 282.291 31.3166 282.157 C 30.5533 282.017 29.7965 281.87 29.0405 281.718 C 28.2849 281.56 27.5335 281.396 26.786 281.227 C 26.039 281.051 25.2969 280.87 24.5561 280.684 C 23.8191 280.491 23.0834 280.294 22.3534 280.091 C 21.6242 279.882 20.9002 279.669 20.1814 279.45 C 19.4609 279.226 18.7462 278.997 18.037 278.763 C 17.3293 278.524 16.625 278.28 15.9237 278.031 C 15.2266 277.777 14.5331 277.519 13.8462 277.257 C 13.1611 276.989 12.4798 276.718 11.8024 276.441 C 11.1298 276.161 10.4587 275.876 9.79503 275.588 C 9.13288 275.294 8.47867 274.998 7.82632 274.697 C 7.17839 274.393 6.53295 274.084 5.89562 273.772 C 5.2605 273.456 4.63079 273.138 4.00656 272.816 C 3.38149 272.488 2.76515 272.159 2.15492 271.828 C 1.5471 271.492 0.944962 271.154 0.349053 270.813 C -0.246906 270.468 -0.834012 270.121 -1.41729 269.772 C -1.99797 269.419 -2.57173 269.064 -3.13856 268.708 C -3.70563 268.347 -4.26375 267.986 -4.81676 267.623 C -5.36702 267.256 -5.91303 266.887 -6.4514 266.518 C -6.98696 266.146 -7.51535 265.773 -8.03834 265.399 C -8.55893 265.022 -9.07404 264.643 -9.58139 264.265 C -10.0863 263.884 -10.5851 263.502 -11.0788 263.12 C -11.5694 262.734 -12.0523 262.35 -12.531 261.965 C -13.0051 261.577 -13.4729 261.191 -13.9349 260.804 C -14.3958 260.414 -14.8488 260.025 -15.2955 259.637 C -15.7395 259.247 -16.1771 258.858 -16.6097 258.469 C -17.0382 258.078 -17.4616 257.689 -17.8766 257.301 C -18.2908 256.911 -18.6985 256.522 -19.0991 256.136 C -19.4975 255.747 -19.8903 255.36 -20.2768 254.974 C -20.6602 254.587 -21.0369 254.203 -21.4083 253.82 C -21.777 253.436 -22.139 253.055 -22.4951 252.676 C -22.849 252.295 -23.1958 251.918 -23.5371 251.543 C -23.8777 251.165 -24.2107 250.792 -24.5367 250.422 C -24.8619 250.05 -25.18 249.683 -25.4921 249.318 C -25.8035 248.951 -26.1081 248.589 -26.4063 248.23 C -26.7022 247.871 -26.9925 247.515 -27.2768 247.164 C -27.5592 246.811 -27.8355 246.462 -28.1058 246.118 C -28.3757 245.772 -28.638 245.432 -28.8944 245.096 C -29.1502 244.759 -29.4 244.426 -29.6437 244.099 C -29.8855 243.771 -30.1214 243.448 -30.3524 243.13 C -30.5816 242.811 -30.8048 242.497 -31.0216 242.19 C -31.2382 241.881 -31.4487 241.578 -31.6544 241.28 C -31.8572 240.983 -32.0563 240.689 -32.2478 240.404 C -32.4392 240.117 -32.6258 239.836 -32.8047 239.563 C -32.9851 239.286 -33.159 239.017 -33.3266 238.755 C -33.494 238.492 -33.6566 238.235 -33.8128 237.986 C -33.9681 237.736 -34.1193 237.492 -34.263 237.257 C -34.4084 237.018 -34.5468 236.789 -34.6803 236.566 C -34.8126 236.344 -34.9414 236.127 -35.0626 235.92 C -35.185 235.71 -35.3021 235.508 -35.4134 235.314 C -35.5248 235.119 -35.6293 234.934 -35.7303 234.754 C -35.8302 234.575 -35.9257 234.403 -36.0155 234.239 C -36.1051 234.076 -36.274 233.77 -36.3956 233.547 C -36.5168 233.323 -36.5907 233.182 -36.4908 233.352 L -36.4908 233.352 L -36.4905 233.353 L -36.4905 233.353 Z"
       sodipodi:nodetypes="sssssssssssssssssssssssssssssssssssssssssssssssssssssssssssssssssccccccccccccccccccccccccccccccccccccccccccccccccccccccccccccccccsssssssssssssssssssssssssssssssssssssssssssssssssssssssssssssssssssssssssssssssssssssssssssssssssssssssssssssssssssssssssssssssscccs" />
  </g>
</svg>
