<?xml version="1.0" encoding="UTF-8" standalone="no"?>
<svg
   id="Layer_1"
   viewBox="0 0 284.96 112.06"
   version="1.1"
   sodipodi:docname="Swirl5.svg"
   inkscape:version="1.2.2 (b0a8486541, 2022-12-01)"
   xmlns:inkscape="http://www.inkscape.org/namespaces/inkscape"
   xmlns:sodipodi="http://sodipodi.sourceforge.net/DTD/sodipodi-0.dtd"
   xmlns="http://www.w3.org/2000/svg"
   xmlns:svg="http://www.w3.org/2000/svg">
  <sodipodi:namedview
     id="namedview3168"
     pagecolor="#ffffff"
     bordercolor="#000000"
     borderopacity="0.25"
     inkscape:showpageshadow="2"
     inkscape:pageopacity="0.0"
     inkscape:pagecheckerboard="0"
     inkscape:deskcolor="#d1d1d1"
     showgrid="false"
     inkscape:zoom="0.77668595"
     inkscape:cx="283.89853"
     inkscape:cy="258.1481"
     inkscape:window-width="1064"
     inkscape:window-height="948"
     inkscape:window-x="5128"
     inkscape:window-y="964"
     inkscape:window-maximized="0"
     inkscape:current-layer="Layer_1" />
  <defs
     id="defs3157">
    <style
       id="style3134">
      .cls-1 {
        fill:url(#CubeHelix);
      }
    </style>
    <linearGradient
       id="CubeHelix"
       x1="0%"
       y1="0"
       x2="100%"
       y2="0"
       gradientUnits="userSpaceOnUse">
      <stop
         offset="0"
         stop-color="#502047"
         id="stop3136" />
      <stop
         offset=".11"
         stop-color="#403c75"
         id="stop3138" />
      <stop
         offset=".22"
         stop-color="#276770"
         id="stop3140" />
      <stop
         offset=".33"
         stop-color="#398247"
         id="stop3142" />
      <stop
         offset=".44"
         stop-color="#7b8038"
         id="stop3144" />
      <stop
         offset=".56"
         stop-color="#bb7368"
         id="stop3146" />
      <stop
         offset=".67"
         stop-color="#c57cb7"
         id="stop3148" />
      <stop
         offset=".78"
         stop-color="#a5a1e1"
         id="stop3150" />
      <stop
         offset=".89"
         stop-color="#92cad3"
         id="stop3152" />
      <stop
         offset="1"
         stop-color="#aedeb7"
         id="stop3154" />
    </linearGradient>
  </defs>
  <path
     class="cls-1"
     d="m 64.278312,51.463533 c 0,6.833989 -4.540908,10.473693 -8.133567,10.473693 -1.202005,0 -1.909851,-0.687217 -1.909851,-2.277997 0,-2.048924 -2.871457,-3.868776 -6.450761,-3.868776 -3.579303,0 -22.704536,5.472283 -22.704536,15.258759 0,5.472282 33.94996,10.473693 33.94996,22.092748 0,9.57013 -12.674474,17.9949 -30.116901,17.9949 -18.884831,0 -26.7779971,-7.06307 -26.7779971,-13.438907 0,-8.195697 9.8030171,-10.931838 11.9532711,-10.931838 2.390654,0 2.631055,1.361707 2.631055,2.277997 0,5.472281 5.26211,8.424768 12.914875,8.424768 4.300506,0 9.081815,-0.916288 9.081815,-5.014137 0,-6.375845 -38.25046754,-10.702765 -38.25046754,-26.419668 0,-17.765828 32.50755454,-32.80824 44.70122654,-32.80824 13.622722,0 19.125234,9.341058 19.125234,18.223971 z"
     id="path3159"
     style="fill:#000000;fill-opacity:1;stroke:none;stroke-width:1.30371" />
  <path
     class="cls-1"
     d="M 115.68406,85.63348 C 114.48205,79.486708 114.255,73.327209 114.255,67.867653 c 0,-20.043824 7.17197,-33.482731 12.91488,-33.482731 7.89317,0 18.16363,8.653842 18.16363,15.487831 0,6.83399 -2.87145,14.813341 -7.17196,22.550892 0.48079,10.931838 2.87146,19.585679 5.26211,19.585679 8.60101,0 22.47749,-27.794101 22.47749,-40.774863 0,-11.389983 -4.54091,-12.306271 -4.54091,-14.81334 0,-3.423358 4.06011,-6.375845 8.60101,-6.375845 7.89317,0 19.60605,6.833989 19.60605,13.667978 0,27.794103 -35.13862,67.423606 -51.40575,67.423606 -9.56262,0 -15.30553,-5.91771 -18.88484,-13.897052 -8.36061,8.195692 -16.73458,13.897052 -22.237086,13.897052 -21.275487,0 -25.575993,-27.335958 -25.575993,-43.96915 0,-19.356607 7.412363,-32.80824 12.914874,-32.80824 12.914875,0 19.125235,5.9177 19.125235,9.799202 0,2.048925 -8.373969,8.42477 -8.373969,28.48132 0,12.306271 2.150254,24.370744 6.450759,24.370744 3.81971,0 9.32221,-4.785065 14.10353,-11.389982 z"
     id="path3161"
     style="fill:#000000;fill-opacity:1;stroke:none;stroke-width:1.30371" />
  <path
     class="cls-1"
     d="m 222.30189,-5.486379 c -8.37397,0 -18.17699,9.3410582 -18.17699,18.898463 0,9.557404 9.33558,12.764416 15.78634,12.764416 10.28382,0 23.18534,-9.799203 23.18534,-20.043824 0,-6.15949898 -12.90152,-11.619055 -20.79469,-11.619055 z"
     id="path3163"
     style="fill:#000000;fill-opacity:1;stroke:none;stroke-width:1.30371" />
  <path
     class="cls-1"
     d="m 381.03332,72.194573 c 0,5.230484 -19.83309,38.955007 -36.56767,38.955007 -14.49083,0 -23.43908,-14.698799 -25.56263,-26.037876 -7.2521,11.46634 -20.48751,26.037876 -35.88653,26.037876 -8.36061,0 -18.40402,-7.52121 -18.40402,-16.633187 0,-4.785064 1.42905,-10.931837 2.87145,-16.175047 -2.29717,-0.547229 -6.41069,-1.794399 -10.51086,-4.097849 -3.0718,8.959272 -20.87482,36.906083 -36.11358,36.906083 -11.23206,0 -24.61439,-6.15949 -24.61439,-19.598399 0,-28.697665 8.60102,-57.408057 12.90153,-57.408057 8.61436,0 20.56764,9.341058 20.56764,14.584268 0,2.277996 -2.87146,5.014138 -4.07346,7.521206 -3.5793,6.604918 -7.87982,20.731041 -7.87982,33.940874 0,3.868777 2.15026,6.833991 4.30052,6.833991 6.46411,0 18.96496,-11.860854 28.36731,-27.730472 -3.28548,-3.372453 -5.66279,-7.852088 -5.66279,-13.731609 0,-7.292135 9.32222,-26.877814 15.30554,-26.877814 5.98332,0 10.04341,8.42477 10.04341,13.438907 0,3.181559 -3.35226,12.75169 -5.5025,18.682116 l 7.65276,1.819852 c 1.66945,-4.097848 7.17196,-15.716903 10.75126,-15.716903 4.54091,0 17.45579,9.786477 17.45579,13.667979 0,1.819852 -2.87146,6.375844 -5.50251,8.653841 -4.06011,7.292134 -8.60102,17.536755 -8.60102,24.599816 0,2.507069 1.90985,3.194287 3.11186,3.194287 6.91821,0 20.51422,-13.578896 30.26381,-31.115651 4.394,-31.942855 18.48417,-97.368441 28.06014,-97.368441 7.89317,0 22.9583,9.341058 22.9583,20.960113 0,13.6679781 -12.91488,44.64364 -25.34895,64.471118 -2.63106,11.619054 -3.33891,20.947387 -3.33891,29.843026 0,5.917701 2.15026,12.293545 5.96996,12.293545 5.50251,0 19.36564,-13.667978 28.92825,-32.121022 0,0 4.06011,3.194285 4.06011,8.208422 z"
     id="path3165"
     style="fill:#000000;fill-opacity:1;stroke:none;stroke-width:1.30371" />
</svg>
