%TF.GenerationSoftware,KiCad,Pcbnew,6.0.11-2627ca5db0~126~ubuntu22.04.1*%
%TF.CreationDate,2023-07-07T16:44:54-07:00*%
%TF.ProjectId,swirl,73776972-6c2e-46b6-9963-61645f706362,v1.0.0*%
%TF.SameCoordinates,Original*%
%TF.FileFunction,Paste,Top*%
%TF.FilePolarity,Positive*%
%FSLAX46Y46*%
G04 Gerber Fmt 4.6, Leading zero omitted, Abs format (unit mm)*
G04 Created by KiCad (PCBNEW 6.0.11-2627ca5db0~126~ubuntu22.04.1) date 2023-07-07 16:44:54*
%MOMM*%
%LPD*%
G01*
G04 APERTURE LIST*
%ADD10R,0.900000X1.200000*%
G04 APERTURE END LIST*
D10*
%TO.C,D9*%
X16350000Y46000000D03*
X19650000Y46000000D03*
%TD*%
%TO.C,D8*%
X16350000Y29000000D03*
X19650000Y29000000D03*
%TD*%
%TO.C,D1*%
X-1650000Y-5000000D03*
X1650000Y-5000000D03*
%TD*%
%TO.C,D18*%
X52350000Y29000000D03*
X55650000Y29000000D03*
%TD*%
%TO.C,D16*%
X52350000Y-5000000D03*
X55650000Y-5000000D03*
%TD*%
%TO.C,D4*%
X-1650000Y46000000D03*
X1650000Y46000000D03*
%TD*%
%TO.C,D31*%
X106350000Y-5000000D03*
X109650000Y-5000000D03*
%TD*%
%TO.C,D6*%
X16350000Y-5000000D03*
X19650000Y-5000000D03*
%TD*%
%TO.C,D29*%
X88350000Y46000000D03*
X91650000Y46000000D03*
%TD*%
%TO.C,D23*%
X70350000Y29000000D03*
X73650000Y29000000D03*
%TD*%
%TO.C,D3*%
X-1650000Y29000000D03*
X1650000Y29000000D03*
%TD*%
%TO.C,D15*%
X34350000Y63000000D03*
X37650000Y63000000D03*
%TD*%
%TO.C,D27*%
X88350000Y12000000D03*
X91650000Y12000000D03*
%TD*%
%TO.C,D24*%
X70350000Y46000000D03*
X73650000Y46000000D03*
%TD*%
%TO.C,D13*%
X34350000Y29000000D03*
X37650000Y29000000D03*
%TD*%
%TO.C,D2*%
X-1650000Y12000000D03*
X1650000Y12000000D03*
%TD*%
%TO.C,D11*%
X34350000Y-5000000D03*
X37650000Y-5000000D03*
%TD*%
%TO.C,D30*%
X88350000Y63000000D03*
X91650000Y63000000D03*
%TD*%
%TO.C,D25*%
X70350000Y63000000D03*
X73650000Y63000000D03*
%TD*%
%TO.C,D28*%
X88350000Y29000000D03*
X91650000Y29000000D03*
%TD*%
%TO.C,D20*%
X52350000Y63000000D03*
X55650000Y63000000D03*
%TD*%
%TO.C,D12*%
X34350000Y12000000D03*
X37650000Y12000000D03*
%TD*%
%TO.C,D14*%
X34350000Y46000000D03*
X37650000Y46000000D03*
%TD*%
%TO.C,D5*%
X-1650000Y63000000D03*
X1650000Y63000000D03*
%TD*%
%TO.C,D22*%
X70350000Y12000000D03*
X73650000Y12000000D03*
%TD*%
%TO.C,D7*%
X16350000Y12000000D03*
X19650000Y12000000D03*
%TD*%
%TO.C,D26*%
X88350000Y-5000000D03*
X91650000Y-5000000D03*
%TD*%
%TO.C,D17*%
X52350000Y12000000D03*
X55650000Y12000000D03*
%TD*%
%TO.C,D10*%
X16350000Y63000000D03*
X19650000Y63000000D03*
%TD*%
%TO.C,D21*%
X70350000Y-5000000D03*
X73650000Y-5000000D03*
%TD*%
%TO.C,D19*%
X52350000Y46000000D03*
X55650000Y46000000D03*
%TD*%
M02*
