M48
; DRILL file {KiCad 6.0.2+dfsg-1} date Tue 27 Jun 2023 05:48:00 PM MST
; FORMAT={-:-/ absolute / inch / decimal}
; #@! TF.CreationDate,2023-06-27T17:48:00-07:00
; #@! TF.GenerationSoftware,Kicad,Pcbnew,6.0.2+dfsg-1
; #@! TF.FileFunction,NonPlated,1,2,NPTH
FMAT,2
INCH
; #@! TA.AperFunction,NonPlated,NPTH,ComponentDrill
T1C0.0591
; #@! TA.AperFunction,NonPlated,NPTH,ComponentDrill
T2C0.0670
; #@! TA.AperFunction,NonPlated,NPTH,ComponentDrill
T3C0.1350
%
G90
G05
T1
X4.3071Y1.3504
X4.3071Y1.2598
X4.5827Y1.3504
X4.5827Y1.2598
T2
X-0.2165Y2.6772
X-0.2165Y2.0079
X-0.2165Y1.3386
X-0.2165Y0.6693
X-0.2165Y0.0
X0.2165Y2.6772
X0.2165Y2.0079
X0.2165Y1.3386
X0.2165Y0.6693
X0.2165Y0.0
X0.4921Y2.6772
X0.4921Y2.0079
X0.4921Y1.3386
X0.4921Y0.6693
X0.4921Y0.0
X0.9252Y2.6772
X0.9252Y2.0079
X0.9252Y1.3386
X0.9252Y0.6693
X0.9252Y0.0
X1.2008Y2.6772
X1.2008Y2.0079
X1.2008Y1.3386
X1.2008Y0.6693
X1.2008Y0.0
X1.6339Y2.6772
X1.6339Y2.0079
X1.6339Y1.3386
X1.6339Y0.6693
X1.6339Y0.0
X1.9094Y2.6772
X1.9094Y2.0079
X1.9094Y1.3386
X1.9094Y0.6693
X1.9094Y0.0
X2.3425Y2.6772
X2.3425Y2.0079
X2.3425Y1.3386
X2.3425Y0.6693
X2.3425Y0.0
X2.6181Y2.6772
X2.6181Y2.0079
X2.6181Y1.3386
X2.6181Y0.6693
X2.6181Y0.0
X3.0512Y2.6772
X3.0512Y2.0079
X3.0512Y1.3386
X3.0512Y0.6693
X3.0512Y0.0
X3.3268Y2.6772
X3.3268Y2.0079
X3.3268Y1.3386
X3.3268Y0.6693
X3.3268Y0.0
X3.7598Y2.6772
X3.7598Y2.0079
X3.7598Y1.3386
X3.7598Y0.6693
X3.7598Y0.0
X4.0354Y0.0
X4.4685Y0.0
T3
X0.0Y2.6772
X0.0Y2.0079
X0.0Y1.3386
X0.0Y0.6693
X0.0Y0.0
X0.7087Y2.6772
X0.7087Y2.0079
X0.7087Y1.3386
X0.7087Y0.6693
X0.7087Y0.0
X1.4173Y2.6772
X1.4173Y2.0079
X1.4173Y1.3386
X1.4173Y0.6693
X1.4173Y0.0
X2.126Y2.6772
X2.126Y2.0079
X2.126Y1.3386
X2.126Y0.6693
X2.126Y0.0
X2.8346Y2.6772
X2.8346Y2.0079
X2.8346Y1.3386
X2.8346Y0.6693
X2.8346Y0.0
X3.5433Y2.6772
X3.5433Y2.0079
X3.5433Y1.3386
X3.5433Y0.6693
X3.5433Y0.0
X4.252Y0.0
T0
M30
