M48
; DRILL file {KiCad 6.0.11-2627ca5db0~126~ubuntu22.04.1} date Fri 07 Jul 2023 04:44:51 PM MST
; FORMAT={-:-/ absolute / metric / decimal}
; #@! TF.CreationDate,2023-07-07T16:44:51-07:00
; #@! TF.GenerationSoftware,Kicad,Pcbnew,6.0.11-2627ca5db0~126~ubuntu22.04.1
; #@! TF.FileFunction,NonPlated,1,2,NPTH
FMAT,2
METRIC
; #@! TA.AperFunction,NonPlated,NPTH,ComponentDrill
T1C1.500
; #@! TA.AperFunction,NonPlated,NPTH,ComponentDrill
T2C1.702
; #@! TA.AperFunction,NonPlated,NPTH,ComponentDrill
T3C3.429
%
G90
G05
T1
X109.4Y34.3
X109.4Y32.0
X116.4Y34.3
X116.4Y32.0
T2
X-5.5Y68.0
X-5.5Y51.0
X-5.5Y34.0
X-5.5Y17.0
X-5.5Y0.0
X5.5Y68.0
X5.5Y51.0
X5.5Y34.0
X5.5Y17.0
X5.5Y0.0
X12.5Y68.0
X12.5Y51.0
X12.5Y34.0
X12.5Y17.0
X12.5Y0.0
X23.5Y68.0
X23.5Y51.0
X23.5Y34.0
X23.5Y17.0
X23.5Y0.0
X30.5Y68.0
X30.5Y51.0
X30.5Y34.0
X30.5Y17.0
X30.5Y0.0
X41.5Y68.0
X41.5Y51.0
X41.5Y34.0
X41.5Y17.0
X41.5Y0.0
X48.5Y68.0
X48.5Y51.0
X48.5Y34.0
X48.5Y17.0
X48.5Y0.0
X59.5Y68.0
X59.5Y51.0
X59.5Y34.0
X59.5Y17.0
X59.5Y0.0
X66.5Y68.0
X66.5Y51.0
X66.5Y34.0
X66.5Y17.0
X66.5Y0.0
X77.5Y68.0
X77.5Y51.0
X77.5Y34.0
X77.5Y17.0
X77.5Y0.0
X84.5Y68.0
X84.5Y51.0
X84.5Y34.0
X84.5Y17.0
X84.5Y0.0
X95.5Y68.0
X95.5Y51.0
X95.5Y34.0
X95.5Y17.0
X95.5Y0.0
X102.5Y0.0
X113.5Y0.0
T3
X0.0Y68.0
X0.0Y51.0
X0.0Y34.0
X0.0Y17.0
X0.0Y0.0
X18.0Y68.0
X18.0Y51.0
X18.0Y34.0
X18.0Y17.0
X18.0Y0.0
X36.0Y68.0
X36.0Y51.0
X36.0Y34.0
X36.0Y17.0
X36.0Y0.0
X54.0Y68.0
X54.0Y51.0
X54.0Y34.0
X54.0Y17.0
X54.0Y0.0
X72.0Y68.0
X72.0Y51.0
X72.0Y34.0
X72.0Y17.0
X72.0Y0.0
X90.0Y68.0
X90.0Y51.0
X90.0Y34.0
X90.0Y17.0
X90.0Y0.0
X108.0Y0.0
T0
M30
