M48
; DRILL file {KiCad 6.0.11-2627ca5db0~126~ubuntu22.04.1} date Fri 21 Jul 2023 11:46:35 PM MST
; FORMAT={-:-/ absolute / metric / decimal}
; #@! TF.CreationDate,2023-07-21T23:46:35-07:00
; #@! TF.GenerationSoftware,Kicad,Pcbnew,6.0.11-2627ca5db0~126~ubuntu22.04.1
; #@! TF.FileFunction,Plated,1,2,PTH
FMAT,2
METRIC
; #@! TA.AperFunction,Plated,PTH,ViaDrill
T1C0.400
; #@! TA.AperFunction,Plated,PTH,ComponentDrill
T2C0.900
; #@! TA.AperFunction,Plated,PTH,ComponentDrill
T3C0.991
; #@! TA.AperFunction,Plated,PTH,ComponentDrill
T4C1.100
; #@! TA.AperFunction,Plated,PTH,ComponentDrill
T5C1.270
; #@! TA.AperFunction,Plated,PTH,ComponentDrill
T6C1.300
%
G90
G05
T1
X107.738Y71.47
X107.738Y68.93
X107.738Y66.39
X107.738Y63.85
X107.738Y61.31
X107.738Y58.77
X107.738Y56.23
X107.738Y53.69
X107.738Y51.15
X107.738Y48.61
X107.738Y46.07
X107.738Y43.53
X109.262Y71.47
X109.262Y68.93
X109.262Y66.39
X109.262Y63.85
X109.262Y61.31
X109.262Y58.77
X109.262Y56.23
X109.262Y53.69
X109.262Y51.15
X109.262Y48.61
X109.262Y46.07
X109.262Y43.53
X110.382Y20.985
X111.114Y19.547
X111.845Y25.996
X117.047Y29.0
T3
X-3.81Y63.0
X-3.81Y46.0
X-3.81Y29.0
X-3.81Y12.0
X-3.81Y-5.0
X3.81Y63.0
X3.81Y46.0
X3.81Y29.0
X3.81Y12.0
X3.81Y-5.0
X14.19Y63.0
X14.19Y46.0
X14.19Y29.0
X14.19Y12.0
X14.19Y-5.0
X21.81Y63.0
X21.81Y46.0
X21.81Y29.0
X21.81Y12.0
X21.81Y-5.0
X32.19Y63.0
X32.19Y46.0
X32.19Y29.0
X32.19Y12.0
X32.19Y-5.0
X39.81Y63.0
X39.81Y46.0
X39.81Y29.0
X39.81Y12.0
X39.81Y-5.0
X50.19Y63.0
X50.19Y46.0
X50.19Y29.0
X50.19Y12.0
X50.19Y-5.0
X57.81Y63.0
X57.81Y46.0
X57.81Y29.0
X57.81Y12.0
X57.81Y-5.0
X68.19Y63.0
X68.19Y46.0
X68.19Y29.0
X68.19Y12.0
X68.19Y-5.0
X75.81Y63.0
X75.81Y46.0
X75.81Y29.0
X75.81Y12.0
X75.81Y-5.0
X86.19Y63.0
X86.19Y46.0
X86.19Y29.0
X86.19Y12.0
X86.19Y-5.0
X93.81Y63.0
X93.81Y46.0
X93.81Y29.0
X93.81Y12.0
X93.81Y-5.0
X104.19Y-5.0
X111.81Y-5.0
T4
X100.88Y71.47
X100.88Y71.47
X100.88Y68.93
X100.88Y66.39
X100.88Y63.85
X100.88Y61.31
X100.88Y58.77
X100.88Y56.23
X100.88Y53.69
X100.88Y51.15
X100.88Y48.61
X100.88Y46.07
X100.88Y43.53
X116.12Y71.47
X116.12Y71.47
X116.12Y68.93
X116.12Y66.39
X116.12Y63.85
X116.12Y61.31
X116.12Y58.77
X116.12Y56.23
X116.12Y53.69
X116.12Y51.15
X116.12Y48.61
X116.12Y46.07
X116.12Y43.53
X116.35Y24.748
X116.35Y11.652
T5
X-5.0Y71.8
X-5.0Y54.8
X-5.0Y37.8
X-5.0Y20.8
X-5.0Y3.8
X0.0Y73.9
X0.0Y73.9
X0.0Y56.9
X0.0Y56.9
X0.0Y39.9
X0.0Y39.9
X0.0Y22.9
X0.0Y22.9
X0.0Y5.9
X0.0Y5.9
X5.0Y71.8
X5.0Y54.8
X5.0Y37.8
X5.0Y20.8
X5.0Y3.8
X13.0Y71.8
X13.0Y54.8
X13.0Y37.8
X13.0Y20.8
X13.0Y3.8
X18.0Y73.9
X18.0Y73.9
X18.0Y56.9
X18.0Y56.9
X18.0Y39.9
X18.0Y39.9
X18.0Y22.9
X18.0Y22.9
X18.0Y5.9
X18.0Y5.9
X23.0Y71.8
X23.0Y54.8
X23.0Y37.8
X23.0Y20.8
X23.0Y3.8
X31.0Y71.8
X31.0Y54.8
X31.0Y37.8
X31.0Y20.8
X31.0Y3.8
X36.0Y73.9
X36.0Y73.9
X36.0Y56.9
X36.0Y56.9
X36.0Y39.9
X36.0Y39.9
X36.0Y22.9
X36.0Y22.9
X36.0Y5.9
X36.0Y5.9
X41.0Y71.8
X41.0Y54.8
X41.0Y37.8
X41.0Y20.8
X41.0Y3.8
X49.0Y71.8
X49.0Y54.8
X49.0Y37.8
X49.0Y20.8
X49.0Y3.8
X54.0Y73.9
X54.0Y73.9
X54.0Y56.9
X54.0Y56.9
X54.0Y39.9
X54.0Y39.9
X54.0Y22.9
X54.0Y22.9
X54.0Y5.9
X54.0Y5.9
X59.0Y71.8
X59.0Y54.8
X59.0Y37.8
X59.0Y20.8
X59.0Y3.8
X67.0Y71.8
X67.0Y54.8
X67.0Y37.8
X67.0Y20.8
X67.0Y3.8
X72.0Y73.9
X72.0Y73.9
X72.0Y56.9
X72.0Y56.9
X72.0Y39.9
X72.0Y39.9
X72.0Y22.9
X72.0Y22.9
X72.0Y5.9
X72.0Y5.9
X77.0Y71.8
X77.0Y54.8
X77.0Y37.8
X77.0Y20.8
X77.0Y3.8
X85.0Y71.8
X85.0Y54.8
X85.0Y37.8
X85.0Y20.8
X85.0Y3.8
X90.0Y73.9
X90.0Y73.9
X90.0Y56.9
X90.0Y56.9
X90.0Y39.9
X90.0Y39.9
X90.0Y22.9
X90.0Y22.9
X90.0Y5.9
X90.0Y5.9
X95.0Y71.8
X95.0Y54.8
X95.0Y37.8
X95.0Y20.8
X95.0Y3.8
X103.0Y3.8
X108.0Y5.9
X108.0Y5.9
X113.0Y3.8
T6
X106.75Y29.0
X113.25Y29.0
T2
X107.0Y37.3G85X106.4Y37.3
G05
X107.0Y35.0G85X106.4Y35.0
G05
X108.1Y39.6G85X107.5Y39.6
G05
X108.1Y32.7G85X107.5Y32.7
G05
X112.1Y39.6G85X111.5Y39.6
G05
X112.1Y32.7G85X111.5Y32.7
G05
X115.1Y39.6G85X114.5Y39.6
G05
X115.1Y32.7G85X114.5Y32.7
G05
T4
X114.0Y24.748G85X114.5Y24.748
G05
X114.5Y11.652G85X114.0Y11.652
G05
X114.625Y22.272G85X115.125Y22.272
G05
X115.125Y21.748G85X114.625Y21.748
G05
X114.625Y19.732G85X115.125Y19.732
G05
X115.125Y19.208G85X114.625Y19.208
G05
X114.625Y17.192G85X115.125Y17.192
G05
X115.125Y16.668G85X114.625Y16.668
G05
X114.625Y14.652G85X115.125Y14.652
G05
X115.125Y14.128G85X114.625Y14.128
G05
T0
M30
