%TF.GenerationSoftware,KiCad,Pcbnew,6.0.2+dfsg-1*%
%TF.CreationDate,2023-06-27T17:47:53-07:00*%
%TF.ProjectId,swirlComplete,73776972-6c43-46f6-9d70-6c6574652e6b,v1.0.0*%
%TF.SameCoordinates,Original*%
%TF.FileFunction,Copper,L1,Top*%
%TF.FilePolarity,Positive*%
%FSLAX46Y46*%
G04 Gerber Fmt 4.6, Leading zero omitted, Abs format (unit mm)*
G04 Created by KiCad (PCBNEW 6.0.2+dfsg-1) date 2023-06-27 17:47:53*
%MOMM*%
%LPD*%
G01*
G04 APERTURE LIST*
G04 Aperture macros list*
%AMFreePoly0*
4,1,6,0.600000,0.200000,0.000000,-0.400000,-0.600000,0.200000,-0.600000,0.400000,0.600000,0.400000,0.600000,0.200000,0.600000,0.200000,$1*%
%AMFreePoly1*
4,1,5,0.125000,-0.500000,-0.125000,-0.500000,-0.125000,0.500000,0.125000,0.500000,0.125000,-0.500000,0.125000,-0.500000,$1*%
%AMFreePoly2*
4,1,6,0.600000,-0.250000,-0.600000,-0.250000,-0.600000,1.000000,0.000000,0.400000,0.600000,1.000000,0.600000,-0.250000,0.600000,-0.250000,$1*%
G04 Aperture macros list end*
%TA.AperFunction,ComponentPad*%
%ADD10C,2.000000*%
%TD*%
%TA.AperFunction,ComponentPad*%
%ADD11C,2.032000*%
%TD*%
%TA.AperFunction,ComponentPad*%
%ADD12R,1.778000X1.778000*%
%TD*%
%TA.AperFunction,SMDPad,CuDef*%
%ADD13R,0.900000X1.200000*%
%TD*%
%TA.AperFunction,ComponentPad*%
%ADD14C,1.905000*%
%TD*%
%TA.AperFunction,SMDPad,CuDef*%
%ADD15FreePoly0,270.000000*%
%TD*%
%TA.AperFunction,ComponentPad*%
%ADD16O,2.100000X1.600000*%
%TD*%
%TA.AperFunction,SMDPad,CuDef*%
%ADD17FreePoly1,270.000000*%
%TD*%
%TA.AperFunction,SMDPad,CuDef*%
%ADD18FreePoly2,270.000000*%
%TD*%
%TA.AperFunction,ComponentPad*%
%ADD19C,1.600000*%
%TD*%
%TA.AperFunction,ComponentPad*%
%ADD20O,2.200000X1.600000*%
%TD*%
%TA.AperFunction,SMDPad,CuDef*%
%ADD21FreePoly1,90.000000*%
%TD*%
%TA.AperFunction,SMDPad,CuDef*%
%ADD22FreePoly0,90.000000*%
%TD*%
%TA.AperFunction,ComponentPad*%
%ADD23R,1.600000X1.600000*%
%TD*%
%TA.AperFunction,SMDPad,CuDef*%
%ADD24FreePoly2,90.000000*%
%TD*%
%TA.AperFunction,ViaPad*%
%ADD25C,0.800000*%
%TD*%
%TA.AperFunction,Conductor*%
%ADD26C,0.250000*%
%TD*%
G04 APERTURE END LIST*
D10*
%TO.P,B1,1*%
%TO.N,GND*%
X106750000Y26000000D03*
%TO.P,B1,2*%
%TO.N,RST*%
X113250000Y26000000D03*
%TD*%
D11*
%TO.P,S25,1*%
%TO.N,SCLK*%
X67000000Y71800000D03*
X77000000Y71800000D03*
%TO.P,S25,2*%
%TO.N,index_num*%
X72000000Y73900000D03*
X72000000Y73900000D03*
%TD*%
D12*
%TO.P,D9,1*%
%TO.N,P5*%
X14190000Y46000000D03*
D13*
X16350000Y46000000D03*
%TO.P,D9,2*%
%TO.N,pinky_top*%
X19650000Y46000000D03*
D14*
X21810000Y46000000D03*
%TD*%
D11*
%TO.P,S8,1*%
%TO.N,P20*%
X23000000Y37800000D03*
X13000000Y37800000D03*
%TO.P,S8,2*%
%TO.N,pinky_home*%
X18000000Y39900000D03*
X18000000Y39900000D03*
%TD*%
D13*
%TO.P,D8,1*%
%TO.N,P6*%
X16350000Y29000000D03*
D12*
X14190000Y29000000D03*
D13*
%TO.P,D8,2*%
%TO.N,pinky_home*%
X19650000Y29000000D03*
D14*
X21810000Y29000000D03*
%TD*%
D13*
%TO.P,D1,1*%
%TO.N,P8*%
X-1650000Y-5000000D03*
D12*
X-3810000Y-5000000D03*
D13*
%TO.P,D1,2*%
%TO.N,outer_mod*%
X1650000Y-5000000D03*
D14*
X3810000Y-5000000D03*
%TD*%
D13*
%TO.P,D18,1*%
%TO.N,P6*%
X52350000Y29000000D03*
D12*
X50190000Y29000000D03*
D13*
%TO.P,D18,2*%
%TO.N,middle_home*%
X55650000Y29000000D03*
D14*
X57810000Y29000000D03*
%TD*%
D13*
%TO.P,D16,1*%
%TO.N,P8*%
X52350000Y-5000000D03*
D12*
X50190000Y-5000000D03*
D14*
%TO.P,D16,2*%
%TO.N,middle_mod*%
X57810000Y-5000000D03*
D13*
X55650000Y-5000000D03*
%TD*%
D11*
%TO.P,S30,1*%
%TO.N,MISO*%
X85000000Y71800000D03*
X95000000Y71800000D03*
%TO.P,S30,2*%
%TO.N,inner_num*%
X90000000Y73900000D03*
X90000000Y73900000D03*
%TD*%
D15*
%TO.P,EN1,*%
%TO.N,*%
X113000000Y19810000D03*
D16*
X114875000Y14992000D03*
X114875000Y17532000D03*
X114875000Y20072000D03*
X114875000Y14468000D03*
X114875000Y19548000D03*
D17*
X113508000Y19810000D03*
D15*
X113000000Y14730000D03*
D16*
X114875000Y11928000D03*
D17*
X113508000Y14730000D03*
D15*
X113000000Y17270000D03*
D17*
X113508000Y17270000D03*
D16*
X114875000Y12452000D03*
X114875000Y17008000D03*
D18*
%TO.P,EN1,A*%
%TO.N,SDA*%
X111984000Y19810000D03*
%TO.P,EN1,B*%
%TO.N,P9*%
X111984000Y17270000D03*
%TO.P,EN1,GND*%
%TO.N,GND*%
X111984000Y14730000D03*
D19*
%TO.P,EN1,S1*%
%TO.N,P1*%
X116350000Y9452000D03*
X116350000Y22548000D03*
D16*
%TO.P,EN1,S2*%
%TO.N,P0*%
X114250000Y9452000D03*
X114250000Y22548000D03*
%TD*%
D12*
%TO.P,D4,1*%
%TO.N,P5*%
X-3810000Y46000000D03*
D13*
X-1650000Y46000000D03*
%TO.P,D4,2*%
%TO.N,outer_top*%
X1650000Y46000000D03*
D14*
X3810000Y46000000D03*
%TD*%
D20*
%TO.P,TRRS1,1*%
%TO.N,GND*%
X106700000Y32000000D03*
X106700000Y34300000D03*
%TO.P,TRRS1,2*%
X107800000Y29700000D03*
X107800000Y36600000D03*
%TO.P,TRRS1,3*%
%TO.N,P10*%
X111800000Y36600000D03*
X111800000Y29700000D03*
%TO.P,TRRS1,4*%
%TO.N,VCC*%
X114800000Y36600000D03*
X114800000Y29700000D03*
%TD*%
D11*
%TO.P,S21,1*%
%TO.N,SCLK*%
X67000000Y3800000D03*
X77000000Y3800000D03*
%TO.P,S21,2*%
%TO.N,index_mod*%
X72000000Y5900000D03*
X72000000Y5900000D03*
%TD*%
D13*
%TO.P,D31,1*%
%TO.N,P8*%
X106350000Y-5000000D03*
D12*
X104190000Y-5000000D03*
D14*
%TO.P,D31,2*%
%TO.N,extraInner_mod*%
X111810000Y-5000000D03*
D13*
X109650000Y-5000000D03*
%TD*%
D11*
%TO.P,S22,1*%
%TO.N,SCLK*%
X77000000Y20800000D03*
X67000000Y20800000D03*
%TO.P,S22,2*%
%TO.N,index_bottom*%
X72000000Y22900000D03*
X72000000Y22900000D03*
%TD*%
D13*
%TO.P,D6,1*%
%TO.N,P8*%
X16350000Y-5000000D03*
D12*
X14190000Y-5000000D03*
D14*
%TO.P,D6,2*%
%TO.N,pinky_mod*%
X21810000Y-5000000D03*
D13*
X19650000Y-5000000D03*
%TD*%
D11*
%TO.P,S3,1*%
%TO.N,P21*%
X-5000000Y37800000D03*
X5000000Y37800000D03*
%TO.P,S3,2*%
%TO.N,outer_home*%
X0Y39900000D03*
X0Y39900000D03*
%TD*%
D12*
%TO.P,D29,1*%
%TO.N,P5*%
X86190000Y46000000D03*
D13*
X88350000Y46000000D03*
%TO.P,D29,2*%
%TO.N,inner_top*%
X91650000Y46000000D03*
D14*
X93810000Y46000000D03*
%TD*%
D13*
%TO.P,D23,1*%
%TO.N,P6*%
X70350000Y29000000D03*
D12*
X68190000Y29000000D03*
D13*
%TO.P,D23,2*%
%TO.N,index_home*%
X73650000Y29000000D03*
D14*
X75810000Y29000000D03*
%TD*%
D13*
%TO.P,D3,1*%
%TO.N,P6*%
X-1650000Y29000000D03*
D12*
X-3810000Y29000000D03*
D13*
%TO.P,D3,2*%
%TO.N,outer_home*%
X1650000Y29000000D03*
D14*
X3810000Y29000000D03*
%TD*%
D11*
%TO.P,S31,1*%
%TO.N,MOSI*%
X113000000Y3800000D03*
X103000000Y3800000D03*
%TO.P,S31,2*%
%TO.N,extraInner_mod*%
X108000000Y5900000D03*
X108000000Y5900000D03*
%TD*%
D13*
%TO.P,D15,1*%
%TO.N,P4*%
X34350000Y63000000D03*
D12*
X32190000Y63000000D03*
D14*
%TO.P,D15,2*%
%TO.N,ring_num*%
X39810000Y63000000D03*
D13*
X37650000Y63000000D03*
%TD*%
D11*
%TO.P,S6,1*%
%TO.N,P20*%
X13000000Y3800000D03*
X23000000Y3800000D03*
%TO.P,S6,2*%
%TO.N,pinky_mod*%
X18000000Y5900000D03*
X18000000Y5900000D03*
%TD*%
%TO.P,S14,1*%
%TO.N,P19*%
X41000000Y54800000D03*
X31000000Y54800000D03*
%TO.P,S14,2*%
%TO.N,ring_top*%
X36000000Y56900000D03*
X36000000Y56900000D03*
%TD*%
%TO.P,S4,1*%
%TO.N,P21*%
X5000000Y54800000D03*
X-5000000Y54800000D03*
%TO.P,S4,2*%
%TO.N,outer_top*%
X0Y56900000D03*
X0Y56900000D03*
%TD*%
D13*
%TO.P,D27,1*%
%TO.N,P7*%
X88350000Y12000000D03*
D12*
X86190000Y12000000D03*
D14*
%TO.P,D27,2*%
%TO.N,inner_bottom*%
X93810000Y12000000D03*
D13*
X91650000Y12000000D03*
%TD*%
D11*
%TO.P,S24,1*%
%TO.N,SCLK*%
X77000000Y54800000D03*
X67000000Y54800000D03*
%TO.P,S24,2*%
%TO.N,index_top*%
X72000000Y56900000D03*
X72000000Y56900000D03*
%TD*%
D13*
%TO.P,D24,1*%
%TO.N,P5*%
X70350000Y46000000D03*
D12*
X68190000Y46000000D03*
D13*
%TO.P,D24,2*%
%TO.N,index_top*%
X73650000Y46000000D03*
D14*
X75810000Y46000000D03*
%TD*%
D13*
%TO.P,D13,1*%
%TO.N,P6*%
X34350000Y29000000D03*
D12*
X32190000Y29000000D03*
D13*
%TO.P,D13,2*%
%TO.N,ring_home*%
X37650000Y29000000D03*
D14*
X39810000Y29000000D03*
%TD*%
D11*
%TO.P,S9,1*%
%TO.N,P20*%
X13000000Y54800000D03*
X23000000Y54800000D03*
%TO.P,S9,2*%
%TO.N,pinky_top*%
X18000000Y56900000D03*
X18000000Y56900000D03*
%TD*%
%TO.P,S1,1*%
%TO.N,P21*%
X5000000Y3800000D03*
X-5000000Y3800000D03*
%TO.P,S1,2*%
%TO.N,outer_mod*%
X0Y5900000D03*
X0Y5900000D03*
%TD*%
D12*
%TO.P,D2,1*%
%TO.N,P7*%
X-3810000Y12000000D03*
D13*
X-1650000Y12000000D03*
D14*
%TO.P,D2,2*%
%TO.N,outer_bottom*%
X3810000Y12000000D03*
D13*
X1650000Y12000000D03*
%TD*%
D11*
%TO.P,S5,1*%
%TO.N,P21*%
X5000000Y71800000D03*
X-5000000Y71800000D03*
%TO.P,S5,2*%
%TO.N,outer_num*%
X0Y73900000D03*
X0Y73900000D03*
%TD*%
D12*
%TO.P,D11,1*%
%TO.N,P8*%
X32190000Y-5000000D03*
D13*
X34350000Y-5000000D03*
D14*
%TO.P,D11,2*%
%TO.N,ring_mod*%
X39810000Y-5000000D03*
D13*
X37650000Y-5000000D03*
%TD*%
D12*
%TO.P,D30,1*%
%TO.N,P4*%
X86190000Y63000000D03*
D13*
X88350000Y63000000D03*
D14*
%TO.P,D30,2*%
%TO.N,inner_num*%
X93810000Y63000000D03*
D13*
X91650000Y63000000D03*
%TD*%
D11*
%TO.P,S20,1*%
%TO.N,P18*%
X49000000Y71800000D03*
X59000000Y71800000D03*
%TO.P,S20,2*%
%TO.N,middle_num*%
X54000000Y73900000D03*
X54000000Y73900000D03*
%TD*%
%TO.P,S19,1*%
%TO.N,P18*%
X49000000Y54800000D03*
X59000000Y54800000D03*
%TO.P,S19,2*%
%TO.N,middle_top*%
X54000000Y56900000D03*
X54000000Y56900000D03*
%TD*%
%TO.P,S23,1*%
%TO.N,SCLK*%
X77000000Y37800000D03*
X67000000Y37800000D03*
%TO.P,S23,2*%
%TO.N,index_home*%
X72000000Y39900000D03*
X72000000Y39900000D03*
%TD*%
D13*
%TO.P,D25,1*%
%TO.N,P4*%
X70350000Y63000000D03*
D12*
X68190000Y63000000D03*
D13*
%TO.P,D25,2*%
%TO.N,index_num*%
X73650000Y63000000D03*
D14*
X75810000Y63000000D03*
%TD*%
D13*
%TO.P,D28,1*%
%TO.N,P6*%
X88350000Y29000000D03*
D12*
X86190000Y29000000D03*
D14*
%TO.P,D28,2*%
%TO.N,inner_home*%
X93810000Y29000000D03*
D13*
X91650000Y29000000D03*
%TD*%
D11*
%TO.P,S26,1*%
%TO.N,MISO*%
X95000000Y3800000D03*
X85000000Y3800000D03*
%TO.P,S26,2*%
%TO.N,inner_mod*%
X90000000Y5900000D03*
X90000000Y5900000D03*
%TD*%
%TO.P,S18,1*%
%TO.N,P18*%
X49000000Y37800000D03*
X59000000Y37800000D03*
%TO.P,S18,2*%
%TO.N,middle_home*%
X54000000Y39900000D03*
X54000000Y39900000D03*
%TD*%
%TO.P,S28,1*%
%TO.N,MISO*%
X95000000Y37800000D03*
X85000000Y37800000D03*
%TO.P,S28,2*%
%TO.N,inner_home*%
X90000000Y39900000D03*
X90000000Y39900000D03*
%TD*%
%TO.P,S10,1*%
%TO.N,P20*%
X23000000Y71800000D03*
X13000000Y71800000D03*
%TO.P,S10,2*%
%TO.N,pinky_num*%
X18000000Y73900000D03*
X18000000Y73900000D03*
%TD*%
D13*
%TO.P,D20,1*%
%TO.N,P4*%
X52350000Y63000000D03*
D12*
X50190000Y63000000D03*
D13*
%TO.P,D20,2*%
%TO.N,middle_num*%
X55650000Y63000000D03*
D14*
X57810000Y63000000D03*
%TD*%
D11*
%TO.P,S27,1*%
%TO.N,MISO*%
X85000000Y20800000D03*
X95000000Y20800000D03*
%TO.P,S27,2*%
%TO.N,inner_bottom*%
X90000000Y22900000D03*
X90000000Y22900000D03*
%TD*%
D13*
%TO.P,D12,1*%
%TO.N,P7*%
X34350000Y12000000D03*
D12*
X32190000Y12000000D03*
D13*
%TO.P,D12,2*%
%TO.N,ring_bottom*%
X37650000Y12000000D03*
D14*
X39810000Y12000000D03*
%TD*%
D12*
%TO.P,D14,1*%
%TO.N,P5*%
X32190000Y46000000D03*
D13*
X34350000Y46000000D03*
%TO.P,D14,2*%
%TO.N,ring_top*%
X37650000Y46000000D03*
D14*
X39810000Y46000000D03*
%TD*%
D13*
%TO.P,D5,1*%
%TO.N,P4*%
X-1650000Y63000000D03*
D12*
X-3810000Y63000000D03*
D13*
%TO.P,D5,2*%
%TO.N,outer_num*%
X1650000Y63000000D03*
D14*
X3810000Y63000000D03*
%TD*%
D11*
%TO.P,S7,1*%
%TO.N,P20*%
X23000000Y20800000D03*
X13000000Y20800000D03*
%TO.P,S7,2*%
%TO.N,pinky_bottom*%
X18000000Y22900000D03*
X18000000Y22900000D03*
%TD*%
D13*
%TO.P,D22,1*%
%TO.N,P7*%
X70350000Y12000000D03*
D12*
X68190000Y12000000D03*
D13*
%TO.P,D22,2*%
%TO.N,index_bottom*%
X73650000Y12000000D03*
D14*
X75810000Y12000000D03*
%TD*%
D13*
%TO.P,D7,1*%
%TO.N,P7*%
X16350000Y12000000D03*
D12*
X14190000Y12000000D03*
D14*
%TO.P,D7,2*%
%TO.N,pinky_bottom*%
X21810000Y12000000D03*
D13*
X19650000Y12000000D03*
%TD*%
%TO.P,D26,1*%
%TO.N,P8*%
X88350000Y-5000000D03*
D12*
X86190000Y-5000000D03*
D14*
%TO.P,D26,2*%
%TO.N,inner_mod*%
X93810000Y-5000000D03*
D13*
X91650000Y-5000000D03*
%TD*%
D12*
%TO.P,D17,1*%
%TO.N,P7*%
X50190000Y12000000D03*
D13*
X52350000Y12000000D03*
D14*
%TO.P,D17,2*%
%TO.N,middle_bottom*%
X57810000Y12000000D03*
D13*
X55650000Y12000000D03*
%TD*%
%TO.P,D10,1*%
%TO.N,P4*%
X16350000Y63000000D03*
D12*
X14190000Y63000000D03*
D13*
%TO.P,D10,2*%
%TO.N,pinky_num*%
X19650000Y63000000D03*
D14*
X21810000Y63000000D03*
%TD*%
D19*
%TO.P,MCU1,*%
%TO.N,*%
X100880000Y53690000D03*
D21*
X102150000Y58770000D03*
D15*
X114342000Y43530000D03*
D22*
X102658000Y71470000D03*
D19*
X100880000Y66390000D03*
D17*
X114850000Y68930000D03*
D22*
X102658000Y53690000D03*
D17*
X114850000Y61310000D03*
D19*
X116120000Y43530000D03*
X116120000Y46070000D03*
X116120000Y56230000D03*
X116120000Y58770000D03*
D17*
X114850000Y63850000D03*
D19*
X116120000Y63850000D03*
X100880000Y63850000D03*
D22*
X102658000Y56230000D03*
D19*
X116120000Y51150000D03*
X100880000Y61310000D03*
D21*
X102150000Y51150000D03*
D19*
X116120000Y53690000D03*
D21*
X102150000Y66390000D03*
X102150000Y48610000D03*
D22*
X102658000Y43530000D03*
D19*
X100880000Y71470000D03*
D21*
X102150000Y43530000D03*
D17*
X114850000Y58770000D03*
X114850000Y66390000D03*
D19*
X100880000Y43530000D03*
X116120000Y61310000D03*
X100880000Y48610000D03*
D17*
X114850000Y51150000D03*
D15*
X114342000Y48610000D03*
D22*
X102658000Y51150000D03*
D21*
X102150000Y53690000D03*
D22*
X102658000Y68930000D03*
D15*
X114342000Y63850000D03*
X114342000Y46070000D03*
D21*
X102150000Y71470000D03*
D15*
X114342000Y61310000D03*
D22*
X102658000Y58770000D03*
X102658000Y66390000D03*
D17*
X114850000Y43530000D03*
D21*
X102150000Y68930000D03*
X102150000Y46070000D03*
D17*
X114850000Y46070000D03*
D21*
X102150000Y56230000D03*
D19*
X100880000Y56230000D03*
X116120000Y68930000D03*
D22*
X102658000Y61310000D03*
X102658000Y48610000D03*
D23*
X100880000Y71470000D03*
D15*
X114342000Y51150000D03*
D22*
X102658000Y46070000D03*
D19*
X116120000Y66390000D03*
D17*
X114850000Y56230000D03*
D19*
X116120000Y71470000D03*
D17*
X114850000Y71470000D03*
D19*
X100880000Y58770000D03*
X116120000Y48610000D03*
D15*
X114342000Y66390000D03*
D17*
X114850000Y48610000D03*
D22*
X102658000Y63850000D03*
D15*
X114342000Y68930000D03*
D19*
X100880000Y51150000D03*
D15*
X114342000Y58770000D03*
X114342000Y53690000D03*
D21*
X102150000Y61310000D03*
D19*
X100880000Y68930000D03*
X100880000Y46070000D03*
D15*
X114342000Y71470000D03*
X114342000Y56230000D03*
D21*
X102150000Y63850000D03*
D17*
X114850000Y53690000D03*
D18*
%TO.P,MCU1,1*%
%TO.N,RAW*%
X113326000Y71470000D03*
%TO.P,MCU1,2*%
%TO.N,GND*%
X113326000Y68930000D03*
%TO.P,MCU1,3*%
%TO.N,RST*%
X113326000Y66390000D03*
%TO.P,MCU1,4*%
%TO.N,VCC*%
X113326000Y63850000D03*
%TO.P,MCU1,5*%
%TO.N,P21*%
X113326000Y61310000D03*
%TO.P,MCU1,6*%
%TO.N,P20*%
X113326000Y58770000D03*
%TO.P,MCU1,7*%
%TO.N,P19*%
X113326000Y56230000D03*
%TO.P,MCU1,8*%
%TO.N,P18*%
X113326000Y53690000D03*
%TO.P,MCU1,9*%
%TO.N,SCLK*%
X113326000Y51150000D03*
%TO.P,MCU1,10*%
%TO.N,MISO*%
X113326000Y48610000D03*
%TO.P,MCU1,11*%
%TO.N,MOSI*%
X113326000Y46070000D03*
%TO.P,MCU1,12*%
%TO.N,P10*%
X113326000Y43530000D03*
D24*
%TO.P,MCU1,13*%
%TO.N,P9*%
X103674000Y43530000D03*
%TO.P,MCU1,14*%
%TO.N,P8*%
X103674000Y46070000D03*
%TO.P,MCU1,15*%
%TO.N,P7*%
X103674000Y48610000D03*
%TO.P,MCU1,16*%
%TO.N,P6*%
X103674000Y51150000D03*
%TO.P,MCU1,17*%
%TO.N,P5*%
X103674000Y53690000D03*
%TO.P,MCU1,18*%
%TO.N,P4*%
X103674000Y56230000D03*
%TO.P,MCU1,19*%
%TO.N,SCL*%
X103674000Y58770000D03*
%TO.P,MCU1,20*%
%TO.N,SDA*%
X103674000Y61310000D03*
%TO.P,MCU1,21*%
%TO.N,GND*%
X103674000Y63850000D03*
%TO.P,MCU1,22*%
X103674000Y66390000D03*
%TO.P,MCU1,23*%
%TO.N,P0*%
X103674000Y68930000D03*
%TO.P,MCU1,24*%
%TO.N,P1*%
X103674000Y71470000D03*
%TD*%
D12*
%TO.P,D21,1*%
%TO.N,P8*%
X68190000Y-5000000D03*
D13*
X70350000Y-5000000D03*
%TO.P,D21,2*%
%TO.N,index_mod*%
X73650000Y-5000000D03*
D14*
X75810000Y-5000000D03*
%TD*%
D11*
%TO.P,S12,1*%
%TO.N,P19*%
X41000000Y20800000D03*
X31000000Y20800000D03*
%TO.P,S12,2*%
%TO.N,ring_bottom*%
X36000000Y22900000D03*
X36000000Y22900000D03*
%TD*%
%TO.P,S29,1*%
%TO.N,MISO*%
X95000000Y54800000D03*
X85000000Y54800000D03*
%TO.P,S29,2*%
%TO.N,inner_top*%
X90000000Y56900000D03*
X90000000Y56900000D03*
%TD*%
%TO.P,S13,1*%
%TO.N,P19*%
X31000000Y37800000D03*
X41000000Y37800000D03*
%TO.P,S13,2*%
%TO.N,ring_home*%
X36000000Y39900000D03*
X36000000Y39900000D03*
%TD*%
%TO.P,S11,1*%
%TO.N,P19*%
X41000000Y3800000D03*
X31000000Y3800000D03*
%TO.P,S11,2*%
%TO.N,ring_mod*%
X36000000Y5900000D03*
X36000000Y5900000D03*
%TD*%
%TO.P,S2,1*%
%TO.N,P21*%
X5000000Y20800000D03*
X-5000000Y20800000D03*
%TO.P,S2,2*%
%TO.N,outer_bottom*%
X0Y22900000D03*
X0Y22900000D03*
%TD*%
%TO.P,S15,1*%
%TO.N,P19*%
X31000000Y71800000D03*
X41000000Y71800000D03*
%TO.P,S15,2*%
%TO.N,ring_num*%
X36000000Y73900000D03*
X36000000Y73900000D03*
%TD*%
D13*
%TO.P,D19,1*%
%TO.N,P5*%
X52350000Y46000000D03*
D12*
X50190000Y46000000D03*
D14*
%TO.P,D19,2*%
%TO.N,middle_top*%
X57810000Y46000000D03*
D13*
X55650000Y46000000D03*
%TD*%
D11*
%TO.P,S17,1*%
%TO.N,P18*%
X59000000Y20800000D03*
X49000000Y20800000D03*
%TO.P,S17,2*%
%TO.N,middle_bottom*%
X54000000Y22900000D03*
X54000000Y22900000D03*
%TD*%
%TO.P,S16,1*%
%TO.N,P18*%
X59000000Y3800000D03*
X49000000Y3800000D03*
%TO.P,S16,2*%
%TO.N,middle_mod*%
X54000000Y5900000D03*
X54000000Y5900000D03*
%TD*%
D25*
%TO.N,P21*%
X109262000Y61310000D03*
%TO.N,P20*%
X109262000Y58770000D03*
%TO.N,P19*%
X109262000Y56230000D03*
%TO.N,P18*%
X109262000Y53690000D03*
%TO.N,SCLK*%
X109262000Y51150000D03*
%TO.N,MISO*%
X109262000Y48610000D03*
%TO.N,MOSI*%
X109262000Y46070000D03*
%TO.N,P8*%
X107738000Y46070000D03*
%TO.N,P7*%
X107738000Y48610000D03*
%TO.N,P6*%
X107738000Y51150000D03*
%TO.N,P5*%
X107738000Y53690000D03*
%TO.N,P4*%
X107738000Y56230000D03*
%TO.N,P1*%
X107738000Y71470000D03*
%TO.N,P0*%
X107738000Y68930000D03*
%TO.N,SDA*%
X107738000Y61310000D03*
X111982000Y13461200D03*
%TO.N,SCL*%
X107738000Y58770000D03*
%TO.N,P9*%
X107738000Y43530000D03*
X112072000Y16063700D03*
X105273300Y42967600D03*
%TO.N,RAW*%
X109262000Y71470000D03*
%TO.N,GND*%
X107738000Y66390000D03*
X107738000Y63850000D03*
X109262000Y68930000D03*
%TO.N,RST*%
X109262000Y66390000D03*
%TO.N,VCC*%
X109262000Y63850000D03*
%TO.N,P10*%
X109262000Y43530000D03*
%TD*%
D26*
%TO.N,P21*%
X1473500Y10273500D02*
X93889400Y10273500D01*
X100493000Y62513300D02*
X108059000Y62513300D01*
X108059000Y62513300D02*
X109262000Y61310000D01*
X96725400Y58745700D02*
X100493000Y62513300D01*
X112560000Y60544000D02*
X113326000Y61310000D01*
X96725400Y13109500D02*
X96725400Y58745700D01*
X109262000Y61310000D02*
X110028000Y60544000D01*
X-5000000Y3800000D02*
X1473500Y10273500D01*
X93889400Y10273500D02*
X96725400Y13109500D01*
X110028000Y60544000D02*
X112560000Y60544000D01*
%TO.N,outer_mod*%
X2089000Y-4561000D02*
X1650000Y-5000000D01*
X1650000Y-5000000D02*
X3810000Y-5000000D01*
X0Y5900000D02*
X2089000Y3811000D01*
X2089000Y3811000D02*
X2089000Y-4561000D01*
%TO.N,outer_bottom*%
X3810000Y12000000D02*
X1650000Y12000000D01*
X1650000Y12000000D02*
X2089000Y12439000D01*
X2089000Y20811000D02*
X0Y22900000D01*
X2089000Y12439000D02*
X2089000Y20811000D01*
%TO.N,outer_home*%
X0Y39900000D02*
X2089000Y37811000D01*
X2089000Y37811000D02*
X2089000Y29439000D01*
X2089000Y29439000D02*
X1650000Y29000000D01*
X3810000Y29000000D02*
X1650000Y29000000D01*
%TO.N,outer_top*%
X2089000Y54811000D02*
X2089000Y46439000D01*
X3810000Y46000000D02*
X1650000Y46000000D01*
X2089000Y46439000D02*
X1650000Y46000000D01*
X0Y56900000D02*
X2089000Y54811000D01*
%TO.N,outer_num*%
X2089000Y71811000D02*
X2089000Y63439000D01*
X0Y73900000D02*
X2089000Y71811000D01*
X1650000Y63000000D02*
X3810000Y63000000D01*
X2089000Y63439000D02*
X1650000Y63000000D01*
%TO.N,P20*%
X112560000Y58004000D02*
X113326000Y58770000D01*
X99148200Y59973300D02*
X108059000Y59973300D01*
X97174900Y12923300D02*
X97174900Y58000000D01*
X19023900Y9824000D02*
X94075600Y9824000D01*
X13000000Y3800000D02*
X19023900Y9824000D01*
X97174900Y58000000D02*
X99148200Y59973300D01*
X110028000Y58004000D02*
X112560000Y58004000D01*
X94075600Y9824000D02*
X97174900Y12923300D01*
X109262000Y58770000D02*
X110028000Y58004000D01*
X108059000Y59973300D02*
X109262000Y58770000D01*
%TO.N,pinky_mod*%
X21810000Y-4908800D02*
X21810000Y-5000000D01*
X18000000Y5900000D02*
X20089000Y3811000D01*
X20089000Y3811000D02*
X20089000Y-3187800D01*
X20089000Y-3187800D02*
X20089000Y-4561000D01*
X20089000Y-4561000D02*
X19650000Y-5000000D01*
X20089000Y-3187800D02*
X21810000Y-4908800D01*
%TO.N,pinky_bottom*%
X19650000Y12000000D02*
X20089000Y12439000D01*
X20089000Y20811000D02*
X18000000Y22900000D01*
X20089000Y12439000D02*
X20089000Y20811000D01*
X21810000Y12000000D02*
X19650000Y12000000D01*
%TO.N,pinky_home*%
X20089000Y29439000D02*
X19650000Y29000000D01*
X20089000Y37811000D02*
X20089000Y29439000D01*
X18000000Y39900000D02*
X20089000Y37811000D01*
X21810000Y29000000D02*
X19650000Y29000000D01*
%TO.N,pinky_top*%
X20089000Y46439000D02*
X19650000Y46000000D01*
X18000000Y56900000D02*
X20089000Y54811000D01*
X21810000Y46000000D02*
X19650000Y46000000D01*
X20089000Y54811000D02*
X20089000Y46439000D01*
%TO.N,pinky_num*%
X19650000Y63000000D02*
X21810000Y63000000D01*
X20089000Y71811000D02*
X18000000Y73900000D01*
X19650000Y63000000D02*
X20089000Y63439000D01*
X20089000Y63439000D02*
X20089000Y71811000D01*
%TO.N,P19*%
X36574400Y9374400D02*
X94261800Y9374400D01*
X112560000Y55464000D02*
X113326000Y56230000D01*
X99057800Y57433300D02*
X108059000Y57433300D01*
X97624500Y56000000D02*
X99057800Y57433300D01*
X94261800Y9374400D02*
X97624500Y12737100D01*
X31000000Y3800000D02*
X36574400Y9374400D01*
X97624500Y12737100D02*
X97624500Y56000000D01*
X109262000Y56230000D02*
X110028000Y55464000D01*
X110028000Y55464000D02*
X112560000Y55464000D01*
X108059000Y57433300D02*
X109262000Y56230000D01*
%TO.N,ring_mod*%
X38089000Y-3187800D02*
X39810000Y-4908800D01*
X38089000Y-3187800D02*
X38089000Y-4561000D01*
X38089000Y-4561000D02*
X37650000Y-5000000D01*
X38089000Y3811000D02*
X38089000Y-3187800D01*
X39810000Y-4908800D02*
X39810000Y-5000000D01*
X36000000Y5900000D02*
X38089000Y3811000D01*
%TO.N,ring_bottom*%
X36000000Y22900000D02*
X38089000Y20811000D01*
X38089000Y12439000D02*
X37650000Y12000000D01*
X38089000Y20811000D02*
X38089000Y12439000D01*
X39810000Y12000000D02*
X37650000Y12000000D01*
%TO.N,ring_home*%
X36000000Y39900000D02*
X38089000Y37811000D01*
X38089000Y29439000D02*
X37650000Y29000000D01*
X38089000Y37811000D02*
X38089000Y29439000D01*
X39810000Y29000000D02*
X37650000Y29000000D01*
%TO.N,ring_top*%
X39810000Y46000000D02*
X37650000Y46000000D01*
X38089000Y46439000D02*
X37650000Y46000000D01*
X38089000Y54811000D02*
X38089000Y46439000D01*
X36000000Y56900000D02*
X38089000Y54811000D01*
%TO.N,ring_num*%
X36000000Y73900000D02*
X38089000Y71811000D01*
X37650000Y63000000D02*
X39810000Y63000000D01*
X38089000Y71811000D02*
X38089000Y63439000D01*
X38089000Y63439000D02*
X37650000Y63000000D01*
%TO.N,P18*%
X94448000Y8924900D02*
X98074000Y12550900D01*
X54124900Y8924900D02*
X94448000Y8924900D01*
X98074000Y53500000D02*
X99467300Y54893300D01*
X49000000Y3800000D02*
X54124900Y8924900D01*
X109262000Y53690000D02*
X110028000Y52924000D01*
X99467300Y54893300D02*
X108059000Y54893300D01*
X110028000Y52924000D02*
X112560000Y52924000D01*
X108059000Y54893300D02*
X109262000Y53690000D01*
X98074000Y12550900D02*
X98074000Y53500000D01*
X112560000Y52924000D02*
X113326000Y53690000D01*
%TO.N,middle_mod*%
X56089000Y-3187800D02*
X56089000Y-4561000D01*
X57810000Y-4908800D02*
X57810000Y-5000000D01*
X54000000Y5900000D02*
X56089000Y3811000D01*
X56089000Y-4561000D02*
X55650000Y-5000000D01*
X56089000Y-3187800D02*
X57810000Y-4908800D01*
X56089000Y3811000D02*
X56089000Y-3187800D01*
%TO.N,middle_bottom*%
X56089000Y12439000D02*
X56089000Y20811000D01*
X56089000Y20811000D02*
X54000000Y22900000D01*
X55650000Y12000000D02*
X56089000Y12439000D01*
X57810000Y12000000D02*
X55650000Y12000000D01*
%TO.N,middle_home*%
X56089000Y37811000D02*
X56089000Y29439000D01*
X54000000Y39900000D02*
X56089000Y37811000D01*
X56089000Y29439000D02*
X55650000Y29000000D01*
X57810000Y29000000D02*
X55650000Y29000000D01*
%TO.N,middle_top*%
X54000000Y56900000D02*
X56089000Y54811000D01*
X57810000Y46000000D02*
X55650000Y46000000D01*
X56089000Y54811000D02*
X56089000Y46439000D01*
X56089000Y46439000D02*
X55650000Y46000000D01*
%TO.N,middle_num*%
X56089000Y71811000D02*
X54000000Y73900000D01*
X55650000Y63000000D02*
X57810000Y63000000D01*
X56089000Y63439000D02*
X56089000Y71811000D01*
X55650000Y63000000D02*
X56089000Y63439000D01*
%TO.N,SCLK*%
X67000000Y3800000D02*
X71675400Y8475400D01*
X98523500Y51000000D02*
X99876800Y52353300D01*
X99876800Y52353300D02*
X108059000Y52353300D01*
X94634200Y8475400D02*
X98523500Y12364700D01*
X112560000Y50384000D02*
X113326000Y51150000D01*
X98523500Y12364700D02*
X98523500Y51000000D01*
X108059000Y52353300D02*
X109262000Y51150000D01*
X109262000Y51150000D02*
X110028000Y50384000D01*
X110028000Y50384000D02*
X112560000Y50384000D01*
X71675400Y8475400D02*
X94634200Y8475400D01*
%TO.N,index_mod*%
X74089000Y3811000D02*
X74089000Y-4561000D01*
X74089000Y-4561000D02*
X73650000Y-5000000D01*
X73650000Y-5000000D02*
X75810000Y-5000000D01*
X72000000Y5900000D02*
X74089000Y3811000D01*
%TO.N,index_bottom*%
X74089000Y20811000D02*
X74089000Y12439000D01*
X72000000Y22900000D02*
X74089000Y20811000D01*
X75810000Y12000000D02*
X73650000Y12000000D01*
X74089000Y12439000D02*
X73650000Y12000000D01*
%TO.N,index_home*%
X74089000Y29439000D02*
X73650000Y29000000D01*
X72000000Y39900000D02*
X74089000Y37811000D01*
X75810000Y29000000D02*
X73650000Y29000000D01*
X74089000Y37811000D02*
X74089000Y29439000D01*
%TO.N,index_top*%
X74089000Y54811000D02*
X74089000Y46439000D01*
X75810000Y46000000D02*
X73650000Y46000000D01*
X74089000Y46439000D02*
X73650000Y46000000D01*
X72000000Y56900000D02*
X74089000Y54811000D01*
%TO.N,index_num*%
X74089000Y63439000D02*
X73650000Y63000000D01*
X75810000Y63000000D02*
X73650000Y63000000D01*
X74089000Y71811000D02*
X74089000Y63439000D01*
X72000000Y73900000D02*
X74089000Y71811000D01*
%TO.N,MISO*%
X89225900Y8025900D02*
X94820400Y8025900D01*
X109262000Y48610000D02*
X110028000Y47844000D01*
X110028000Y47844000D02*
X112560000Y47844000D01*
X112560000Y47844000D02*
X113326000Y48610000D01*
X94820400Y8025900D02*
X98973000Y12178500D01*
X98973000Y12178500D02*
X98973000Y49000000D01*
X85000000Y3800000D02*
X89225900Y8025900D01*
X98973000Y49000000D02*
X99786300Y49813300D01*
X108059000Y49813300D02*
X109262000Y48610000D01*
X99786300Y49813300D02*
X108059000Y49813300D01*
%TO.N,inner_mod*%
X90000000Y5900000D02*
X92089000Y3811000D01*
X92089000Y3811000D02*
X92089000Y-4561000D01*
X92089000Y-4561000D02*
X91650000Y-5000000D01*
X91650000Y-5000000D02*
X93810000Y-5000000D01*
%TO.N,inner_bottom*%
X92089000Y20811000D02*
X90000000Y22900000D01*
X92089000Y12439000D02*
X92089000Y20811000D01*
X91650000Y12000000D02*
X92089000Y12439000D01*
X91650000Y12000000D02*
X93810000Y12000000D01*
%TO.N,inner_home*%
X91650000Y29000000D02*
X92089000Y29439000D01*
X93810000Y29000000D02*
X91650000Y29000000D01*
X92089000Y29439000D02*
X92089000Y37811000D01*
X92089000Y37811000D02*
X90000000Y39900000D01*
%TO.N,inner_top*%
X90000000Y56900000D02*
X92089000Y54811000D01*
X92089000Y54811000D02*
X92089000Y46439000D01*
X93810000Y46000000D02*
X91650000Y46000000D01*
X92089000Y46439000D02*
X91650000Y46000000D01*
%TO.N,inner_num*%
X92089000Y63439000D02*
X92089000Y71811000D01*
X91650000Y63000000D02*
X92089000Y63439000D01*
X91650000Y63000000D02*
X93810000Y63000000D01*
X92089000Y71811000D02*
X90000000Y73900000D01*
%TO.N,MOSI*%
X103000000Y3800000D02*
X97215100Y9584900D01*
X99422500Y11992300D02*
X99422500Y46500000D01*
X109262000Y46070000D02*
X110028000Y45304000D01*
X97215100Y9584900D02*
X97215100Y9784900D01*
X112560000Y45304000D02*
X113326000Y46070000D01*
X110028000Y45304000D02*
X112560000Y45304000D01*
X100196000Y47273300D02*
X108059000Y47273300D01*
X99422500Y46500000D02*
X100196000Y47273300D01*
X97215100Y9784900D02*
X99422500Y11992300D01*
X108059000Y47273300D02*
X109262000Y46070000D01*
%TO.N,extraInner_mod*%
X109650000Y-5000000D02*
X111810000Y-5000000D01*
X108000000Y5900000D02*
X110089000Y3811000D01*
X110089000Y3811000D02*
X110089000Y-4561000D01*
X110089000Y-4561000D02*
X109650000Y-5000000D01*
%TO.N,P8*%
X107738000Y46070000D02*
X107729000Y46060900D01*
X86190000Y-5000000D02*
X84913000Y-6277000D01*
X16350000Y-5926900D02*
X16350000Y-5000000D01*
X104051000Y46440800D02*
X103668000Y46057800D01*
X70933400Y-5926900D02*
X71283500Y-6277000D01*
X15467000Y-6277000D02*
X17283500Y-6277000D01*
X14190000Y-5000000D02*
X15467000Y-6277000D01*
X102913000Y-6277000D02*
X89283500Y-6277000D01*
X16933400Y-5926900D02*
X16350000Y-5926900D01*
X71283500Y-6277000D02*
X69467000Y-6277000D01*
X104190000Y-5000000D02*
X102913000Y-6277000D01*
X70350000Y-5926900D02*
X70933400Y-5926900D01*
X106966000Y46823800D02*
X104434000Y46823800D01*
X84913000Y-6277000D02*
X71283500Y-6277000D01*
X14190000Y-5000000D02*
X12913000Y-6277000D01*
X104051000Y46440800D02*
X104045000Y46440800D01*
X33467000Y-6277000D02*
X32190000Y-5000000D01*
X106350000Y-5000000D02*
X104190000Y-5000000D01*
X69467000Y-6277000D02*
X68190000Y-5000000D01*
X107729000Y46060900D02*
X106966000Y46823800D01*
X52350000Y-5926900D02*
X52933400Y-5926900D01*
X35283500Y-6277000D02*
X34933400Y-5926900D01*
X17283500Y-6277000D02*
X16933400Y-5926900D01*
X50190000Y-5000000D02*
X48913000Y-6277000D01*
X104045000Y46440800D02*
X103674000Y46070000D01*
X88350000Y-5926900D02*
X88350000Y-5000000D01*
X35283500Y-6277000D02*
X33467000Y-6277000D01*
X89283500Y-6277000D02*
X87467000Y-6277000D01*
X34933400Y-5926900D02*
X34350000Y-5926900D01*
X53283500Y-6277000D02*
X51467000Y-6277000D01*
X70350000Y-5000000D02*
X70350000Y-5926900D01*
X17283500Y-6277000D02*
X30913000Y-6277000D01*
X52933400Y-5926900D02*
X53283500Y-6277000D01*
X12913000Y-6277000D02*
X-2533000Y-6277000D01*
X-3810000Y-5000000D02*
X-1650000Y-5000000D01*
X-2533000Y-6277000D02*
X-3810000Y-5000000D01*
X34350000Y-5926900D02*
X34350000Y-5000000D01*
X87467000Y-6277000D02*
X86190000Y-5000000D01*
X52350000Y-5000000D02*
X52350000Y-5926900D01*
X51467000Y-6277000D02*
X50190000Y-5000000D01*
X66913000Y-6277000D02*
X53283500Y-6277000D01*
X68190000Y-5000000D02*
X66913000Y-6277000D01*
X107732000Y46057800D02*
X107729000Y46060900D01*
X48913000Y-6277000D02*
X35283500Y-6277000D01*
X88933400Y-5926900D02*
X88350000Y-5926900D01*
X30913000Y-6277000D02*
X32190000Y-5000000D01*
X104434000Y46823800D02*
X104051000Y46440800D01*
X89283500Y-6277000D02*
X88933400Y-5926900D01*
%TO.N,P7*%
X104045000Y48980800D02*
X103674000Y48610000D01*
X107729000Y48600900D02*
X106966000Y49363800D01*
X106966000Y49363800D02*
X104434000Y49363800D01*
X48913000Y10723000D02*
X50190000Y12000000D01*
X33573100Y12000000D02*
X32934600Y11361500D01*
X107738000Y48610000D02*
X107729000Y48600900D01*
X31551500Y11361500D02*
X32190000Y12000000D01*
X52350000Y12000000D02*
X50190000Y12000000D01*
X30913000Y10723000D02*
X31551500Y11361500D01*
X51467000Y10723000D02*
X66913000Y10723000D01*
X34350000Y12000000D02*
X33573100Y12000000D01*
X-3810000Y12000000D02*
X-2533000Y10723000D01*
X32934600Y11361500D02*
X31551500Y11361500D01*
X33467000Y10723000D02*
X48913000Y10723000D01*
X14190000Y12000000D02*
X16350000Y12000000D01*
X66913000Y10723000D02*
X67551500Y11361500D01*
X50190000Y12000000D02*
X51467000Y10723000D01*
X104051000Y48980800D02*
X103668000Y48597800D01*
X86190000Y12000000D02*
X88350000Y12000000D01*
X69573100Y12000000D02*
X68934600Y11361500D01*
X68190000Y12000000D02*
X69467000Y10723000D01*
X67551500Y11361500D02*
X68190000Y12000000D01*
X69467000Y10723000D02*
X84913000Y10723000D01*
X104434000Y49363800D02*
X104051000Y48980800D01*
X15467000Y10723000D02*
X30913000Y10723000D01*
X32190000Y12000000D02*
X33467000Y10723000D01*
X-3810000Y12000000D02*
X-1650000Y12000000D01*
X107732000Y48597800D02*
X107729000Y48600900D01*
X14190000Y12000000D02*
X15467000Y10723000D01*
X12913000Y10723000D02*
X14190000Y12000000D01*
X68934600Y11361500D02*
X67551500Y11361500D01*
X70350000Y12000000D02*
X69573100Y12000000D01*
X84913000Y10723000D02*
X86190000Y12000000D01*
X-2533000Y10723000D02*
X12913000Y10723000D01*
X104051000Y48980800D02*
X104045000Y48980800D01*
%TO.N,P6*%
X48913000Y27723000D02*
X50190000Y29000000D01*
X106966000Y51903800D02*
X104434000Y51903800D01*
X50190000Y29000000D02*
X51467000Y27723000D01*
X14190000Y29000000D02*
X15467000Y27723000D01*
X34350000Y29000000D02*
X32190000Y29000000D01*
X104051000Y51520800D02*
X103668000Y51137800D01*
X107729000Y51140900D02*
X106966000Y51903800D01*
X68190000Y29000000D02*
X70350000Y29000000D01*
X30913000Y27723000D02*
X32190000Y29000000D01*
X-3810000Y29000000D02*
X-1713300Y29000000D01*
X33467000Y27723000D02*
X48913000Y27723000D01*
X-415800Y27702500D02*
X11676600Y27702500D01*
X84913000Y27723000D02*
X86190000Y29000000D01*
X-1713300Y29000000D02*
X-415800Y27702500D01*
X15467000Y27723000D02*
X30913000Y27723000D01*
X68190000Y29000000D02*
X69467000Y27723000D01*
X104051000Y51520800D02*
X104045000Y51520800D01*
X52350000Y29000000D02*
X50190000Y29000000D01*
X11676600Y27702500D02*
X12974100Y29000000D01*
X107732000Y51137800D02*
X107729000Y51140900D01*
X51467000Y27723000D02*
X66913000Y27723000D01*
X104434000Y51903800D02*
X104051000Y51520800D01*
X12974100Y29000000D02*
X14190000Y29000000D01*
X69467000Y27723000D02*
X84913000Y27723000D01*
X88350000Y29000000D02*
X86190000Y29000000D01*
X16350000Y29000000D02*
X14190000Y29000000D01*
X107738000Y51150000D02*
X107729000Y51140900D01*
X-1713300Y29000000D02*
X-1650000Y29000000D01*
X32190000Y29000000D02*
X33467000Y27723000D01*
X104045000Y51520800D02*
X103674000Y51150000D01*
X66913000Y27723000D02*
X68190000Y29000000D01*
%TO.N,P5*%
X14190000Y46000000D02*
X15467000Y44723000D01*
X107732000Y53677800D02*
X107729000Y53680900D01*
X32190000Y46000000D02*
X33467000Y44723000D01*
X-1650000Y46000000D02*
X-3810000Y46000000D01*
X86190000Y46000000D02*
X84913000Y44723000D01*
X68190000Y46000000D02*
X66913000Y44723000D01*
X-2533000Y44723000D02*
X12913000Y44723000D01*
X52350000Y46000000D02*
X50190000Y46000000D01*
X69467000Y44723000D02*
X68190000Y46000000D01*
X14190000Y46000000D02*
X16350000Y46000000D01*
X51467000Y44723000D02*
X50190000Y46000000D01*
X66913000Y44723000D02*
X51467000Y44723000D01*
X107738000Y53690000D02*
X107729000Y53680900D01*
X32190000Y46000000D02*
X34350000Y46000000D01*
X104051000Y54060800D02*
X103668000Y53677800D01*
X33467000Y44723000D02*
X48913000Y44723000D01*
X12913000Y44723000D02*
X14190000Y46000000D01*
X30913000Y44723000D02*
X32190000Y46000000D01*
X68190000Y46000000D02*
X70350000Y46000000D01*
X106966000Y54443800D02*
X104434000Y54443800D01*
X104051000Y54060800D02*
X104045000Y54060800D01*
X-3810000Y46000000D02*
X-2533000Y44723000D01*
X84913000Y44723000D02*
X69467000Y44723000D01*
X104045000Y54060800D02*
X103674000Y53690000D01*
X48913000Y44723000D02*
X50190000Y46000000D01*
X15467000Y44723000D02*
X30913000Y44723000D01*
X88350000Y46000000D02*
X86190000Y46000000D01*
X107729000Y53680900D02*
X106966000Y54443800D01*
X104434000Y54443800D02*
X104051000Y54060800D01*
%TO.N,P4*%
X88350000Y63000000D02*
X86190000Y63000000D01*
X-3810000Y63000000D02*
X-1650000Y63000000D01*
X12913000Y61723000D02*
X14190000Y63000000D01*
X84913000Y61723000D02*
X86190000Y63000000D01*
X50190000Y63000000D02*
X52350000Y63000000D01*
X66913000Y61723000D02*
X68190000Y63000000D01*
X104434000Y56983800D02*
X104051000Y56600800D01*
X107738000Y56230000D02*
X107729000Y56220900D01*
X68190000Y63000000D02*
X70350000Y63000000D01*
X69467000Y61723000D02*
X84913000Y61723000D01*
X32190000Y63000000D02*
X34350000Y63000000D01*
X32190000Y63000000D02*
X33467000Y61723000D01*
X33467000Y61723000D02*
X48913000Y61723000D01*
X30913000Y61723000D02*
X32190000Y63000000D01*
X14190000Y63000000D02*
X15467000Y61723000D01*
X106966000Y56983800D02*
X104434000Y56983800D01*
X104045000Y56600800D02*
X103674000Y56230000D01*
X15467000Y61723000D02*
X30913000Y61723000D01*
X48913000Y61723000D02*
X50190000Y63000000D01*
X107729000Y56220900D02*
X106966000Y56983800D01*
X51467000Y61723000D02*
X66913000Y61723000D01*
X-3810000Y63000000D02*
X-2533000Y61723000D01*
X50190000Y63000000D02*
X51467000Y61723000D01*
X68190000Y63000000D02*
X69467000Y61723000D01*
X16350000Y63000000D02*
X14190000Y63000000D01*
X104051000Y56600800D02*
X103668000Y56217800D01*
X104051000Y56600800D02*
X104045000Y56600800D01*
X107732000Y56217800D02*
X107729000Y56220900D01*
X-2533000Y61723000D02*
X12913000Y61723000D01*
%TO.N,P1*%
X104045000Y71840800D02*
X103674000Y71470000D01*
X107349000Y71840800D02*
X106966000Y72223800D01*
X107349000Y71840800D02*
X107367000Y71840800D01*
X107732000Y71457800D02*
X107349000Y71840800D01*
X104051000Y71840800D02*
X104045000Y71840800D01*
X106966000Y72223800D02*
X104434000Y72223800D01*
X104434000Y72223800D02*
X104051000Y71840800D01*
X116350000Y22548000D02*
X116350000Y22150000D01*
X107367000Y71840800D02*
X107738000Y71470000D01*
X104051000Y71840800D02*
X103668000Y71457800D01*
%TO.N,P0*%
X107729000Y68920900D02*
X106966000Y69683800D01*
X103846000Y69095900D02*
X103840000Y69095900D01*
X107738000Y68930000D02*
X107729000Y68920900D01*
X107732000Y68917800D02*
X107729000Y68920900D01*
X103840000Y69095900D02*
X103674000Y68930000D01*
X106966000Y69683800D02*
X104434000Y69683800D01*
X104434000Y69683800D02*
X103846000Y69095900D01*
X103846000Y69095900D02*
X103668000Y68917800D01*
X114250000Y9250000D02*
X114250000Y9452000D01*
%TO.N,SDA*%
X113300000Y27996300D02*
X113300000Y37559200D01*
X117298000Y41556700D02*
X117298000Y59213100D01*
X111984000Y19810000D02*
X111407000Y19810000D01*
X104434000Y62063800D02*
X104051000Y61680800D01*
X116614000Y59896900D02*
X109133000Y59896900D01*
X111300000Y14050800D02*
X111300000Y19702500D01*
X111407000Y26103400D02*
X113300000Y27996300D01*
X106966000Y62063800D02*
X104434000Y62063800D01*
X117298000Y59213100D02*
X116614000Y59896900D01*
X107732000Y61297800D02*
X107729000Y61300900D01*
X111300000Y19702500D02*
X111407000Y19810000D01*
X111407000Y19810000D02*
X111407000Y26103400D01*
X111889000Y13461200D02*
X111300000Y14050800D01*
X104051000Y61680800D02*
X104045000Y61680800D01*
X109133000Y59896900D02*
X107732000Y61297800D01*
X104051000Y61680800D02*
X103668000Y61297800D01*
X107738000Y61310000D02*
X107729000Y61300900D01*
X113300000Y37559200D02*
X117298000Y41556700D01*
X104045000Y61680800D02*
X103674000Y61310000D01*
X107729000Y61300900D02*
X106966000Y62063800D01*
X111982000Y13461200D02*
X111889000Y13461200D01*
%TO.N,SCL*%
X107367000Y59140800D02*
X107738000Y58770000D01*
X107349000Y59140800D02*
X107367000Y59140800D01*
X107349000Y59140800D02*
X106966000Y59523800D01*
X106966000Y59523800D02*
X104434000Y59523800D01*
X104051000Y59140800D02*
X103668000Y58757800D01*
X104051000Y59140800D02*
X104045000Y59140800D01*
X107732000Y58757800D02*
X107349000Y59140800D01*
X104045000Y59140800D02*
X103674000Y58770000D01*
X104434000Y59523800D02*
X104051000Y59140800D01*
%TO.N,P9*%
X106966000Y44283800D02*
X104434000Y44283800D01*
X111984000Y17270000D02*
X111984000Y16343100D01*
X107732000Y43517800D02*
X107729000Y43520900D01*
X103846000Y43695900D02*
X103840000Y43695900D01*
X107738000Y43530000D02*
X107729000Y43520900D01*
X112072000Y16254700D02*
X112072000Y16063700D01*
X104434000Y44283800D02*
X103846000Y43695900D01*
X111984000Y16343100D02*
X112072000Y16254700D01*
X107175700Y42967600D02*
X107729000Y43520900D01*
X105273300Y42967600D02*
X107175700Y42967600D01*
X103846000Y43695900D02*
X103668000Y43517800D01*
X103840000Y43695900D02*
X103674000Y43530000D01*
X107729000Y43520900D02*
X106966000Y44283800D01*
%TO.N,RAW*%
X110028000Y70704000D02*
X112560000Y70704000D01*
X112560000Y70704000D02*
X113326000Y71470000D01*
X109262000Y71470000D02*
X110028000Y70704000D01*
%TO.N,GND*%
X106966000Y65614900D02*
X106966000Y64603800D01*
X109645000Y68547000D02*
X110028000Y68164000D01*
X107348000Y66762400D02*
X106966000Y67143800D01*
X107729000Y66380900D02*
X107348000Y66762400D01*
X109262000Y68930000D02*
X109645000Y68547000D01*
X104434000Y67143800D02*
X104051000Y66760800D01*
X107738000Y66390000D02*
X107729000Y66380900D01*
X109645000Y68547000D02*
X108114000Y67015500D01*
X107730000Y66379400D02*
X106966000Y65614900D01*
X108114000Y67015500D02*
X107601000Y67015500D01*
X107738000Y63850000D02*
X107729000Y63840900D01*
X107601000Y67015500D02*
X107348000Y66762400D01*
X107800000Y35400000D02*
X106700000Y34300000D01*
X107800000Y29700000D02*
X107800000Y30900000D01*
X107730000Y66379400D02*
X107729000Y66380900D01*
X103846000Y64015900D02*
X103840000Y64015900D01*
X110028000Y68164000D02*
X112560000Y68164000D01*
X103840000Y64015900D02*
X103674000Y63850000D01*
X104434000Y64603800D02*
X103846000Y64015900D01*
X107800000Y30900000D02*
X106700000Y32000000D01*
X107729000Y63840900D02*
X106966000Y64603800D01*
X104051000Y66760800D02*
X104045000Y66760800D01*
X106966000Y67143800D02*
X104434000Y67143800D01*
X107800000Y36600000D02*
X107800000Y35400000D01*
X106700000Y34300000D02*
X106700000Y32000000D01*
X107732000Y66377800D02*
X107730000Y66379400D01*
X112270000Y12710800D02*
X112715000Y13155800D01*
X112715000Y13999300D02*
X111984000Y14730000D01*
X111704000Y12710800D02*
X112270000Y12710800D01*
X112715000Y13155800D02*
X112715000Y13999300D01*
X103846000Y64015900D02*
X103668000Y63837800D01*
X104051000Y66760800D02*
X103668000Y66377800D01*
X106750000Y26000000D02*
X106750000Y17664900D01*
X106966000Y64603800D02*
X104434000Y64603800D01*
X107732000Y63837800D02*
X107729000Y63840900D01*
X104045000Y66760800D02*
X103674000Y66390000D01*
X112560000Y68164000D02*
X113326000Y68930000D01*
X106750000Y17664900D02*
X111704000Y12710800D01*
%TO.N,RST*%
X116562000Y67544900D02*
X113554000Y67544900D01*
X118253000Y65853700D02*
X116562000Y67544900D01*
X110028000Y65624000D02*
X112560000Y65624000D01*
X118253000Y31003300D02*
X118253000Y65853700D01*
X112560000Y65624000D02*
X112726000Y65789900D01*
X113326000Y66390000D02*
X112726000Y65789900D01*
X112726000Y65789900D02*
X113196000Y65789900D01*
X113250000Y26000000D02*
X118253000Y31003300D01*
X109262000Y66390000D02*
X110028000Y65624000D01*
X113554000Y67544900D02*
X113326000Y67316900D01*
X113326000Y67316900D02*
X113326000Y66390000D01*
%TO.N,VCC*%
X110028000Y63084000D02*
X112560000Y63084000D01*
X114800000Y36600000D02*
X114800000Y35886500D01*
X117801000Y61253900D02*
X116421000Y62634600D01*
X117801000Y38887900D02*
X117801000Y61253900D01*
X116421000Y62634600D02*
X113009000Y62634600D01*
X114800000Y35886500D02*
X114800000Y29700000D01*
X114800000Y35886500D02*
X117801000Y38887900D01*
X112560000Y63084000D02*
X113326000Y63850000D01*
X109262000Y63850000D02*
X110028000Y63084000D01*
X113009000Y62634600D02*
X112560000Y63084000D01*
%TO.N,P10*%
X111800000Y29700000D02*
X111800000Y36600000D01*
X112560000Y42764000D02*
X113326000Y43530000D01*
X110028000Y42764000D02*
X112560000Y42764000D01*
X109262000Y43530000D02*
X110028000Y42764000D01*
%TD*%
M02*
