%TF.GenerationSoftware,KiCad,Pcbnew,6.0.11-2627ca5db0~126~ubuntu22.04.1*%
%TF.CreationDate,2023-07-21T23:46:38-07:00*%
%TF.ProjectId,swirl,73776972-6c2e-46b6-9963-61645f706362,v1.0.0*%
%TF.SameCoordinates,Original*%
%TF.FileFunction,Legend,Bot*%
%TF.FilePolarity,Positive*%
%FSLAX46Y46*%
G04 Gerber Fmt 4.6, Leading zero omitted, Abs format (unit mm)*
G04 Created by KiCad (PCBNEW 6.0.11-2627ca5db0~126~ubuntu22.04.1) date 2023-07-21 23:46:38*
%MOMM*%
%LPD*%
G01*
G04 APERTURE LIST*
%ADD10C,0.000000*%
%ADD11C,0.150000*%
%ADD12C,0.100000*%
G04 APERTURE END LIST*
D10*
G36*
X-46454869Y106654625D02*
G01*
X-46453530Y106654475D01*
X-46452238Y106654240D01*
X-46450999Y106653915D01*
X-46449816Y106653497D01*
X-46448693Y106652983D01*
X-46447634Y106652368D01*
X-46446645Y106651648D01*
X-46445728Y106650820D01*
X-46444888Y106649879D01*
X-46444130Y106648823D01*
X-46443457Y106647646D01*
X-46442874Y106646346D01*
X-46442385Y106644918D01*
X-46441994Y106643358D01*
X-46441706Y106641663D01*
X-46441523Y106639829D01*
X-46441452Y106637852D01*
X-46441495Y106635728D01*
X-46441658Y106633453D01*
X-46441943Y106631024D01*
X-46442356Y106628436D01*
X-46442901Y106625686D01*
X-46443582Y106622770D01*
X-46446798Y106610442D01*
X-46450825Y106596709D01*
X-46455668Y106581568D01*
X-46461331Y106565022D01*
X-46467819Y106547069D01*
X-46475136Y106527709D01*
X-46483289Y106506943D01*
X-46492280Y106484769D01*
X-46512281Y106437568D01*
X-46535506Y106384647D01*
X-46561919Y106326287D01*
X-46591481Y106262769D01*
X-46623990Y106193974D01*
X-46659706Y106119648D01*
X-46698610Y106039882D01*
X-46740682Y105954771D01*
X-46832556Y105771148D01*
X-46937181Y105565771D01*
X-47052793Y105340148D01*
X-47180482Y105092771D01*
X-47319032Y104824896D01*
X-47468980Y104536771D01*
X-47799882Y103898771D01*
X-48171583Y103179769D01*
X-48581983Y102377775D01*
X-49028279Y101494771D01*
X-49508180Y100530774D01*
X-50018281Y99484769D01*
X-50283344Y98931274D01*
X-50556279Y98356779D01*
X-50833768Y97763275D01*
X-51118680Y97148771D01*
X-51406980Y96514274D01*
X-51702180Y95858778D01*
X-52000081Y95183027D01*
X-52303682Y94487775D01*
X-52609006Y93771396D01*
X-52919580Y93034772D01*
X-53230455Y92278274D01*
X-53545980Y91500776D01*
X-53860869Y90704277D01*
X-54179280Y89886777D01*
X-54496094Y89048900D01*
X-54815683Y88190778D01*
X-55132268Y87313396D01*
X-55450879Y86415769D01*
X-55765343Y85497518D01*
X-56081082Y84559766D01*
X-56391118Y83602024D01*
X-56701680Y82624769D01*
X-57005443Y81627019D01*
X-57308683Y80609769D01*
X-57603743Y79573018D01*
X-57897382Y78516767D01*
X-58181682Y77441896D01*
X-58463582Y76346769D01*
X-58734730Y75233146D01*
X-59002580Y74100767D01*
X-59258306Y72948646D01*
X-59509683Y71777769D01*
X-59747669Y70590019D01*
X-59980481Y69382780D01*
X-60198318Y68157276D01*
X-60410081Y66913770D01*
X-60605405Y65653648D01*
X-60793680Y64374769D01*
X-60964045Y63079273D01*
X-61126382Y61765775D01*
X-61269443Y60437400D01*
X-61403581Y59091779D01*
X-61517018Y57730524D01*
X-61620481Y56352766D01*
X-61701844Y54960273D01*
X-61772481Y53552778D01*
X-61819582Y52130769D01*
X-61854982Y50693769D01*
X-61865457Y49243526D01*
X-61863481Y47779768D01*
X-61835131Y46302518D01*
X-61793283Y44811765D01*
X-61724131Y43311023D01*
X-61640580Y41796766D01*
X-61528193Y40272645D01*
X-61400583Y38735776D01*
X-61242907Y37190275D01*
X-61069181Y35632780D01*
X-60864432Y34069272D01*
X-60642881Y32493772D01*
X-60388906Y30913522D01*
X-60117380Y29322767D01*
X-59812292Y27726776D01*
X-59488981Y26121778D01*
X-59130868Y24513521D01*
X-58754079Y22897779D01*
X-58341707Y21280147D01*
X-57909982Y19655775D01*
X-57678074Y18843679D01*
X-57441243Y18030271D01*
X-57199332Y17215363D01*
X-56952180Y16398771D01*
X-56691928Y15585462D01*
X-56426331Y14770275D01*
X-56155484Y13953585D01*
X-55879480Y13135770D01*
X-55589475Y12320425D01*
X-55294256Y11504520D01*
X-54993599Y10687491D01*
X-54687280Y9868772D01*
X-54367866Y9055054D01*
X-54042656Y8240024D01*
X-53711709Y7423870D01*
X-53375081Y6606779D01*
X-53024766Y5794305D01*
X-52668732Y4981271D01*
X-52306923Y4167488D01*
X-51939283Y3352766D01*
X-51557755Y2544084D01*
X-51170519Y1735021D01*
X-50777564Y925581D01*
X-50378881Y115766D01*
X-49965849Y-688214D01*
X-49546994Y-1492104D01*
X-49122384Y-2295808D01*
X-48692083Y-3099230D01*
X-48247396Y-3895712D01*
X-47796793Y-4692101D01*
X-47340210Y-5488304D01*
X-46877580Y-6284228D01*
X-46400249Y-7073570D01*
X-45917181Y-7861977D01*
X-45428413Y-8649260D01*
X-44933980Y-9435229D01*
X-44424308Y-10214492D01*
X-43908870Y-10992352D01*
X-43387711Y-11768899D01*
X-42860879Y-12544222D01*
X-42319523Y-13310458D01*
X-41771830Y-14075848D01*
X-41218212Y-14839925D01*
X-40659082Y-15602221D01*
X-40085023Y-16355349D01*
X-39504919Y-17106976D01*
X-38918945Y-17856729D01*
X-38327281Y-18604235D01*
X-37720837Y-19342434D01*
X-37108881Y-20078105D01*
X-36491224Y-20811337D01*
X-35867681Y-21542223D01*
X-35229376Y-22263019D01*
X-34585494Y-22981099D01*
X-33935705Y-23696743D01*
X-33279682Y-24410235D01*
X-32609840Y-25111638D01*
X-31934281Y-25810229D01*
X-31253022Y-26505821D01*
X-30566081Y-27198229D01*
X-29865869Y-27878471D01*
X-29159506Y-28555615D01*
X-28447256Y-29229569D01*
X-27729381Y-29900240D01*
X-12978461Y-41115237D01*
X-7175338Y-44030517D01*
X-6619906Y-44329356D01*
X-5688521Y-44822237D01*
X-4748075Y-45302477D01*
X-3799461Y-45778231D01*
X-2838086Y-46243735D01*
X-1868761Y-46703219D01*
X-1717468Y-46772354D01*
X3286619Y-49286227D01*
X7897409Y-50617181D01*
X8341920Y-50769228D01*
X9409882Y-51116488D01*
X10486319Y-51456240D01*
X11568419Y-51780478D01*
X12658318Y-52097231D01*
X13757044Y-52397479D01*
X14861020Y-52690219D01*
X15973644Y-52965472D01*
X16320436Y-53048578D01*
X20462520Y-54244235D01*
X24519575Y-54636065D01*
X25075157Y-54717223D01*
X26236220Y-54877230D01*
X27398156Y-55018222D01*
X28568720Y-55150240D01*
X29738931Y-55262099D01*
X30911917Y-55364230D01*
X32091469Y-55447600D01*
X33273120Y-55521243D01*
X34046118Y-55556138D01*
X37929721Y-55931216D01*
X41882155Y-55580773D01*
X42776217Y-55545230D01*
X43966044Y-55476981D01*
X45154521Y-55398226D01*
X45703418Y-55355227D01*
X46380194Y-55296477D01*
X47318419Y-55209231D01*
X48511907Y-55079859D01*
X49954318Y-54909243D01*
X50766861Y-54797392D01*
X50845259Y-54786058D01*
X55084117Y-54410220D01*
X59907658Y-53058191D01*
X60597381Y-52888472D01*
X61946839Y-52542030D01*
X63345317Y-52168215D01*
X64777743Y-51735768D01*
X66009430Y-51347877D01*
X71348918Y-49851229D01*
X86209422Y-42520236D01*
X99202922Y-32778231D01*
X109958918Y-21051226D01*
X118195918Y-7820223D01*
X123734912Y6402769D01*
X126492922Y21077772D01*
X126490924Y35689771D01*
X123849917Y49725767D01*
X118771914Y62730771D01*
X111546916Y74290769D01*
X102520923Y84073774D01*
X92098918Y91814771D01*
X80709216Y97341779D01*
X68800822Y100566770D01*
X56821620Y101489774D01*
X45203418Y100194768D01*
X34340117Y96843778D01*
X24582721Y91665769D01*
X16222720Y84949766D01*
X9484318Y77023771D01*
X4519919Y68245771D01*
X1409019Y58992765D01*
X152819Y49630765D01*
X683619Y40518766D01*
X2867019Y31983777D01*
X6512818Y24308774D01*
X11379220Y17735776D01*
X17195119Y12438779D01*
X23663218Y8535779D01*
X30478518Y6079771D01*
X37338618Y5059766D01*
X43958918Y5405774D01*
X50082118Y6992765D01*
X55488322Y9651777D01*
X60002917Y13174772D01*
X63503016Y17328779D01*
X65919818Y21867765D01*
X67239322Y26541776D01*
X67500522Y31112775D01*
X66792720Y35360776D01*
X65247119Y39095777D01*
X63031321Y42166776D01*
X60337321Y44468778D01*
X57373416Y45943769D01*
X54348422Y46588773D01*
X51464820Y46454771D01*
X48898818Y45648771D01*
X46784720Y44341779D01*
X45170020Y42766767D01*
X43967818Y41206769D01*
X42949717Y39911771D01*
X41873721Y39021772D01*
X40623320Y38602766D01*
X39207618Y38699766D01*
X37712119Y39355772D01*
X36262919Y40590772D01*
X35005217Y42399778D01*
X34089820Y44743772D01*
X34053561Y44858144D01*
X34022956Y44959768D01*
X33997807Y45048643D01*
X33977919Y45124769D01*
X33970276Y45158383D01*
X33963776Y45188726D01*
X33958429Y45215810D01*
X33954244Y45239648D01*
X33951232Y45260252D01*
X33949401Y45277633D01*
X33948761Y45291804D01*
X33948890Y45297690D01*
X33949321Y45302778D01*
X33949654Y45304927D01*
X33950055Y45306878D01*
X33950523Y45308630D01*
X33951059Y45310184D01*
X33951664Y45311540D01*
X33952335Y45312699D01*
X33953075Y45313662D01*
X33953883Y45314427D01*
X33954312Y45314736D01*
X33954759Y45314997D01*
X33955222Y45315208D01*
X33955703Y45315370D01*
X33956201Y45315484D01*
X33956716Y45315549D01*
X33957247Y45315564D01*
X33957797Y45315532D01*
X33958946Y45315320D01*
X33960164Y45314914D01*
X33961451Y45314314D01*
X33962806Y45313520D01*
X33964230Y45312533D01*
X33965723Y45311353D01*
X33967286Y45309980D01*
X33968917Y45308415D01*
X33970618Y45306659D01*
X33972388Y45304711D01*
X33974227Y45302572D01*
X33976136Y45300241D01*
X33978114Y45297721D01*
X33980162Y45295011D01*
X33982280Y45292111D01*
X33984467Y45289021D01*
X33986725Y45285743D01*
X33989052Y45282276D01*
X33993918Y45274778D01*
X34004350Y45257202D01*
X34015987Y45236730D01*
X34028814Y45213376D01*
X34042818Y45187150D01*
X34057985Y45158065D01*
X34074300Y45126132D01*
X34091749Y45091363D01*
X34110320Y45053770D01*
X34306918Y44667768D01*
X34370794Y44551178D01*
X34440444Y44426525D01*
X34515831Y44293995D01*
X34596919Y44153776D01*
X34686283Y44013761D01*
X34782107Y43868402D01*
X34884287Y43717979D01*
X34992720Y43562772D01*
X35051041Y43488577D01*
X35110964Y43413785D01*
X35172509Y43338455D01*
X35235695Y43262645D01*
X35300540Y43186414D01*
X35367063Y43109820D01*
X35435282Y43032922D01*
X35505217Y42955778D01*
X35578234Y42884677D01*
X35652907Y42813917D01*
X35729232Y42743556D01*
X35807206Y42673652D01*
X35886826Y42604264D01*
X35968087Y42535450D01*
X36050986Y42467268D01*
X36135520Y42399778D01*
X36222536Y42341143D01*
X36311077Y42283775D01*
X36401130Y42227719D01*
X36492681Y42173023D01*
X36585719Y42119734D01*
X36680229Y42067899D01*
X36776200Y42017564D01*
X36873618Y41968778D01*
X36972685Y41932026D01*
X37073000Y41897537D01*
X37174542Y41865322D01*
X37277294Y41835393D01*
X37381236Y41807762D01*
X37486350Y41782440D01*
X37592617Y41759438D01*
X37700019Y41738767D01*
X37807905Y41733153D01*
X37916759Y41730597D01*
X38026574Y41731158D01*
X38137343Y41734895D01*
X38249059Y41741867D01*
X38361715Y41752131D01*
X38475304Y41765747D01*
X38589820Y41782773D01*
X38703672Y41816570D01*
X38818423Y41854223D01*
X38934063Y41895744D01*
X39050581Y41941144D01*
X39167966Y41990436D01*
X39286207Y42043630D01*
X39405295Y42100738D01*
X39525218Y42161771D01*
X39645704Y42241932D01*
X39767397Y42326416D01*
X39890313Y42415235D01*
X40014468Y42508401D01*
X40139880Y42605926D01*
X40266565Y42707822D01*
X40394538Y42814100D01*
X40523818Y42924772D01*
X40657854Y43054098D01*
X40794209Y43187806D01*
X41074143Y43468276D01*
X41364166Y43765996D01*
X41664820Y44080778D01*
X41997960Y44433386D01*
X42348594Y44799402D01*
X42717566Y45178355D01*
X43105719Y45569776D01*
X43325566Y45773288D01*
X43551973Y45977994D01*
X43785044Y46183778D01*
X44024881Y46390523D01*
X44271584Y46598113D01*
X44525258Y46806429D01*
X44786002Y47015355D01*
X45053919Y47224775D01*
X45353803Y47424754D01*
X45661948Y47622553D01*
X45978385Y47817962D01*
X46303144Y48010770D01*
X46636257Y48200766D01*
X46977753Y48387738D01*
X47327664Y48571475D01*
X47686019Y48751768D01*
X48079458Y48903840D01*
X48481326Y49049409D01*
X48891588Y49188251D01*
X49310206Y49320144D01*
X49737144Y49444865D01*
X50172367Y49562192D01*
X50615837Y49671901D01*
X51067519Y49773771D01*
X51548351Y49827182D01*
X52035882Y49869567D01*
X52530012Y49900771D01*
X53030644Y49920644D01*
X53537679Y49929033D01*
X54051018Y49925785D01*
X54570564Y49910749D01*
X55096217Y49883771D01*
X55636167Y49790235D01*
X56179392Y49682038D01*
X56725671Y49559051D01*
X57274783Y49421146D01*
X57826505Y49268194D01*
X58380616Y49100066D01*
X58936895Y48916635D01*
X59495120Y48717771D01*
X60046351Y48440733D01*
X60595581Y48146598D01*
X61142562Y47835330D01*
X61687044Y47506894D01*
X62228779Y47161256D01*
X62767519Y46798378D01*
X63303014Y46418226D01*
X63835017Y46020765D01*
X64331192Y45541432D01*
X64819297Y45044707D01*
X65299006Y44530637D01*
X65769995Y43999269D01*
X66231936Y43450651D01*
X66684505Y42884829D01*
X67127375Y42301851D01*
X67560221Y41701765D01*
X67926861Y41026507D01*
X68278759Y40335828D01*
X68615618Y39629868D01*
X68937145Y38908767D01*
X69243044Y38172667D01*
X69533019Y37421708D01*
X69806777Y36656031D01*
X70064021Y35875776D01*
X70225148Y35039576D01*
X70365461Y34192417D01*
X70484703Y33334594D01*
X70582620Y32466400D01*
X70658954Y31588126D01*
X70713452Y30700067D01*
X70745858Y29802516D01*
X70755915Y28895765D01*
X70646371Y27962589D01*
X70511291Y27025523D01*
X70350540Y26084892D01*
X70163980Y25141025D01*
X69951475Y24194251D01*
X69712887Y23244897D01*
X69448080Y22293293D01*
X69156916Y21339765D01*
X68732405Y20400373D01*
X68280184Y19465724D01*
X67800240Y18536255D01*
X67292556Y17612398D01*
X66757117Y16694587D01*
X66193908Y15783258D01*
X65602913Y14878844D01*
X64984118Y13981779D01*
X64232229Y13144050D01*
X63453556Y12320899D01*
X62648238Y11512749D01*
X61816418Y10720022D01*
X60958234Y9943138D01*
X60073829Y9182521D01*
X59163343Y8438593D01*
X58226916Y7711774D01*
X57173882Y7091029D01*
X56098479Y6494306D01*
X55001007Y5922004D01*
X53881767Y5374523D01*
X52741058Y4852260D01*
X51579180Y4355616D01*
X50396433Y3884989D01*
X49193118Y3440778D01*
X47906285Y3144250D01*
X46604929Y2879633D01*
X45289489Y2647242D01*
X43960405Y2447395D01*
X42618117Y2280407D01*
X41263063Y2146595D01*
X39895683Y2046276D01*
X38516417Y1979764D01*
X37101397Y2091347D01*
X35682541Y2240173D01*
X34260383Y2426358D01*
X32835456Y2650020D01*
X31408292Y2911275D01*
X29979427Y3210240D01*
X28549391Y3547031D01*
X27118720Y3921766D01*
X25710663Y4488662D01*
X24311230Y5094300D01*
X22921002Y5738609D01*
X21540557Y6421520D01*
X20170476Y7142962D01*
X18811339Y7902866D01*
X17463727Y8701161D01*
X16128218Y9537778D01*
X14877908Y10560118D01*
X13649001Y11618447D01*
X12442063Y12712472D01*
X11257656Y13841899D01*
X10096345Y15006437D01*
X8958692Y16205791D01*
X7845262Y17439668D01*
X6756619Y18707776D01*
X5813349Y20134854D01*
X4903237Y21590525D01*
X4026734Y23074321D01*
X3184288Y24585773D01*
X2376349Y26124413D01*
X1603367Y27689771D01*
X865790Y29281380D01*
X164069Y30898771D01*
X-342814Y32629309D01*
X-807540Y34377320D01*
X-1229841Y36142276D01*
X-1609446Y37923650D01*
X-1946087Y39720914D01*
X-2239496Y41533541D01*
X-2489404Y43361002D01*
X-2695541Y45202772D01*
X-2672996Y47093138D01*
X-2603288Y48987569D01*
X-2486336Y50885446D01*
X-2322059Y52786146D01*
X-2110375Y54689049D01*
X-1851203Y56593534D01*
X-1544463Y58498980D01*
X-1190071Y60404767D01*
X-595098Y62287339D01*
X47396Y64159070D01*
X737252Y66019246D01*
X1474308Y67867151D01*
X2258403Y69702071D01*
X3089377Y71523292D01*
X3967069Y73330099D01*
X4891319Y75121778D01*
X6045528Y76819583D01*
X7242687Y78491865D01*
X8482434Y80138039D01*
X9764407Y81757518D01*
X11088244Y83349717D01*
X12453583Y84914049D01*
X13860062Y86449928D01*
X15307318Y87956770D01*
X16950893Y89303326D01*
X18628386Y90611960D01*
X20339298Y91882250D01*
X22083131Y93113773D01*
X23859388Y94306108D01*
X25667570Y95458833D01*
X27507180Y96571526D01*
X29377719Y97643766D01*
X31390684Y98501813D01*
X33425508Y99313254D01*
X35481447Y100077797D01*
X37557757Y100795147D01*
X39653693Y101465013D01*
X41768511Y102087102D01*
X43901467Y102661119D01*
X46051818Y103186773D01*
X48279633Y103464875D01*
X50514549Y103691662D01*
X52755808Y103867097D01*
X55002657Y103991146D01*
X57254338Y104063772D01*
X59510095Y104084942D01*
X61769174Y104054619D01*
X64030818Y103972768D01*
X66298095Y103631036D01*
X68557057Y103238209D01*
X70807075Y102794475D01*
X73047520Y102300023D01*
X75277766Y101755038D01*
X77497183Y101159709D01*
X79705143Y100514224D01*
X81901019Y99818769D01*
X84031817Y98872986D01*
X86140430Y97880866D01*
X88226281Y96842762D01*
X90288793Y95759023D01*
X92327390Y94630003D01*
X94341494Y93456054D01*
X96330529Y92237527D01*
X98293917Y90974775D01*
X100127831Y89492023D01*
X101928029Y87971384D01*
X103694078Y86413409D01*
X105425544Y84818649D01*
X107121995Y83187655D01*
X108782997Y81520977D01*
X110408117Y79819167D01*
X111996920Y78082776D01*
X113407263Y76170045D01*
X114775406Y74230993D01*
X116101151Y72266206D01*
X117384297Y70276271D01*
X118624646Y68261774D01*
X119821999Y66223299D01*
X120976156Y64161434D01*
X122086917Y62076765D01*
X122985509Y59871820D01*
X123837763Y57653127D01*
X124643658Y55421286D01*
X125403168Y53176893D01*
X126116273Y50920547D01*
X126782948Y48652845D01*
X127403170Y46374386D01*
X127976916Y44085767D01*
X128322924Y41735516D01*
X128622292Y39384678D01*
X128875161Y37033885D01*
X129081670Y34683773D01*
X129241959Y32334972D01*
X129356170Y29988118D01*
X129424443Y27643842D01*
X129446917Y25302778D01*
X129243715Y22953799D01*
X128997281Y20616398D01*
X128707885Y18290998D01*
X128375798Y15978021D01*
X128001288Y13677888D01*
X127584625Y11391022D01*
X127126079Y9117845D01*
X126625918Y6858777D01*
X125916824Y4644865D01*
X125170605Y2451729D01*
X124387731Y279897D01*
X123568669Y-1870102D01*
X122713888Y-3997742D01*
X121823856Y-6102496D01*
X120899042Y-8183833D01*
X119939913Y-10241229D01*
X118797923Y-12216283D01*
X117627479Y-14162615D01*
X116429004Y-16080097D01*
X115202919Y-17968598D01*
X113949646Y-19827991D01*
X112669607Y-21658146D01*
X111363223Y-23458934D01*
X110030917Y-25230227D01*
X108551861Y-26887203D01*
X107053527Y-28511588D01*
X105536420Y-30103324D01*
X104001044Y-31662352D01*
X102447902Y-33188614D01*
X100877499Y-34682053D01*
X99290338Y-36142608D01*
X97686923Y-37570223D01*
X95973916Y-38867174D01*
X94251461Y-40130083D01*
X92520026Y-41359032D01*
X90780083Y-42554103D01*
X89032100Y-43715375D01*
X87276548Y-44842932D01*
X85513896Y-45936855D01*
X83744616Y-46997225D01*
X81900291Y-47922663D01*
X80055931Y-48815115D01*
X78211929Y-49674779D01*
X76368681Y-50501853D01*
X74526581Y-51296535D01*
X72686024Y-52059026D01*
X70847405Y-52789522D01*
X69011119Y-53488223D01*
X67133430Y-54056161D01*
X65263231Y-54594638D01*
X63400926Y-55103910D01*
X61546919Y-55584235D01*
X59701611Y-56035871D01*
X57865406Y-56459076D01*
X56038708Y-56854108D01*
X54221919Y-57221224D01*
X52392631Y-57468403D01*
X50577102Y-57691121D01*
X48775722Y-57889673D01*
X46988881Y-58064352D01*
X45216970Y-58215453D01*
X43460380Y-58343268D01*
X41719499Y-58448090D01*
X39994719Y-58530215D01*
X38277325Y-58509548D01*
X36578693Y-58470248D01*
X34899090Y-58412620D01*
X33238782Y-58336970D01*
X31598034Y-58243601D01*
X29977114Y-58132819D01*
X28376286Y-58004928D01*
X26795817Y-57860232D01*
X23701208Y-57392512D01*
X20695632Y-56876227D01*
X17780224Y-56314194D01*
X14956118Y-55709231D01*
X12242549Y-54962305D01*
X9624932Y-54191847D01*
X7103858Y-53400578D01*
X4679919Y-52591219D01*
X2376146Y-51690767D01*
X170825Y-50789851D01*
X-1934849Y-49891372D01*
X-3939681Y-48998232D01*
X-5826903Y-48059807D01*
X-7615851Y-47142104D01*
X-9305757Y-46247466D01*
X-10895851Y-45378237D01*
X-12371965Y-44504096D01*
X-13752268Y-43668112D01*
X-15036163Y-42872440D01*
X-16223051Y-42119235D01*
X-17304178Y-41392773D01*
X-18291458Y-40719103D01*
X-19184467Y-40099999D01*
X-19982781Y-39537234D01*
X-21288544Y-38577982D01*
X-22223281Y-37878237D01*
X-22974281Y-37301241D01*
X-23758592Y-36678449D01*
X-24538543Y-36050982D01*
X-25313564Y-35419395D01*
X-26083081Y-34784243D01*
X-26839556Y-34134392D01*
X-27590481Y-33480982D01*
X-28335556Y-32824196D01*
X-29074481Y-32164218D01*
X-29801551Y-31489609D01*
X-30523193Y-30811347D01*
X-31239304Y-30129519D01*
X-31949781Y-29444216D01*
X-32647821Y-28745566D01*
X-33339281Y-28044478D01*
X-34024365Y-27340764D01*
X-34703281Y-26634234D01*
X-35369868Y-25914588D01*
X-36030306Y-25192601D01*
X-36684631Y-24468178D01*
X-37332881Y-23741229D01*
X-37967861Y-23002107D01*
X-38596719Y-22260731D01*
X-39219408Y-21517105D01*
X-39835881Y-20771227D01*
X-40438696Y-20015008D01*
X-41035306Y-19256728D01*
X-41625953Y-18496199D01*
X-42210881Y-17733233D01*
X-42781947Y-16960139D01*
X-43346731Y-16185732D01*
X-43905440Y-15409826D01*
X-44458280Y-14632235D01*
X-44995678Y-13846386D01*
X-45527281Y-13059229D01*
X-46053109Y-12270574D01*
X-46573182Y-11480227D01*
X-47078649Y-10681242D01*
X-47577919Y-9881602D01*
X-48071245Y-9081023D01*
X-48558881Y-8279223D01*
X-49031491Y-7470074D01*
X-49498381Y-6659983D01*
X-49959196Y-5849515D01*
X-50413579Y-5039233D01*
X-50854332Y-4220697D01*
X-51288644Y-3402728D01*
X-51716823Y-2584758D01*
X-52139180Y-1766222D01*
X-52547283Y-940802D01*
X-52949406Y-115851D01*
X-53345716Y708911D01*
X-53736383Y1533765D01*
X-54111679Y2363252D01*
X-54481418Y3192644D01*
X-54845589Y4021847D01*
X-55204183Y4850767D01*
X-55548353Y5684423D01*
X-55886794Y6517517D01*
X-56219704Y7350236D01*
X-56547281Y8182767D01*
X-56859870Y9017721D01*
X-57166919Y9851644D01*
X-57468473Y10684629D01*
X-57764581Y11516767D01*
X-58047022Y12353598D01*
X-58323781Y13188646D01*
X-58594916Y14022006D01*
X-58860482Y14853773D01*
X-59112753Y15688522D01*
X-59359594Y16521772D01*
X-59601055Y17353523D01*
X-59837182Y18183774D01*
X-60059605Y19015510D01*
X-60276994Y19845651D01*
X-60489301Y20674105D01*
X-60696481Y21500776D01*
X-61078993Y23153644D01*
X-61442083Y24799772D01*
X-61768869Y26440893D01*
X-62076680Y28073774D01*
X-62350281Y29703273D01*
X-62604982Y31320768D01*
X-62826381Y32933773D01*
X-63030080Y34534772D01*
X-63201556Y36129150D01*
X-63356080Y37710767D01*
X-63479568Y39284397D01*
X-63586782Y40843778D01*
X-63664395Y42393524D01*
X-63726781Y43929777D01*
X-63760631Y45454893D01*
X-63780381Y46965772D01*
X-63772881Y48463649D01*
X-63751882Y49945768D01*
X-63705318Y51415269D01*
X-63646383Y52869779D01*
X-63562994Y54308647D01*
X-63468282Y55731779D01*
X-63350494Y57139900D01*
X-63222280Y58530775D01*
X-63072543Y59904522D01*
X-62913282Y61261777D01*
X-62734132Y62603025D01*
X-62546281Y63924772D01*
X-62339969Y65230646D01*
X-62126081Y66517774D01*
X-61895031Y67786273D01*
X-61657380Y69036771D01*
X-61404180Y70267772D01*
X-61145280Y71480771D01*
X-60872243Y72674024D01*
X-60594480Y73847776D01*
X-60304031Y75002027D01*
X-60009981Y76136777D01*
X-59704431Y77252399D01*
X-59396180Y78347776D01*
X-59078030Y79422893D01*
X-58758081Y80477765D01*
X-58429655Y81512771D01*
X-58100183Y82526777D01*
X-57763695Y83521272D01*
X-57427282Y84494779D01*
X-57084919Y85447399D01*
X-56743383Y86379774D01*
X-56397519Y87291274D01*
X-56053380Y88181776D01*
X-55705882Y89052276D01*
X-55361081Y89901777D01*
X-55014294Y90729894D01*
X-54670880Y91537778D01*
X-54326805Y92323770D01*
X-53987081Y93088773D01*
X-53647493Y93833646D01*
X-53313081Y94556776D01*
X-52979968Y95260150D01*
X-52652780Y95941770D01*
X-52328043Y96602643D01*
X-52009980Y97241773D01*
X-51695406Y97861148D01*
X-51388181Y98458768D01*
X-51085319Y99036146D01*
X-50790483Y99591779D01*
X-50501032Y100127274D01*
X-50220281Y100641775D01*
X-49945843Y101134398D01*
X-49680482Y101606771D01*
X-49422506Y102058270D01*
X-49174279Y102488775D01*
X-48934069Y102898273D01*
X-48703981Y103286771D01*
X-48482705Y103654271D01*
X-48272382Y104000776D01*
X-48071231Y104327149D01*
X-47881181Y104631773D01*
X-47701644Y104916021D01*
X-47533582Y105177770D01*
X-47376119Y105420147D01*
X-47230882Y105640775D01*
X-47162079Y105743556D01*
X-47096493Y105840524D01*
X-46974782Y106017774D01*
X-46918030Y106099695D01*
X-46864494Y106175898D01*
X-46814202Y106246289D01*
X-46767183Y106310773D01*
X-46743990Y106342345D01*
X-46720679Y106373226D01*
X-46697456Y106403287D01*
X-46674531Y106432398D01*
X-46630409Y106487257D01*
X-46589982Y106536771D01*
X-46526718Y106611147D01*
X-46502080Y106639776D01*
X-46499037Y106641525D01*
X-46495584Y106643360D01*
X-46493477Y106644415D01*
X-46491156Y106645523D01*
X-46488650Y106646654D01*
X-46485987Y106647779D01*
X-46483199Y106648869D01*
X-46480312Y106649895D01*
X-46477358Y106650827D01*
X-46474366Y106651636D01*
X-46472864Y106651986D01*
X-46471363Y106652293D01*
X-46469868Y106652555D01*
X-46468381Y106652769D01*
X-46465230Y106653608D01*
X-46462136Y106654229D01*
X-46459132Y106654601D01*
X-46457674Y106654684D01*
X-46456252Y106654693D01*
X-46454869Y106654625D01*
G37*
G36*
X80369021Y134621572D02*
G01*
X97514918Y129107068D01*
X113716922Y120504774D01*
X114529545Y119966365D01*
X115337669Y119423272D01*
X116142419Y118874929D01*
X116944918Y118320775D01*
X117736355Y117751711D01*
X118525165Y117177023D01*
X119311351Y116596709D01*
X120094912Y116010770D01*
X120869747Y115409053D01*
X121640547Y114802272D01*
X122407783Y114190241D01*
X123171923Y113572774D01*
X123924764Y112941444D01*
X124674418Y112304396D01*
X125421074Y111661536D01*
X126164920Y111012769D01*
X126895235Y110352364D01*
X127622922Y109685771D01*
X128346858Y109013929D01*
X129065921Y108337774D01*
X129771761Y107649351D01*
X130474417Y106955397D01*
X131173326Y106256381D01*
X131867923Y105552770D01*
X132551451Y104834910D01*
X133229920Y104113395D01*
X133903889Y103387569D01*
X134573916Y102656774D01*
X135228385Y101915336D01*
X135878915Y101169024D01*
X136524944Y100418588D01*
X137165911Y99664777D01*
X137794368Y98897178D01*
X138418044Y98126022D01*
X139036656Y97351492D01*
X139649920Y96573774D01*
X140248125Y95785288D01*
X140842297Y94992397D01*
X141431780Y94195944D01*
X142015918Y93396772D01*
X142584937Y92586631D01*
X143148797Y91773399D01*
X143707218Y90957354D01*
X144259921Y90138776D01*
X144798730Y89308916D01*
X145331168Y88477651D01*
X145857981Y87643949D01*
X146379916Y86806775D01*
X146887264Y85959759D01*
X147389172Y85109647D01*
X147885453Y84257098D01*
X148375918Y83402769D01*
X148849264Y82542676D01*
X149317921Y81679020D01*
X149781329Y80812740D01*
X150238925Y79944776D01*
X150680282Y79068600D01*
X151116297Y78190647D01*
X151546877Y77311008D01*
X151971927Y76429777D01*
X152380140Y75542761D01*
X152782920Y74653400D01*
X153180453Y73761976D01*
X153572924Y72868772D01*
X153947528Y71971472D01*
X154316790Y71072395D01*
X154680617Y70172004D01*
X155038913Y69270765D01*
X155381326Y68363457D01*
X155717171Y67456521D01*
X156046640Y66549958D01*
X156369921Y65643766D01*
X156678325Y64730754D01*
X156980920Y63817648D01*
X157277515Y62905102D01*
X157567919Y61993772D01*
X157843155Y61074866D01*
X158112294Y60157270D01*
X158375245Y59241173D01*
X158631915Y58326765D01*
X158873590Y57406845D01*
X159109545Y56486646D01*
X159339687Y55567007D01*
X159563922Y54648771D01*
X159772183Y53729441D01*
X159975291Y52809646D01*
X160172963Y51890415D01*
X160364916Y50972776D01*
X160540622Y50055167D01*
X160710793Y49138401D01*
X160875526Y48222570D01*
X161034915Y47307767D01*
X161178699Y46392287D01*
X161317418Y45477647D01*
X161450887Y44564318D01*
X161578921Y43652769D01*
X161692373Y42740690D01*
X161800296Y41831146D01*
X161902782Y40923664D01*
X161999926Y40017774D01*
X162082799Y39111899D01*
X162160420Y38208274D01*
X162232791Y37307651D01*
X162299914Y36410779D01*
X162401170Y34615894D01*
X162444481Y33724127D01*
X162482913Y32833768D01*
X162527295Y31061397D01*
X162552920Y29298765D01*
X162542414Y27548395D01*
X162513919Y25810773D01*
X162451045Y24088274D01*
X162370913Y22374769D01*
X162258294Y20678644D01*
X162129916Y18996778D01*
X161969544Y17331775D01*
X161794924Y15681776D01*
X161589671Y14048396D01*
X161370913Y12427778D01*
X161123290Y10825897D01*
X160862918Y9239774D01*
X160574668Y7667146D01*
X160275912Y6114774D01*
X159949668Y4575777D01*
X159612918Y3051771D01*
X159252291Y1549896D01*
X158881915Y63779D01*
X158488417Y-1400227D01*
X158085925Y-2849230D01*
X157663167Y-4278102D01*
X157232913Y-5685229D01*
X156781916Y-7076726D01*
X156324923Y-8447222D01*
X155849671Y-9798853D01*
X155369921Y-11127230D01*
X154873038Y-12436352D01*
X154370913Y-13728228D01*
X153855048Y-14996350D01*
X153336917Y-16241229D01*
X152803670Y-17470349D01*
X152268924Y-18676226D01*
X151722417Y-19861725D01*
X151175921Y-21023226D01*
X150617167Y-22168103D01*
X150059924Y-23288226D01*
X149493041Y-24387104D01*
X148926913Y-25467227D01*
X148355164Y-26522479D01*
X147784915Y-27558230D01*
X147207297Y-28573607D01*
X146634921Y-29564242D01*
X146057166Y-30535597D01*
X145483920Y-31485232D01*
X144907923Y-32412608D01*
X144337924Y-33318240D01*
X143764666Y-34203986D01*
X143198916Y-35067233D01*
X142630168Y-35912608D01*
X142068927Y-36736239D01*
X141511422Y-37534979D01*
X140962924Y-38311221D01*
X140414668Y-39069724D01*
X139873919Y-39810214D01*
X139339797Y-40524844D01*
X138816912Y-41216219D01*
X138293545Y-41894351D01*
X137782916Y-42549227D01*
X137280549Y-43180594D01*
X136787921Y-43793215D01*
X136302796Y-44385596D01*
X135828921Y-44959231D01*
X135363044Y-45512850D01*
X134909915Y-46046237D01*
X134467671Y-46557101D01*
X134035922Y-47052218D01*
X133617299Y-47524352D01*
X133212924Y-47976229D01*
X132684674Y-48560599D01*
X132076922Y-49228213D01*
X131829608Y-49493405D01*
X131734569Y-49594478D01*
X131664420Y-49668223D01*
X131623521Y-49709904D01*
X131615402Y-49717241D01*
X131614749Y-49717569D01*
X131614664Y-49717275D01*
X131616230Y-49714787D01*
X131626551Y-49701949D01*
X131646908Y-49678136D01*
X131719912Y-49595217D01*
X131724917Y-49590243D01*
X131798380Y-49505905D01*
X131831857Y-49465715D01*
X131834934Y-49460677D01*
X131829614Y-49464878D01*
X131795918Y-49498602D01*
X131651229Y-49650560D01*
X131431918Y-49883242D01*
X130899041Y-50444739D01*
X130656088Y-50698861D01*
X130474917Y-50886233D01*
X130202544Y-51160231D01*
X129948916Y-51413241D01*
X129712540Y-51645232D01*
X129494921Y-51856234D01*
X129291295Y-52051611D01*
X129107913Y-52225222D01*
X129021293Y-52305814D01*
X128939919Y-52380972D01*
X128863795Y-52450506D01*
X128792926Y-52514224D01*
X128723375Y-52577403D01*
X128658797Y-52634860D01*
X128599283Y-52686503D01*
X128544924Y-52732241D01*
X128495017Y-52774030D01*
X128448672Y-52812357D01*
X128405703Y-52847126D01*
X128385426Y-52863145D01*
X128365924Y-52878237D01*
X128349141Y-52890517D01*
X128333296Y-52901858D01*
X128318390Y-52912262D01*
X128304421Y-52921729D01*
X128291390Y-52930258D01*
X128279297Y-52937851D01*
X128268141Y-52944508D01*
X128257922Y-52950228D01*
X128255797Y-52951043D01*
X128253736Y-52951799D01*
X128251740Y-52952496D01*
X128249808Y-52953135D01*
X128247939Y-52953715D01*
X128246134Y-52954237D01*
X128244392Y-52954700D01*
X128242714Y-52955104D01*
X128241099Y-52955450D01*
X128239546Y-52955737D01*
X128238057Y-52955965D01*
X128236629Y-52956135D01*
X128235264Y-52956246D01*
X128233962Y-52956299D01*
X128232721Y-52956293D01*
X128231541Y-52956229D01*
X128230424Y-52956106D01*
X128229368Y-52955924D01*
X128228372Y-52955684D01*
X128227438Y-52955386D01*
X128226565Y-52955028D01*
X128225753Y-52954613D01*
X128225001Y-52954139D01*
X128224308Y-52953606D01*
X128223677Y-52953014D01*
X128223105Y-52952365D01*
X128222592Y-52951656D01*
X128222139Y-52950890D01*
X128221746Y-52950064D01*
X128221412Y-52949180D01*
X128221136Y-52948238D01*
X128220919Y-52947238D01*
X128220474Y-52945231D01*
X128220271Y-52942961D01*
X128220317Y-52940422D01*
X128220620Y-52937607D01*
X128221186Y-52934512D01*
X128222024Y-52931129D01*
X128223140Y-52927454D01*
X128224542Y-52923480D01*
X128226236Y-52919201D01*
X128228231Y-52914611D01*
X128230534Y-52909705D01*
X128233152Y-52904477D01*
X128236093Y-52898920D01*
X128239363Y-52893029D01*
X128242969Y-52886798D01*
X128246920Y-52880221D01*
X128255606Y-52866246D01*
X128265218Y-52851261D01*
X128275836Y-52835195D01*
X128287545Y-52817980D01*
X128300426Y-52799547D01*
X128314561Y-52779825D01*
X128330034Y-52758745D01*
X128346927Y-52736239D01*
X128362818Y-52714424D01*
X128379778Y-52691671D01*
X128417040Y-52642977D01*
X128458996Y-52589409D01*
X128505923Y-52530215D01*
X128612420Y-52399096D01*
X128671295Y-52327586D01*
X128733920Y-52252230D01*
X128874798Y-52083605D01*
X129029925Y-51899233D01*
X129195920Y-51703478D01*
X129379916Y-51488223D01*
X129795916Y-51001223D01*
X130267916Y-50449221D01*
X130802920Y-49820223D01*
X131389926Y-49125216D01*
X131700543Y-48754725D01*
X132026919Y-48363223D01*
X132365542Y-47953730D01*
X132719912Y-47523226D01*
X133081288Y-47079726D01*
X133456912Y-46615237D01*
X133841668Y-46135726D01*
X134239917Y-45635226D01*
X134647671Y-45116484D01*
X135065921Y-44581240D01*
X135493544Y-44025736D01*
X135933917Y-43449221D01*
X136377915Y-42859488D01*
X136836917Y-42244235D01*
X137297791Y-41615859D01*
X137769915Y-40967227D01*
X138249041Y-40296847D01*
X138737918Y-39606234D01*
X139228417Y-38900347D01*
X139727923Y-38174227D01*
X140234795Y-37422106D01*
X140746920Y-36654238D01*
X141261170Y-35865984D01*
X141782916Y-35058230D01*
X142303420Y-34232604D01*
X142832919Y-33382235D01*
X143359919Y-32514471D01*
X143892917Y-31627230D01*
X144424168Y-30718478D01*
X144959918Y-29790225D01*
X145494918Y-28836600D01*
X146032916Y-27864230D01*
X146565167Y-26872853D01*
X147101916Y-25858233D01*
X147633040Y-24822732D01*
X148164920Y-23769228D01*
X148690293Y-22691977D01*
X149214923Y-21598223D01*
X149735047Y-20474980D01*
X150252917Y-19335223D01*
X150761292Y-18173228D01*
X151268924Y-16990221D01*
X151762919Y-15791356D01*
X152256915Y-14566226D01*
X152737914Y-13319979D01*
X153215915Y-12054232D01*
X153678666Y-10767731D01*
X154136920Y-9463229D01*
X154579921Y-8132729D01*
X155016925Y-6784228D01*
X155438168Y-5411728D01*
X155851916Y-4021227D01*
X156245297Y-2611603D01*
X156631915Y-1180224D01*
X156997040Y266395D01*
X157353915Y1734769D01*
X157688666Y3226268D01*
X158012911Y4732770D01*
X158313542Y6262649D01*
X158602923Y7806776D01*
X158866048Y9370647D01*
X159117923Y10951764D01*
X159341292Y12552892D01*
X159551913Y14169767D01*
X159732669Y15804523D01*
X159899920Y17458768D01*
X160035420Y19123517D01*
X160155917Y20807767D01*
X160243666Y22505773D01*
X160314914Y24221769D01*
X160351542Y25946891D01*
X160370913Y27693769D01*
X160364746Y28568399D01*
X160353795Y29447524D01*
X160317919Y31217771D01*
X160245168Y32996272D01*
X160152926Y34789777D01*
X160089407Y35689085D01*
X160020547Y36593269D01*
X159867922Y38408765D01*
X159774374Y39318190D01*
X159675296Y40230894D01*
X159570781Y41146035D01*
X159460925Y42062772D01*
X159335251Y42982006D01*
X159204045Y43904146D01*
X159067029Y44829851D01*
X158923922Y45759778D01*
X158765516Y46685287D01*
X158600922Y47614645D01*
X158430329Y48546817D01*
X158253924Y49480771D01*
X158061751Y50411349D01*
X157863295Y51344646D01*
X157658654Y52280755D01*
X157447924Y53219770D01*
X157220200Y54156680D01*
X156985919Y55096023D01*
X156745641Y56036491D01*
X156499926Y56976774D01*
X156246920Y57896772D01*
X155921794Y59025896D01*
X155457919Y60587766D01*
X155160092Y61524443D01*
X154821293Y62563398D01*
X154441059Y63703038D01*
X154018924Y64941770D01*
X153528546Y66268755D01*
X152987920Y67688646D01*
X152395546Y69200599D01*
X151749926Y70803770D01*
X151014018Y72470820D01*
X150215672Y74219900D01*
X149353952Y76048664D01*
X148427920Y77954770D01*
X147383450Y79901019D01*
X146264168Y81914020D01*
X145069513Y83990395D01*
X143798922Y86126768D01*
X142381469Y88271914D01*
X140878796Y90462902D01*
X139288934Y92698323D01*
X137609912Y94976774D01*
X136697617Y96094356D01*
X135761402Y97218630D01*
X134801162Y98349257D01*
X133816792Y99485896D01*
X132808187Y100628207D01*
X131775242Y101775851D01*
X130717852Y102928487D01*
X129635913Y104085775D01*
X128487692Y105194544D01*
X127313960Y106303631D01*
X126114612Y107412696D01*
X124889540Y108521397D01*
X123638641Y109629396D01*
X122361809Y110736352D01*
X121058938Y111841925D01*
X119729922Y112945776D01*
X118334183Y113978734D01*
X116912264Y115005085D01*
X115464237Y116024405D01*
X113990170Y117036272D01*
X112490135Y118040265D01*
X110964201Y119035962D01*
X109412439Y120022939D01*
X107834918Y121000776D01*
X106194222Y121884448D01*
X104528717Y122753963D01*
X102838532Y123608946D01*
X101123796Y124449024D01*
X99384638Y125273820D01*
X97621187Y126082959D01*
X95833572Y126876067D01*
X94021922Y127652769D01*
X92158786Y128310081D01*
X90273694Y128946150D01*
X88366965Y129560573D01*
X86438918Y130152945D01*
X84489870Y130722865D01*
X82520142Y131269928D01*
X80530051Y131793732D01*
X78519915Y132293874D01*
X76478431Y132651689D01*
X74419937Y132981591D01*
X72344749Y133283245D01*
X70253181Y133556321D01*
X68145549Y133800483D01*
X66022168Y134015401D01*
X63883353Y134200740D01*
X61729419Y134356168D01*
X59573581Y134350779D01*
X57407582Y134312009D01*
X55231818Y134239602D01*
X53046681Y134133298D01*
X50852568Y133992841D01*
X48649874Y133817973D01*
X46438993Y133608437D01*
X44220320Y133363973D01*
X42035349Y132947800D01*
X39849108Y132494752D01*
X37661928Y132004639D01*
X35474145Y131477273D01*
X33286089Y130912464D01*
X31098094Y130310021D01*
X28910494Y129669755D01*
X26723620Y128991476D01*
X24608831Y128139324D01*
X22502247Y127249085D01*
X20404294Y126320669D01*
X18315394Y125353986D01*
X16235973Y124348945D01*
X14166454Y123305456D01*
X12107261Y122223429D01*
X10058820Y121102773D01*
X8126047Y119819082D01*
X6211307Y118498617D01*
X4315165Y117141543D01*
X2438188Y115748024D01*
X580940Y114318223D01*
X-1256011Y112852305D01*
X-3072100Y111350433D01*
X-4866761Y109812772D01*
X-6507405Y108132720D01*
X-8120100Y106420477D01*
X-9704401Y104676287D01*
X-11259867Y102900398D01*
X-12786053Y101093055D01*
X-14282518Y99254505D01*
X-15748818Y97384995D01*
X-17184511Y95484769D01*
X-18430121Y93476852D01*
X-19639442Y91444114D01*
X-20812088Y89386955D01*
X-21947672Y87305772D01*
X-23045810Y85200965D01*
X-24106114Y83072931D01*
X-25128200Y80922069D01*
X-26111680Y78748777D01*
X-26878989Y76512866D01*
X-27603805Y74261931D01*
X-28285891Y71996418D01*
X-28925006Y69716772D01*
X-29520912Y67423438D01*
X-30073369Y65116864D01*
X-30582138Y62797493D01*
X-31046981Y60465772D01*
X-31282039Y58122893D01*
X-31471373Y55776790D01*
X-31614890Y53427898D01*
X-31712494Y51076650D01*
X-31764090Y48723479D01*
X-31769583Y46368820D01*
X-31728878Y44013104D01*
X-31641881Y41656766D01*
X-31326480Y39347128D01*
X-30965603Y37046033D01*
X-30559290Y34753961D01*
X-30107581Y32471393D01*
X-29610516Y30198809D01*
X-29068134Y27936690D01*
X-28480476Y25685516D01*
X-27847581Y23445768D01*
X-27004340Y21309151D01*
X-26119303Y19192644D01*
X-25192711Y17096761D01*
X-24224806Y15022020D01*
X-23215829Y12968935D01*
X-22166021Y10938022D01*
X-21075625Y8929797D01*
X-19944881Y6944776D01*
X-18635392Y5110302D01*
X-17291170Y3306180D01*
X-15912606Y1532855D01*
X-14500095Y-209227D01*
X-13054028Y-1919622D01*
X-11574798Y-3597885D01*
X-10062798Y-5243570D01*
X-8518421Y-6856234D01*
X-6842318Y-8279217D01*
X-5141026Y-9664218D01*
X-3415051Y-11010946D01*
X-1664900Y-12319107D01*
X108920Y-13588410D01*
X1905901Y-14818560D01*
X3725536Y-16009266D01*
X5567319Y-17160235D01*
X7487362Y-18098232D01*
X9420887Y-18993655D01*
X11367397Y-19846399D01*
X13326394Y-20656357D01*
X15297382Y-21423425D01*
X17279863Y-22147498D01*
X19273341Y-22828469D01*
X21277320Y-23466235D01*
X23299089Y-23882956D01*
X25322535Y-24256402D01*
X27347036Y-24586605D01*
X29371969Y-24873602D01*
X31396716Y-25117428D01*
X33420654Y-25318118D01*
X35443161Y-25475706D01*
X37463618Y-25590228D01*
X39447279Y-25493784D01*
X41420731Y-25356805D01*
X43383552Y-25179444D01*
X45335319Y-24961853D01*
X47275611Y-24704185D01*
X49204006Y-24406590D01*
X51120082Y-24069222D01*
X53023417Y-23692233D01*
X54838223Y-23130202D01*
X56632937Y-22533321D01*
X58407258Y-21901894D01*
X60160884Y-21236226D01*
X61893514Y-20536621D01*
X63604848Y-19803384D01*
X65294583Y-19036819D01*
X66962420Y-18237231D01*
X68501273Y-17290664D01*
X70013127Y-16317275D01*
X71497637Y-15317519D01*
X72954457Y-14291853D01*
X74383241Y-13240735D01*
X75783643Y-12164619D01*
X77155318Y-11063965D01*
X78497920Y-9939227D01*
X79688324Y-8711122D01*
X80846962Y-7466072D01*
X81973753Y-6204475D01*
X83068619Y-4926730D01*
X84131478Y-3633235D01*
X85162251Y-2324388D01*
X86160859Y-1000588D01*
X87127223Y337766D01*
X87930123Y1730959D01*
X88700232Y3131487D01*
X89437561Y4538907D01*
X90142122Y5952772D01*
X90813927Y7372636D01*
X91452988Y8798054D01*
X92059315Y10228581D01*
X92632922Y11663770D01*
X93046710Y13107137D01*
X93429421Y14548769D01*
X93781194Y15988338D01*
X94102171Y17425517D01*
X94392491Y18859978D01*
X94652296Y20291392D01*
X94881725Y21719430D01*
X95080920Y23143766D01*
X95136363Y24535386D01*
X95164840Y25917771D01*
X95166576Y27290593D01*
X95141792Y28653524D01*
X95090711Y30006235D01*
X95013557Y31348399D01*
X94910551Y32679686D01*
X94781916Y33999769D01*
X94534513Y35258044D01*
X94265746Y36501473D01*
X93975909Y37729832D01*
X93665294Y38942897D01*
X93334195Y40140447D01*
X92982904Y41322257D01*
X92611714Y42488106D01*
X92220919Y43637769D01*
X91741341Y44705995D01*
X91247032Y45755880D01*
X90738250Y46787368D01*
X90215254Y47800399D01*
X89678305Y48794914D01*
X89127659Y49770855D01*
X88563576Y50728162D01*
X87986316Y51666776D01*
X87352387Y52513948D01*
X86710165Y53341739D01*
X86059898Y54150171D01*
X85401831Y54939268D01*
X84736213Y55709053D01*
X84063291Y56459549D01*
X83383311Y57190780D01*
X82696521Y57902769D01*
X81982870Y58523830D01*
X81266770Y59126317D01*
X80548442Y59710312D01*
X79828107Y60275898D01*
X79105985Y60823154D01*
X78382299Y61352164D01*
X77657269Y61863010D01*
X76931117Y62355772D01*
X76203050Y62765293D01*
X75477407Y63158443D01*
X74754350Y63535351D01*
X74034045Y63896146D01*
X73316655Y64240957D01*
X72602345Y64569912D01*
X71891278Y64883139D01*
X71183619Y65180769D01*
X70493624Y65408419D01*
X69809566Y65622722D01*
X69131559Y65823830D01*
X68459719Y66011896D01*
X67794161Y66187071D01*
X67134999Y66349508D01*
X66482347Y66499359D01*
X65836321Y66636777D01*
X65221101Y66719535D01*
X64614035Y66792414D01*
X64015187Y66855567D01*
X63424620Y66909147D01*
X62842396Y66953305D01*
X62268579Y66988194D01*
X61703232Y67013966D01*
X61146418Y67030775D01*
X60628028Y67008717D01*
X60118827Y66980132D01*
X59618843Y66945148D01*
X59128107Y66903896D01*
X58646647Y66856503D01*
X58174493Y66803098D01*
X57711674Y66743811D01*
X57258219Y66678770D01*
X56845801Y66589539D01*
X56442749Y66496676D01*
X56049040Y66400297D01*
X55664646Y66300521D01*
X55289543Y66197464D01*
X54923705Y66091243D01*
X54567105Y65981976D01*
X54219718Y65869779D01*
X53912851Y65745668D01*
X53614728Y65620164D01*
X53325319Y65493371D01*
X53044594Y65365396D01*
X52772522Y65236344D01*
X52509072Y65106319D01*
X52254214Y64975429D01*
X52007918Y64843778D01*
X51799504Y64708930D01*
X51599006Y64574433D01*
X51406346Y64440357D01*
X51221443Y64306774D01*
X51044219Y64173753D01*
X50874593Y64041366D01*
X50712486Y63909684D01*
X50557818Y63778776D01*
X50437334Y63650435D01*
X50323577Y63523442D01*
X50216507Y63397833D01*
X50116082Y63273643D01*
X50022262Y63150907D01*
X49935006Y63029660D01*
X49854273Y62909938D01*
X49780020Y62791776D01*
X49756908Y62735560D01*
X49735230Y62679789D01*
X49714976Y62624463D01*
X49696141Y62569583D01*
X49678715Y62515149D01*
X49662692Y62461160D01*
X49648062Y62407616D01*
X49634818Y62354518D01*
X49622953Y62301866D01*
X49612458Y62249659D01*
X49603325Y62197897D01*
X49595546Y62146580D01*
X49589114Y62095709D01*
X49584021Y62045283D01*
X49580258Y61995303D01*
X49577819Y61945768D01*
X49586808Y61899304D01*
X49596971Y61853284D01*
X49608300Y61807706D01*
X49620789Y61762569D01*
X49634428Y61717872D01*
X49649212Y61673612D01*
X49665132Y61629789D01*
X49682181Y61586400D01*
X49700351Y61543446D01*
X49719635Y61500923D01*
X49740026Y61458830D01*
X49761516Y61417167D01*
X49784098Y61375931D01*
X49807763Y61335121D01*
X49832506Y61294736D01*
X49858317Y61254774D01*
X49930988Y61180521D01*
X50007176Y61107743D01*
X50086882Y61036419D01*
X50170107Y60966524D01*
X50256852Y60898035D01*
X50347118Y60830929D01*
X50440906Y60765183D01*
X50538218Y60700773D01*
X50653564Y60640204D01*
X50771583Y60580713D01*
X50892247Y60522253D01*
X51015531Y60464777D01*
X51141407Y60408237D01*
X51269848Y60352588D01*
X51400828Y60297782D01*
X51534320Y60243772D01*
X51834034Y60139097D01*
X52140957Y60036394D01*
X52454612Y59935378D01*
X52774520Y59835767D01*
X53471707Y59634645D01*
X54180819Y59432767D01*
X54932746Y59218522D01*
X55683619Y58999769D01*
X56070280Y58881286D01*
X56453557Y58761398D01*
X56833214Y58640196D01*
X57209017Y58517774D01*
X57589722Y58386007D01*
X57964143Y58253398D01*
X58331851Y58120226D01*
X58692416Y57986768D01*
X59052427Y57844316D01*
X59403354Y57702146D01*
X59744813Y57560537D01*
X60076419Y57419767D01*
X60401657Y57273580D01*
X60716031Y57129268D01*
X61018649Y56987208D01*
X61308619Y56847776D01*
X61589910Y56705712D01*
X61858180Y56567771D01*
X62112894Y56434332D01*
X62353518Y56305768D01*
X62581761Y56178317D01*
X62795180Y56057146D01*
X62993768Y55942537D01*
X63177516Y55834775D01*
X63347440Y55731089D01*
X63501220Y55636026D01*
X63639023Y55549586D01*
X63761019Y55471769D01*
X63867115Y55401664D01*
X63956693Y55341400D01*
X64029585Y55291072D01*
X64059720Y55269664D01*
X64085620Y55250776D01*
X64096995Y55242103D01*
X64107341Y55234089D01*
X64116649Y55226733D01*
X64124913Y55220038D01*
X64132125Y55214006D01*
X64138276Y55208637D01*
X64140952Y55206202D01*
X64143360Y55203933D01*
X64145500Y55201831D01*
X64147369Y55199895D01*
X64148968Y55198127D01*
X64150295Y55196526D01*
X64151350Y55195092D01*
X64152131Y55193826D01*
X64152637Y55192728D01*
X64152868Y55191798D01*
X64152880Y55191395D01*
X64152823Y55191035D01*
X64152696Y55190717D01*
X64152500Y55190441D01*
X64152234Y55190207D01*
X64151899Y55190016D01*
X64151494Y55189866D01*
X64151019Y55189759D01*
X64149858Y55189671D01*
X64148416Y55189752D01*
X64146693Y55190002D01*
X64144686Y55190422D01*
X64142395Y55191011D01*
X64139819Y55191770D01*
X64126733Y55196505D01*
X64109216Y55203958D01*
X64087249Y55214130D01*
X64060818Y55227020D01*
X63994497Y55260956D01*
X63910121Y55305769D01*
X63385920Y55587766D01*
X59846019Y57027769D01*
X56408915Y57857770D01*
X53177317Y58181776D01*
X50231021Y58117765D01*
X47611918Y57791776D01*
X45335520Y57327772D01*
X43399020Y56841779D01*
X41782717Y56432767D01*
X40461619Y56182767D01*
X39416518Y56154767D01*
X38636920Y56389768D01*
X38123420Y56914777D01*
X37894019Y57733778D01*
X37977217Y58837766D01*
X38413218Y60195768D01*
X39246421Y61763776D01*
X40524619Y63475767D01*
X42288317Y65250776D01*
X44569720Y66992765D01*
X47386618Y68589765D01*
X50736220Y69922773D01*
X54592517Y70864774D01*
X58904918Y71289777D01*
X63594416Y71073774D01*
X68554522Y70106779D01*
X73653315Y68294767D01*
X78734317Y65567777D01*
X83621623Y61883771D01*
X88126017Y57235776D01*
X92050921Y51653776D01*
X95197917Y45206769D01*
X97377917Y38009778D01*
X98418918Y30209775D01*
X98171916Y21998777D01*
X96522921Y13598768D01*
X93395922Y5260770D01*
X88763423Y-2742221D01*
X82648120Y-10130221D01*
X75126719Y-16617221D01*
X66334918Y-21928225D01*
X56455516Y-25809222D01*
X45729117Y-28035220D01*
X34441119Y-28422213D01*
X22919417Y-26839221D01*
X11509219Y-23209231D01*
X590419Y-17526232D01*
X-9460830Y-9850222D01*
X-18269591Y-315234D01*
X-25488481Y10880766D01*
X-30796682Y23465772D01*
X-33922981Y37107770D01*
X-34654380Y51419767D01*
X-32848180Y65975767D01*
X-28440582Y80312772D01*
X-21449581Y93964765D01*
X-11980581Y106455770D01*
X-230831Y117327772D01*
X13520718Y126156774D01*
X28914118Y132570875D01*
X45520117Y136259473D01*
X62849917Y136990774D01*
X80369021Y134621572D01*
G37*
G36*
X69846743Y84714348D02*
G01*
X70294132Y84691898D01*
X70755564Y84662132D01*
X71230616Y84624769D01*
X71750366Y84563643D01*
X72281356Y84494270D01*
X72823125Y84416649D01*
X73375216Y84330778D01*
X73967651Y84216756D01*
X74568756Y84093645D01*
X75178016Y83961349D01*
X75794917Y83819776D01*
X76443902Y83647648D01*
X77098407Y83465772D01*
X77758368Y83274146D01*
X78423716Y83072767D01*
X79113619Y82838237D01*
X79806680Y82593770D01*
X80502309Y82339554D01*
X81199916Y82075773D01*
X81915116Y81777116D01*
X82630241Y81469270D01*
X83344504Y81152423D01*
X84057116Y80826765D01*
X84780289Y80466270D01*
X85500432Y80097522D01*
X86216767Y79720898D01*
X86928515Y79336774D01*
X87643796Y78919273D01*
X88352731Y78495023D01*
X89055007Y78064399D01*
X89750315Y77627775D01*
X90444788Y77159821D01*
X91129342Y76687650D01*
X91804033Y76211543D01*
X92468921Y75731779D01*
X93126434Y75225806D01*
X93772793Y74717771D01*
X94407714Y74208237D01*
X95030917Y73697767D01*
X95641794Y73165677D01*
X96239919Y72634521D01*
X96825294Y72104490D01*
X97397921Y71575773D01*
X97953624Y71033614D01*
X98495545Y70495019D01*
X99023404Y69960551D01*
X99536921Y69430768D01*
X100033373Y68892007D01*
X100514545Y68360649D01*
X100980155Y67837350D01*
X101429919Y67322767D01*
X101862450Y66804596D01*
X102279420Y66297395D01*
X102680640Y65801632D01*
X103065921Y65317777D01*
X103432733Y64837428D01*
X103783421Y64371520D01*
X104118359Y63920241D01*
X104437922Y63483777D01*
X104740372Y63055195D01*
X105026793Y62644146D01*
X105297278Y62250912D01*
X105551921Y61875776D01*
X106010919Y61175649D01*
X106409922Y60555768D01*
X106744045Y60016397D01*
X107018916Y59567777D01*
X107231919Y59211648D01*
X107384921Y58953779D01*
X107506922Y58744779D01*
X107783419Y58255149D01*
X108056918Y57761777D01*
X108327668Y57259771D01*
X108596919Y56751768D01*
X108861044Y56237150D01*
X109122920Y55718778D01*
X109380170Y55190519D01*
X109635920Y54657773D01*
X109884671Y54119895D01*
X110131923Y53576765D01*
X110373794Y53025898D01*
X110611918Y52472776D01*
X110844416Y51911148D01*
X111073916Y51345777D01*
X111297418Y50774648D01*
X111517916Y50199766D01*
X111731670Y49617515D01*
X111940921Y49033765D01*
X112144170Y48443399D01*
X112342921Y47850767D01*
X112536043Y47251518D01*
X112630777Y46951332D01*
X112723918Y46650770D01*
X112905545Y46043649D01*
X113081920Y45435773D01*
X113251293Y44822269D01*
X113416918Y44205778D01*
X113574169Y43586770D01*
X113726916Y42964765D01*
X113872669Y42338144D01*
X114013919Y41710767D01*
X114146296Y41079526D01*
X114274920Y40446775D01*
X114394669Y39810401D01*
X114509921Y39174772D01*
X114617169Y38536018D01*
X114719920Y37895765D01*
X114813793Y37251773D01*
X114903918Y36607770D01*
X114983919Y35963397D01*
X115060916Y35316770D01*
X115128170Y34670146D01*
X115190921Y34022779D01*
X115245545Y33375272D01*
X115294917Y32727766D01*
X115336167Y32078393D01*
X115372920Y31429777D01*
X115401170Y30781024D01*
X115424922Y30133771D01*
X115439667Y29485019D01*
X115449916Y28837766D01*
X115451296Y28191770D01*
X115448916Y27545774D01*
X115438167Y26901517D01*
X115422915Y26258771D01*
X115399167Y25617645D01*
X115370921Y24978773D01*
X115334793Y24339273D01*
X115294917Y23702772D01*
X115246295Y23068145D01*
X115193919Y22435773D01*
X115133293Y21805522D01*
X115068919Y21176771D01*
X114996795Y20551775D01*
X114920916Y19929777D01*
X114836917Y19309646D01*
X114749919Y18691770D01*
X114655295Y18078775D01*
X114556918Y17468778D01*
X114451793Y16861270D01*
X114342921Y16256773D01*
X114227295Y15656770D01*
X114107920Y15059766D01*
X113982796Y14467271D01*
X113853923Y13877775D01*
X113718920Y13291770D01*
X113580920Y12711774D01*
X113436919Y12134521D01*
X113289920Y11561765D01*
X113136545Y10993396D01*
X112980921Y10428770D01*
X112819544Y9870025D01*
X112655917Y9315778D01*
X112487418Y8765897D01*
X112315921Y8219770D01*
X112140418Y7679897D01*
X111961917Y7143766D01*
X111779046Y6613643D01*
X111593920Y6088773D01*
X111405045Y5568521D01*
X111213916Y5052778D01*
X111018669Y4543525D01*
X110821917Y4038770D01*
X110621670Y3540147D01*
X110419917Y3046766D01*
X110214294Y2557271D01*
X110007922Y2073774D01*
X109798796Y1598022D01*
X109588916Y1126768D01*
X109374544Y659772D01*
X109160922Y198774D01*
X108943794Y-255353D01*
X108725917Y-704226D01*
X108506419Y-1147351D01*
X108286921Y-1585223D01*
X108064044Y-2017104D01*
X107841922Y-2442233D01*
X107617544Y-2862603D01*
X107393916Y-3276232D01*
X107168046Y-3685229D01*
X106942920Y-4088229D01*
X106716418Y-4485100D01*
X106489917Y-4875231D01*
X106263419Y-5258980D01*
X106036921Y-5638232D01*
X105809545Y-6011231D01*
X105582919Y-6378222D01*
X105356542Y-6739731D01*
X105130915Y-7095233D01*
X104904296Y-7444604D01*
X104679919Y-7787234D01*
X104454293Y-8125226D01*
X104230922Y-8457232D01*
X104007294Y-8782851D01*
X103785922Y-9103228D01*
X103532794Y-9465353D01*
X103260920Y-9852221D01*
X103136435Y-10026398D01*
X103030794Y-10170853D01*
X102987530Y-10228390D01*
X102951965Y-10274244D01*
X102925095Y-10306996D01*
X102908301Y-10324820D01*
X102902653Y-10330359D01*
X102892927Y-10341126D01*
X102866591Y-10372838D01*
X102831890Y-10416901D01*
X102789794Y-10471852D01*
X102687310Y-10608554D01*
X102566920Y-10771227D01*
X102303921Y-11124356D01*
X102177390Y-11292527D01*
X102064921Y-11439227D01*
X101860545Y-11700102D01*
X101659922Y-11954226D01*
X101461546Y-12201480D01*
X101363904Y-12322384D01*
X101266917Y-12441226D01*
X101170559Y-12559380D01*
X101075044Y-12675473D01*
X100886920Y-12902224D01*
X100701544Y-13122727D01*
X100519915Y-13337222D01*
X100166919Y-13745226D01*
X99994672Y-13939227D01*
X99826922Y-14127230D01*
X99662171Y-14310475D01*
X99581388Y-14399474D01*
X99501918Y-14486224D01*
X99343668Y-14657221D01*
X99189921Y-14822222D01*
X99114403Y-14902474D01*
X99039542Y-14981226D01*
X98892916Y-15134234D01*
X98750169Y-15281733D01*
X98611918Y-15423235D01*
X98475293Y-15559727D01*
X98343920Y-15690234D01*
X98215669Y-15816231D01*
X98091922Y-15936221D01*
X97970296Y-16051728D01*
X97853923Y-16161227D01*
X97739795Y-16266732D01*
X97684747Y-16317325D01*
X97630915Y-16366229D01*
X97577479Y-16414244D01*
X97525167Y-16460852D01*
X97423922Y-16550234D01*
X97325170Y-16635483D01*
X97230921Y-16716235D01*
X97053919Y-16861224D01*
X96970170Y-16926972D01*
X96929888Y-16958253D01*
X96890918Y-16988223D01*
X96852480Y-17017337D01*
X96815168Y-17044856D01*
X96743922Y-17096224D01*
X96709216Y-17120414D01*
X96675544Y-17143477D01*
X96642809Y-17165412D01*
X96610919Y-17186221D01*
X96595350Y-17196493D01*
X96580122Y-17206331D01*
X96565198Y-17215773D01*
X96550544Y-17224850D01*
X96521904Y-17242056D01*
X96493922Y-17258227D01*
X96480144Y-17266293D01*
X96466576Y-17273995D01*
X96453243Y-17281346D01*
X96440168Y-17288357D01*
X96414886Y-17301406D01*
X96390917Y-17313235D01*
X96379057Y-17319049D01*
X96367466Y-17324512D01*
X96356132Y-17329649D01*
X96345045Y-17334481D01*
X96334192Y-17339032D01*
X96323561Y-17343325D01*
X96313141Y-17347383D01*
X96302920Y-17351229D01*
X96292606Y-17354835D01*
X96282654Y-17358149D01*
X96273054Y-17361158D01*
X96263795Y-17363852D01*
X96254863Y-17366218D01*
X96246248Y-17368245D01*
X96237938Y-17369921D01*
X96229922Y-17371233D01*
X96221480Y-17372961D01*
X96213390Y-17374384D01*
X96205628Y-17375480D01*
X96198170Y-17376225D01*
X96194549Y-17376459D01*
X96190994Y-17376596D01*
X96187504Y-17376634D01*
X96184076Y-17376570D01*
X96180705Y-17376401D01*
X96177391Y-17376123D01*
X96174129Y-17375734D01*
X96170916Y-17375231D01*
X96167412Y-17375337D01*
X96164021Y-17375287D01*
X96160738Y-17375091D01*
X96157559Y-17374758D01*
X96154479Y-17374296D01*
X96151495Y-17373714D01*
X96148601Y-17373021D01*
X96145794Y-17372225D01*
X96143068Y-17371336D01*
X96140421Y-17370362D01*
X96137846Y-17369311D01*
X96135341Y-17368193D01*
X96132899Y-17367017D01*
X96130518Y-17365790D01*
X96125918Y-17363223D01*
X96121799Y-17360215D01*
X96117715Y-17357148D01*
X96113702Y-17353964D01*
X96111733Y-17352309D01*
X96109794Y-17350604D01*
X96107891Y-17348839D01*
X96106027Y-17347009D01*
X96104208Y-17345105D01*
X96102436Y-17343121D01*
X96100717Y-17341049D01*
X96099055Y-17338881D01*
X96097454Y-17336611D01*
X96095919Y-17334231D01*
X96094454Y-17331944D01*
X96093057Y-17329587D01*
X96091728Y-17327161D01*
X96090465Y-17324664D01*
X96089266Y-17322097D01*
X96088131Y-17319459D01*
X96087057Y-17316752D01*
X96086043Y-17313975D01*
X96085088Y-17311127D01*
X96084190Y-17308210D01*
X96083348Y-17305222D01*
X96082560Y-17302165D01*
X96081825Y-17299037D01*
X96081141Y-17295839D01*
X96080506Y-17292571D01*
X96079921Y-17289233D01*
X96079029Y-17286362D01*
X96078233Y-17283371D01*
X96077534Y-17280261D01*
X96076933Y-17277029D01*
X96076432Y-17273674D01*
X96076033Y-17270195D01*
X96075735Y-17266589D01*
X96075542Y-17262856D01*
X96075455Y-17258994D01*
X96075474Y-17255002D01*
X96075602Y-17250878D01*
X96075840Y-17246620D01*
X96076190Y-17242228D01*
X96076652Y-17237699D01*
X96077229Y-17233033D01*
X96077922Y-17228228D01*
X96080061Y-17209887D01*
X96082294Y-17191731D01*
X96083592Y-17182429D01*
X96085090Y-17172822D01*
X96086844Y-17162793D01*
X96088916Y-17152224D01*
X96091013Y-17141879D01*
X96093497Y-17131135D01*
X96096285Y-17120062D01*
X96099295Y-17108731D01*
X96105655Y-17085575D01*
X96111918Y-17062228D01*
X96126546Y-17013978D01*
X96130114Y-17001857D01*
X96133436Y-16989948D01*
X96136406Y-16978365D01*
X96138919Y-16967226D01*
X96156046Y-16915974D01*
X96173922Y-16863223D01*
X96183215Y-16836054D01*
X96188209Y-16822147D01*
X96193542Y-16807854D01*
X96199298Y-16793045D01*
X96205558Y-16777591D01*
X96212405Y-16761364D01*
X96219920Y-16744234D01*
X96232591Y-16713543D01*
X96246293Y-16681731D01*
X96274920Y-16616229D01*
X96289247Y-16583711D01*
X96304794Y-16549603D01*
X96320903Y-16514560D01*
X96336917Y-16479235D01*
X96353232Y-16444416D01*
X96370670Y-16407727D01*
X96389232Y-16369542D01*
X96408915Y-16330233D01*
X96427198Y-16292698D01*
X96447167Y-16252726D01*
X96468261Y-16211255D01*
X96489917Y-16169222D01*
X96582919Y-15994235D01*
X96633544Y-15901978D01*
X96660124Y-15854165D01*
X96687922Y-15805224D01*
X96715045Y-15756755D01*
X96743669Y-15706225D01*
X96803920Y-15601229D01*
X96834482Y-15547589D01*
X96866170Y-15493105D01*
X96898981Y-15437683D01*
X96932917Y-15381228D01*
X97001543Y-15265355D01*
X97073916Y-15144228D01*
X97229922Y-14888232D01*
X97313169Y-14753731D01*
X97400920Y-14613223D01*
X97490795Y-14468604D01*
X97585917Y-14317233D01*
X97683296Y-14162604D01*
X97785922Y-14001223D01*
X98001918Y-13662234D01*
X98115295Y-13484604D01*
X98233920Y-13300234D01*
X98355297Y-13109232D01*
X98481921Y-12912234D01*
X98611794Y-12708603D01*
X98746920Y-12498232D01*
X98884918Y-12280476D01*
X99028918Y-12055224D01*
X99327922Y-11584231D01*
X99643916Y-11082232D01*
X99977916Y-10548235D01*
X100328921Y-9980227D01*
X100509793Y-9683976D01*
X100695918Y-9377230D01*
X100885793Y-9062850D01*
X101080920Y-8737231D01*
X101481921Y-8059222D01*
X101897921Y-7340228D01*
X102111669Y-6964478D01*
X102329921Y-6578234D01*
X102550294Y-6181231D01*
X102775920Y-5772235D01*
X104641917Y-2091235D01*
X106204920Y1525770D01*
X107487918Y5054777D01*
X108510920Y8472776D01*
X109299922Y11761777D01*
X109876918Y14904767D01*
X110265917Y17890775D01*
X110490916Y20704771D01*
X110572917Y23342771D01*
X110535922Y25795774D01*
X110398921Y28059766D01*
X110183917Y30130765D01*
X109905917Y32009778D01*
X109584918Y33693769D01*
X109233920Y35184766D01*
X108868922Y36482770D01*
X108500918Y37589765D01*
X108139918Y38507780D01*
X107795916Y39238767D01*
X107473918Y39785779D01*
X107181918Y40149778D01*
X106922915Y40333768D01*
X106698916Y40336774D01*
X106509921Y40162778D01*
X106354922Y39812772D01*
X106230921Y39285780D01*
X106133921Y38582777D01*
X106055918Y37704771D01*
X105989917Y36651777D01*
X105927920Y35423765D01*
X105856921Y34021772D01*
X105764918Y32445768D01*
X105636920Y30697767D01*
X105458918Y28778776D01*
X105212916Y26693769D01*
X104879916Y24445768D01*
X104441920Y22039777D01*
X103877917Y19484769D01*
X103165919Y16788770D01*
X102285922Y13963773D01*
X101214923Y11022779D01*
X99930918Y7984769D01*
X98413920Y4866773D01*
X96641917Y1690778D01*
X94595919Y-1517230D01*
X92259921Y-4727221D01*
X89614718Y-7912234D01*
X86650622Y-11035235D01*
X83356021Y-14060229D01*
X79725619Y-16948229D01*
X75757823Y-19656222D01*
X71456622Y-22140231D01*
X66825618Y-24359225D01*
X61878817Y-26264224D01*
X56638316Y-27810229D01*
X51128520Y-28950228D01*
X45378218Y-29642214D01*
X39424018Y-29843234D01*
X33311221Y-29514224D01*
X27089720Y-28618227D01*
X20818318Y-27126223D01*
X14552020Y-25011233D01*
X8361619Y-22255221D01*
X7040559Y-21510116D01*
X7545720Y-21775225D01*
X8352783Y-22174136D01*
X9205156Y-22585980D01*
X10103336Y-23010198D01*
X11047820Y-23446230D01*
X12039396Y-23868897D01*
X13076882Y-24297848D01*
X14160062Y-24732238D01*
X15288720Y-25171221D01*
X16463599Y-25582462D01*
X17682382Y-25992104D01*
X18944758Y-26399306D01*
X20250419Y-26803225D01*
X21602220Y-27163834D01*
X22994456Y-27514599D01*
X24427473Y-27854679D01*
X25901618Y-28183230D01*
X27413323Y-28451553D01*
X28962695Y-28702349D01*
X30549305Y-28934583D01*
X32172721Y-29147219D01*
X33826348Y-29283814D01*
X35512094Y-29394721D01*
X37229454Y-29479380D01*
X38977919Y-29537234D01*
X40745092Y-29503931D01*
X42538795Y-29438101D01*
X44357810Y-29339089D01*
X46200919Y-29206240D01*
X48043304Y-28971198D01*
X49905406Y-28697730D01*
X51785939Y-28385265D01*
X53683619Y-28033236D01*
X55563925Y-27569076D01*
X57453633Y-27062727D01*
X59352058Y-26513629D01*
X61258517Y-25921221D01*
X62192178Y-25572515D01*
X63126100Y-25212616D01*
X64060164Y-24841491D01*
X64994245Y-24459103D01*
X65928224Y-24065418D01*
X66861977Y-23660400D01*
X67795383Y-23244014D01*
X68728320Y-22816226D01*
X69631890Y-22342596D01*
X70533166Y-21857694D01*
X71432056Y-21361495D01*
X72328469Y-20853976D01*
X73222314Y-20335113D01*
X74113498Y-19804882D01*
X75001932Y-19263260D01*
X75887522Y-18710223D01*
X76734851Y-18114081D01*
X77577744Y-17506960D01*
X78416023Y-16888940D01*
X79249508Y-16260104D01*
X80078019Y-15620533D01*
X80901377Y-14970309D01*
X81719403Y-14309515D01*
X82531916Y-13638232D01*
X83299048Y-12927987D01*
X84059275Y-12208015D01*
X84812502Y-11478339D01*
X85558631Y-10738984D01*
X86297564Y-9989971D01*
X87029204Y-9231326D01*
X87753455Y-8463071D01*
X88470217Y-7685229D01*
X89134156Y-6876560D01*
X89789340Y-6059383D01*
X90435685Y-5233816D01*
X91073107Y-4399975D01*
X91701525Y-3557979D01*
X92320855Y-2707944D01*
X92931013Y-1849987D01*
X93531916Y-984225D01*
X94074719Y-96000D01*
X94607326Y798635D01*
X95129666Y1699621D01*
X95641670Y2606901D01*
X96143267Y3520414D01*
X96634388Y4440103D01*
X97114961Y5365909D01*
X97584918Y6297773D01*
X97993710Y7241627D01*
X98391310Y8189851D01*
X98777684Y9142316D01*
X99152796Y10098896D01*
X99516610Y11059459D01*
X99869092Y12023879D01*
X100210207Y12992027D01*
X100539920Y13963773D01*
X100807899Y14937955D01*
X101064324Y15914164D01*
X101309171Y16892271D01*
X101542417Y17872148D01*
X101764039Y18853665D01*
X101974012Y19836695D01*
X102172314Y20821108D01*
X102358920Y21806775D01*
X102485909Y22784247D01*
X102601403Y23761367D01*
X102705436Y24738066D01*
X102798043Y25714273D01*
X102879260Y26689918D01*
X102949122Y27664930D01*
X103007663Y28639240D01*
X103054919Y29612775D01*
X103046908Y30567839D01*
X103028152Y31520464D01*
X102998686Y32470557D01*
X102958544Y33418026D01*
X102907761Y34362775D01*
X102846373Y35304713D01*
X102774414Y36243744D01*
X102691920Y37179777D01*
X102560399Y38089694D01*
X102419374Y38995381D01*
X102268904Y39896734D01*
X102109046Y40793645D01*
X101939860Y41686011D01*
X101761404Y42573725D01*
X101573737Y43456681D01*
X101376918Y44334776D01*
X101138525Y45180531D01*
X100892152Y46020509D01*
X100637881Y46854651D01*
X100375793Y47682899D01*
X100105971Y48505193D01*
X99828497Y49321476D01*
X99543452Y50131689D01*
X99250918Y50935773D01*
X98925998Y51702644D01*
X98594809Y52462742D01*
X98257456Y53216042D01*
X97914044Y53962522D01*
X97564680Y54702158D01*
X97209467Y55434928D01*
X96848513Y56160807D01*
X96481921Y56879774D01*
X96092314Y57558988D01*
X95698325Y58230866D01*
X95300072Y58895386D01*
X94897669Y59552522D01*
X94491236Y60202253D01*
X94080889Y60844555D01*
X93666744Y61479405D01*
X93248919Y62106779D01*
X92816836Y62694775D01*
X92382386Y63275272D01*
X91945636Y63848270D01*
X91506656Y64413768D01*
X91065516Y64971767D01*
X90622282Y65522267D01*
X90177026Y66065267D01*
X89729815Y66600767D01*
X89277519Y67098202D01*
X88824576Y67588502D01*
X88371064Y68071653D01*
X87917057Y68547645D01*
X87462633Y69016465D01*
X87007868Y69478101D01*
X86552838Y69932541D01*
X86097621Y70379774D01*
X85192905Y71197494D01*
X84292306Y71988775D01*
X83396338Y72753803D01*
X82505519Y73492765D01*
X81636177Y74156907D01*
X80776183Y74797893D01*
X79925882Y75415816D01*
X79085620Y76010770D01*
X78280352Y76541619D01*
X77488394Y77052776D01*
X76710124Y77544430D01*
X75945918Y78016767D01*
X75226987Y78436239D01*
X74524443Y78839771D01*
X73838963Y79227553D01*
X73171222Y79599775D01*
X71957445Y80246524D01*
X70820018Y80843778D01*
X69838107Y81354394D01*
X68935916Y81826764D01*
X68556485Y82033784D01*
X68197942Y82233396D01*
X67860587Y82425695D01*
X67544719Y82610776D01*
X67414442Y82694824D01*
X67289549Y82777478D01*
X67170027Y82858749D01*
X67055858Y82938650D01*
X66947029Y83017191D01*
X66843524Y83094385D01*
X66745326Y83170244D01*
X66652423Y83244779D01*
X66585784Y83313171D01*
X66554359Y83346917D01*
X66524207Y83380368D01*
X66495333Y83413526D01*
X66467745Y83446395D01*
X66441451Y83478976D01*
X66416456Y83511274D01*
X66392768Y83543290D01*
X66370393Y83575029D01*
X66349339Y83606491D01*
X66329612Y83637682D01*
X66311220Y83668603D01*
X66294169Y83699257D01*
X66278465Y83729648D01*
X66264117Y83759779D01*
X66260898Y83787399D01*
X66258963Y83814761D01*
X66258310Y83841866D01*
X66258938Y83868712D01*
X66260844Y83895301D01*
X66264025Y83921632D01*
X66268480Y83947706D01*
X66274206Y83973522D01*
X66281201Y83999080D01*
X66289464Y84024380D01*
X66298990Y84049423D01*
X66309780Y84074208D01*
X66321830Y84098736D01*
X66335138Y84123006D01*
X66349702Y84147019D01*
X66365519Y84170774D01*
X66392791Y84192185D01*
X66421277Y84213295D01*
X66450973Y84234105D01*
X66481871Y84254619D01*
X66513966Y84274840D01*
X66547251Y84294771D01*
X66581721Y84314415D01*
X66617369Y84333774D01*
X66654188Y84352852D01*
X66692173Y84371652D01*
X66731318Y84390176D01*
X66771615Y84408428D01*
X66813060Y84426411D01*
X66855646Y84444127D01*
X66944216Y84478773D01*
X67057071Y84507410D01*
X67174308Y84534806D01*
X67295935Y84560935D01*
X67421957Y84585775D01*
X67552380Y84609301D01*
X67687211Y84631491D01*
X67826455Y84652321D01*
X67970118Y84671766D01*
X68136422Y84684474D01*
X68306930Y84695600D01*
X68660244Y84713148D01*
X69029420Y84724505D01*
X69413821Y84729765D01*
X69846743Y84714348D01*
G37*
G36*
X61062149Y95701100D02*
G01*
X62910517Y95657773D01*
X64779086Y95412912D01*
X66644626Y95127633D01*
X68506594Y94802017D01*
X70364446Y94436147D01*
X72217639Y94030106D01*
X74065628Y93583975D01*
X75907871Y93097837D01*
X77743823Y92571775D01*
X79544837Y91842912D01*
X81331653Y91075495D01*
X83103782Y90269780D01*
X84860731Y89426027D01*
X86602010Y88544492D01*
X88327128Y87625434D01*
X90035593Y86669110D01*
X91726916Y85675779D01*
X93329867Y84494541D01*
X94908900Y83279834D01*
X96463535Y82032035D01*
X97993292Y80751518D01*
X99497689Y79438657D01*
X100976247Y78093829D01*
X102428485Y76717407D01*
X103853923Y75309766D01*
X105146313Y73743562D01*
X106406546Y72151752D01*
X107634342Y70534794D01*
X108829419Y68893144D01*
X109991496Y67227260D01*
X111120293Y65537599D01*
X112215527Y63824618D01*
X113276919Y62088773D01*
X114171651Y60232663D01*
X115028777Y58360697D01*
X115848193Y56473424D01*
X116629793Y54571397D01*
X117373471Y52655167D01*
X118079121Y50725284D01*
X118746639Y48782299D01*
X119375918Y46826764D01*
X119817678Y44796737D01*
X120219746Y42761458D01*
X120582181Y40721398D01*
X120905041Y38677024D01*
X121188386Y36628806D01*
X121432273Y34577213D01*
X121636763Y32522712D01*
X121801913Y30465772D01*
X121772083Y28383050D01*
X121703711Y26305179D01*
X121596971Y24232605D01*
X121452041Y22165773D01*
X121269094Y20105127D01*
X121048307Y18051114D01*
X120789855Y16004178D01*
X120493914Y13964765D01*
X120008852Y11944891D01*
X119489089Y9939267D01*
X118934896Y7948269D01*
X118346543Y5972270D01*
X117724299Y4011646D01*
X117068433Y2066771D01*
X116379216Y138020D01*
X115656916Y-1774233D01*
X114763730Y-3628048D01*
X113841668Y-5460311D01*
X112891106Y-7270753D01*
X111912418Y-9059105D01*
X110905980Y-10825098D01*
X109872167Y-12568462D01*
X108811355Y-14288927D01*
X107723918Y-15986224D01*
X106490700Y-17594627D01*
X105236307Y-19176020D01*
X103961126Y-20730296D01*
X102665542Y-22257350D01*
X101349943Y-23757074D01*
X100014716Y-25229365D01*
X98660246Y-26674115D01*
X97286921Y-28091219D01*
X95797590Y-29399280D01*
X94295346Y-30677492D01*
X92780561Y-31925913D01*
X91253606Y-33144602D01*
X89714852Y-34333620D01*
X88164673Y-35493026D01*
X86603438Y-36622879D01*
X85031520Y-37723238D01*
X83376361Y-38702375D01*
X81716326Y-39651582D01*
X80051820Y-40570928D01*
X78383244Y-41460486D01*
X76711003Y-42320324D01*
X75035500Y-43150515D01*
X73357137Y-43951127D01*
X71676318Y-44722231D01*
X69943077Y-45371059D01*
X68212435Y-45991656D01*
X66484782Y-46584197D01*
X64760505Y-47148860D01*
X63039993Y-47685819D01*
X61323632Y-48195250D01*
X59611811Y-48677330D01*
X57904917Y-49132235D01*
X56171576Y-49471039D01*
X54447679Y-49784896D01*
X52733492Y-50074076D01*
X51029281Y-50338847D01*
X49335312Y-50579479D01*
X47651852Y-50796243D01*
X45979165Y-50989408D01*
X44317519Y-51159243D01*
X42653113Y-51224817D01*
X41002847Y-51270222D01*
X39367023Y-51295727D01*
X37745944Y-51301604D01*
X36139911Y-51288121D01*
X34549228Y-51255549D01*
X32974196Y-51204159D01*
X31415118Y-51134219D01*
X29870130Y-50975603D01*
X28343349Y-50802197D01*
X26834934Y-50614306D01*
X25345043Y-50412234D01*
X23873837Y-50196286D01*
X22421475Y-49966767D01*
X20988115Y-49723981D01*
X19573918Y-49468234D01*
X18185343Y-49141423D01*
X16817147Y-48805449D01*
X14142519Y-48107230D01*
X11551291Y-47376012D01*
X9044719Y-46614230D01*
X6645113Y-45735867D01*
X4332624Y-44844103D01*
X2108042Y-43941651D01*
X-27841Y-43031222D01*
X-2052633Y-42048569D01*
X-3988743Y-41073229D01*
X-5836072Y-40107640D01*
X-7594521Y-39154238D01*
X-9243691Y-38169640D01*
X-10805699Y-37210734D01*
X-12280658Y-36279580D01*
X-13668681Y-35378237D01*
X-14953822Y-34480820D01*
X-16154864Y-33624472D01*
X-17271676Y-32811252D01*
X-18304131Y-32043215D01*
X-19242500Y-31306811D01*
X-20099718Y-30624220D01*
X-20875656Y-29997128D01*
X-21570181Y-29427218D01*
X-22178089Y-28909705D01*
X-22706769Y-28455847D01*
X-23155854Y-28066677D01*
X-23524981Y-27743227D01*
X-23812734Y-27486262D01*
X-24021381Y-27299229D01*
X-24150453Y-27182695D01*
X-24185002Y-27151042D01*
X-24199481Y-27137225D01*
X-23579581Y-27684222D01*
X-22763118Y-28390847D01*
X-21596481Y-29383242D01*
X-8849794Y-38343234D01*
X4871619Y-44971224D01*
X19154118Y-49201235D01*
X33592620Y-51041232D01*
X47796420Y-50561221D01*
X61405223Y-47897219D01*
X74100016Y-43234225D01*
X85604922Y-36801241D01*
X95692919Y-28863223D01*
X104192919Y-19708224D01*
X110986918Y-9642230D01*
X116014918Y1030775D01*
X119266925Y12013776D01*
X120783923Y23014768D01*
X120649920Y33771772D01*
X118984912Y44045774D01*
X115944918Y53634779D01*
X111704921Y62370771D01*
X106460917Y70120771D01*
X100411921Y76798765D01*
X93770922Y82343778D01*
X86730921Y86745771D01*
X79484820Y90016767D01*
X72214618Y92200773D01*
X65070521Y93369779D01*
X58191622Y93612775D01*
X51695517Y93035780D01*
X45664920Y91752775D01*
X40165519Y89886777D01*
X35242819Y87561765D01*
X30912520Y84895765D01*
X27175319Y82002775D01*
X24020419Y78993772D01*
X21414818Y75961774D01*
X19318619Y72990766D01*
X17683719Y70153776D01*
X16461320Y67515775D01*
X15594519Y65119779D01*
X15031419Y63003767D01*
X14723420Y61200773D01*
X14625119Y59725767D01*
X14698418Y58590772D01*
X14913619Y57805769D01*
X15248719Y57367765D01*
X15692118Y57275770D01*
X16241420Y57523771D01*
X16904118Y58102766D01*
X17696318Y58995771D01*
X18643719Y60185773D01*
X19779319Y61649778D01*
X21141619Y63353773D01*
X22775420Y65263776D01*
X24724917Y67324766D01*
X27036120Y69481778D01*
X29748618Y71661771D01*
X32898020Y73785779D01*
X36504718Y75757780D01*
X40578417Y77477766D01*
X45110518Y78837766D01*
X50068518Y79721769D01*
X55401019Y80019773D01*
X61029422Y79622770D01*
X66854518Y78433774D01*
X72749720Y76369779D01*
X73056437Y76235185D01*
X73359731Y76100029D01*
X73956622Y75828779D01*
X74249721Y75689105D01*
X74539305Y75549150D01*
X74825497Y75409007D01*
X75108416Y75268766D01*
X75663744Y74981267D01*
X75936587Y74837612D01*
X76206317Y74693769D01*
X76472040Y74546785D01*
X76734744Y74399896D01*
X77251017Y74106779D01*
X77753708Y73808019D01*
X78000481Y73659300D01*
X78244319Y73510770D01*
X78721679Y73209024D01*
X78956006Y73058803D01*
X79187419Y72908765D01*
X79415489Y72756724D01*
X79640607Y72605146D01*
X80082316Y72303770D01*
X80512021Y71999275D01*
X80930316Y71697767D01*
X81337882Y71393770D01*
X81537300Y71242989D01*
X81733821Y71092771D01*
X82119032Y70789897D01*
X82493823Y70490766D01*
X82858195Y70189893D01*
X83212519Y69892774D01*
X83386021Y69743897D01*
X83556906Y69595773D01*
X83725223Y69448399D01*
X83891017Y69301771D01*
X84054842Y69154566D01*
X84216119Y69008398D01*
X84374995Y68863167D01*
X84531619Y68718778D01*
X84685979Y68573668D01*
X84838006Y68429401D01*
X85135318Y68143766D01*
X85424157Y67859519D01*
X85704516Y67579771D01*
X85976233Y67300521D01*
X86109056Y67162679D01*
X86239917Y67025770D01*
X86495570Y66752525D01*
X86620368Y66617681D01*
X86743121Y66483778D01*
X86983505Y66216524D01*
X87100770Y66084682D01*
X87216021Y65953779D01*
X87329861Y65823074D01*
X87441769Y65693401D01*
X87551804Y65564663D01*
X87660021Y65436765D01*
X87871643Y65183021D01*
X87974794Y65057928D01*
X88076220Y64933774D01*
X88274457Y64687021D01*
X88466021Y64444776D01*
X88559461Y64324427D01*
X88651357Y64205019D01*
X88830317Y63969770D01*
X88917733Y63853181D01*
X89003593Y63737526D01*
X89170718Y63509779D01*
X89332468Y63284648D01*
X89488215Y63064771D01*
X89564285Y62955696D01*
X89638893Y62847650D01*
X89783717Y62635770D01*
X89923794Y62425647D01*
X90058322Y62220777D01*
X90188360Y62019145D01*
X90312922Y61822767D01*
X90433168Y61628648D01*
X90548922Y61439771D01*
X90659669Y61253648D01*
X90713449Y61162598D01*
X90765918Y61072767D01*
X90817699Y60983331D01*
X90868169Y60895019D01*
X90965922Y60721769D01*
X91013358Y60636676D01*
X91059670Y60552520D01*
X91148921Y60387769D01*
X91192451Y60306585D01*
X91234669Y60226524D01*
X91315921Y60069776D01*
X91393045Y59916894D01*
X91429686Y59842938D01*
X91464923Y59770765D01*
X91499421Y59698937D01*
X91532420Y59628892D01*
X91563920Y59560535D01*
X91593921Y59493772D01*
X91623764Y59427352D01*
X91651919Y59362899D01*
X91678575Y59300131D01*
X91703921Y59238767D01*
X91728825Y59178630D01*
X91752417Y59119897D01*
X91774510Y59062853D01*
X91794917Y59007780D01*
X91815183Y58952616D01*
X91834043Y58899518D01*
X91851592Y58848298D01*
X91867923Y58798765D01*
X91883108Y58750034D01*
X91897168Y58702896D01*
X91910104Y58657442D01*
X91921916Y58613767D01*
X91932591Y58571033D01*
X91937476Y58550258D01*
X91942044Y58529893D01*
X91946284Y58509951D01*
X91950184Y58490441D01*
X91953733Y58471378D01*
X91956919Y58452772D01*
X91960155Y58434211D01*
X91963108Y58416037D01*
X91965780Y58398263D01*
X91968170Y58380899D01*
X91970279Y58363957D01*
X91972106Y58347449D01*
X91973652Y58331385D01*
X91974917Y58315778D01*
X91975899Y58300258D01*
X91976588Y58285195D01*
X91976973Y58270579D01*
X91977041Y58256397D01*
X91976781Y58242637D01*
X91976182Y58229289D01*
X91975231Y58216340D01*
X91973918Y58203779D01*
X91972653Y58191258D01*
X91971107Y58179195D01*
X91969279Y58167579D01*
X91967170Y58156396D01*
X91964780Y58145636D01*
X91962108Y58135286D01*
X91959155Y58125333D01*
X91955920Y58115766D01*
X91954197Y58110950D01*
X91952401Y58106250D01*
X91950533Y58101668D01*
X91948590Y58097204D01*
X91946571Y58092856D01*
X91944474Y58088626D01*
X91942299Y58084514D01*
X91940042Y58080518D01*
X91937704Y58076640D01*
X91935282Y58072879D01*
X91932776Y58069236D01*
X91930183Y58065710D01*
X91927502Y58062301D01*
X91924732Y58059009D01*
X91921870Y58055835D01*
X91918918Y58052778D01*
X91916070Y58049471D01*
X91913152Y58046302D01*
X91910164Y58043264D01*
X91907106Y58040354D01*
X91903977Y58037567D01*
X91900778Y58034899D01*
X91897508Y58032345D01*
X91894169Y58029901D01*
X91890758Y58027563D01*
X91887278Y58025325D01*
X91883727Y58023185D01*
X91880106Y58021136D01*
X91876414Y58019176D01*
X91872652Y58017298D01*
X91868820Y58015500D01*
X91864917Y58013776D01*
X91860944Y58012136D01*
X91856902Y58010592D01*
X91852789Y58009147D01*
X91848606Y58007805D01*
X91844352Y58006569D01*
X91840028Y58005441D01*
X91835634Y58004424D01*
X91831169Y58003522D01*
X91826634Y58002738D01*
X91822028Y58002073D01*
X91817352Y58001531D01*
X91812606Y58001116D01*
X91807789Y58000830D01*
X91802902Y58000676D01*
X91797945Y58000657D01*
X91792918Y58000776D01*
X91782652Y58000633D01*
X91772106Y58000959D01*
X91761277Y58001754D01*
X91750169Y58003019D01*
X91738778Y58004753D01*
X91727107Y58006956D01*
X91715155Y58009628D01*
X91702922Y58012769D01*
X91690362Y58015671D01*
X91677451Y58019099D01*
X91664212Y58023020D01*
X91650670Y58027397D01*
X91636846Y58032195D01*
X91622764Y58037379D01*
X91608448Y58042914D01*
X91593921Y58048765D01*
X91579153Y58054999D01*
X91564092Y58061690D01*
X91548726Y58068825D01*
X91533045Y58076395D01*
X91517035Y58084386D01*
X91500686Y58092787D01*
X91466922Y58110776D01*
X91449859Y58119720D01*
X91432434Y58129273D01*
X91414659Y58139390D01*
X91396543Y58150022D01*
X91359340Y58172647D01*
X91320918Y58196775D01*
X91301648Y58209009D01*
X91282074Y58221711D01*
X91241918Y58248523D01*
X91200262Y58277209D01*
X91156916Y58307767D01*
X91112839Y58339283D01*
X91067544Y58372392D01*
X91020935Y58407189D01*
X90972918Y58443769D01*
X90924167Y58481439D01*
X90873918Y58520891D01*
X90822169Y58562031D01*
X90768916Y58604764D01*
X90715229Y58647725D01*
X90660417Y58692647D01*
X90604105Y58739630D01*
X90545916Y58788770D01*
X90486827Y58837721D01*
X90426432Y58888643D01*
X90364556Y58941630D01*
X90301020Y58996778D01*
X90170458Y59110021D01*
X90103147Y59169178D01*
X90034121Y59230772D01*
X89964445Y59291570D01*
X89893419Y59354148D01*
X89820818Y59418790D01*
X89746417Y59485776D01*
X89594268Y59621269D01*
X89436122Y59762769D01*
X89102816Y60062772D01*
X88745417Y60383771D01*
X88363215Y60726774D01*
X87955622Y61088773D01*
X87521716Y61469770D01*
X87405589Y61568566D01*
X87282393Y61670646D01*
X87027621Y61879774D01*
X86964820Y61931180D01*
X86902961Y61982598D01*
X86842403Y62033947D01*
X86783505Y62085144D01*
X86726628Y62136107D01*
X86672132Y62186754D01*
X86620375Y62237003D01*
X86571719Y62286771D01*
X86571956Y62286246D01*
X86523116Y62335210D01*
X86469808Y62385930D01*
X86412881Y62437824D01*
X86352720Y62490772D01*
X86289709Y62544658D01*
X86224232Y62599364D01*
X86087420Y62710767D01*
X85802295Y62932149D01*
X85659077Y63043915D01*
X85519122Y63155774D01*
X85241381Y63378274D01*
X84957415Y63603773D01*
X84667542Y63830270D01*
X84371821Y64059766D01*
X84070005Y64288772D01*
X83762118Y64520765D01*
X83448208Y64751771D01*
X83127917Y64985776D01*
X82801906Y65218147D01*
X82469516Y65452772D01*
X82131033Y65686519D01*
X81786318Y65921766D01*
X81435431Y66155521D01*
X81078318Y66390775D01*
X80715157Y66623022D01*
X80345622Y66856779D01*
X79970056Y67087900D01*
X79588122Y67319776D01*
X79200220Y67548395D01*
X78805720Y67777768D01*
X78405507Y68002899D01*
X77998919Y68228773D01*
X77586219Y68450269D01*
X77167521Y68671766D01*
X76742919Y68887899D01*
X76312022Y69104764D01*
X75875245Y69315149D01*
X75432620Y69524778D01*
X74984009Y69729522D01*
X74529620Y69932767D01*
X74069518Y70130020D01*
X73603717Y70325773D01*
X73132483Y70514141D01*
X72655322Y70701765D01*
X72173069Y70881025D01*
X71685122Y71058775D01*
X71192219Y71229272D01*
X70693919Y71396772D01*
X70190443Y71556394D01*
X69681720Y71713773D01*
X69168620Y71861778D01*
X68650416Y72006772D01*
X68127970Y72143148D01*
X67600421Y72275770D01*
X67069094Y72398773D01*
X66533122Y72518766D01*
X65993131Y72628149D01*
X65449015Y72733777D01*
X64901569Y72829021D01*
X64349917Y72919767D01*
X63795106Y73000520D01*
X63236621Y73076765D01*
X62675383Y73141023D01*
X62110621Y73200773D01*
X61543657Y73249397D01*
X60973323Y73292768D01*
X60401370Y73324399D01*
X59826419Y73350767D01*
X59250332Y73364898D01*
X58671321Y73373777D01*
X58381818Y73372870D01*
X58091717Y73370275D01*
X57509723Y73360776D01*
X56927418Y73338773D01*
X56635481Y73325616D01*
X56343020Y73310773D01*
X55759205Y73270151D01*
X55466572Y73247353D01*
X55173518Y73222776D01*
X54881355Y73194102D01*
X54588806Y73163646D01*
X54002520Y73097776D01*
X53417945Y73018146D01*
X53125273Y72975851D01*
X52832320Y72931776D01*
X52248844Y72832769D01*
X51664618Y72727766D01*
X51373923Y72669096D01*
X51083106Y72608644D01*
X50501220Y72482770D01*
X50212022Y72414335D01*
X49922843Y72344022D01*
X49633703Y72271833D01*
X49344619Y72197767D01*
X49057381Y72119426D01*
X48770294Y72039022D01*
X48483318Y71956741D01*
X48196418Y71872770D01*
X47911679Y71784081D01*
X47627156Y71693519D01*
X47342839Y71601083D01*
X47058719Y71506773D01*
X46777005Y71407757D01*
X46495593Y71307145D01*
X46214518Y71204846D01*
X45933818Y71100767D01*
X45655582Y70991988D01*
X45377806Y70881521D01*
X45100461Y70769177D01*
X44823519Y70654768D01*
X44549429Y70536081D01*
X44275844Y70415519D01*
X44002748Y70293083D01*
X43730120Y70168775D01*
X43460625Y70039756D01*
X43191693Y69909145D01*
X42923325Y69776849D01*
X42655520Y69642774D01*
X42391137Y69504587D01*
X42127382Y69364524D01*
X41864321Y69222588D01*
X41602019Y69078779D01*
X41343155Y68930857D01*
X41085106Y68781152D01*
X40827863Y68629760D01*
X40571418Y68476774D01*
X40318565Y68319259D01*
X40066669Y68160150D01*
X39815673Y67999353D01*
X39565520Y67836774D01*
X39319405Y67670271D01*
X39074256Y67502271D01*
X38830063Y67332772D01*
X38586817Y67161771D01*
X38347834Y66986271D01*
X38109844Y66809270D01*
X37872867Y66630771D01*
X37636920Y66450773D01*
X37405490Y66266447D01*
X37175157Y66080902D01*
X36945930Y65894043D01*
X36717818Y65705778D01*
X36494262Y65513635D01*
X36271944Y65319900D01*
X36050863Y65124852D01*
X35831019Y64928770D01*
X35615902Y64728695D01*
X35402106Y64527397D01*
X35189642Y64324786D01*
X34978518Y64120771D01*
X34772213Y63913209D01*
X34567306Y63704523D01*
X34363805Y63494709D01*
X34161719Y63283765D01*
X33964643Y63069303D01*
X33768982Y62853525D01*
X33574764Y62636619D01*
X33382018Y62418775D01*
X33194522Y62197725D01*
X33008544Y61975646D01*
X32824104Y61752632D01*
X32641219Y61528776D01*
X32463540Y61301727D01*
X32287482Y61073646D01*
X32113018Y60844630D01*
X31940120Y60614774D01*
X31772673Y60382317D01*
X31606895Y60148643D01*
X31442729Y59914033D01*
X31280120Y59678770D01*
X31123146Y59441381D01*
X30967832Y59203145D01*
X30814186Y58963972D01*
X30662219Y58723768D01*
X30515942Y58481897D01*
X30371381Y58239273D01*
X30228489Y57995896D01*
X30087218Y57751768D01*
X29951849Y57506004D01*
X29818156Y57259395D01*
X29686170Y57012222D01*
X29555918Y56764768D01*
X29431489Y56515581D01*
X29308832Y56266021D01*
X29187918Y56016086D01*
X29068721Y55765775D01*
X28955419Y55513745D01*
X28843844Y55261526D01*
X28734031Y55008929D01*
X28626017Y54755765D01*
X28527918Y54525770D01*
X28411132Y54240146D01*
X28253020Y53842771D01*
X28163249Y53602598D01*
X28065706Y53335145D01*
X27960870Y53040507D01*
X27849219Y52718778D01*
X27738929Y52370243D01*
X27624870Y51995271D01*
X27507585Y51594053D01*
X27387618Y51166776D01*
X27278348Y50714620D01*
X27169931Y50237524D01*
X27062958Y49736052D01*
X26958018Y49210767D01*
X26874283Y48662555D01*
X26796631Y48092027D01*
X26725748Y47499372D01*
X26662318Y46884778D01*
X26630566Y46254649D01*
X26610119Y45605024D01*
X26601598Y44936276D01*
X26605620Y44248777D01*
X26651360Y43554914D01*
X26713095Y42846147D01*
X26791441Y42122944D01*
X26837038Y41756074D01*
X26887019Y41385770D01*
X26956873Y41020770D01*
X27031686Y40653333D01*
X27111493Y40283552D01*
X27196331Y39911521D01*
X27286236Y39537334D01*
X27381245Y39161084D01*
X27481394Y38782864D01*
X27586718Y38402769D01*
X27713569Y38033317D01*
X27845819Y37663022D01*
X27983507Y37291976D01*
X28126670Y36920272D01*
X28275345Y36548006D01*
X28429570Y36175271D01*
X28589383Y35802161D01*
X28754821Y35428769D01*
X28941153Y35072161D01*
X29132954Y34716397D01*
X29330225Y34361569D01*
X29532969Y34007772D01*
X29741188Y33655099D01*
X29954884Y33303645D01*
X30174061Y32953502D01*
X30398718Y32604765D01*
X30640877Y32278206D01*
X30887999Y31954097D01*
X31140044Y31632541D01*
X31396969Y31313646D01*
X31658731Y30997515D01*
X31925288Y30684256D01*
X32196599Y30373972D01*
X32472621Y30066770D01*
X32760865Y29785439D01*
X33052979Y29507752D01*
X33348857Y29233793D01*
X33648394Y28963644D01*
X33951484Y28697385D01*
X34258022Y28435099D01*
X34567902Y28176867D01*
X34881018Y27922773D01*
X35199286Y27696887D01*
X35519676Y27475256D01*
X35842100Y27257913D01*
X36166470Y27044895D01*
X36492696Y26836236D01*
X36820689Y26631971D01*
X37150360Y26432137D01*
X37481620Y26236768D01*
X37809337Y26067876D01*
X38137232Y25903179D01*
X38465221Y25742653D01*
X38793219Y25586275D01*
X39121142Y25434021D01*
X39448906Y25285867D01*
X39776426Y25141791D01*
X40103617Y25001768D01*
X40731131Y24766584D01*
X41352044Y24543771D01*
X41965269Y24332958D01*
X42569720Y24133772D01*
X44726920Y23487775D01*
X45185119Y23339162D01*
X45624943Y23188394D01*
X45837765Y23111998D01*
X46045755Y23034817D01*
X46248832Y22956770D01*
X46446917Y22877775D01*
X46615113Y22792312D01*
X46777657Y22704646D01*
X46934485Y22614731D01*
X47085531Y22522520D01*
X47230732Y22427965D01*
X47370023Y22331020D01*
X47503340Y22231639D01*
X47630618Y22129774D01*
X47678163Y22072761D01*
X47724004Y22014968D01*
X47768131Y21956390D01*
X47810533Y21897022D01*
X47851202Y21836856D01*
X47890127Y21775888D01*
X47927298Y21714111D01*
X47962707Y21651519D01*
X47996342Y21588108D01*
X48028194Y21523870D01*
X48058254Y21458801D01*
X48086511Y21392894D01*
X48112956Y21326143D01*
X48137579Y21258543D01*
X48160370Y21190087D01*
X48181319Y21120771D01*
X48185017Y21045162D01*
X48186658Y20968716D01*
X48186233Y20891438D01*
X48183736Y20813333D01*
X48179159Y20734409D01*
X48172496Y20654670D01*
X48163739Y20574123D01*
X48152881Y20492773D01*
X48139915Y20410626D01*
X48124833Y20327688D01*
X48107629Y20243965D01*
X48088295Y20159463D01*
X48066824Y20074187D01*
X48043210Y19988144D01*
X48017444Y19901340D01*
X47989520Y19813779D01*
X47891043Y19628168D01*
X47782972Y19440401D01*
X47665213Y19250571D01*
X47537669Y19058773D01*
X47400243Y18865099D01*
X47252840Y18669646D01*
X47095364Y18472505D01*
X46927718Y18273771D01*
X46709812Y18073170D01*
X46480934Y17872724D01*
X46241036Y17672582D01*
X45990069Y17472898D01*
X45727982Y17273823D01*
X45454727Y17075510D01*
X45170256Y16878110D01*
X44874518Y16681776D01*
X44524717Y16497907D01*
X44163153Y16317661D01*
X43789846Y16141190D01*
X43404819Y15968645D01*
X43008091Y15800178D01*
X42599685Y15635941D01*
X42179621Y15476087D01*
X41747920Y15320768D01*
X41262193Y15197474D01*
X40765210Y15081960D01*
X40257037Y14974413D01*
X39737744Y14875022D01*
X39207397Y14783975D01*
X38666065Y14701459D01*
X38113817Y14627662D01*
X37550719Y14562772D01*
X36940645Y14551226D01*
X36321221Y14551961D01*
X35692555Y14565165D01*
X35054757Y14591024D01*
X34407936Y14629726D01*
X33752200Y14681459D01*
X33087658Y14746410D01*
X32414420Y14824766D01*
X31709234Y14977327D01*
X30998268Y15146364D01*
X30281730Y15332040D01*
X29559832Y15534521D01*
X28832782Y15753970D01*
X28100790Y15990552D01*
X27364066Y16244433D01*
X26622821Y16515775D01*
X25872058Y16878502D01*
X25120791Y17260975D01*
X24369314Y17663253D01*
X23617919Y18085395D01*
X22866900Y18527459D01*
X22116548Y18989504D01*
X21367157Y19471587D01*
X20619019Y19973768D01*
X19891448Y20578353D01*
X19169971Y21204080D01*
X18454946Y21850900D01*
X17746732Y22518768D01*
X17045684Y23207636D01*
X16352161Y23917458D01*
X15666520Y24648188D01*
X14989119Y25399778D01*
X14366750Y26254140D01*
X13757914Y27128883D01*
X13162947Y28023852D01*
X12582181Y28938896D01*
X12015952Y29873862D01*
X11464592Y30828597D01*
X10928436Y31802949D01*
X10407819Y32796766D01*
X9978550Y33881554D01*
X9570089Y34983240D01*
X9182735Y36101565D01*
X8816782Y37236272D01*
X8472527Y38387104D01*
X8150268Y39553804D01*
X7850299Y40736113D01*
X7572919Y41933774D01*
X7419944Y43198085D01*
X7294008Y44473084D01*
X7195318Y45758489D01*
X7124081Y47054019D01*
X7080506Y48359394D01*
X7064798Y49674331D01*
X7077167Y50998550D01*
X7117820Y52331769D01*
X7308137Y53695210D01*
X7529664Y55061287D01*
X7782516Y56429638D01*
X8066806Y57799898D01*
X8382648Y59171704D01*
X8730155Y60544693D01*
X9109441Y61918502D01*
X9520619Y63292768D01*
X10094787Y64652296D01*
X10701707Y66005051D01*
X11341326Y67350539D01*
X12013594Y68688270D01*
X12718459Y70017750D01*
X13455869Y71338487D01*
X14225773Y72649990D01*
X15028119Y73951765D01*
X15992668Y75191073D01*
X16988245Y76413459D01*
X18014668Y77618500D01*
X19071756Y78805774D01*
X20159327Y79974861D01*
X21277198Y81125337D01*
X22425189Y82256781D01*
X23603118Y83368772D01*
X24926956Y84370017D01*
X26276594Y85344788D01*
X27651769Y86292770D01*
X29052220Y87213647D01*
X30477682Y88107103D01*
X31927895Y88972821D01*
X33402594Y89810485D01*
X34901519Y90619779D01*
X36515203Y91276364D01*
X38146831Y91898977D01*
X39796028Y92487396D01*
X41462419Y93041397D01*
X43145628Y93560757D01*
X44845281Y94045254D01*
X46561003Y94494664D01*
X48292418Y94908765D01*
X50094784Y95138770D01*
X51905346Y95329973D01*
X53723563Y95482293D01*
X55548894Y95595647D01*
X57380796Y95669954D01*
X59218728Y95705133D01*
X61062149Y95701100D01*
G37*
G36*
X14625569Y114548772D02*
G01*
X14630019Y114548515D01*
X14634238Y114548116D01*
X14638221Y114547578D01*
X14641966Y114546898D01*
X14645471Y114546078D01*
X14648734Y114545118D01*
X14651750Y114544017D01*
X14654519Y114542776D01*
X14657455Y114541603D01*
X14660224Y114540337D01*
X14662823Y114538977D01*
X14665250Y114537523D01*
X14667501Y114535975D01*
X14669573Y114534334D01*
X14670541Y114533479D01*
X14671463Y114532599D01*
X14672339Y114531697D01*
X14673169Y114530771D01*
X14673952Y114529821D01*
X14674687Y114528848D01*
X14675375Y114527852D01*
X14676015Y114526832D01*
X14676607Y114525790D01*
X14677150Y114524723D01*
X14677644Y114523633D01*
X14678088Y114522519D01*
X14678483Y114521383D01*
X14678827Y114520222D01*
X14679121Y114519039D01*
X14679364Y114517832D01*
X14679556Y114516601D01*
X14679696Y114515347D01*
X14679784Y114514070D01*
X14679820Y114512769D01*
X14679415Y114509535D01*
X14678801Y114506205D01*
X14677982Y114502779D01*
X14676960Y114499255D01*
X14675738Y114495631D01*
X14674317Y114491907D01*
X14672702Y114488079D01*
X14670894Y114484148D01*
X14668896Y114480110D01*
X14666712Y114475967D01*
X14664342Y114471714D01*
X14661791Y114467352D01*
X14656153Y114458292D01*
X14649819Y114448774D01*
X14642870Y114438830D01*
X14635180Y114428477D01*
X14626681Y114417678D01*
X14617306Y114406398D01*
X14606989Y114394603D01*
X14595664Y114382257D01*
X14583262Y114369325D01*
X14569718Y114355772D01*
X14557162Y114342367D01*
X14543463Y114328399D01*
X14528685Y114313868D01*
X14512894Y114298774D01*
X14478538Y114266898D01*
X14440919Y114232771D01*
X14422365Y114215989D01*
X14402794Y114198646D01*
X14360694Y114162270D01*
X14314806Y114123644D01*
X14265319Y114082769D01*
X14212238Y114039114D01*
X14157319Y113994521D01*
X14099325Y113948052D01*
X14037018Y113898771D01*
X13973153Y113848770D01*
X13905668Y113796520D01*
X13762019Y113686773D01*
X13606382Y113568022D01*
X13524236Y113505928D01*
X13438519Y113441770D01*
X13262319Y113309773D01*
X13072619Y113168775D01*
X12657420Y112861768D01*
X12434544Y112697148D01*
X12197120Y112522771D01*
X11692920Y112148771D01*
X11427881Y111952146D01*
X11147319Y111742773D01*
X10561619Y111302770D01*
X10251644Y111068022D01*
X9933419Y110825773D01*
X9264119Y110310773D01*
X8557219Y109756773D01*
X8191394Y109466021D01*
X7814318Y109164770D01*
X7431681Y108854524D01*
X7035618Y108530775D01*
X6634844Y108199023D01*
X6224919Y107856771D01*
X5808707Y107503898D01*
X5382519Y107139776D01*
X4950594Y106764400D01*
X4509219Y106377775D01*
X4063181Y105980021D01*
X3605820Y105568769D01*
X3147519Y105148023D01*
X2678419Y104713773D01*
X2207619Y104269022D01*
X1727819Y103810773D01*
X1244456Y103339650D01*
X752618Y102855772D01*
X260987Y102360522D01*
X-239541Y101851774D01*
X-741225Y101329149D01*
X-1250041Y100793775D01*
X-1760695Y100242272D01*
X-2276621Y99678769D01*
X-2791005Y99103525D01*
X-3313121Y98511777D01*
X-3833005Y97906652D01*
X-4359781Y97285779D01*
X-4882610Y96652145D01*
X-5411491Y96002775D01*
X-5936742Y95338773D01*
X-6464311Y94662778D01*
X-6991716Y93965646D01*
X-7521581Y93255765D01*
X-8044828Y92531650D01*
X-8571451Y91791776D01*
X-9092364Y91035518D01*
X-9615692Y90262769D01*
X-10131311Y89475524D01*
X-10648386Y88671766D01*
X-11157720Y87851018D01*
X-11666031Y87016767D01*
X-12166977Y86163145D01*
X-12666761Y85293775D01*
X-13155744Y84409273D01*
X-13642641Y83509778D01*
X-14120576Y82587652D01*
X-14593411Y81655775D01*
X-14834761Y81168775D01*
X-15127372Y80562398D01*
X-15527001Y79719770D01*
X-15759072Y79209973D01*
X-16013653Y78641395D01*
X-16289689Y78015256D01*
X-16586121Y77332776D01*
X-16891442Y76587507D01*
X-17212165Y75785896D01*
X-17547421Y74928223D01*
X-17896341Y74014768D01*
X-18238153Y73041487D01*
X-18587425Y72013271D01*
X-18943219Y70930303D01*
X-19304601Y69792768D01*
X-19640661Y68599303D01*
X-19975359Y67352022D01*
X-20307547Y66051863D01*
X-20636081Y64699766D01*
X-20919807Y63296865D01*
X-21192293Y61844274D01*
X-21452423Y60342931D01*
X-21699081Y58793775D01*
X-21880778Y57202692D01*
X-22041456Y55567645D01*
X-22180047Y53888914D01*
X-22295481Y52166776D01*
X-22326371Y50416322D01*
X-22326906Y48627899D01*
X-22296128Y46802914D01*
X-22233081Y44942777D01*
X-22068353Y43071263D01*
X-21865131Y41171154D01*
X-21622459Y39243107D01*
X-21339382Y37287778D01*
X-20942208Y35345869D01*
X-20499974Y33385023D01*
X-20012053Y31406552D01*
X-19477821Y29411771D01*
X-19155795Y28433810D01*
X-18821456Y27453821D01*
X-18474788Y26472027D01*
X-18115776Y25488651D01*
X-17744403Y24503915D01*
X-17360655Y23518042D01*
X-16964516Y22531254D01*
X-16555971Y21543775D01*
X-16098518Y20587938D01*
X-15628326Y19633085D01*
X-15145438Y18679450D01*
X-14649897Y17727270D01*
X-14141748Y16776777D01*
X-13621033Y15828206D01*
X-13087796Y14881793D01*
X-12542081Y13937772D01*
X-11950196Y13036107D01*
X-11346244Y12138708D01*
X-10730223Y11245716D01*
X-10102133Y10357271D01*
X-9461973Y9473513D01*
X-8809741Y8594584D01*
X-8145437Y7720624D01*
X-7469061Y6851774D01*
X-6753150Y6035556D01*
X-6026295Y5226475D01*
X-5288522Y4424638D01*
X-4539855Y3630147D01*
X-3780320Y2843110D01*
X-3009942Y2063631D01*
X-2228747Y1291816D01*
X-1436761Y527769D01*
X-615053Y-175189D01*
X215873Y-868713D01*
X1055849Y-1552653D01*
X1904709Y-2226855D01*
X2762283Y-2891166D01*
X3628405Y-3545434D01*
X4502906Y-4189506D01*
X5385619Y-4823229D01*
X6289006Y-5391383D01*
X7198989Y-5948275D01*
X8115416Y-6493800D01*
X9038132Y-7027852D01*
X9966984Y-7550326D01*
X10901817Y-8061117D01*
X11842481Y-8560120D01*
X12788819Y-9047228D01*
X13741216Y-9465292D01*
X14697604Y-9871179D01*
X15657755Y-10264809D01*
X16621444Y-10646100D01*
X17588442Y-11014968D01*
X18558522Y-11371332D01*
X19531457Y-11715111D01*
X20507020Y-12046221D01*
X21476133Y-12309942D01*
X22446225Y-12561113D01*
X23417073Y-12799743D01*
X24388457Y-13025847D01*
X25360156Y-13239435D01*
X26331947Y-13440519D01*
X27303609Y-13629112D01*
X28274920Y-13805224D01*
X29226987Y-13917824D01*
X30176760Y-14018634D01*
X31124118Y-14107677D01*
X32068943Y-14184977D01*
X33011115Y-14250559D01*
X33950515Y-14304445D01*
X34887022Y-14346661D01*
X35820517Y-14377230D01*
X36723062Y-14352447D01*
X37620983Y-14317152D01*
X38514109Y-14271428D01*
X39402269Y-14215355D01*
X40285291Y-14149017D01*
X41163004Y-14072495D01*
X42035238Y-13985870D01*
X42901820Y-13889224D01*
X43727941Y-13747350D01*
X44547437Y-13597026D01*
X45360171Y-13438333D01*
X46166007Y-13271355D01*
X46964806Y-13096174D01*
X47756433Y-12912872D01*
X48540749Y-12721531D01*
X49317618Y-12522235D01*
X50047361Y-12290031D01*
X50768864Y-12051745D01*
X51482054Y-11807484D01*
X52186857Y-11557353D01*
X52883199Y-11301456D01*
X53571005Y-11039900D01*
X54250203Y-10772790D01*
X54920718Y-10500231D01*
X55541438Y-10207088D01*
X56153099Y-9910476D01*
X56755656Y-9610491D01*
X57349068Y-9307225D01*
X57933293Y-9000772D01*
X58508288Y-8691227D01*
X59074011Y-8378683D01*
X59630419Y-8063235D01*
X60135666Y-7740517D01*
X60631747Y-7416699D01*
X61118608Y-7091898D01*
X61596195Y-6766230D01*
X62064454Y-6439813D01*
X62523331Y-6112762D01*
X62972772Y-5785197D01*
X63412722Y-5457232D01*
X63803810Y-5133765D01*
X64185968Y-4811434D01*
X64559180Y-4490345D01*
X64923431Y-4170603D01*
X65278706Y-3852315D01*
X65624990Y-3535586D01*
X65962267Y-3220522D01*
X66290522Y-2907229D01*
X66573713Y-2607793D01*
X66848239Y-2311731D01*
X67114185Y-2019043D01*
X67371634Y-1729729D01*
X67620669Y-1443791D01*
X67861372Y-1161229D01*
X68093827Y-882043D01*
X68318118Y-606234D01*
X68500855Y-352994D01*
X68676002Y-104125D01*
X68843531Y140221D01*
X69003418Y379892D01*
X69155636Y614734D01*
X69300159Y844596D01*
X69436963Y1069326D01*
X69566020Y1288770D01*
X69658163Y1481328D01*
X69743221Y1668236D01*
X69821235Y1849474D01*
X69892244Y2025016D01*
X69956287Y2194840D01*
X70013405Y2358922D01*
X70063636Y2517239D01*
X70107020Y2669767D01*
X70112495Y2731455D01*
X70116355Y2791637D01*
X70118598Y2850306D01*
X70119222Y2907459D01*
X70118225Y2963087D01*
X70115604Y3017186D01*
X70111357Y3069750D01*
X70105483Y3120773D01*
X70097978Y3170249D01*
X70088842Y3218172D01*
X70078070Y3264536D01*
X70065663Y3309336D01*
X70051616Y3352566D01*
X70035928Y3394220D01*
X70018597Y3434292D01*
X69999621Y3472776D01*
X69966079Y3496973D01*
X69931000Y3519685D01*
X69894378Y3540903D01*
X69856206Y3560618D01*
X69816479Y3578822D01*
X69775188Y3595505D01*
X69732329Y3610659D01*
X69687894Y3624275D01*
X69641877Y3636344D01*
X69594271Y3646857D01*
X69545071Y3655805D01*
X69494269Y3663181D01*
X69441860Y3668974D01*
X69387836Y3673175D01*
X69332192Y3675777D01*
X69274920Y3676771D01*
X69130451Y3651373D01*
X68979571Y3620210D01*
X68822281Y3583329D01*
X68658583Y3540775D01*
X68488476Y3492595D01*
X68311963Y3438837D01*
X68129045Y3379547D01*
X67939723Y3314771D01*
X67486950Y3127553D01*
X67007272Y2921774D01*
X66500593Y2697992D01*
X65966822Y2456769D01*
X64696546Y1863023D01*
X63309420Y1219770D01*
X62508432Y865879D01*
X61676469Y506647D01*
X60813380Y142728D01*
X59919017Y-225222D01*
X58924915Y-595380D01*
X57898855Y-961224D01*
X56841202Y-1321819D01*
X55752322Y-1676226D01*
X54560765Y-2003461D01*
X53338196Y-2315602D01*
X52084989Y-2611804D01*
X50801520Y-2891223D01*
X49420487Y-3109707D01*
X48011507Y-3302599D01*
X46574908Y-3469056D01*
X45111018Y-3608233D01*
X44339691Y-3634934D01*
X43562758Y-3652729D01*
X42780334Y-3661524D01*
X41992532Y-3661227D01*
X41199466Y-3651743D01*
X40401249Y-3632978D01*
X39597996Y-3604839D01*
X38789820Y-3567233D01*
X37953662Y-3476985D01*
X37114118Y-3375686D01*
X36271347Y-3263254D01*
X35425506Y-3139607D01*
X34576755Y-3004662D01*
X33725252Y-2858338D01*
X32871154Y-2700552D01*
X32014621Y-2531222D01*
X31141798Y-2299143D01*
X30268597Y-2054384D01*
X29395154Y-1796921D01*
X28521607Y-1526730D01*
X27648093Y-1243789D01*
X26774749Y-948073D01*
X25901713Y-639559D01*
X25029120Y-318224D01*
X24155181Y73180D01*
X23284067Y477885D01*
X22415971Y895879D01*
X21551082Y1327150D01*
X20689591Y1771686D01*
X19831689Y2229475D01*
X18977569Y2700506D01*
X18127419Y3184766D01*
X17291735Y3741771D01*
X16462389Y4311738D01*
X15639543Y4894595D01*
X14823356Y5490272D01*
X14013990Y6098699D01*
X13211605Y6719804D01*
X12416361Y7353518D01*
X11628419Y7999769D01*
X10871571Y8716942D01*
X10124414Y9445645D01*
X9387038Y10185786D01*
X8659532Y10937271D01*
X7941987Y11700006D01*
X7234493Y12473897D01*
X6537140Y13258852D01*
X5850019Y14054777D01*
X5210007Y14914487D01*
X4582275Y15783526D01*
X3966910Y16661751D01*
X3363994Y17549024D01*
X2773613Y18445203D01*
X2195850Y19350148D01*
X1630791Y20263718D01*
X1078519Y21185773D01*
X585954Y22160930D01*
X107665Y23142287D01*
X-356295Y24129667D01*
X-805870Y25122896D01*
X-1241005Y26121796D01*
X-1661645Y27126192D01*
X-2067736Y28135909D01*
X-2459221Y29150770D01*
X-2783061Y30207062D01*
X-3091500Y31266037D01*
X-3384547Y32327472D01*
X-3662207Y33391145D01*
X-3924487Y34456834D01*
X-4171394Y35524316D01*
X-4402933Y36593369D01*
X-4619111Y37663770D01*
X-4762520Y38760650D01*
X-4890628Y39856628D01*
X-5003487Y40951458D01*
X-5101150Y42044895D01*
X-5183668Y43136691D01*
X-5251092Y44226601D01*
X-5303476Y45314379D01*
X-5340871Y46399778D01*
X-5304854Y47497751D01*
X-5254546Y48591085D01*
X-5190058Y49679638D01*
X-5111504Y50763271D01*
X-5018994Y51841841D01*
X-4912643Y52915209D01*
X-4792561Y53983234D01*
X-4658861Y55045774D01*
X-4454997Y56105687D01*
X-4238752Y57158335D01*
X-4010273Y58203576D01*
X-3769705Y59241271D01*
X-3517194Y60271280D01*
X-3252888Y61293461D01*
X-2976931Y62307674D01*
X-2689471Y63313779D01*
X-2338546Y64304882D01*
X-1977898Y65286118D01*
X-1607693Y66257371D01*
X-1228095Y67218522D01*
X-839269Y68169456D01*
X-441382Y69110055D01*
X-34598Y70040200D01*
X380919Y70959775D01*
X851339Y71857667D01*
X1328369Y72743838D01*
X1811849Y73618290D01*
X2301619Y74481023D01*
X2797521Y75332037D01*
X3299394Y76171333D01*
X3807080Y76998911D01*
X4320419Y77814771D01*
X4877657Y78601330D01*
X5438271Y79375490D01*
X6002074Y80137230D01*
X6568882Y80886524D01*
X7138506Y81623349D01*
X7710762Y82347681D01*
X8285462Y83059496D01*
X8862420Y83758771D01*
X9473045Y84427487D01*
X10083766Y85083617D01*
X10694351Y85727137D01*
X11304569Y86358024D01*
X11914186Y86976255D01*
X12522972Y87581805D01*
X13130693Y88174653D01*
X13737118Y88754774D01*
X14367966Y89305385D01*
X14995402Y89843539D01*
X15619306Y90369342D01*
X16239557Y90882898D01*
X16856034Y91384313D01*
X17468617Y91873693D01*
X18077186Y92351144D01*
X18681618Y92816770D01*
X19913041Y93680852D01*
X21119769Y94500400D01*
X22300548Y95275886D01*
X23454120Y96007780D01*
X24603132Y96669134D01*
X25717494Y97291399D01*
X26795818Y97874850D01*
X27836718Y98419767D01*
X28857178Y98907989D01*
X29835018Y99363023D01*
X30768384Y99784681D01*
X31655417Y100172773D01*
X32506935Y100516209D01*
X33308606Y100831521D01*
X34059783Y101119460D01*
X34759818Y101380773D01*
X35410106Y101606336D01*
X36005794Y101809023D01*
X36545644Y101988835D01*
X37028418Y102145772D01*
X37455926Y102278007D01*
X37823406Y102389897D01*
X38375319Y102553770D01*
X38562332Y102607083D01*
X38631693Y102626545D01*
X38685069Y102641272D01*
X38722546Y102651312D01*
X38744207Y102656712D01*
X38749133Y102657686D01*
X38750125Y102657744D01*
X38750253Y102657666D01*
X38750137Y102657517D01*
X38747229Y102656212D01*
X38740420Y102653776D01*
X38536781Y102590773D01*
X38073718Y102449773D01*
X37349794Y102221397D01*
X36361720Y101900770D01*
X25906920Y97276777D01*
X16708918Y91030775D01*
X8994618Y83451764D01*
X2937319Y74868772D01*
X-1362471Y65619779D01*
X-3869341Y56045774D01*
X-4611001Y46480771D01*
X-3675981Y37237775D01*
X-1204871Y28595777D01*
X2618719Y20792768D01*
X7576319Y14021772D01*
X13426718Y8425779D01*
X19911519Y4096769D01*
X26777617Y1071775D01*
X33776419Y-663226D01*
X40675818Y-1162234D01*
X47271819Y-523226D01*
X53389319Y1124769D01*
X58892115Y3631772D01*
X63679721Y6827772D01*
X67694018Y10539777D01*
X70913020Y14595777D01*
X73350322Y18830778D01*
X75051119Y23097776D01*
X76085520Y27269773D01*
X76543521Y31242765D01*
X76527423Y34940778D01*
X76145221Y38311765D01*
X75508616Y41323774D01*
X74722018Y43969770D01*
X73881022Y46258771D01*
X73073817Y48207776D01*
X72371516Y49843778D01*
X71834521Y51191770D01*
X71513118Y52272779D01*
X71438517Y53107770D01*
X71638423Y53699766D01*
X72125315Y54046766D01*
X72898516Y54137769D01*
X73952922Y53946775D01*
X75263919Y53444776D01*
X76800715Y52591779D01*
X78515818Y51348768D01*
X80352717Y49672773D01*
X82235919Y47528776D01*
X84079615Y44887769D01*
X85788317Y41728773D01*
X87252917Y38052778D01*
X88360919Y33871778D01*
X88994220Y29226774D01*
X89037219Y24173765D01*
X88378916Y18796766D01*
X86920520Y13207776D01*
X84578517Y7537778D01*
X81292117Y1938779D01*
X77024821Y-3420230D01*
X71773318Y-8354235D01*
X65568919Y-12671221D01*
X58476321Y-16181231D01*
X50604117Y-18697222D01*
X42093119Y-20046221D01*
X33128520Y-20078234D01*
X23922721Y-18672228D01*
X14715319Y-15741229D01*
X14235136Y-15541209D01*
X13754231Y-15337349D01*
X13272970Y-15129927D01*
X12791718Y-14919222D01*
X12309005Y-14698179D01*
X11825231Y-14473101D01*
X11340426Y-14244087D01*
X10854619Y-14011233D01*
X10371884Y-13768855D01*
X9887444Y-13521979D01*
X9401990Y-13270978D01*
X8916218Y-13016222D01*
X8432135Y-12751525D01*
X7947469Y-12482605D01*
X7462578Y-12209747D01*
X6977818Y-11933230D01*
X6494937Y-11646056D01*
X6011869Y-11354851D01*
X5529325Y-11060085D01*
X5048019Y-10762225D01*
X4567252Y-10452101D01*
X4087056Y-10138226D01*
X3607442Y-9820600D01*
X3128419Y-9499224D01*
X2652453Y-9167364D01*
X2177444Y-8831849D01*
X1703747Y-8492771D01*
X1231719Y-8150225D01*
X761405Y-7795558D01*
X292484Y-7437607D01*
X-175687Y-7075717D01*
X-643751Y-6709231D01*
X-1105719Y-6333384D01*
X-1566222Y-5953978D01*
X-2025879Y-5570447D01*
X-2485311Y-5182223D01*
X-2938404Y-4784677D01*
X-3389602Y-4383851D01*
X-3839205Y-3979462D01*
X-4287511Y-3571231D01*
X-4731105Y-3151961D01*
X-5172408Y-2729600D01*
X-5611405Y-2304054D01*
X-6048081Y-1875231D01*
X-6479228Y-1435683D01*
X-6908291Y-992852D01*
X-7335531Y-546458D01*
X-7761211Y-96224D01*
X-8179269Y362995D01*
X-8595099Y825777D01*
X-9008980Y1292306D01*
X-9421189Y1762769D01*
X-9823695Y2239705D01*
X-10224449Y2720767D01*
X-10623146Y3205581D01*
X-11019481Y3693769D01*
X-11407577Y4190741D01*
X-11793502Y4691274D01*
X-12176700Y5194806D01*
X-12556611Y5700773D01*
X-12927499Y6214400D01*
X-13296095Y6731773D01*
X-13661868Y7252147D01*
X-14024291Y7774778D01*
X-14378527Y8305996D01*
X-14729093Y8839275D01*
X-15076214Y9374806D01*
X-15420111Y9912778D01*
X-15755983Y10460164D01*
X-16088065Y11009147D01*
X-16416590Y11560193D01*
X-16741791Y12113767D01*
X-17057189Y12674409D01*
X-17369410Y13237394D01*
X-17678434Y13802816D01*
X-17984241Y14370771D01*
X-18278734Y14943429D01*
X-18570360Y15519273D01*
X-18858668Y16097367D01*
X-19143211Y16676771D01*
X-19416917Y17261665D01*
X-19686845Y17848150D01*
X-19953373Y18436695D01*
X-20216881Y19027768D01*
X-20468785Y19623283D01*
X-20717193Y20220392D01*
X-20962095Y20819188D01*
X-21203481Y21419767D01*
X-21434021Y22025831D01*
X-21660456Y22632272D01*
X-21882953Y23239463D01*
X-22101681Y23847776D01*
X-22309359Y24460589D01*
X-22512931Y25073778D01*
X-22712528Y25687716D01*
X-22908281Y26302778D01*
X-23093226Y26922026D01*
X-23274318Y27542026D01*
X-23451417Y28162400D01*
X-23624381Y28782773D01*
X-23786886Y29408645D01*
X-23945144Y30033769D01*
X-24099145Y30658144D01*
X-24248881Y31281766D01*
X-24387573Y31908785D01*
X-24522619Y32536645D01*
X-24653670Y33164317D01*
X-24780381Y33790769D01*
X-24896579Y34421459D01*
X-25008868Y35051773D01*
X-25117164Y35681334D01*
X-25221381Y36309766D01*
X-25314484Y36939710D01*
X-25403706Y37569274D01*
X-25488990Y38198086D01*
X-25570281Y38825773D01*
X-25641022Y39455634D01*
X-25707806Y40083900D01*
X-25770727Y40710853D01*
X-25829881Y41336774D01*
X-25878222Y41963817D01*
X-25922906Y42589645D01*
X-25963953Y43214537D01*
X-26001380Y43838773D01*
X-26028067Y44461586D01*
X-26051068Y45082523D01*
X-26070526Y45702336D01*
X-26086581Y46321775D01*
X-26092145Y46940867D01*
X-26094194Y47558275D01*
X-26092811Y48174932D01*
X-26088081Y48791776D01*
X-26072879Y49405791D01*
X-26054294Y50019147D01*
X-26032352Y50631566D01*
X-26007081Y51242765D01*
X-25971856Y51855036D01*
X-25933255Y52465148D01*
X-25891318Y53073570D01*
X-25846080Y53680769D01*
X-25791012Y54286034D01*
X-25732756Y54889894D01*
X-25671312Y55492444D01*
X-25606681Y56093778D01*
X-25532467Y56692851D01*
X-25455169Y57290147D01*
X-25374777Y57885755D01*
X-25291281Y58479764D01*
X-25102668Y59663518D01*
X-25003914Y60253048D01*
X-24902281Y60839765D01*
X-24791465Y61424849D01*
X-24677856Y62007396D01*
X-24561434Y62587881D01*
X-24442181Y63166776D01*
X-24314101Y63743130D01*
X-24183369Y64317146D01*
X-24049992Y64888726D01*
X-23913981Y65457777D01*
X-23622356Y66587642D01*
X-23320381Y67710767D01*
X-23160075Y68267175D01*
X-22997406Y68820770D01*
X-22664681Y69921766D01*
X-22312143Y71009523D01*
X-22132429Y71549931D01*
X-21950681Y72086774D01*
X-21569356Y73154152D01*
X-21375722Y73683571D01*
X-21180381Y74208768D01*
X-20977206Y74732521D01*
X-20772456Y75252523D01*
X-20566018Y75769149D01*
X-20357781Y76282773D01*
X-20142202Y76793964D01*
X-19925025Y77301776D01*
X-19485631Y78308775D01*
X-19258853Y78806180D01*
X-19030704Y79300022D01*
X-18569281Y80280774D01*
X-18092964Y81245521D01*
X-17853123Y81722741D01*
X-17612041Y82196775D01*
X-17115846Y83135892D01*
X-16866237Y83600347D01*
X-16615901Y84060773D01*
X-16102322Y84971769D01*
X-15584851Y85870771D01*
X-15320516Y86313941D01*
X-15055931Y86752895D01*
X-14524941Y87620771D01*
X-14252927Y88050972D01*
X-13981040Y88476394D01*
X-13437191Y89314771D01*
X-13159254Y89729897D01*
X-12881225Y90141273D01*
X-12324981Y90952772D01*
X-11761656Y91745899D01*
X-11194731Y92530775D01*
X-10622312Y93295898D01*
X-10048481Y94049772D01*
X-9758819Y94419598D01*
X-9469289Y94786146D01*
X-9180319Y95148756D01*
X-8892341Y95506772D01*
X-8307567Y96215394D01*
X-7722771Y96912778D01*
X-7137836Y97587392D01*
X-6552271Y98253766D01*
X-5966559Y98899396D01*
X-5382751Y99533765D01*
X-5087739Y99846459D01*
X-4794360Y100155022D01*
X-4209981Y100762769D01*
X-3623097Y101355895D01*
X-3331852Y101647162D01*
X-3042041Y101934774D01*
X-2462091Y102496273D01*
X-2173395Y102772899D01*
X-1886251Y103045774D01*
X-1183119Y103698397D01*
X-785123Y104063474D01*
X-398791Y104414770D01*
X-51421Y104722707D01*
X217955Y104959770D01*
X376161Y105097083D01*
X403207Y105119310D01*
X403844Y105119419D01*
X401902Y105117237D01*
X390019Y105105771D01*
X392919Y105108770D01*
X379094Y105094513D01*
X404195Y105114521D01*
X554736Y105242522D01*
X1142119Y105746770D01*
X1519997Y106063991D01*
X1906219Y106385523D01*
X2267766Y106684180D01*
X2571619Y106932775D01*
X3094707Y107348897D01*
X3609019Y107753774D01*
X4112556Y108140149D01*
X4605819Y108513769D01*
X5090869Y108873646D01*
X5564819Y109220769D01*
X6028457Y109553397D01*
X6481820Y109874769D01*
X6921869Y110179897D01*
X7350819Y110473775D01*
X7772294Y110756897D01*
X8181020Y111028776D01*
X8576619Y111286147D01*
X8961419Y111533773D01*
X9332906Y111767645D01*
X9692919Y111991773D01*
X10043082Y112206647D01*
X10381320Y112411771D01*
X10705582Y112604274D01*
X11014619Y112784772D01*
X11315344Y112957775D01*
X11603019Y113121770D01*
X11878506Y113275148D01*
X12140420Y113418775D01*
X12389295Y113553020D01*
X12623019Y113676771D01*
X12738200Y113737364D01*
X12848769Y113794770D01*
X12955063Y113849176D01*
X13057419Y113900770D01*
X13257169Y114000646D01*
X13351381Y114046881D01*
X13442220Y114090772D01*
X13530507Y114133287D01*
X13615419Y114173646D01*
X13696582Y114211568D01*
X13773619Y114246770D01*
X13847944Y114279879D01*
X13919719Y114311394D01*
X13988044Y114340848D01*
X14052020Y114367772D01*
X14113712Y114393115D01*
X14172432Y114416772D01*
X14281520Y114459775D01*
X14329717Y114476429D01*
X14375195Y114491773D01*
X14417785Y114505618D01*
X14457318Y114517774D01*
X14475399Y114522792D01*
X14492805Y114527351D01*
X14509514Y114531466D01*
X14525507Y114535147D01*
X14540764Y114538407D01*
X14555265Y114541256D01*
X14568990Y114543708D01*
X14581920Y114545774D01*
X14588133Y114546641D01*
X14594136Y114547367D01*
X14599925Y114547953D01*
X14605497Y114548398D01*
X14610850Y114548702D01*
X14615982Y114548866D01*
X14620889Y114548889D01*
X14625569Y114548772D01*
G37*
G36*
X7040559Y-21510116D02*
G01*
X6788620Y-21377898D01*
X6077119Y-20998103D01*
X5411819Y-20636870D01*
X4793320Y-20295229D01*
X4220957Y-19964757D01*
X3695169Y-19657727D01*
X3216407Y-19374698D01*
X2785119Y-19116229D01*
X2661541Y-19040260D01*
X7040559Y-21510116D01*
G37*
G36*
X1000000Y-18000000D02*
G01*
X1010519Y-18006228D01*
X1522419Y-18332232D01*
X2059831Y-18668726D01*
X2398724Y-18878695D01*
X2661541Y-19040260D01*
X2317519Y-18846224D01*
X1691794Y-18450102D01*
X1265419Y-18176226D01*
X1040656Y-18028233D01*
X1001480Y-18001576D01*
X999237Y-17999811D01*
X1000000Y-18000000D01*
G37*
G36*
X102907916Y-10325228D02*
G01*
X102908301Y-10324820D01*
X102909922Y-10323229D01*
X102907916Y-10325228D01*
G37*
G36*
X59410809Y100304772D02*
G01*
X60810610Y100238757D01*
X62211128Y100151719D01*
X63612070Y100043646D01*
X65013143Y99914527D01*
X66414055Y99764348D01*
X67814512Y99593100D01*
X69214221Y99400770D01*
X70610221Y99101906D01*
X72003072Y98782100D01*
X73392475Y98441411D01*
X74778132Y98079898D01*
X76159743Y97697619D01*
X77537010Y97294633D01*
X78909634Y96870997D01*
X80277316Y96426771D01*
X81621821Y95877885D01*
X82958966Y95309054D01*
X84288458Y94720394D01*
X85610005Y94112024D01*
X86923316Y93484060D01*
X88228100Y92836619D01*
X89524064Y92169819D01*
X90810916Y91483777D01*
X92056548Y90698968D01*
X93290590Y89896370D01*
X94512890Y89076099D01*
X95723294Y88238273D01*
X96921651Y87383010D01*
X98107809Y86510428D01*
X99281616Y85620643D01*
X100442920Y84713773D01*
X101546132Y83718239D01*
X102634871Y82707319D01*
X103708916Y81681282D01*
X104768042Y80640398D01*
X105812028Y79584934D01*
X106840651Y78515162D01*
X107853688Y77431351D01*
X108850917Y76333768D01*
X109776865Y75159308D01*
X110685622Y73973082D01*
X111577058Y72775325D01*
X112451044Y71566270D01*
X113307452Y70346154D01*
X114146152Y69115210D01*
X114967016Y67873673D01*
X115769915Y66621778D01*
X116491362Y65307196D01*
X117193919Y63984834D01*
X117877537Y62654880D01*
X118542170Y61317520D01*
X119187772Y59972942D01*
X119814296Y58621334D01*
X120421694Y57262884D01*
X121009921Y55897779D01*
X121508012Y54488566D01*
X121986766Y53075101D01*
X122446161Y51657629D01*
X122886172Y50236396D01*
X123306777Y48811648D01*
X123707953Y47383630D01*
X124089675Y45952587D01*
X124451922Y44518766D01*
X124721557Y43056828D01*
X124971764Y41594691D01*
X125202611Y40132623D01*
X125414170Y38670896D01*
X125606511Y37209778D01*
X125779704Y35749539D01*
X125933819Y34290449D01*
X126068927Y32832777D01*
X126111830Y31362000D01*
X126136360Y29895010D01*
X126142609Y28431933D01*
X126130671Y26972900D01*
X126100640Y25518039D01*
X126052610Y24067478D01*
X125986674Y22621348D01*
X125902926Y21179777D01*
X125731057Y19741633D01*
X125542548Y18310334D01*
X125337538Y16886068D01*
X125116170Y15469020D01*
X124878583Y14059379D01*
X124624918Y12657332D01*
X124355316Y11263066D01*
X124069918Y9876768D01*
X123702396Y8505522D01*
X123320669Y7143663D01*
X122924881Y5791389D01*
X122515170Y4448900D01*
X122091677Y3116394D01*
X121654544Y1794070D01*
X121203910Y482129D01*
X120739917Y-819231D01*
X120203045Y-2093166D01*
X119654573Y-3355825D01*
X119094710Y-4607001D01*
X118523667Y-5846480D01*
X117941656Y-7074053D01*
X117348888Y-8289510D01*
X116745573Y-9492639D01*
X116131922Y-10683230D01*
X115454604Y-11839532D01*
X114769014Y-12982650D01*
X114075314Y-14112526D01*
X113373669Y-15229102D01*
X112664243Y-16332317D01*
X111947200Y-17422115D01*
X111222703Y-18498435D01*
X110490916Y-19561221D01*
X109706442Y-20584694D01*
X108916870Y-21594129D01*
X108122353Y-22589548D01*
X107323043Y-23570975D01*
X106519092Y-24538433D01*
X105710653Y-25491945D01*
X104897878Y-26431535D01*
X104080920Y-27357226D01*
X103223194Y-28239169D01*
X102363184Y-29107436D01*
X101501134Y-29961944D01*
X100637293Y-30802613D01*
X99771904Y-31629359D01*
X98905215Y-32442100D01*
X98037471Y-33240754D01*
X97168917Y-34025240D01*
X96269364Y-34766573D01*
X95370804Y-35494348D01*
X94473388Y-36208599D01*
X93577266Y-36909361D01*
X92682588Y-37596670D01*
X91789504Y-38270559D01*
X90898163Y-38931064D01*
X90008715Y-39578219D01*
X88192629Y-40776588D01*
X86392581Y-41923857D01*
X84610025Y-43020309D01*
X82846415Y-44066226D01*
X81067286Y-45014294D01*
X79314207Y-45916232D01*
X77588632Y-46772416D01*
X75892016Y-47583224D01*
X74200141Y-48307197D01*
X72542519Y-48991232D01*
X70921121Y-49635517D01*
X69337916Y-50240237D01*
X67775271Y-50772248D01*
X66254804Y-51270602D01*
X66009430Y-51347877D01*
X59907658Y-53058191D01*
X59297667Y-53208290D01*
X58048419Y-53502230D01*
X56843506Y-53750999D01*
X55692819Y-53978858D01*
X54596582Y-54186648D01*
X53555018Y-54375216D01*
X52567258Y-54530944D01*
X51637857Y-54671481D01*
X50845259Y-54786058D01*
X41882155Y-55580773D01*
X41584643Y-55592600D01*
X40395018Y-55630221D01*
X39203469Y-55647482D01*
X38014621Y-55654238D01*
X36826157Y-55641108D01*
X35638221Y-55618227D01*
X34455069Y-55574599D01*
X34046118Y-55556138D01*
X24519575Y-54636065D01*
X23918219Y-54548220D01*
X22767432Y-54359851D01*
X21621520Y-54163241D01*
X20480732Y-53948226D01*
X19345420Y-53724215D01*
X18215132Y-53482848D01*
X17090918Y-53233218D01*
X16320436Y-53048578D01*
X7897409Y-50617181D01*
X7282869Y-50406973D01*
X6228619Y-50037234D01*
X5186044Y-49653235D01*
X4151119Y-49263217D01*
X3126332Y-48858603D01*
X2107319Y-48447238D01*
X1100285Y-48023737D01*
X99949Y-47594241D01*
X-888081Y-47151351D01*
X-1717468Y-46772354D01*
X-7175338Y-44030517D01*
X-7540161Y-43834231D01*
X-8447561Y-43328600D01*
X-9346028Y-42819216D01*
X-10233955Y-42300223D01*
X-11112371Y-41778231D01*
X-11978200Y-41247355D01*
X-12833641Y-40714236D01*
X-13678014Y-40172469D01*
X-14511841Y-39629214D01*
X-15333620Y-39077479D01*
X-16146481Y-38524233D01*
X-16944665Y-37965479D01*
X-17733421Y-37405215D01*
X-18509911Y-36838606D01*
X-19276471Y-36271243D01*
X-20029380Y-35699110D01*
X-20773881Y-35126223D01*
X-21504444Y-34548358D01*
X-22226081Y-33971224D01*
X-22932569Y-33390353D01*
X-23629981Y-32810214D01*
X-24315606Y-32225974D01*
X-24990581Y-31643221D01*
X-25651956Y-31058855D01*
X-26304780Y-30475222D01*
X-26943293Y-29890101D01*
X-27571681Y-29307223D01*
X-28188031Y-28723231D01*
X-28794181Y-28142214D01*
X-29387494Y-27560099D01*
X-29971881Y-26980227D01*
X-30542131Y-26401732D01*
X-31103381Y-25826235D01*
X-31651506Y-25252352D01*
X-32190181Y-24682223D01*
X-32715907Y-24113476D01*
X-33232181Y-23549227D01*
X-33737456Y-22985728D01*
X-34231780Y-22428225D01*
X-34714394Y-21873602D01*
X-35187181Y-21324221D01*
X-35649231Y-20777230D01*
X-36101381Y-20236224D01*
X-36540981Y-19700228D01*
X-36971881Y-19170229D01*
X-37390919Y-18643856D01*
X-37800882Y-18124224D01*
X-38200244Y-17609480D01*
X-38589481Y-17102221D01*
X-38968668Y-16599976D01*
X-39338781Y-16105227D01*
X-39697181Y-15616976D01*
X-40047481Y-15136233D01*
X-40386731Y-14661728D01*
X-40716682Y-14196231D01*
X-41037168Y-13737103D01*
X-41349481Y-13286227D01*
X-41650419Y-12843728D01*
X-41942880Y-12410235D01*
X-42226019Y-11984480D01*
X-42499780Y-11569232D01*
X-42765531Y-11159602D01*
X-43021680Y-10761233D01*
X-43268981Y-10371480D01*
X-43507882Y-9992221D01*
X-43737332Y-9622101D01*
X-43958081Y-9263232D01*
X-44171194Y-8911730D01*
X-44375383Y-8572222D01*
X-44570693Y-8243600D01*
X-44757680Y-7926226D01*
X-44937244Y-7617228D01*
X-45108480Y-7320223D01*
X-45270830Y-7034606D01*
X-45425382Y-6760226D01*
X-45571769Y-6497101D01*
X-45710580Y-6245227D01*
X-46090680Y-5553225D01*
X-46170735Y-5404352D01*
X-46221193Y-5307980D01*
X-46231616Y-5286161D01*
X-46232479Y-5283012D01*
X-46230194Y-5285483D01*
X-46215442Y-5308616D01*
X-46185880Y-5358233D01*
X-46185582Y-5359225D01*
X-46155243Y-5409769D01*
X-46145363Y-5425627D01*
X-46138763Y-5435645D01*
X-46135260Y-5440150D01*
X-46134612Y-5440436D01*
X-46134669Y-5439467D01*
X-46136804Y-5433924D01*
X-46141482Y-5423848D01*
X-46157727Y-5391400D01*
X-46181925Y-5344739D01*
X-46248281Y-5219226D01*
X-46410168Y-4912604D01*
X-46481872Y-4775279D01*
X-46531480Y-4677233D01*
X-46598218Y-4539608D01*
X-46656782Y-4416232D01*
X-46683210Y-4359417D01*
X-46707643Y-4305979D01*
X-46730144Y-4255917D01*
X-46750779Y-4209231D01*
X-46769605Y-4165323D01*
X-46786480Y-4124980D01*
X-46801406Y-4088012D01*
X-46814382Y-4054232D01*
X-46825250Y-4024244D01*
X-46834431Y-3997353D01*
X-46838377Y-3985098D01*
X-46841887Y-3973652D01*
X-46844957Y-3963027D01*
X-46847581Y-3953234D01*
X-46849865Y-3943952D01*
X-46851618Y-3935608D01*
X-46852296Y-3931787D01*
X-46852843Y-3928200D01*
X-46853259Y-3924848D01*
X-46853544Y-3921730D01*
X-46853700Y-3918847D01*
X-46853725Y-3916198D01*
X-46853622Y-3913784D01*
X-46853390Y-3911604D01*
X-46853029Y-3909659D01*
X-46852541Y-3907948D01*
X-46851925Y-3906472D01*
X-46851182Y-3905230D01*
X-46850921Y-3904415D01*
X-46850627Y-3903659D01*
X-46850298Y-3902960D01*
X-46849936Y-3902319D01*
X-46849541Y-3901736D01*
X-46849113Y-3901208D01*
X-46848651Y-3900738D01*
X-46848156Y-3900323D01*
X-46847629Y-3899964D01*
X-46847069Y-3899661D01*
X-46846476Y-3899412D01*
X-46845851Y-3899218D01*
X-46845194Y-3899078D01*
X-46844505Y-3898992D01*
X-46843784Y-3898959D01*
X-46843031Y-3898980D01*
X-46842246Y-3899053D01*
X-46841430Y-3899178D01*
X-46840583Y-3899356D01*
X-46839704Y-3899585D01*
X-46838794Y-3899865D01*
X-46837854Y-3900196D01*
X-46836882Y-3900578D01*
X-46835880Y-3901009D01*
X-46834848Y-3901491D01*
X-46833785Y-3902022D01*
X-46832692Y-3902601D01*
X-46831569Y-3903230D01*
X-46830416Y-3903906D01*
X-46829233Y-3904631D01*
X-46828021Y-3905403D01*
X-46826780Y-3906222D01*
X-46824218Y-3908181D01*
X-46821556Y-3910309D01*
X-46818792Y-3912609D01*
X-46815925Y-3915086D01*
X-46812952Y-3917745D01*
X-46809871Y-3920590D01*
X-46806682Y-3923624D01*
X-46803382Y-3926854D01*
X-46796442Y-3933914D01*
X-46789038Y-3941805D01*
X-46781156Y-3950563D01*
X-46772783Y-3960223D01*
X-46764169Y-3970353D01*
X-46755114Y-3981256D01*
X-46745599Y-3992957D01*
X-46735607Y-4005478D01*
X-46725117Y-4018843D01*
X-46714112Y-4033074D01*
X-46690481Y-4064227D01*
X-46665496Y-4098133D01*
X-46638730Y-4135228D01*
X-46610239Y-4175324D01*
X-46580079Y-4218234D01*
X-46513969Y-4313857D01*
X-46478226Y-4366309D01*
X-46440580Y-4422228D01*
X-46360955Y-4540854D01*
X-46273980Y-4672228D01*
X-46179344Y-4816228D01*
X-46077581Y-4972231D01*
X-45969068Y-5138854D01*
X-45852983Y-5318224D01*
X-45600080Y-5709231D01*
X-45317479Y-6145236D01*
X-45004583Y-6627230D01*
X-44663183Y-7150225D01*
X-44290380Y-7715228D01*
X-43887483Y-8321230D01*
X-43452581Y-8967226D01*
X-42985181Y-9651232D01*
X-42739456Y-10006854D01*
X-42485780Y-10372225D01*
X-42223443Y-10746230D01*
X-41953382Y-11129229D01*
X-41673682Y-11520728D01*
X-41386180Y-11921221D01*
X-41089981Y-12328726D01*
X-40785081Y-12745227D01*
X-40470906Y-13169102D01*
X-40148780Y-13601229D01*
X-39816043Y-14041481D01*
X-39474981Y-14489230D01*
X-39124756Y-14942229D01*
X-38765380Y-15404223D01*
X-38395844Y-15871974D01*
X-38017982Y-16347231D01*
X-37629318Y-16827479D01*
X-37232181Y-17315234D01*
X-36823981Y-17807351D01*
X-36407682Y-18306231D01*
X-35980532Y-18809100D01*
X-35545282Y-19317233D01*
X-35097931Y-19829978D01*
X-34643380Y-20347231D01*
X-34176118Y-20868475D01*
X-33701282Y-21394228D01*
X-33213769Y-21923977D01*
X-32717481Y-22458224D01*
X-32210518Y-22993605D01*
X-31693881Y-23534228D01*
X-31165556Y-24076104D01*
X-30627181Y-24623232D01*
X-30077906Y-25170351D01*
X-29518581Y-25721224D01*
X-28946444Y-26274098D01*
X-28365381Y-26829226D01*
X-27771768Y-27384852D01*
X-27167880Y-27944232D01*
X-26551168Y-28502354D01*
X-25924180Y-29064242D01*
X-25286044Y-29623721D01*
X-24636281Y-30186221D01*
X-23974156Y-30747107D01*
X-23301681Y-31310214D01*
X-22615519Y-31870978D01*
X-21919081Y-32433230D01*
X-21209831Y-32992484D01*
X-20490081Y-33553225D01*
X-19756337Y-34109976D01*
X-19011561Y-34668215D01*
X-18253821Y-35221850D01*
X-17485251Y-35776217D01*
X-16703106Y-36325228D01*
X-15910341Y-36874240D01*
X-15103241Y-37417605D01*
X-14285761Y-37960238D01*
X-13452822Y-38497847D01*
X-12610831Y-39033236D01*
X-11753161Y-39562106D01*
X-10884541Y-40090243D01*
X-10003801Y-40609103D01*
X-9110964Y-41127230D01*
X-8203740Y-41636473D01*
X-7284331Y-42144229D01*
X-6352871Y-42641352D01*
X-5409591Y-43136233D01*
X-4451202Y-43621600D01*
X-3482591Y-44103213D01*
X-2500519Y-44573596D01*
X-1506641Y-45040225D01*
X-499196Y-45495471D01*
X519619Y-45946231D01*
X1551369Y-46384478D01*
X2595119Y-46818240D01*
X3652281Y-47238356D01*
X4720619Y-47653231D01*
X5800906Y-48053721D01*
X6892218Y-48448214D01*
X7998831Y-48827723D01*
X9113919Y-49201235D01*
X10243431Y-49558100D01*
X11383519Y-49908236D01*
X22375220Y-52486239D01*
X33455420Y-53716220D01*
X44457720Y-53615237D01*
X55224421Y-52220217D01*
X65609919Y-49585238D01*
X75471018Y-45780215D01*
X84678019Y-40894228D01*
X93118922Y-35024233D01*
X100687922Y-28289218D01*
X107306918Y-20802233D01*
X112900920Y-12700228D01*
X117420916Y-4115221D01*
X120831912Y4810773D01*
X123117922Y13940778D01*
X124280917Y23134778D01*
X124336917Y32258771D01*
X123320926Y41180768D01*
X121280917Y49775770D01*
X118280917Y57929777D01*
X114396922Y65536771D01*
X109710917Y72510770D01*
X104325923Y78761777D01*
X98336917Y84231779D01*
X91856921Y88863767D01*
X84999423Y92620771D01*
X77877421Y95478773D01*
X70608317Y97430768D01*
X63298816Y98481779D01*
X56060015Y98650770D01*
X49001017Y97971769D01*
X42212821Y96486768D01*
X35786319Y94251768D01*
X29803019Y91331770D01*
X24331019Y87797773D01*
X19431220Y83731779D01*
X15150220Y79217771D01*
X11524918Y74345777D01*
X8575820Y69199766D01*
X6316619Y63875776D01*
X4746819Y58459775D01*
X3855519Y53039777D01*
X3621019Y47696775D01*
X4011919Y42510770D01*
X4987119Y37553770D01*
X6500119Y32882780D01*
X8494719Y28559766D01*
X10910720Y24629774D01*
X13685920Y21128766D01*
X16752518Y18083768D01*
X20042220Y15515775D01*
X23487517Y13431776D01*
X27021018Y11832777D01*
X30578719Y10707776D01*
X34099318Y10039777D01*
X37526019Y9804777D01*
X40808421Y9970777D01*
X43901019Y10500776D01*
X46765521Y11352765D01*
X49371318Y12479764D01*
X51694918Y13834775D01*
X53720321Y15368772D01*
X55437320Y17029768D01*
X56845118Y18770765D01*
X57950122Y20542768D01*
X57988186Y20622661D01*
X58022146Y20692895D01*
X58052019Y20753568D01*
X58077823Y20804777D01*
X58089151Y20827187D01*
X58099595Y20847208D01*
X58109158Y20864886D01*
X58117844Y20880268D01*
X58125659Y20893400D01*
X58132606Y20904330D01*
X58138690Y20913103D01*
X58143916Y20919767D01*
X58145052Y20920921D01*
X58146134Y20921946D01*
X58147162Y20922841D01*
X58148137Y20923607D01*
X58149058Y20924242D01*
X58149925Y20924746D01*
X58150738Y20925119D01*
X58151498Y20925361D01*
X58152205Y20925470D01*
X58152538Y20925476D01*
X58152858Y20925448D01*
X58153164Y20925387D01*
X58153457Y20925293D01*
X58153737Y20925166D01*
X58154004Y20925005D01*
X58154257Y20924811D01*
X58154497Y20924584D01*
X58154936Y20924029D01*
X58155323Y20923340D01*
X58155657Y20922517D01*
X58155937Y20921559D01*
X58156165Y20920466D01*
X58156339Y20919238D01*
X58156461Y20917874D01*
X58156530Y20916373D01*
X58156546Y20914736D01*
X58156510Y20912962D01*
X58156420Y20911051D01*
X58156278Y20909002D01*
X58156084Y20906815D01*
X58155838Y20904490D01*
X58155538Y20902026D01*
X58155187Y20899423D01*
X58154783Y20896680D01*
X58153819Y20890775D01*
X58151112Y20877321D01*
X58147499Y20861710D01*
X58142989Y20843944D01*
X58137596Y20824022D01*
X58131330Y20801944D01*
X58124204Y20777710D01*
X58107417Y20722776D01*
X58086003Y20658618D01*
X58060755Y20586023D01*
X58031440Y20504805D01*
X57997821Y20414777D01*
X57958681Y20315976D01*
X57914893Y20208646D01*
X57866418Y20092882D01*
X57813220Y19968778D01*
X57751936Y19834729D01*
X57685056Y19692150D01*
X57612534Y19541133D01*
X57534320Y19381773D01*
X57445265Y19213228D01*
X57349443Y19036149D01*
X57246685Y18850631D01*
X57136821Y18656766D01*
X57013224Y18453907D01*
X56881257Y18242891D01*
X56740721Y18023812D01*
X56591418Y17796766D01*
X56424529Y17561861D01*
X56247495Y17319269D01*
X56060224Y17069175D01*
X55862620Y16811765D01*
X55642787Y16547426D01*
X55411132Y16276523D01*
X55167495Y15999242D01*
X54911715Y15715772D01*
X54628965Y15428758D01*
X54482335Y15283230D01*
X54332181Y15136400D01*
X54178488Y14988304D01*
X54021240Y14838977D01*
X53860423Y14688455D01*
X53696021Y14536771D01*
X53339347Y14234962D01*
X53154977Y14082767D01*
X52966557Y13929775D01*
X52774064Y13776032D01*
X52577474Y13621587D01*
X52376767Y13466485D01*
X52171920Y13310773D01*
X51730480Y13005770D01*
X51271032Y12700019D01*
X51034469Y12546980D01*
X50793302Y12393893D01*
X50547497Y12240807D01*
X50297019Y12087766D01*
X49761080Y11795537D01*
X49205558Y11505647D01*
X48630291Y11218567D01*
X48335204Y11076228D01*
X48035121Y10934766D01*
X47396852Y10673850D01*
X46737845Y10419401D01*
X46058100Y10171886D01*
X45710452Y10050876D01*
X45357619Y9931776D01*
X44612671Y9725619D01*
X44232238Y9626653D01*
X43846507Y9530523D01*
X43455484Y9437300D01*
X43059174Y9347054D01*
X42657584Y9259857D01*
X42250720Y9175779D01*
X41827384Y9111383D01*
X41398889Y9050995D01*
X40965250Y8994685D01*
X40526481Y8942523D01*
X40082598Y8894581D01*
X39633617Y8850929D01*
X39179552Y8811637D01*
X38720420Y8776777D01*
X38246531Y8767041D01*
X37767803Y8762648D01*
X37284289Y8763694D01*
X36796044Y8770271D01*
X36303120Y8782473D01*
X35805573Y8800395D01*
X35303455Y8824130D01*
X34796820Y8853773D01*
X34278261Y8913784D01*
X33755674Y8980616D01*
X33229119Y9054338D01*
X32698656Y9135021D01*
X32164345Y9222735D01*
X31626246Y9317552D01*
X31084418Y9419542D01*
X30538920Y9528776D01*
X29986136Y9674521D01*
X29430481Y9828319D01*
X28872030Y9990251D01*
X28310857Y10160398D01*
X27747036Y10338842D01*
X27180639Y10525665D01*
X26611743Y10720947D01*
X26040419Y10924772D01*
X25468096Y11169799D01*
X24894413Y11424165D01*
X24319464Y11687928D01*
X23743344Y11961149D01*
X23166145Y12243885D01*
X22587962Y12536196D01*
X22008889Y12838140D01*
X21429019Y13149778D01*
X20856117Y13506019D01*
X20283658Y13872725D01*
X19711782Y14249863D01*
X19140631Y14637395D01*
X18570348Y15035288D01*
X18001073Y15443504D01*
X17432950Y15862010D01*
X16866118Y16290769D01*
X16315493Y16767493D01*
X15767620Y17254928D01*
X15222619Y17753097D01*
X14680607Y18262023D01*
X14141702Y18781731D01*
X13606024Y19312243D01*
X13073690Y19853583D01*
X12544820Y20405775D01*
X12043215Y21005580D01*
X11546852Y21616239D01*
X11055844Y22237727D01*
X10570306Y22870019D01*
X10090351Y23513094D01*
X9616092Y24166927D01*
X9147644Y24831494D01*
X8685118Y25506772D01*
X8261010Y26228166D01*
X7844746Y26959789D01*
X7436456Y27701559D01*
X7036268Y28453395D01*
X6644312Y29215216D01*
X6260715Y29986939D01*
X5885608Y30768483D01*
X5519119Y31559766D01*
X5202502Y32393009D01*
X4896302Y33235192D01*
X4600632Y34086258D01*
X4315606Y34946147D01*
X4041338Y35814803D01*
X3777942Y36692165D01*
X3525531Y37578175D01*
X3284218Y38472776D01*
X3104028Y39401362D01*
X2936645Y40336851D01*
X2782165Y41279208D01*
X2640681Y42228397D01*
X2512290Y43184383D01*
X2397086Y44147131D01*
X2295164Y45116605D01*
X2206619Y46092771D01*
X2188988Y47091892D01*
X2186171Y48095664D01*
X2198243Y49103960D01*
X2225281Y50116649D01*
X2267362Y51133604D01*
X2324561Y52154694D01*
X2396955Y53179792D01*
X2484619Y54208768D01*
X2650947Y55248049D01*
X2833606Y56289017D01*
X3032634Y57331485D01*
X3248069Y58375267D01*
X3479947Y59420173D01*
X3728306Y60466016D01*
X3993184Y61512610D01*
X4274619Y62559766D01*
X4639547Y63601401D01*
X5021555Y64641220D01*
X5420679Y65679094D01*
X5836956Y66714895D01*
X6270422Y67748492D01*
X6721114Y68779758D01*
X7189067Y69808562D01*
X7674319Y70834775D01*
X8244181Y71837785D01*
X8831164Y72835241D01*
X9435258Y73827025D01*
X10056456Y74813022D01*
X10694750Y75793113D01*
X11350130Y76767180D01*
X12022589Y77735107D01*
X12712119Y78696775D01*
X13483885Y79617990D01*
X14271853Y80529820D01*
X15075979Y81432158D01*
X15896218Y82324899D01*
X16732527Y83207937D01*
X17584859Y84081166D01*
X18453171Y84944480D01*
X19337418Y85797773D01*
X20298086Y86593964D01*
X21273354Y87377428D01*
X22263095Y88148002D01*
X23267180Y88905521D01*
X24285483Y89649821D01*
X25317876Y90380739D01*
X26364230Y91098110D01*
X27424418Y91801771D01*
X28550333Y92431795D01*
X29688313Y93046022D01*
X30838190Y93644311D01*
X31999795Y94226522D01*
X33172959Y94792513D01*
X34357513Y95342145D01*
X35553290Y95875276D01*
X36760119Y96391767D01*
X38019724Y96821318D01*
X39287909Y97232424D01*
X40564552Y97625016D01*
X41849532Y97999021D01*
X43142730Y98354370D01*
X44444024Y98690991D01*
X45753294Y99008814D01*
X47070418Y99307767D01*
X48422340Y99508852D01*
X49779227Y99689816D01*
X51140850Y99850600D01*
X52506982Y99991146D01*
X53877393Y100111394D01*
X55251856Y100211288D01*
X56630140Y100290767D01*
X58012019Y100349775D01*
X59410809Y100304772D01*
G37*
G36*
X86572421Y62285779D02*
G01*
X86572619Y62284772D01*
X86571956Y62286246D01*
X86572421Y62285779D01*
G37*
D11*
%TO.C,B1*%
X111325380Y28547619D02*
X111658714Y29023809D01*
X111896809Y28547619D02*
X111896809Y29547619D01*
X111515857Y29547619D01*
X111420619Y29500000D01*
X111373000Y29452380D01*
X111325380Y29357142D01*
X111325380Y29214285D01*
X111373000Y29119047D01*
X111420619Y29071428D01*
X111515857Y29023809D01*
X111896809Y29023809D01*
X110896809Y29071428D02*
X110563476Y29071428D01*
X110420619Y28547619D02*
X110896809Y28547619D01*
X110896809Y29547619D01*
X110420619Y29547619D01*
X110039666Y28595238D02*
X109896809Y28547619D01*
X109658714Y28547619D01*
X109563476Y28595238D01*
X109515857Y28642857D01*
X109468238Y28738095D01*
X109468238Y28833333D01*
X109515857Y28928571D01*
X109563476Y28976190D01*
X109658714Y29023809D01*
X109849190Y29071428D01*
X109944428Y29119047D01*
X109992047Y29166666D01*
X110039666Y29261904D01*
X110039666Y29357142D01*
X109992047Y29452380D01*
X109944428Y29500000D01*
X109849190Y29547619D01*
X109611095Y29547619D01*
X109468238Y29500000D01*
X109039666Y29071428D02*
X108706333Y29071428D01*
X108563476Y28547619D02*
X109039666Y28547619D01*
X109039666Y29547619D01*
X108563476Y29547619D01*
X108277761Y29547619D02*
X107706333Y29547619D01*
X107992047Y28547619D02*
X107992047Y29547619D01*
X107000000Y27250000D02*
X107000000Y27500000D01*
X113000000Y27500000D02*
X113000000Y27250000D01*
X113000000Y27250000D02*
X107000000Y27250000D01*
X107000000Y30500000D02*
X107000000Y30750000D01*
X107000000Y30750000D02*
X113000000Y30750000D01*
X113000000Y30750000D02*
X113000000Y30500000D01*
D12*
%TO.C,D9*%
X17250000Y46000000D02*
X17650000Y46000000D01*
X17650000Y46000000D02*
X17650000Y45450000D01*
X18250000Y45600000D02*
X17650000Y46000000D01*
X17650000Y46000000D02*
X17650000Y46550000D01*
X18250000Y46400000D02*
X18250000Y45600000D01*
X18250000Y46000000D02*
X18750000Y46000000D01*
X17650000Y46000000D02*
X18250000Y46400000D01*
%TO.C,D22*%
X71650000Y12000000D02*
X71650000Y12550000D01*
X72250000Y12400000D02*
X72250000Y11600000D01*
X71250000Y12000000D02*
X71650000Y12000000D01*
X71650000Y12000000D02*
X72250000Y12400000D01*
X72250000Y12000000D02*
X72750000Y12000000D01*
X71650000Y12000000D02*
X71650000Y11450000D01*
X72250000Y11600000D02*
X71650000Y12000000D01*
%TO.C,D23*%
X71650000Y29000000D02*
X71650000Y28450000D01*
X72250000Y29400000D02*
X72250000Y28600000D01*
X71650000Y29000000D02*
X71650000Y29550000D01*
X72250000Y28600000D02*
X71650000Y29000000D01*
X71250000Y29000000D02*
X71650000Y29000000D01*
X72250000Y29000000D02*
X72750000Y29000000D01*
X71650000Y29000000D02*
X72250000Y29400000D01*
%TO.C,D21*%
X71250000Y-5000000D02*
X71650000Y-5000000D01*
X71650000Y-5000000D02*
X72250000Y-4600000D01*
X71650000Y-5000000D02*
X71650000Y-4450000D01*
X72250000Y-5000000D02*
X72750000Y-5000000D01*
X72250000Y-5400000D02*
X71650000Y-5000000D01*
X71650000Y-5000000D02*
X71650000Y-5550000D01*
X72250000Y-4600000D02*
X72250000Y-5400000D01*
%TO.C,D2*%
X250000Y12000000D02*
X750000Y12000000D01*
X-350000Y12000000D02*
X250000Y12400000D01*
X-750000Y12000000D02*
X-350000Y12000000D01*
X-350000Y12000000D02*
X-350000Y12550000D01*
X250000Y12400000D02*
X250000Y11600000D01*
X250000Y11600000D02*
X-350000Y12000000D01*
X-350000Y12000000D02*
X-350000Y11450000D01*
%TO.C,D31*%
X108250000Y-4600000D02*
X108250000Y-5400000D01*
X108250000Y-5400000D02*
X107650000Y-5000000D01*
X107650000Y-5000000D02*
X107650000Y-4450000D01*
X107650000Y-5000000D02*
X108250000Y-4600000D01*
X108250000Y-5000000D02*
X108750000Y-5000000D01*
X107650000Y-5000000D02*
X107650000Y-5550000D01*
X107250000Y-5000000D02*
X107650000Y-5000000D01*
%TO.C,D24*%
X72250000Y46400000D02*
X72250000Y45600000D01*
X71650000Y46000000D02*
X72250000Y46400000D01*
X71250000Y46000000D02*
X71650000Y46000000D01*
X71650000Y46000000D02*
X71650000Y46550000D01*
X72250000Y46000000D02*
X72750000Y46000000D01*
X71650000Y46000000D02*
X71650000Y45450000D01*
X72250000Y45600000D02*
X71650000Y46000000D01*
%TO.C,D14*%
X36250000Y46000000D02*
X36750000Y46000000D01*
X36250000Y45600000D02*
X35650000Y46000000D01*
X35650000Y46000000D02*
X35650000Y45450000D01*
X35650000Y46000000D02*
X36250000Y46400000D01*
X35250000Y46000000D02*
X35650000Y46000000D01*
X35650000Y46000000D02*
X35650000Y46550000D01*
X36250000Y46400000D02*
X36250000Y45600000D01*
%TO.C,D1*%
X-750000Y-5000000D02*
X-350000Y-5000000D01*
X250000Y-5400000D02*
X-350000Y-5000000D01*
X-350000Y-5000000D02*
X-350000Y-4450000D01*
X-350000Y-5000000D02*
X-350000Y-5550000D01*
X-350000Y-5000000D02*
X250000Y-4600000D01*
X250000Y-5000000D02*
X750000Y-5000000D01*
X250000Y-4600000D02*
X250000Y-5400000D01*
%TO.C,D20*%
X54250000Y62600000D02*
X53650000Y63000000D01*
X54250000Y63000000D02*
X54750000Y63000000D01*
X53250000Y63000000D02*
X53650000Y63000000D01*
X53650000Y63000000D02*
X54250000Y63400000D01*
X53650000Y63000000D02*
X53650000Y63550000D01*
X53650000Y63000000D02*
X53650000Y62450000D01*
X54250000Y63400000D02*
X54250000Y62600000D01*
%TO.C,D28*%
X90250000Y28600000D02*
X89650000Y29000000D01*
X90250000Y29000000D02*
X90750000Y29000000D01*
X90250000Y29400000D02*
X90250000Y28600000D01*
X89650000Y29000000D02*
X89650000Y29550000D01*
X89250000Y29000000D02*
X89650000Y29000000D01*
X89650000Y29000000D02*
X89650000Y28450000D01*
X89650000Y29000000D02*
X90250000Y29400000D01*
%TO.C,D4*%
X-750000Y46000000D02*
X-350000Y46000000D01*
X-350000Y46000000D02*
X-350000Y45450000D01*
X-350000Y46000000D02*
X-350000Y46550000D01*
X250000Y45600000D02*
X-350000Y46000000D01*
X-350000Y46000000D02*
X250000Y46400000D01*
X250000Y46400000D02*
X250000Y45600000D01*
X250000Y46000000D02*
X750000Y46000000D01*
%TO.C,D26*%
X90250000Y-5000000D02*
X90750000Y-5000000D01*
X89650000Y-5000000D02*
X89650000Y-5550000D01*
X89650000Y-5000000D02*
X89650000Y-4450000D01*
X90250000Y-5400000D02*
X89650000Y-5000000D01*
X90250000Y-4600000D02*
X90250000Y-5400000D01*
X89650000Y-5000000D02*
X90250000Y-4600000D01*
X89250000Y-5000000D02*
X89650000Y-5000000D01*
%TO.C,D8*%
X18250000Y28600000D02*
X17650000Y29000000D01*
X17250000Y29000000D02*
X17650000Y29000000D01*
X17650000Y29000000D02*
X17650000Y29550000D01*
X18250000Y29400000D02*
X18250000Y28600000D01*
X17650000Y29000000D02*
X18250000Y29400000D01*
X17650000Y29000000D02*
X17650000Y28450000D01*
X18250000Y29000000D02*
X18750000Y29000000D01*
%TO.C,D5*%
X-750000Y63000000D02*
X-350000Y63000000D01*
X250000Y62600000D02*
X-350000Y63000000D01*
X-350000Y63000000D02*
X250000Y63400000D01*
X250000Y63400000D02*
X250000Y62600000D01*
X-350000Y63000000D02*
X-350000Y62450000D01*
X250000Y63000000D02*
X750000Y63000000D01*
X-350000Y63000000D02*
X-350000Y63550000D01*
%TO.C,D13*%
X36250000Y29400000D02*
X36250000Y28600000D01*
X35650000Y29000000D02*
X35650000Y28450000D01*
X36250000Y29000000D02*
X36750000Y29000000D01*
X35650000Y29000000D02*
X36250000Y29400000D01*
X35650000Y29000000D02*
X35650000Y29550000D01*
X36250000Y28600000D02*
X35650000Y29000000D01*
X35250000Y29000000D02*
X35650000Y29000000D01*
%TO.C,D12*%
X35250000Y12000000D02*
X35650000Y12000000D01*
X35650000Y12000000D02*
X35650000Y12550000D01*
X36250000Y11600000D02*
X35650000Y12000000D01*
X36250000Y12000000D02*
X36750000Y12000000D01*
X36250000Y12400000D02*
X36250000Y11600000D01*
X35650000Y12000000D02*
X36250000Y12400000D01*
X35650000Y12000000D02*
X35650000Y11450000D01*
D11*
%TO.C,MCU1*%
X114850000Y72740000D02*
X114850000Y70200000D01*
X114850000Y72740000D02*
X117390000Y72740000D01*
X117390000Y70200000D02*
X117390000Y72740000D01*
X114850000Y70200000D02*
X117390000Y70200000D01*
D12*
%TO.C,D27*%
X89650000Y12000000D02*
X90250000Y12400000D01*
X90250000Y11600000D02*
X89650000Y12000000D01*
X90250000Y12000000D02*
X90750000Y12000000D01*
X90250000Y12400000D02*
X90250000Y11600000D01*
X89650000Y12000000D02*
X89650000Y12550000D01*
X89650000Y12000000D02*
X89650000Y11450000D01*
X89250000Y12000000D02*
X89650000Y12000000D01*
%TO.C,D29*%
X89650000Y46000000D02*
X89650000Y46550000D01*
X89250000Y46000000D02*
X89650000Y46000000D01*
X90250000Y45600000D02*
X89650000Y46000000D01*
X89650000Y46000000D02*
X90250000Y46400000D01*
X90250000Y46400000D02*
X90250000Y45600000D01*
X90250000Y46000000D02*
X90750000Y46000000D01*
X89650000Y46000000D02*
X89650000Y45450000D01*
%TO.C,D16*%
X53650000Y-5000000D02*
X53650000Y-4450000D01*
X54250000Y-5000000D02*
X54750000Y-5000000D01*
X53650000Y-5000000D02*
X53650000Y-5550000D01*
X54250000Y-4600000D02*
X54250000Y-5400000D01*
X53650000Y-5000000D02*
X54250000Y-4600000D01*
X54250000Y-5400000D02*
X53650000Y-5000000D01*
X53250000Y-5000000D02*
X53650000Y-5000000D01*
%TO.C,D19*%
X54250000Y46000000D02*
X54750000Y46000000D01*
X54250000Y45600000D02*
X53650000Y46000000D01*
X53250000Y46000000D02*
X53650000Y46000000D01*
X53650000Y46000000D02*
X53650000Y45450000D01*
X53650000Y46000000D02*
X54250000Y46400000D01*
X53650000Y46000000D02*
X53650000Y46550000D01*
X54250000Y46400000D02*
X54250000Y45600000D01*
%TO.C,D7*%
X18250000Y11600000D02*
X17650000Y12000000D01*
X17650000Y12000000D02*
X17650000Y11450000D01*
X17650000Y12000000D02*
X18250000Y12400000D01*
X17650000Y12000000D02*
X17650000Y12550000D01*
X18250000Y12400000D02*
X18250000Y11600000D01*
X17250000Y12000000D02*
X17650000Y12000000D01*
X18250000Y12000000D02*
X18750000Y12000000D01*
%TO.C,D25*%
X72250000Y62600000D02*
X71650000Y63000000D01*
X72250000Y63400000D02*
X72250000Y62600000D01*
X71650000Y63000000D02*
X71650000Y63550000D01*
X72250000Y63000000D02*
X72750000Y63000000D01*
X71650000Y63000000D02*
X71650000Y62450000D01*
X71250000Y63000000D02*
X71650000Y63000000D01*
X71650000Y63000000D02*
X72250000Y63400000D01*
%TO.C,D6*%
X18250000Y-5000000D02*
X18750000Y-5000000D01*
X17650000Y-5000000D02*
X17650000Y-4450000D01*
X17650000Y-5000000D02*
X18250000Y-4600000D01*
X18250000Y-5400000D02*
X17650000Y-5000000D01*
X17250000Y-5000000D02*
X17650000Y-5000000D01*
X17650000Y-5000000D02*
X17650000Y-5550000D01*
X18250000Y-4600000D02*
X18250000Y-5400000D01*
%TO.C,D30*%
X89650000Y63000000D02*
X90250000Y63400000D01*
X90250000Y63400000D02*
X90250000Y62600000D01*
X90250000Y62600000D02*
X89650000Y63000000D01*
X89650000Y63000000D02*
X89650000Y62450000D01*
X89250000Y63000000D02*
X89650000Y63000000D01*
X89650000Y63000000D02*
X89650000Y63550000D01*
X90250000Y63000000D02*
X90750000Y63000000D01*
%TO.C,D10*%
X17650000Y63000000D02*
X17650000Y62450000D01*
X18250000Y63000000D02*
X18750000Y63000000D01*
X17650000Y63000000D02*
X18250000Y63400000D01*
X17250000Y63000000D02*
X17650000Y63000000D01*
X17650000Y63000000D02*
X17650000Y63550000D01*
X18250000Y62600000D02*
X17650000Y63000000D01*
X18250000Y63400000D02*
X18250000Y62600000D01*
%TO.C,D11*%
X35650000Y-5000000D02*
X35650000Y-4450000D01*
X36250000Y-5000000D02*
X36750000Y-5000000D01*
X36250000Y-5400000D02*
X35650000Y-5000000D01*
X35650000Y-5000000D02*
X36250000Y-4600000D01*
X36250000Y-4600000D02*
X36250000Y-5400000D01*
X35650000Y-5000000D02*
X35650000Y-5550000D01*
X35250000Y-5000000D02*
X35650000Y-5000000D01*
%TO.C,D15*%
X35250000Y63000000D02*
X35650000Y63000000D01*
X35650000Y63000000D02*
X35650000Y62450000D01*
X36250000Y63400000D02*
X36250000Y62600000D01*
X35650000Y63000000D02*
X35650000Y63550000D01*
X36250000Y62600000D02*
X35650000Y63000000D01*
X36250000Y63000000D02*
X36750000Y63000000D01*
X35650000Y63000000D02*
X36250000Y63400000D01*
%TO.C,D17*%
X53650000Y12000000D02*
X53650000Y12550000D01*
X53250000Y12000000D02*
X53650000Y12000000D01*
X53650000Y12000000D02*
X54250000Y12400000D01*
X54250000Y12400000D02*
X54250000Y11600000D01*
X54250000Y11600000D02*
X53650000Y12000000D01*
X53650000Y12000000D02*
X53650000Y11450000D01*
X54250000Y12000000D02*
X54750000Y12000000D01*
%TO.C,D3*%
X250000Y28600000D02*
X-350000Y29000000D01*
X-350000Y29000000D02*
X-350000Y28450000D01*
X-350000Y29000000D02*
X-350000Y29550000D01*
X250000Y29400000D02*
X250000Y28600000D01*
X-750000Y29000000D02*
X-350000Y29000000D01*
X-350000Y29000000D02*
X250000Y29400000D01*
X250000Y29000000D02*
X750000Y29000000D01*
%TO.C,D18*%
X53650000Y29000000D02*
X54250000Y29400000D01*
X54250000Y29000000D02*
X54750000Y29000000D01*
X53250000Y29000000D02*
X53650000Y29000000D01*
X53650000Y29000000D02*
X53650000Y28450000D01*
X54250000Y29400000D02*
X54250000Y28600000D01*
X54250000Y28600000D02*
X53650000Y29000000D01*
X53650000Y29000000D02*
X53650000Y29550000D01*
%TD*%
M02*
