M48
; DRILL file {KiCad 6.0.2+dfsg-1} date Tue 27 Jun 2023 05:48:00 PM MST
; FORMAT={-:-/ absolute / inch / decimal}
; #@! TF.CreationDate,2023-06-27T17:48:00-07:00
; #@! TF.GenerationSoftware,Kicad,Pcbnew,6.0.2+dfsg-1
; #@! TF.FileFunction,Plated,1,2,PTH
FMAT,2
INCH
; #@! TA.AperFunction,Plated,PTH,ViaDrill
T1C0.0157
; #@! TA.AperFunction,Plated,PTH,ComponentDrill
T2C0.0354
; #@! TA.AperFunction,Plated,PTH,ComponentDrill
T3C0.0390
; #@! TA.AperFunction,Plated,PTH,ComponentDrill
T4C0.0433
; #@! TA.AperFunction,Plated,PTH,ComponentDrill
T5C0.0500
; #@! TA.AperFunction,Plated,PTH,ComponentDrill
T6C0.0512
%
G90
G05
T1
X4.1446Y1.6916
X4.2417Y2.8138
X4.2417Y2.7138
X4.2417Y2.6138
X4.2417Y2.5138
X4.2417Y2.4138
X4.2417Y2.3138
X4.2417Y2.2138
X4.2417Y2.1138
X4.2417Y2.0138
X4.2417Y1.9138
X4.2417Y1.8138
X4.2417Y1.7138
X4.3017Y2.8138
X4.3017Y2.7138
X4.3017Y2.6138
X4.3017Y2.5138
X4.3017Y2.4138
X4.3017Y2.3138
X4.3017Y2.2138
X4.3017Y2.1138
X4.3017Y2.0138
X4.3017Y1.9138
X4.3017Y1.8138
X4.3017Y1.7138
X4.4087Y0.53
X4.4123Y0.6324
T3
X-0.15Y2.4803
X-0.15Y1.811
X-0.15Y1.1417
X-0.15Y0.4724
X-0.15Y-0.1969
X0.15Y2.4803
X0.15Y1.811
X0.15Y1.1417
X0.15Y0.4724
X0.15Y-0.1969
X0.5587Y2.4803
X0.5587Y1.811
X0.5587Y1.1417
X0.5587Y0.4724
X0.5587Y-0.1969
X0.8587Y2.4803
X0.8587Y1.811
X0.8587Y1.1417
X0.8587Y0.4724
X0.8587Y-0.1969
X1.2673Y2.4803
X1.2673Y1.811
X1.2673Y1.1417
X1.2673Y0.4724
X1.2673Y-0.1969
X1.5673Y2.4803
X1.5673Y1.811
X1.5673Y1.1417
X1.5673Y0.4724
X1.5673Y-0.1969
X1.976Y2.4803
X1.976Y1.811
X1.976Y1.1417
X1.976Y0.4724
X1.976Y-0.1969
X2.276Y2.4803
X2.276Y1.811
X2.276Y1.1417
X2.276Y0.4724
X2.276Y-0.1969
X2.6846Y2.4803
X2.6846Y1.811
X2.6846Y1.1417
X2.6846Y0.4724
X2.6846Y-0.1969
X2.9846Y2.4803
X2.9846Y1.811
X2.9846Y1.1417
X2.9846Y0.4724
X2.9846Y-0.1969
X3.3933Y2.4803
X3.3933Y1.811
X3.3933Y1.1417
X3.3933Y0.4724
X3.3933Y-0.1969
X3.6933Y2.4803
X3.6933Y1.811
X3.6933Y1.1417
X3.6933Y0.4724
X3.6933Y-0.1969
X4.102Y-0.1969
X4.402Y-0.1969
T4
X3.9717Y2.8138
X3.9717Y2.8138
X3.9717Y2.7138
X3.9717Y2.6138
X3.9717Y2.5138
X3.9717Y2.4138
X3.9717Y2.3138
X3.9717Y2.2138
X3.9717Y2.1138
X3.9717Y2.0138
X3.9717Y1.9138
X3.9717Y1.8138
X3.9717Y1.7138
X4.5717Y2.8138
X4.5717Y2.8138
X4.5717Y2.7138
X4.5717Y2.6138
X4.5717Y2.5138
X4.5717Y2.4138
X4.5717Y2.3138
X4.5717Y2.2138
X4.5717Y2.1138
X4.5717Y2.0138
X4.5717Y1.9138
X4.5717Y1.8138
X4.5717Y1.7138
X4.5807Y0.8877
X4.5807Y0.3721
T5
X-0.1969Y2.8268
X-0.1969Y2.1575
X-0.1969Y1.4882
X-0.1969Y0.8189
X-0.1969Y0.1496
X0.0Y2.9094
X0.0Y2.9094
X0.0Y2.2402
X0.0Y2.2402
X0.0Y1.5709
X0.0Y1.5709
X0.0Y0.9016
X0.0Y0.9016
X0.0Y0.2323
X0.0Y0.2323
X0.1969Y2.8268
X0.1969Y2.1575
X0.1969Y1.4882
X0.1969Y0.8189
X0.1969Y0.1496
X0.5118Y2.8268
X0.5118Y2.1575
X0.5118Y1.4882
X0.5118Y0.8189
X0.5118Y0.1496
X0.7087Y2.9094
X0.7087Y2.9094
X0.7087Y2.2402
X0.7087Y2.2402
X0.7087Y1.5709
X0.7087Y1.5709
X0.7087Y0.9016
X0.7087Y0.9016
X0.7087Y0.2323
X0.7087Y0.2323
X0.9055Y2.8268
X0.9055Y2.1575
X0.9055Y1.4882
X0.9055Y0.8189
X0.9055Y0.1496
X1.2205Y2.8268
X1.2205Y2.1575
X1.2205Y1.4882
X1.2205Y0.8189
X1.2205Y0.1496
X1.4173Y2.9094
X1.4173Y2.9094
X1.4173Y2.2402
X1.4173Y2.2402
X1.4173Y1.5709
X1.4173Y1.5709
X1.4173Y0.9016
X1.4173Y0.9016
X1.4173Y0.2323
X1.4173Y0.2323
X1.6142Y2.8268
X1.6142Y2.1575
X1.6142Y1.4882
X1.6142Y0.8189
X1.6142Y0.1496
X1.9291Y2.8268
X1.9291Y2.1575
X1.9291Y1.4882
X1.9291Y0.8189
X1.9291Y0.1496
X2.126Y2.9094
X2.126Y2.9094
X2.126Y2.2402
X2.126Y2.2402
X2.126Y1.5709
X2.126Y1.5709
X2.126Y0.9016
X2.126Y0.9016
X2.126Y0.2323
X2.126Y0.2323
X2.3228Y2.8268
X2.3228Y2.1575
X2.3228Y1.4882
X2.3228Y0.8189
X2.3228Y0.1496
X2.6378Y2.8268
X2.6378Y2.1575
X2.6378Y1.4882
X2.6378Y0.8189
X2.6378Y0.1496
X2.8346Y2.9094
X2.8346Y2.9094
X2.8346Y2.2402
X2.8346Y2.2402
X2.8346Y1.5709
X2.8346Y1.5709
X2.8346Y0.9016
X2.8346Y0.9016
X2.8346Y0.2323
X2.8346Y0.2323
X3.0315Y2.8268
X3.0315Y2.1575
X3.0315Y1.4882
X3.0315Y0.8189
X3.0315Y0.1496
X3.3465Y2.8268
X3.3465Y2.1575
X3.3465Y1.4882
X3.3465Y0.8189
X3.3465Y0.1496
X3.5433Y2.9094
X3.5433Y2.9094
X3.5433Y2.2402
X3.5433Y2.2402
X3.5433Y1.5709
X3.5433Y1.5709
X3.5433Y0.9016
X3.5433Y0.9016
X3.5433Y0.2323
X3.5433Y0.2323
X3.7402Y2.8268
X3.7402Y2.1575
X3.7402Y1.4882
X3.7402Y0.8189
X3.7402Y0.1496
X4.0551Y0.1496
X4.252Y0.2323
X4.252Y0.2323
X4.4488Y0.1496
T6
X4.2028Y1.0236
X4.4587Y1.0236
T2
G00X4.2126Y1.3504
M15
G01X4.189Y1.3504
M16
G05
G00X4.2126Y1.2598
M15
G01X4.189Y1.2598
M16
G05
G00X4.2559Y1.4409
M15
G01X4.2323Y1.4409
M16
G05
G00X4.2559Y1.1693
M15
G01X4.2323Y1.1693
M16
G05
G00X4.4134Y1.4409
M15
G01X4.3898Y1.4409
M16
G05
G00X4.4134Y1.1693
M15
G01X4.3898Y1.1693
M16
G05
G00X4.5315Y1.4409
M15
G01X4.5079Y1.4409
M16
G05
G00X4.5315Y1.1693
M15
G01X4.5079Y1.1693
M16
G05
T4
G00X4.4882Y0.8877
M15
G01X4.5079Y0.8877
M16
G05
G00X4.5079Y0.3721
M15
G01X4.4882Y0.3721
M16
G05
G00X4.5128Y0.7902
M15
G01X4.5325Y0.7902
M16
G05
G00X4.5325Y0.7696
M15
G01X4.5128Y0.7696
M16
G05
G00X4.5128Y0.6902
M15
G01X4.5325Y0.6902
M16
G05
G00X4.5325Y0.6696
M15
G01X4.5128Y0.6696
M16
G05
G00X4.5128Y0.5902
M15
G01X4.5325Y0.5902
M16
G05
G00X4.5325Y0.5696
M15
G01X4.5128Y0.5696
M16
G05
G00X4.5128Y0.4902
M15
G01X4.5325Y0.4902
M16
G05
G00X4.5325Y0.4696
M15
G01X4.5128Y0.4696
M16
G05
T0
M30
