%TF.GenerationSoftware,KiCad,Pcbnew,6.0.11-2627ca5db0~126~ubuntu22.04.1*%
%TF.CreationDate,2023-07-07T16:44:54-07:00*%
%TF.ProjectId,swirl,73776972-6c2e-46b6-9963-61645f706362,v1.0.0*%
%TF.SameCoordinates,Original*%
%TF.FileFunction,Soldermask,Top*%
%TF.FilePolarity,Negative*%
%FSLAX46Y46*%
G04 Gerber Fmt 4.6, Leading zero omitted, Abs format (unit mm)*
G04 Created by KiCad (PCBNEW 6.0.11-2627ca5db0~126~ubuntu22.04.1) date 2023-07-07 16:44:54*
%MOMM*%
%LPD*%
G01*
G04 APERTURE LIST*
G04 Aperture macros list*
%AMRoundRect*
0 Rectangle with rounded corners*
0 $1 Rounding radius*
0 $2 $3 $4 $5 $6 $7 $8 $9 X,Y pos of 4 corners*
0 Add a 4 corners polygon primitive as box body*
4,1,4,$2,$3,$4,$5,$6,$7,$8,$9,$2,$3,0*
0 Add four circle primitives for the rounded corners*
1,1,$1+$1,$2,$3*
1,1,$1+$1,$4,$5*
1,1,$1+$1,$6,$7*
1,1,$1+$1,$8,$9*
0 Add four rect primitives between the rounded corners*
20,1,$1+$1,$2,$3,$4,$5,0*
20,1,$1+$1,$4,$5,$6,$7,0*
20,1,$1+$1,$6,$7,$8,$9,0*
20,1,$1+$1,$8,$9,$2,$3,0*%
%AMFreePoly0*
4,1,14,0.635355,0.435355,0.650000,0.400000,0.650000,0.200000,0.635355,0.164645,0.035355,-0.435355,0.000000,-0.450000,-0.035355,-0.435355,-0.635355,0.164645,-0.650000,0.200000,-0.650000,0.400000,-0.635355,0.435355,-0.600000,0.450000,0.600000,0.450000,0.635355,0.435355,0.635355,0.435355,$1*%
%AMFreePoly1*
4,1,16,0.635355,1.035355,0.650000,1.000000,0.650000,-0.250000,0.635355,-0.285355,0.600000,-0.300000,-0.600000,-0.300000,-0.635355,-0.285355,-0.650000,-0.250000,-0.650000,1.000000,-0.635355,1.035355,-0.600000,1.050000,-0.564645,1.035355,0.000000,0.470710,0.564645,1.035355,0.600000,1.050000,0.635355,1.035355,0.635355,1.035355,$1*%
%AMFreePoly2*
4,1,14,0.035355,0.435355,0.635355,-0.164645,0.650000,-0.200000,0.650000,-0.400000,0.635355,-0.435355,0.600000,-0.450000,-0.600000,-0.450000,-0.635355,-0.435355,-0.650000,-0.400000,-0.650000,-0.200000,-0.635355,-0.164645,-0.035355,0.435355,0.000000,0.450000,0.035355,0.435355,0.035355,0.435355,$1*%
%AMFreePoly3*
4,1,16,0.635355,0.285355,0.650000,0.250000,0.650000,-1.000000,0.635355,-1.035355,0.600000,-1.050000,0.564645,-1.035355,0.000000,-0.470710,-0.564645,-1.035355,-0.600000,-1.050000,-0.635355,-1.035355,-0.650000,-1.000000,-0.650000,0.250000,-0.635355,0.285355,-0.600000,0.300000,0.600000,0.300000,0.635355,0.285355,0.635355,0.285355,$1*%
G04 Aperture macros list end*
%ADD10C,0.100000*%
%ADD11C,0.250000*%
%ADD12C,1.600000*%
%ADD13O,2.300000X1.700000*%
%ADD14C,2.100000*%
%ADD15C,1.801800*%
%ADD16C,3.529000*%
%ADD17C,2.132000*%
%ADD18RoundRect,0.050000X-0.889000X-0.889000X0.889000X-0.889000X0.889000X0.889000X-0.889000X0.889000X0*%
%ADD19RoundRect,0.050000X-0.450000X-0.600000X0.450000X-0.600000X0.450000X0.600000X-0.450000X0.600000X0*%
%ADD20C,2.005000*%
%ADD21FreePoly0,270.000000*%
%ADD22O,2.200000X1.700000*%
%ADD23FreePoly1,270.000000*%
%ADD24C,1.700000*%
%ADD25FreePoly2,90.000000*%
%ADD26FreePoly2,270.000000*%
%ADD27RoundRect,0.050000X-0.800000X0.800000X-0.800000X-0.800000X0.800000X-0.800000X0.800000X0.800000X0*%
%ADD28FreePoly3,90.000000*%
%ADD29FreePoly3,270.000000*%
G04 APERTURE END LIST*
%TO.C,EN1*%
G36*
X113254000Y14222000D02*
G01*
X112238000Y14222000D01*
X112238000Y15238000D01*
X113254000Y15238000D01*
X113254000Y14222000D01*
G37*
D10*
X113254000Y14222000D02*
X112238000Y14222000D01*
X112238000Y15238000D01*
X113254000Y15238000D01*
X113254000Y14222000D01*
G36*
X113254000Y16762000D02*
G01*
X112238000Y16762000D01*
X112238000Y17778000D01*
X113254000Y17778000D01*
X113254000Y16762000D01*
G37*
X113254000Y16762000D02*
X112238000Y16762000D01*
X112238000Y17778000D01*
X113254000Y17778000D01*
X113254000Y16762000D01*
G36*
X113254000Y19302000D02*
G01*
X112238000Y19302000D01*
X112238000Y20318000D01*
X113254000Y20318000D01*
X113254000Y19302000D01*
G37*
X113254000Y19302000D02*
X112238000Y19302000D01*
X112238000Y20318000D01*
X113254000Y20318000D01*
X113254000Y19302000D01*
D11*
%TO.C,MCU1*%
X107863000Y46070000D02*
G75*
G03*
X107863000Y46070000I-125000J0D01*
G01*
X107863000Y61310000D02*
G75*
G03*
X107863000Y61310000I-125000J0D01*
G01*
X109387000Y46070000D02*
G75*
G03*
X109387000Y46070000I-125000J0D01*
G01*
X109387000Y68930000D02*
G75*
G03*
X109387000Y68930000I-125000J0D01*
G01*
X107863000Y63850000D02*
G75*
G03*
X107863000Y63850000I-125000J0D01*
G01*
X107863000Y51150000D02*
G75*
G03*
X107863000Y51150000I-125000J0D01*
G01*
X109387000Y71470000D02*
G75*
G03*
X109387000Y71470000I-125000J0D01*
G01*
X107863000Y58770000D02*
G75*
G03*
X107863000Y58770000I-125000J0D01*
G01*
X109387000Y43530000D02*
G75*
G03*
X109387000Y43530000I-125000J0D01*
G01*
X109387000Y66390000D02*
G75*
G03*
X109387000Y66390000I-125000J0D01*
G01*
X107863000Y71470000D02*
G75*
G03*
X107863000Y71470000I-125000J0D01*
G01*
X109387000Y51150000D02*
G75*
G03*
X109387000Y51150000I-125000J0D01*
G01*
X107863000Y56230000D02*
G75*
G03*
X107863000Y56230000I-125000J0D01*
G01*
X107863000Y53690000D02*
G75*
G03*
X107863000Y53690000I-125000J0D01*
G01*
X107863000Y68930000D02*
G75*
G03*
X107863000Y68930000I-125000J0D01*
G01*
X107863000Y66390000D02*
G75*
G03*
X107863000Y66390000I-125000J0D01*
G01*
X109387000Y53690000D02*
G75*
G03*
X109387000Y53690000I-125000J0D01*
G01*
X109387000Y63850000D02*
G75*
G03*
X109387000Y63850000I-125000J0D01*
G01*
X109387000Y56230000D02*
G75*
G03*
X109387000Y56230000I-125000J0D01*
G01*
X109387000Y48610000D02*
G75*
G03*
X109387000Y48610000I-125000J0D01*
G01*
X109387000Y61310000D02*
G75*
G03*
X109387000Y61310000I-125000J0D01*
G01*
X107863000Y48610000D02*
G75*
G03*
X107863000Y48610000I-125000J0D01*
G01*
X109387000Y58770000D02*
G75*
G03*
X109387000Y58770000I-125000J0D01*
G01*
X107863000Y43530000D02*
G75*
G03*
X107863000Y43530000I-125000J0D01*
G01*
G36*
X103420000Y50642000D02*
G01*
X102404000Y50642000D01*
X102404000Y51658000D01*
X103420000Y51658000D01*
X103420000Y50642000D01*
G37*
D10*
X103420000Y50642000D02*
X102404000Y50642000D01*
X102404000Y51658000D01*
X103420000Y51658000D01*
X103420000Y50642000D01*
G36*
X103420000Y60802000D02*
G01*
X102404000Y60802000D01*
X102404000Y61818000D01*
X103420000Y61818000D01*
X103420000Y60802000D01*
G37*
X103420000Y60802000D02*
X102404000Y60802000D01*
X102404000Y61818000D01*
X103420000Y61818000D01*
X103420000Y60802000D01*
G36*
X114596000Y55722000D02*
G01*
X113580000Y55722000D01*
X113580000Y56738000D01*
X114596000Y56738000D01*
X114596000Y55722000D01*
G37*
X114596000Y55722000D02*
X113580000Y55722000D01*
X113580000Y56738000D01*
X114596000Y56738000D01*
X114596000Y55722000D01*
G36*
X114596000Y63342000D02*
G01*
X113580000Y63342000D01*
X113580000Y64358000D01*
X114596000Y64358000D01*
X114596000Y63342000D01*
G37*
X114596000Y63342000D02*
X113580000Y63342000D01*
X113580000Y64358000D01*
X114596000Y64358000D01*
X114596000Y63342000D01*
G36*
X114596000Y48102000D02*
G01*
X113580000Y48102000D01*
X113580000Y49118000D01*
X114596000Y49118000D01*
X114596000Y48102000D01*
G37*
X114596000Y48102000D02*
X113580000Y48102000D01*
X113580000Y49118000D01*
X114596000Y49118000D01*
X114596000Y48102000D01*
G36*
X114596000Y68422000D02*
G01*
X113580000Y68422000D01*
X113580000Y69438000D01*
X114596000Y69438000D01*
X114596000Y68422000D01*
G37*
X114596000Y68422000D02*
X113580000Y68422000D01*
X113580000Y69438000D01*
X114596000Y69438000D01*
X114596000Y68422000D01*
G36*
X103420000Y53182000D02*
G01*
X102404000Y53182000D01*
X102404000Y54198000D01*
X103420000Y54198000D01*
X103420000Y53182000D01*
G37*
X103420000Y53182000D02*
X102404000Y53182000D01*
X102404000Y54198000D01*
X103420000Y54198000D01*
X103420000Y53182000D01*
G36*
X103420000Y55722000D02*
G01*
X102404000Y55722000D01*
X102404000Y56738000D01*
X103420000Y56738000D01*
X103420000Y55722000D01*
G37*
X103420000Y55722000D02*
X102404000Y55722000D01*
X102404000Y56738000D01*
X103420000Y56738000D01*
X103420000Y55722000D01*
G36*
X103420000Y58262000D02*
G01*
X102404000Y58262000D01*
X102404000Y59278000D01*
X103420000Y59278000D01*
X103420000Y58262000D01*
G37*
X103420000Y58262000D02*
X102404000Y58262000D01*
X102404000Y59278000D01*
X103420000Y59278000D01*
X103420000Y58262000D01*
G36*
X114596000Y53182000D02*
G01*
X113580000Y53182000D01*
X113580000Y54198000D01*
X114596000Y54198000D01*
X114596000Y53182000D01*
G37*
X114596000Y53182000D02*
X113580000Y53182000D01*
X113580000Y54198000D01*
X114596000Y54198000D01*
X114596000Y53182000D01*
G36*
X103420000Y48102000D02*
G01*
X102404000Y48102000D01*
X102404000Y49118000D01*
X103420000Y49118000D01*
X103420000Y48102000D01*
G37*
X103420000Y48102000D02*
X102404000Y48102000D01*
X102404000Y49118000D01*
X103420000Y49118000D01*
X103420000Y48102000D01*
G36*
X114596000Y60802000D02*
G01*
X113580000Y60802000D01*
X113580000Y61818000D01*
X114596000Y61818000D01*
X114596000Y60802000D01*
G37*
X114596000Y60802000D02*
X113580000Y60802000D01*
X113580000Y61818000D01*
X114596000Y61818000D01*
X114596000Y60802000D01*
G36*
X103420000Y68422000D02*
G01*
X102404000Y68422000D01*
X102404000Y69438000D01*
X103420000Y69438000D01*
X103420000Y68422000D01*
G37*
X103420000Y68422000D02*
X102404000Y68422000D01*
X102404000Y69438000D01*
X103420000Y69438000D01*
X103420000Y68422000D01*
G36*
X114596000Y45562000D02*
G01*
X113580000Y45562000D01*
X113580000Y46578000D01*
X114596000Y46578000D01*
X114596000Y45562000D01*
G37*
X114596000Y45562000D02*
X113580000Y45562000D01*
X113580000Y46578000D01*
X114596000Y46578000D01*
X114596000Y45562000D01*
G36*
X114596000Y43022000D02*
G01*
X113580000Y43022000D01*
X113580000Y44038000D01*
X114596000Y44038000D01*
X114596000Y43022000D01*
G37*
X114596000Y43022000D02*
X113580000Y43022000D01*
X113580000Y44038000D01*
X114596000Y44038000D01*
X114596000Y43022000D01*
G36*
X114596000Y50642000D02*
G01*
X113580000Y50642000D01*
X113580000Y51658000D01*
X114596000Y51658000D01*
X114596000Y50642000D01*
G37*
X114596000Y50642000D02*
X113580000Y50642000D01*
X113580000Y51658000D01*
X114596000Y51658000D01*
X114596000Y50642000D01*
G36*
X103420000Y63342000D02*
G01*
X102404000Y63342000D01*
X102404000Y64358000D01*
X103420000Y64358000D01*
X103420000Y63342000D01*
G37*
X103420000Y63342000D02*
X102404000Y63342000D01*
X102404000Y64358000D01*
X103420000Y64358000D01*
X103420000Y63342000D01*
G36*
X114596000Y70962000D02*
G01*
X113580000Y70962000D01*
X113580000Y71978000D01*
X114596000Y71978000D01*
X114596000Y70962000D01*
G37*
X114596000Y70962000D02*
X113580000Y70962000D01*
X113580000Y71978000D01*
X114596000Y71978000D01*
X114596000Y70962000D01*
G36*
X103420000Y45562000D02*
G01*
X102404000Y45562000D01*
X102404000Y46578000D01*
X103420000Y46578000D01*
X103420000Y45562000D01*
G37*
X103420000Y45562000D02*
X102404000Y45562000D01*
X102404000Y46578000D01*
X103420000Y46578000D01*
X103420000Y45562000D01*
G36*
X103420000Y65882000D02*
G01*
X102404000Y65882000D01*
X102404000Y66898000D01*
X103420000Y66898000D01*
X103420000Y65882000D01*
G37*
X103420000Y65882000D02*
X102404000Y65882000D01*
X102404000Y66898000D01*
X103420000Y66898000D01*
X103420000Y65882000D01*
G36*
X103420000Y43022000D02*
G01*
X102404000Y43022000D01*
X102404000Y44038000D01*
X103420000Y44038000D01*
X103420000Y43022000D01*
G37*
X103420000Y43022000D02*
X102404000Y43022000D01*
X102404000Y44038000D01*
X103420000Y44038000D01*
X103420000Y43022000D01*
G36*
X103420000Y70962000D02*
G01*
X102404000Y70962000D01*
X102404000Y71978000D01*
X103420000Y71978000D01*
X103420000Y70962000D01*
G37*
X103420000Y70962000D02*
X102404000Y70962000D01*
X102404000Y71978000D01*
X103420000Y71978000D01*
X103420000Y70962000D01*
G36*
X114596000Y65882000D02*
G01*
X113580000Y65882000D01*
X113580000Y66898000D01*
X114596000Y66898000D01*
X114596000Y65882000D01*
G37*
X114596000Y65882000D02*
X113580000Y65882000D01*
X113580000Y66898000D01*
X114596000Y66898000D01*
X114596000Y65882000D01*
G36*
X114596000Y58262000D02*
G01*
X113580000Y58262000D01*
X113580000Y59278000D01*
X114596000Y59278000D01*
X114596000Y58262000D01*
G37*
X114596000Y58262000D02*
X113580000Y58262000D01*
X113580000Y59278000D01*
X114596000Y59278000D01*
X114596000Y58262000D01*
%TD*%
D12*
%TO.C,TRRS1*%
X116400000Y32000000D03*
X109400000Y32000000D03*
X116400000Y34300000D03*
X109400000Y34300000D03*
D13*
X106700000Y32000000D03*
X106700000Y34300000D03*
X107800000Y29700000D03*
X107800000Y36600000D03*
X111800000Y36600000D03*
X111800000Y29700000D03*
X114800000Y36600000D03*
X114800000Y29700000D03*
%TD*%
D14*
%TO.C,B1*%
X106750000Y26000000D03*
X113250000Y26000000D03*
%TD*%
D15*
%TO.C,S25*%
X77500000Y68000000D03*
X66500000Y68000000D03*
D16*
X72000000Y68000000D03*
D17*
X67000000Y71800000D03*
X77000000Y71800000D03*
X72000000Y73900000D03*
X72000000Y73900000D03*
%TD*%
D18*
%TO.C,D9*%
X14190000Y46000000D03*
D19*
X16350000Y46000000D03*
X19650000Y46000000D03*
D20*
X21810000Y46000000D03*
%TD*%
D15*
%TO.C,S8*%
X23500000Y34000000D03*
X12500000Y34000000D03*
D16*
X18000000Y34000000D03*
D17*
X23000000Y37800000D03*
X13000000Y37800000D03*
X18000000Y39900000D03*
X18000000Y39900000D03*
%TD*%
D19*
%TO.C,D8*%
X16350000Y29000000D03*
D18*
X14190000Y29000000D03*
D19*
X19650000Y29000000D03*
D20*
X21810000Y29000000D03*
%TD*%
D19*
%TO.C,D1*%
X-1650000Y-5000000D03*
D18*
X-3810000Y-5000000D03*
D19*
X1650000Y-5000000D03*
D20*
X3810000Y-5000000D03*
%TD*%
D19*
%TO.C,D18*%
X52350000Y29000000D03*
D18*
X50190000Y29000000D03*
D19*
X55650000Y29000000D03*
D20*
X57810000Y29000000D03*
%TD*%
D19*
%TO.C,D16*%
X52350000Y-5000000D03*
D18*
X50190000Y-5000000D03*
D20*
X57810000Y-5000000D03*
D19*
X55650000Y-5000000D03*
%TD*%
D15*
%TO.C,S30*%
X95500000Y68000000D03*
D16*
X90000000Y68000000D03*
D15*
X84500000Y68000000D03*
D17*
X85000000Y71800000D03*
X95000000Y71800000D03*
X90000000Y73900000D03*
X90000000Y73900000D03*
%TD*%
D21*
%TO.C,EN1*%
X113000000Y19810000D03*
D22*
X114875000Y14992000D03*
X114875000Y17532000D03*
X114875000Y20072000D03*
X114875000Y14468000D03*
X114875000Y19548000D03*
D21*
X113000000Y14730000D03*
D22*
X114875000Y11928000D03*
D21*
X113000000Y17270000D03*
D22*
X114875000Y12452000D03*
X114875000Y17008000D03*
D23*
X111984000Y19810000D03*
X111984000Y17270000D03*
X111984000Y14730000D03*
D24*
X116350000Y9452000D03*
X116350000Y22548000D03*
D22*
X114250000Y9452000D03*
X114250000Y22548000D03*
%TD*%
D18*
%TO.C,D4*%
X-3810000Y46000000D03*
D19*
X-1650000Y46000000D03*
X1650000Y46000000D03*
D20*
X3810000Y46000000D03*
%TD*%
D15*
%TO.C,S21*%
X66500000Y0D03*
X77500000Y0D03*
D16*
X72000000Y0D03*
D17*
X67000000Y3800000D03*
X77000000Y3800000D03*
X72000000Y5900000D03*
X72000000Y5900000D03*
%TD*%
D19*
%TO.C,D31*%
X106350000Y-5000000D03*
D18*
X104190000Y-5000000D03*
D20*
X111810000Y-5000000D03*
D19*
X109650000Y-5000000D03*
%TD*%
D16*
%TO.C,S22*%
X72000000Y17000000D03*
D15*
X77500000Y17000000D03*
X66500000Y17000000D03*
D17*
X77000000Y20800000D03*
X67000000Y20800000D03*
X72000000Y22900000D03*
X72000000Y22900000D03*
%TD*%
D19*
%TO.C,D6*%
X16350000Y-5000000D03*
D18*
X14190000Y-5000000D03*
D20*
X21810000Y-5000000D03*
D19*
X19650000Y-5000000D03*
%TD*%
D15*
%TO.C,S3*%
X-5500000Y34000000D03*
D16*
X0Y34000000D03*
D15*
X5500000Y34000000D03*
D17*
X-5000000Y37800000D03*
X5000000Y37800000D03*
X0Y39900000D03*
X0Y39900000D03*
%TD*%
D18*
%TO.C,D29*%
X86190000Y46000000D03*
D19*
X88350000Y46000000D03*
X91650000Y46000000D03*
D20*
X93810000Y46000000D03*
%TD*%
D19*
%TO.C,D23*%
X70350000Y29000000D03*
D18*
X68190000Y29000000D03*
D19*
X73650000Y29000000D03*
D20*
X75810000Y29000000D03*
%TD*%
D19*
%TO.C,D3*%
X-1650000Y29000000D03*
D18*
X-3810000Y29000000D03*
D19*
X1650000Y29000000D03*
D20*
X3810000Y29000000D03*
%TD*%
D15*
%TO.C,S31*%
X102500000Y0D03*
D16*
X108000000Y0D03*
D15*
X113500000Y0D03*
D17*
X113000000Y3800000D03*
X103000000Y3800000D03*
X108000000Y5900000D03*
X108000000Y5900000D03*
%TD*%
D19*
%TO.C,D15*%
X34350000Y63000000D03*
D18*
X32190000Y63000000D03*
D20*
X39810000Y63000000D03*
D19*
X37650000Y63000000D03*
%TD*%
D15*
%TO.C,S6*%
X23500000Y0D03*
X12500000Y0D03*
D16*
X18000000Y0D03*
D17*
X13000000Y3800000D03*
X23000000Y3800000D03*
X18000000Y5900000D03*
X18000000Y5900000D03*
%TD*%
D16*
%TO.C,S14*%
X36000000Y51000000D03*
D15*
X30500000Y51000000D03*
X41500000Y51000000D03*
D17*
X41000000Y54800000D03*
X31000000Y54800000D03*
X36000000Y56900000D03*
X36000000Y56900000D03*
%TD*%
D16*
%TO.C,S4*%
X0Y51000000D03*
D15*
X-5500000Y51000000D03*
X5500000Y51000000D03*
D17*
X5000000Y54800000D03*
X-5000000Y54800000D03*
X0Y56900000D03*
X0Y56900000D03*
%TD*%
D19*
%TO.C,D27*%
X88350000Y12000000D03*
D18*
X86190000Y12000000D03*
D20*
X93810000Y12000000D03*
D19*
X91650000Y12000000D03*
%TD*%
D15*
%TO.C,S24*%
X66500000Y51000000D03*
D16*
X72000000Y51000000D03*
D15*
X77500000Y51000000D03*
D17*
X77000000Y54800000D03*
X67000000Y54800000D03*
X72000000Y56900000D03*
X72000000Y56900000D03*
%TD*%
D19*
%TO.C,D24*%
X70350000Y46000000D03*
D18*
X68190000Y46000000D03*
D19*
X73650000Y46000000D03*
D20*
X75810000Y46000000D03*
%TD*%
D19*
%TO.C,D13*%
X34350000Y29000000D03*
D18*
X32190000Y29000000D03*
D19*
X37650000Y29000000D03*
D20*
X39810000Y29000000D03*
%TD*%
D16*
%TO.C,S9*%
X18000000Y51000000D03*
D15*
X23500000Y51000000D03*
X12500000Y51000000D03*
D17*
X13000000Y54800000D03*
X23000000Y54800000D03*
X18000000Y56900000D03*
X18000000Y56900000D03*
%TD*%
D15*
%TO.C,S1*%
X-5500000Y0D03*
X5500000Y0D03*
D16*
X0Y0D03*
D17*
X5000000Y3800000D03*
X-5000000Y3800000D03*
X0Y5900000D03*
X0Y5900000D03*
%TD*%
D18*
%TO.C,D2*%
X-3810000Y12000000D03*
D19*
X-1650000Y12000000D03*
D20*
X3810000Y12000000D03*
D19*
X1650000Y12000000D03*
%TD*%
D16*
%TO.C,S5*%
X0Y68000000D03*
D15*
X5500000Y68000000D03*
X-5500000Y68000000D03*
D17*
X5000000Y71800000D03*
X-5000000Y71800000D03*
X0Y73900000D03*
X0Y73900000D03*
%TD*%
D18*
%TO.C,D11*%
X32190000Y-5000000D03*
D19*
X34350000Y-5000000D03*
D20*
X39810000Y-5000000D03*
D19*
X37650000Y-5000000D03*
%TD*%
D18*
%TO.C,D30*%
X86190000Y63000000D03*
D19*
X88350000Y63000000D03*
D20*
X93810000Y63000000D03*
D19*
X91650000Y63000000D03*
%TD*%
D15*
%TO.C,S20*%
X59500000Y68000000D03*
D16*
X54000000Y68000000D03*
D15*
X48500000Y68000000D03*
D17*
X49000000Y71800000D03*
X59000000Y71800000D03*
X54000000Y73900000D03*
X54000000Y73900000D03*
%TD*%
D16*
%TO.C,S19*%
X54000000Y51000000D03*
D15*
X48500000Y51000000D03*
X59500000Y51000000D03*
D17*
X49000000Y54800000D03*
X59000000Y54800000D03*
X54000000Y56900000D03*
X54000000Y56900000D03*
%TD*%
D16*
%TO.C,S23*%
X72000000Y34000000D03*
D15*
X66500000Y34000000D03*
X77500000Y34000000D03*
D17*
X77000000Y37800000D03*
X67000000Y37800000D03*
X72000000Y39900000D03*
X72000000Y39900000D03*
%TD*%
D19*
%TO.C,D25*%
X70350000Y63000000D03*
D18*
X68190000Y63000000D03*
D19*
X73650000Y63000000D03*
D20*
X75810000Y63000000D03*
%TD*%
D19*
%TO.C,D28*%
X88350000Y29000000D03*
D18*
X86190000Y29000000D03*
D20*
X93810000Y29000000D03*
D19*
X91650000Y29000000D03*
%TD*%
D15*
%TO.C,S26*%
X84500000Y0D03*
X95500000Y0D03*
D16*
X90000000Y0D03*
D17*
X95000000Y3800000D03*
X85000000Y3800000D03*
X90000000Y5900000D03*
X90000000Y5900000D03*
%TD*%
D16*
%TO.C,S18*%
X54000000Y34000000D03*
D15*
X48500000Y34000000D03*
X59500000Y34000000D03*
D17*
X49000000Y37800000D03*
X59000000Y37800000D03*
X54000000Y39900000D03*
X54000000Y39900000D03*
%TD*%
D16*
%TO.C,S28*%
X90000000Y34000000D03*
D15*
X84500000Y34000000D03*
X95500000Y34000000D03*
D17*
X95000000Y37800000D03*
X85000000Y37800000D03*
X90000000Y39900000D03*
X90000000Y39900000D03*
%TD*%
D15*
%TO.C,S10*%
X23500000Y68000000D03*
D16*
X18000000Y68000000D03*
D15*
X12500000Y68000000D03*
D17*
X23000000Y71800000D03*
X13000000Y71800000D03*
X18000000Y73900000D03*
X18000000Y73900000D03*
%TD*%
D19*
%TO.C,D20*%
X52350000Y63000000D03*
D18*
X50190000Y63000000D03*
D19*
X55650000Y63000000D03*
D20*
X57810000Y63000000D03*
%TD*%
D15*
%TO.C,S27*%
X95500000Y17000000D03*
X84500000Y17000000D03*
D16*
X90000000Y17000000D03*
D17*
X85000000Y20800000D03*
X95000000Y20800000D03*
X90000000Y22900000D03*
X90000000Y22900000D03*
%TD*%
D19*
%TO.C,D12*%
X34350000Y12000000D03*
D18*
X32190000Y12000000D03*
D19*
X37650000Y12000000D03*
D20*
X39810000Y12000000D03*
%TD*%
D18*
%TO.C,D14*%
X32190000Y46000000D03*
D19*
X34350000Y46000000D03*
X37650000Y46000000D03*
D20*
X39810000Y46000000D03*
%TD*%
D19*
%TO.C,D5*%
X-1650000Y63000000D03*
D18*
X-3810000Y63000000D03*
D19*
X1650000Y63000000D03*
D20*
X3810000Y63000000D03*
%TD*%
D15*
%TO.C,S7*%
X23500000Y17000000D03*
X12500000Y17000000D03*
D16*
X18000000Y17000000D03*
D17*
X23000000Y20800000D03*
X13000000Y20800000D03*
X18000000Y22900000D03*
X18000000Y22900000D03*
%TD*%
D19*
%TO.C,D22*%
X70350000Y12000000D03*
D18*
X68190000Y12000000D03*
D19*
X73650000Y12000000D03*
D20*
X75810000Y12000000D03*
%TD*%
D19*
%TO.C,D7*%
X16350000Y12000000D03*
D18*
X14190000Y12000000D03*
D20*
X21810000Y12000000D03*
D19*
X19650000Y12000000D03*
%TD*%
%TO.C,D26*%
X88350000Y-5000000D03*
D18*
X86190000Y-5000000D03*
D20*
X93810000Y-5000000D03*
D19*
X91650000Y-5000000D03*
%TD*%
D18*
%TO.C,D17*%
X50190000Y12000000D03*
D19*
X52350000Y12000000D03*
D20*
X57810000Y12000000D03*
D19*
X55650000Y12000000D03*
%TD*%
%TO.C,D10*%
X16350000Y63000000D03*
D18*
X14190000Y63000000D03*
D19*
X19650000Y63000000D03*
D20*
X21810000Y63000000D03*
%TD*%
D18*
%TO.C,D21*%
X68190000Y-5000000D03*
D19*
X70350000Y-5000000D03*
X73650000Y-5000000D03*
D20*
X75810000Y-5000000D03*
%TD*%
D15*
%TO.C,S12*%
X30500000Y17000000D03*
D16*
X36000000Y17000000D03*
D15*
X41500000Y17000000D03*
D17*
X41000000Y20800000D03*
X31000000Y20800000D03*
X36000000Y22900000D03*
X36000000Y22900000D03*
%TD*%
D15*
%TO.C,S29*%
X95500000Y51000000D03*
D16*
X90000000Y51000000D03*
D15*
X84500000Y51000000D03*
D17*
X95000000Y54800000D03*
X85000000Y54800000D03*
X90000000Y56900000D03*
X90000000Y56900000D03*
%TD*%
D15*
%TO.C,S13*%
X30500000Y34000000D03*
D16*
X36000000Y34000000D03*
D15*
X41500000Y34000000D03*
D17*
X31000000Y37800000D03*
X41000000Y37800000D03*
X36000000Y39900000D03*
X36000000Y39900000D03*
%TD*%
D15*
%TO.C,S11*%
X30500000Y0D03*
D16*
X36000000Y0D03*
D15*
X41500000Y0D03*
D17*
X41000000Y3800000D03*
X31000000Y3800000D03*
X36000000Y5900000D03*
X36000000Y5900000D03*
%TD*%
D16*
%TO.C,S2*%
X0Y17000000D03*
D15*
X5500000Y17000000D03*
X-5500000Y17000000D03*
D17*
X5000000Y20800000D03*
X-5000000Y20800000D03*
X0Y22900000D03*
X0Y22900000D03*
%TD*%
D15*
%TO.C,S15*%
X30500000Y68000000D03*
X41500000Y68000000D03*
D16*
X36000000Y68000000D03*
D17*
X31000000Y71800000D03*
X41000000Y71800000D03*
X36000000Y73900000D03*
X36000000Y73900000D03*
%TD*%
D19*
%TO.C,D19*%
X52350000Y46000000D03*
D18*
X50190000Y46000000D03*
D20*
X57810000Y46000000D03*
D19*
X55650000Y46000000D03*
%TD*%
D16*
%TO.C,S17*%
X54000000Y17000000D03*
D15*
X59500000Y17000000D03*
X48500000Y17000000D03*
D17*
X59000000Y20800000D03*
X49000000Y20800000D03*
X54000000Y22900000D03*
X54000000Y22900000D03*
%TD*%
D15*
%TO.C,S16*%
X48500000Y0D03*
D16*
X54000000Y0D03*
D15*
X59500000Y0D03*
D17*
X59000000Y3800000D03*
X49000000Y3800000D03*
X54000000Y5900000D03*
X54000000Y5900000D03*
%TD*%
D25*
%TO.C,MCU1*%
X114342000Y46070000D03*
X114342000Y48610000D03*
D26*
X102658000Y63850000D03*
D24*
X116120000Y53690000D03*
X116120000Y66390000D03*
D26*
X102658000Y68930000D03*
X102658000Y61310000D03*
D25*
X114342000Y68930000D03*
X114342000Y58770000D03*
D24*
X100880000Y43530000D03*
X100880000Y46070000D03*
X100880000Y56230000D03*
X100880000Y58770000D03*
D26*
X102658000Y53690000D03*
D24*
X100880000Y63850000D03*
D25*
X114342000Y63850000D03*
D24*
X116120000Y63850000D03*
X100880000Y51150000D03*
D25*
X114342000Y51150000D03*
X114342000Y66390000D03*
D26*
X102658000Y48610000D03*
D24*
X116120000Y61310000D03*
D26*
X102658000Y46070000D03*
D24*
X100880000Y53690000D03*
D25*
X114342000Y71470000D03*
X114342000Y53690000D03*
D24*
X116120000Y71470000D03*
X116120000Y43530000D03*
X100880000Y61310000D03*
X116120000Y48610000D03*
D26*
X102658000Y51150000D03*
D25*
X114342000Y61310000D03*
D24*
X116120000Y56230000D03*
D27*
X100880000Y71470000D03*
D24*
X100880000Y68930000D03*
D26*
X102658000Y71470000D03*
X102658000Y66390000D03*
X102658000Y58770000D03*
X102658000Y43530000D03*
D24*
X100880000Y66390000D03*
X100880000Y71470000D03*
X116120000Y58770000D03*
X100880000Y48610000D03*
D26*
X102658000Y56230000D03*
D24*
X116120000Y51150000D03*
D25*
X114342000Y43530000D03*
D24*
X116120000Y68930000D03*
X116120000Y46070000D03*
D25*
X114342000Y56230000D03*
D28*
X113326000Y71470000D03*
X113326000Y68930000D03*
X113326000Y66390000D03*
X113326000Y63850000D03*
X113326000Y61310000D03*
X113326000Y58770000D03*
X113326000Y56230000D03*
X113326000Y53690000D03*
X113326000Y51150000D03*
X113326000Y48610000D03*
X113326000Y46070000D03*
X113326000Y43530000D03*
D29*
X103674000Y43530000D03*
X103674000Y46070000D03*
X103674000Y48610000D03*
X103674000Y51150000D03*
X103674000Y53690000D03*
X103674000Y56230000D03*
X103674000Y58770000D03*
X103674000Y61310000D03*
X103674000Y63850000D03*
X103674000Y66390000D03*
X103674000Y68930000D03*
X103674000Y71470000D03*
%TD*%
M02*
