%TF.GenerationSoftware,KiCad,Pcbnew,6.0.11-2627ca5db0~126~ubuntu22.04.1*%
%TF.CreationDate,2023-07-21T23:46:38-07:00*%
%TF.ProjectId,swirl,73776972-6c2e-46b6-9963-61645f706362,v1.0.0*%
%TF.SameCoordinates,Original*%
%TF.FileFunction,Legend,Top*%
%TF.FilePolarity,Positive*%
%FSLAX46Y46*%
G04 Gerber Fmt 4.6, Leading zero omitted, Abs format (unit mm)*
G04 Created by KiCad (PCBNEW 6.0.11-2627ca5db0~126~ubuntu22.04.1) date 2023-07-21 23:46:38*
%MOMM*%
%LPD*%
G01*
G04 APERTURE LIST*
%ADD10C,0.000000*%
%ADD11C,0.150000*%
%ADD12C,0.100000*%
%ADD13C,2.000000*%
G04 APERTURE END LIST*
D10*
G36*
X40402640Y19291677D02*
G01*
X40822722Y19231199D01*
X41254451Y19133640D01*
X41691806Y19001648D01*
X42128767Y18837872D01*
X42559315Y18644960D01*
X42977430Y18425562D01*
X43377091Y18182326D01*
X43752279Y17917900D01*
X44096974Y17634934D01*
X44405154Y17336075D01*
X44543671Y17181514D01*
X44670802Y17023973D01*
X44785794Y16863784D01*
X44887896Y16701277D01*
X44976354Y16536783D01*
X45050416Y16370635D01*
X45109330Y16203161D01*
X45152343Y16034695D01*
X45178703Y15865566D01*
X45187656Y15696106D01*
X45160855Y14997924D01*
X45082195Y14283886D01*
X44954293Y13556487D01*
X44779766Y12818219D01*
X44561230Y12071576D01*
X44301302Y11319051D01*
X43667736Y9806330D01*
X42900000Y8300000D01*
X42019029Y6820010D01*
X41045754Y5386304D01*
X40001109Y4018830D01*
X38906026Y2737534D01*
X37781439Y1562363D01*
X36648279Y513262D01*
X35527481Y-389822D01*
X34439977Y-1126941D01*
X33406699Y-1678151D01*
X32916937Y-1877807D01*
X32448581Y-2023504D01*
X32004248Y-2112752D01*
X31586555Y-2143055D01*
X31352305Y-2138499D01*
X31123896Y-2124955D01*
X30901249Y-2102612D01*
X30684282Y-2071654D01*
X30472916Y-2032269D01*
X30267071Y-1984645D01*
X30066665Y-1928967D01*
X29871620Y-1865422D01*
X29681855Y-1794198D01*
X29497289Y-1715481D01*
X29317843Y-1629458D01*
X29143435Y-1536316D01*
X28973987Y-1436241D01*
X28809417Y-1329421D01*
X28494592Y-1096291D01*
X28198319Y-838420D01*
X27919956Y-557304D01*
X27658861Y-254435D01*
X27414393Y68690D01*
X27185908Y410578D01*
X26972766Y769734D01*
X26774324Y1144664D01*
X26589941Y1533873D01*
X26175321Y1135231D01*
X25761737Y753299D01*
X25350306Y389322D01*
X24942146Y44541D01*
X24538376Y-279801D01*
X24140113Y-582459D01*
X23748476Y-862193D01*
X23364582Y-1117757D01*
X22989551Y-1347911D01*
X22624499Y-1551409D01*
X22270546Y-1727011D01*
X21928808Y-1873472D01*
X21600404Y-1989550D01*
X21286453Y-2074002D01*
X20988072Y-2125584D01*
X20706379Y-2143055D01*
X20191703Y-2122173D01*
X19702729Y-2060754D01*
X19238843Y-1960643D01*
X18799432Y-1823682D01*
X18383880Y-1651713D01*
X17991574Y-1446580D01*
X17621901Y-1210125D01*
X17274245Y-944191D01*
X16947993Y-650622D01*
X16642531Y-331259D01*
X16357245Y12054D01*
X16091521Y377474D01*
X15844745Y763159D01*
X15616302Y1167266D01*
X15405579Y1587951D01*
X15211961Y2023373D01*
X15034835Y2471687D01*
X14873587Y2931052D01*
X14727602Y3399625D01*
X14596267Y3875562D01*
X14375089Y4842158D01*
X14205141Y5816099D01*
X14081510Y6782641D01*
X13999284Y7727042D01*
X13953551Y8634559D01*
X13939398Y9490448D01*
X13961778Y10431921D01*
X14026511Y11333851D01*
X14129983Y12193314D01*
X14268581Y13007384D01*
X14438693Y13773137D01*
X14636704Y14487648D01*
X14859003Y15147991D01*
X15101975Y15751243D01*
X15362009Y16294478D01*
X15635491Y16774771D01*
X15918807Y17189198D01*
X16208345Y17534833D01*
X16500493Y17808752D01*
X16791636Y18008030D01*
X16935701Y18078764D01*
X17078161Y18129741D01*
X17218564Y18160596D01*
X17356457Y18170962D01*
X17976400Y18153127D01*
X18554958Y18101679D01*
X19092324Y18019699D01*
X19588688Y17910271D01*
X20044243Y17776477D01*
X20459180Y17621399D01*
X20833689Y17448122D01*
X21167964Y17259727D01*
X21462195Y17059297D01*
X21716574Y16849914D01*
X21931292Y16634663D01*
X22106541Y16416624D01*
X22242512Y16198881D01*
X22339397Y15984517D01*
X22397388Y15776615D01*
X22416676Y15578256D01*
X22410320Y15524003D01*
X22391793Y15462590D01*
X22361907Y15393562D01*
X22321473Y15316466D01*
X22212207Y15136261D01*
X22070486Y14918347D01*
X21902801Y14659100D01*
X21715642Y14354895D01*
X21515501Y14002106D01*
X21412591Y13806360D01*
X21308869Y13597109D01*
X21205148Y13373899D01*
X21102238Y13136277D01*
X21000950Y12883790D01*
X20902097Y12615986D01*
X20806489Y12332410D01*
X20714938Y12032610D01*
X20628255Y11716132D01*
X20547253Y11382524D01*
X20472741Y11031332D01*
X20405531Y10662103D01*
X20346436Y10274383D01*
X20296265Y9867721D01*
X20255831Y9441662D01*
X20225945Y8995753D01*
X20207419Y8529542D01*
X20201063Y8042574D01*
X20207730Y7433581D01*
X20227731Y6830670D01*
X20261066Y6238423D01*
X20307736Y5661421D01*
X20367739Y5104247D01*
X20441076Y4571484D01*
X20527748Y4067713D01*
X20627753Y3597516D01*
X20741093Y3165476D01*
X20867767Y2776175D01*
X21007775Y2434195D01*
X21161117Y2144117D01*
X21327793Y1910525D01*
X21416131Y1816343D01*
X21507803Y1738001D01*
X21602808Y1676071D01*
X21701147Y1631126D01*
X21802819Y1603739D01*
X21907825Y1594483D01*
X22003857Y1598168D01*
X22102381Y1609128D01*
X22203281Y1627218D01*
X22306441Y1652296D01*
X22411743Y1684218D01*
X22519072Y1722839D01*
X22628311Y1768017D01*
X22739343Y1819608D01*
X22966323Y1941452D01*
X23199080Y2087224D01*
X23436681Y2255773D01*
X23678196Y2445950D01*
X23922692Y2656606D01*
X24169238Y2886593D01*
X24416903Y3134760D01*
X24664753Y3399958D01*
X24911859Y3681039D01*
X25157287Y3976853D01*
X25400106Y4286250D01*
X25638903Y4607434D01*
X25639383Y4604714D01*
X25639385Y4608082D01*
X25638903Y4607434D01*
X25531827Y5214378D01*
X25446135Y5822149D01*
X25379989Y6425815D01*
X25331069Y7023169D01*
X25297057Y7611999D01*
X25275634Y8190096D01*
X25264481Y8755251D01*
X25261278Y9305254D01*
X25282960Y10278695D01*
X25345783Y11208529D01*
X25446413Y12092108D01*
X25581517Y12926782D01*
X25747762Y13709904D01*
X25941813Y14438823D01*
X26160338Y15110893D01*
X26400003Y15723464D01*
X26657475Y16273887D01*
X26929419Y16759513D01*
X27212503Y17177695D01*
X27503392Y17525783D01*
X27798754Y17801129D01*
X28095254Y18001084D01*
X28242889Y18071963D01*
X28389560Y18123000D01*
X28534848Y18153865D01*
X28678337Y18164227D01*
X28875866Y18157603D01*
X29076467Y18138071D01*
X29279528Y18106138D01*
X29484437Y18062311D01*
X29690580Y18007098D01*
X29897345Y17941006D01*
X30310289Y17778215D01*
X30718367Y17577996D01*
X31116678Y17344411D01*
X31500319Y17081518D01*
X31864388Y16793376D01*
X32203984Y16484044D01*
X32514204Y16157583D01*
X32790147Y15818051D01*
X33026911Y15469507D01*
X33129069Y15293125D01*
X33219593Y15116011D01*
X33297872Y14938675D01*
X33363293Y14761623D01*
X33415242Y14585363D01*
X33453107Y14410401D01*
X33476276Y14237247D01*
X33484135Y14066406D01*
X33475325Y13723914D01*
X33449267Y13374857D01*
X33406522Y13019773D01*
X33347647Y12659200D01*
X33273201Y12293674D01*
X33183745Y11923734D01*
X33079836Y11549917D01*
X32962035Y11172760D01*
X32830899Y10792803D01*
X32686988Y10410581D01*
X32530861Y10026633D01*
X32363077Y9641496D01*
X32184195Y9255709D01*
X31994774Y8869807D01*
X31795373Y8484331D01*
X31586552Y8099816D01*
X31616202Y7564969D01*
X31656955Y7046720D01*
X31708071Y6547539D01*
X31768810Y6069898D01*
X31838432Y5616267D01*
X31916196Y5189119D01*
X32001362Y4790923D01*
X32093191Y4424151D01*
X32190941Y4091274D01*
X32293872Y3794764D01*
X32401245Y3537090D01*
X32512319Y3320726D01*
X32626354Y3148140D01*
X32742609Y3021806D01*
X32801338Y2976754D01*
X32860345Y2944193D01*
X32919536Y2924429D01*
X32978821Y2917773D01*
X33196101Y2938973D01*
X33420631Y3001198D01*
X33651485Y3102384D01*
X33887733Y3240466D01*
X34128449Y3413381D01*
X34372704Y3619064D01*
X34619570Y3855450D01*
X34868120Y4120476D01*
X35117425Y4412078D01*
X35366559Y4728191D01*
X35860598Y5425694D01*
X36342814Y6196472D01*
X36805786Y7024011D01*
X37242089Y7891798D01*
X37644301Y8783320D01*
X38004999Y9682063D01*
X38316761Y10571514D01*
X38572163Y11435158D01*
X38763784Y12256483D01*
X38833356Y12646115D01*
X38884199Y13018975D01*
X38915386Y13372998D01*
X38925987Y13706121D01*
X38922541Y13980624D01*
X38912494Y14239475D01*
X38896288Y14483258D01*
X38874363Y14712557D01*
X38847157Y14927956D01*
X38815112Y15130040D01*
X38738261Y15496603D01*
X38647331Y15816919D01*
X38545842Y16095666D01*
X38437313Y16337519D01*
X38325264Y16547153D01*
X38213215Y16729246D01*
X38104686Y16888472D01*
X37912267Y17157028D01*
X37835416Y17275710D01*
X37776165Y17390230D01*
X37738033Y17505262D01*
X37727987Y17564431D01*
X37724541Y17625483D01*
X37727659Y17710013D01*
X37736898Y17793693D01*
X37752085Y17876403D01*
X37773046Y17958022D01*
X37799607Y18038430D01*
X37831596Y18117507D01*
X37868839Y18195133D01*
X37911162Y18271187D01*
X37958393Y18345549D01*
X38010357Y18418100D01*
X38066881Y18488718D01*
X38127793Y18557283D01*
X38192918Y18623676D01*
X38262082Y18687776D01*
X38335114Y18749462D01*
X38411839Y18808616D01*
X38492084Y18865116D01*
X38575675Y18918841D01*
X38662439Y18969673D01*
X38752203Y19017491D01*
X38844793Y19062174D01*
X38940036Y19103602D01*
X39037759Y19141656D01*
X39137787Y19176214D01*
X39239949Y19207156D01*
X39344069Y19234364D01*
X39449975Y19257715D01*
X39557494Y19277090D01*
X39666452Y19292369D01*
X39776675Y19303431D01*
X39887991Y19310157D01*
X40000225Y19312425D01*
X40402640Y19291677D01*
G37*
G36*
X7313228Y18463477D02*
G01*
X7632400Y18442309D01*
X7939238Y18407609D01*
X8233867Y18359851D01*
X8516414Y18299512D01*
X8787007Y18227064D01*
X9045772Y18142984D01*
X9292836Y18047746D01*
X9528326Y17941824D01*
X9752369Y17825693D01*
X9965091Y17699828D01*
X10166620Y17564704D01*
X10357081Y17420796D01*
X10536603Y17268577D01*
X10705311Y17108524D01*
X10863333Y16941111D01*
X11010795Y16766811D01*
X11147825Y16586101D01*
X11274548Y16399456D01*
X11391092Y16207348D01*
X11497585Y16010254D01*
X11594151Y15808648D01*
X11680919Y15603005D01*
X11758015Y15393800D01*
X11883698Y14966601D01*
X11972216Y14530849D01*
X12024583Y14090343D01*
X12041813Y13648879D01*
X12038280Y13645512D01*
X12034805Y13478477D01*
X12024556Y13316415D01*
X12007798Y13159349D01*
X11984799Y13007299D01*
X11955824Y12860288D01*
X11921139Y12718337D01*
X11881009Y12581467D01*
X11835702Y12449700D01*
X11785482Y12323059D01*
X11730615Y12201563D01*
X11671369Y12085235D01*
X11608008Y11974097D01*
X11540798Y11868170D01*
X11470005Y11767475D01*
X11395896Y11672035D01*
X11318737Y11581870D01*
X11156328Y11417455D01*
X10984908Y11274401D01*
X10806603Y11152882D01*
X10623542Y11053070D01*
X10437851Y10975138D01*
X10251657Y10919259D01*
X10067089Y10885604D01*
X9886274Y10874348D01*
X9856844Y10874882D01*
X9828190Y10876493D01*
X9800322Y10879189D01*
X9773252Y10882983D01*
X9746989Y10887884D01*
X9721545Y10893902D01*
X9696928Y10901049D01*
X9673150Y10909335D01*
X9650221Y10918769D01*
X9628151Y10929364D01*
X9606950Y10941129D01*
X9586630Y10954074D01*
X9567200Y10968211D01*
X9548671Y10983549D01*
X9531052Y11000099D01*
X9514356Y11017872D01*
X9498590Y11036879D01*
X9483767Y11057128D01*
X9469897Y11078632D01*
X9456989Y11101400D01*
X9445054Y11125443D01*
X9434103Y11150772D01*
X9424145Y11177397D01*
X9415192Y11205328D01*
X9407253Y11234576D01*
X9400339Y11265151D01*
X9394461Y11297065D01*
X9389628Y11330327D01*
X9385851Y11364947D01*
X9383140Y11400937D01*
X9381506Y11438307D01*
X9380960Y11477067D01*
X9378751Y11527700D01*
X9372196Y11577900D01*
X9361399Y11627591D01*
X9346465Y11676696D01*
X9327498Y11725137D01*
X9304604Y11772838D01*
X9277887Y11819721D01*
X9247453Y11865710D01*
X9213405Y11910727D01*
X9175849Y11954695D01*
X9134890Y11997537D01*
X9090632Y12039177D01*
X9043181Y12079537D01*
X8992640Y12118539D01*
X8939116Y12156108D01*
X8882712Y12192165D01*
X8823533Y12226634D01*
X8761685Y12259438D01*
X8697272Y12290500D01*
X8630399Y12319742D01*
X8561171Y12347088D01*
X8489692Y12372460D01*
X8416068Y12395781D01*
X8340403Y12416975D01*
X8262803Y12435964D01*
X8183371Y12452671D01*
X8102213Y12467019D01*
X8019433Y12478932D01*
X7935137Y12488331D01*
X7849429Y12495140D01*
X7762413Y12499282D01*
X7674196Y12500680D01*
X7450667Y12483788D01*
X7144173Y12433410D01*
X6768151Y12349994D01*
X6336039Y12233991D01*
X5861274Y12085849D01*
X5357294Y11906017D01*
X4837538Y11694942D01*
X4315441Y11453076D01*
X3804442Y11180865D01*
X3317979Y10878760D01*
X3088148Y10716637D01*
X2869489Y10547208D01*
X2663684Y10370530D01*
X2472410Y10186659D01*
X2297349Y9995651D01*
X2140180Y9797562D01*
X2002582Y9592448D01*
X1886235Y9380365D01*
X1792819Y9161370D01*
X1724014Y8935518D01*
X1681499Y8702866D01*
X1666954Y8463469D01*
X1692722Y8328038D01*
X1767833Y8192994D01*
X1888997Y8057993D01*
X2052925Y7922692D01*
X2256327Y7786747D01*
X2495914Y7649816D01*
X3070484Y7371617D01*
X3750319Y7085349D01*
X4509102Y6788265D01*
X6158250Y6150656D01*
X6995982Y5804638D01*
X7807398Y5436814D01*
X8566182Y5044437D01*
X8917612Y4838182D01*
X9246017Y4624759D01*
X9548104Y4403824D01*
X9820587Y4175033D01*
X10060174Y3938044D01*
X10263576Y3692512D01*
X10427504Y3438095D01*
X10548668Y3174449D01*
X10623779Y2901230D01*
X10649547Y2618096D01*
X10639786Y2381658D01*
X10610759Y2147349D01*
X10562849Y1915521D01*
X10496439Y1686526D01*
X10411912Y1460718D01*
X10309652Y1238449D01*
X10190040Y1020071D01*
X10053460Y805938D01*
X9900296Y596401D01*
X9730930Y391814D01*
X9545745Y192530D01*
X9345125Y-1100D01*
X9129452Y-188722D01*
X8899109Y-369984D01*
X8654480Y-544533D01*
X8395948Y-712016D01*
X8123895Y-872081D01*
X7838704Y-1024375D01*
X7540760Y-1168545D01*
X7230443Y-1304240D01*
X6908139Y-1431105D01*
X6574230Y-1548789D01*
X6229098Y-1656938D01*
X5873127Y-1755201D01*
X5506700Y-1843224D01*
X5130200Y-1920655D01*
X4744010Y-1987141D01*
X4348513Y-2042330D01*
X3944092Y-2085868D01*
X3531131Y-2117403D01*
X3110011Y-2136583D01*
X2681117Y-2143055D01*
X1778133Y-2121656D01*
X942109Y-2059461D01*
X171845Y-1959475D01*
X-533861Y-1824701D01*
X-1176210Y-1658143D01*
X-1756401Y-1462804D01*
X-2275637Y-1241689D01*
X-2735118Y-997802D01*
X-3136045Y-734146D01*
X-3479618Y-453724D01*
X-3767040Y-159542D01*
X-3999510Y145398D01*
X-4178229Y458091D01*
X-4304399Y775535D01*
X-4379221Y1094724D01*
X-4403894Y1412655D01*
X-4396437Y1611737D01*
X-4374627Y1802486D01*
X-4339311Y1985036D01*
X-4291335Y2159518D01*
X-4231543Y2326063D01*
X-4160783Y2484804D01*
X-4079899Y2635873D01*
X-3989737Y2779402D01*
X-3891143Y2915522D01*
X-3784963Y3044366D01*
X-3672042Y3166065D01*
X-3553225Y3280752D01*
X-3429359Y3388558D01*
X-3301290Y3489616D01*
X-3169862Y3584056D01*
X-3035922Y3672012D01*
X-2900315Y3753615D01*
X-2763887Y3828998D01*
X-2491950Y3961627D01*
X-2226878Y4070956D01*
X-1975434Y4158040D01*
X-1744385Y4223934D01*
X-1540495Y4269695D01*
X-1370531Y4296377D01*
X-1241258Y4305037D01*
X-1183610Y4303996D01*
X-1129203Y4300931D01*
X-1077944Y4295931D01*
X-1029742Y4289082D01*
X-984502Y4280473D01*
X-942134Y4270190D01*
X-902544Y4258321D01*
X-865640Y4244954D01*
X-831329Y4230177D01*
X-799519Y4214076D01*
X-770117Y4196740D01*
X-743031Y4178256D01*
X-718168Y4158711D01*
X-695436Y4138194D01*
X-674742Y4116791D01*
X-655994Y4094590D01*
X-639099Y4071679D01*
X-623964Y4048145D01*
X-610497Y4024076D01*
X-598606Y3999560D01*
X-588198Y3974683D01*
X-579181Y3949534D01*
X-564947Y3898769D01*
X-555164Y3847964D01*
X-549093Y3797820D01*
X-545994Y3749037D01*
X-545125Y3702317D01*
X-541069Y3568535D01*
X-528995Y3438681D01*
X-509041Y3312775D01*
X-481346Y3190839D01*
X-446051Y3072893D01*
X-403292Y2958958D01*
X-353211Y2849055D01*
X-295946Y2743205D01*
X-231636Y2641430D01*
X-160420Y2543750D01*
X-82437Y2450185D01*
X2173Y2360758D01*
X93272Y2275489D01*
X190720Y2194398D01*
X294378Y2117508D01*
X404107Y2044838D01*
X519769Y1976410D01*
X641223Y1912245D01*
X768331Y1852364D01*
X900954Y1796787D01*
X1038952Y1745536D01*
X1182187Y1698632D01*
X1330519Y1656095D01*
X1483810Y1617947D01*
X1641919Y1584208D01*
X1804709Y1554900D01*
X1972039Y1530043D01*
X2143771Y1509659D01*
X2319766Y1493768D01*
X2499884Y1482391D01*
X2683987Y1475550D01*
X2871935Y1473265D01*
X3086432Y1476252D01*
X3301870Y1485800D01*
X3516211Y1502785D01*
X3727415Y1528086D01*
X3933443Y1562581D01*
X4132255Y1607148D01*
X4321812Y1662665D01*
X4500075Y1730010D01*
X4665003Y1810060D01*
X4741829Y1855124D01*
X4814557Y1903694D01*
X4882932Y1955879D01*
X4946699Y2011789D01*
X5005603Y2071535D01*
X5059388Y2135225D01*
X5107801Y2202969D01*
X5150586Y2274878D01*
X5187487Y2351060D01*
X5218252Y2431626D01*
X5242623Y2516685D01*
X5260347Y2606348D01*
X5271168Y2700723D01*
X5274832Y2799921D01*
X5245800Y2956593D01*
X5161175Y3110738D01*
X5024662Y3263010D01*
X4839969Y3414058D01*
X4610802Y3564534D01*
X4340866Y3715089D01*
X3693514Y4019040D01*
X214614Y5368216D01*
X-729235Y5764895D01*
X-1643435Y6195745D01*
X-2498335Y6665976D01*
X-2894282Y6917486D01*
X-3264286Y7180794D01*
X-3604640Y7456552D01*
X-3911638Y7745410D01*
X-4181574Y8048020D01*
X-4410742Y8365032D01*
X-4595435Y8697097D01*
X-4731947Y9044867D01*
X-4816572Y9408993D01*
X-4845604Y9790125D01*
X-4820833Y10228590D01*
X-4748224Y10662237D01*
X-4630337Y11090467D01*
X-4469731Y11512686D01*
X-4268964Y11928294D01*
X-4030597Y12336697D01*
X-3757187Y12737296D01*
X-3451295Y13129496D01*
X-3115478Y13512700D01*
X-2752296Y13886309D01*
X-2364309Y14249729D01*
X-1954074Y14602361D01*
X-1524151Y14943610D01*
X-1077100Y15272878D01*
X-615478Y15589569D01*
X-141846Y15893085D01*
X831216Y16458207D01*
X1821612Y16963470D01*
X2808872Y17404100D01*
X3772523Y17775322D01*
X4692093Y18072361D01*
X5547110Y18290443D01*
X6317101Y18424794D01*
X6663814Y18459078D01*
X6981594Y18470639D01*
X7313228Y18463477D01*
G37*
G36*
X87255756Y35578679D02*
G01*
X87466964Y35557356D01*
X87915197Y35473661D01*
X88390667Y35337516D01*
X88884756Y35151658D01*
X89388845Y34918824D01*
X89894317Y34641752D01*
X90392552Y34323179D01*
X90874932Y33965843D01*
X91332839Y33572480D01*
X91549922Y33363145D01*
X91757654Y33145830D01*
X91954958Y32920877D01*
X92140758Y32688628D01*
X92313976Y32449426D01*
X92473533Y32203613D01*
X92618355Y31951531D01*
X92747361Y31693522D01*
X92859477Y31429928D01*
X92953623Y31161092D01*
X93028724Y30887356D01*
X93083701Y30609061D01*
X93117477Y30326550D01*
X93128975Y30040166D01*
X93089797Y29310280D01*
X92975723Y28484096D01*
X92791945Y27572640D01*
X92543655Y26586943D01*
X92236046Y25538033D01*
X91874308Y24436939D01*
X91463633Y23294689D01*
X91009214Y22122313D01*
X90516243Y20930838D01*
X89989910Y19731295D01*
X89435408Y18534710D01*
X88857928Y17352114D01*
X88262663Y16194534D01*
X87654805Y15073000D01*
X87039544Y13998541D01*
X86422073Y12982185D01*
X86184244Y11856807D01*
X85990353Y10782489D01*
X85836630Y9753469D01*
X85719308Y8763987D01*
X85634617Y7808282D01*
X85578790Y6880593D01*
X85548057Y5975159D01*
X85538651Y5086218D01*
X85545287Y4791666D01*
X85565071Y4496921D01*
X85597816Y4204632D01*
X85643337Y3917449D01*
X85701447Y3638019D01*
X85771959Y3368991D01*
X85854687Y3113015D01*
X85949445Y2872738D01*
X86056046Y2650809D01*
X86174304Y2449878D01*
X86304032Y2272592D01*
X86373140Y2193644D01*
X86445045Y2121601D01*
X86519725Y2056793D01*
X86597156Y1999552D01*
X86677314Y1950209D01*
X86760177Y1909095D01*
X86845722Y1876542D01*
X86933924Y1852879D01*
X87024761Y1838439D01*
X87118210Y1833552D01*
X87261076Y1844075D01*
X87416291Y1875357D01*
X87583240Y1926967D01*
X87761310Y1998476D01*
X87949888Y2089453D01*
X88148360Y2199468D01*
X88356114Y2328090D01*
X88572535Y2474889D01*
X89028927Y2821296D01*
X89512629Y3235246D01*
X90018734Y3713298D01*
X90542335Y4252007D01*
X91078524Y4847932D01*
X91622395Y5497629D01*
X92169041Y6197656D01*
X92713554Y6944570D01*
X93251028Y7734927D01*
X93776555Y8565286D01*
X94285228Y9432204D01*
X94772140Y10332238D01*
X94818299Y10293331D01*
X94871277Y10245497D01*
X94939991Y10179453D01*
X95021293Y10095732D01*
X95112037Y9994865D01*
X95209076Y9877387D01*
X95309261Y9743828D01*
X95359551Y9671186D01*
X95409447Y9594724D01*
X95458556Y9514508D01*
X95506485Y9430605D01*
X95552841Y9343082D01*
X95597229Y9252005D01*
X95639257Y9157441D01*
X95678532Y9059456D01*
X95714659Y8958117D01*
X95747246Y8853491D01*
X95775898Y8745644D01*
X95800223Y8634643D01*
X95819828Y8520554D01*
X95834318Y8403444D01*
X95843301Y8283380D01*
X95846382Y8160427D01*
X95846374Y8160424D01*
X95831186Y8009098D01*
X95786362Y7816613D01*
X95612248Y7320221D01*
X95332921Y6695361D01*
X94957269Y5966147D01*
X94494179Y5156694D01*
X93952540Y4291115D01*
X93341238Y3393526D01*
X92669161Y2488039D01*
X91945197Y1598771D01*
X91178234Y749834D01*
X90377159Y-34657D01*
X89966608Y-395199D01*
X89550861Y-730587D01*
X89131030Y-1037807D01*
X88708226Y-1313843D01*
X88283560Y-1555683D01*
X87858143Y-1760310D01*
X87433085Y-1924712D01*
X87009498Y-2045874D01*
X86588493Y-2120782D01*
X86171181Y-2146421D01*
X85816046Y-2135173D01*
X85469567Y-2102013D01*
X85131804Y-2047815D01*
X84802820Y-1973454D01*
X84482678Y-1879805D01*
X84171439Y-1767743D01*
X83869165Y-1638143D01*
X83575918Y-1491879D01*
X83291762Y-1329827D01*
X83016756Y-1152862D01*
X82750965Y-961857D01*
X82494450Y-757689D01*
X82247272Y-541232D01*
X82009495Y-313361D01*
X81781180Y-74951D01*
X81562389Y173124D01*
X81353185Y429988D01*
X81153630Y694766D01*
X80783713Y1244568D01*
X80453136Y1815529D01*
X80162395Y2400651D01*
X79911988Y2992934D01*
X79702412Y3585381D01*
X79534163Y4170991D01*
X79407738Y4742766D01*
X79029660Y4165442D01*
X78615960Y3575713D01*
X78168117Y2980430D01*
X77687612Y2386445D01*
X77175924Y1800608D01*
X76634536Y1229770D01*
X76064926Y680783D01*
X75468575Y160496D01*
X74846965Y-324237D01*
X74201574Y-766568D01*
X73870424Y-969691D01*
X73533884Y-1159644D01*
X73192140Y-1335570D01*
X72845375Y-1496614D01*
X72493776Y-1641919D01*
X72137528Y-1770628D01*
X71776815Y-1881886D01*
X71411822Y-1974835D01*
X71042735Y-2048619D01*
X70669739Y-2102383D01*
X70293018Y-2135269D01*
X69912758Y-2146421D01*
X69704166Y-2140639D01*
X69493534Y-2123484D01*
X69281428Y-2095244D01*
X69068418Y-2056205D01*
X68855072Y-2006656D01*
X68641958Y-1946883D01*
X68218695Y-1797816D01*
X67803177Y-1611302D01*
X67399946Y-1389641D01*
X67013549Y-1135130D01*
X66648530Y-850068D01*
X66475457Y-696799D01*
X66309434Y-536754D01*
X66151027Y-370221D01*
X66000805Y-197486D01*
X65859336Y-18837D01*
X65727188Y165438D01*
X65604930Y355052D01*
X65493129Y549719D01*
X65392353Y749150D01*
X65303171Y953058D01*
X65226151Y1161156D01*
X65161860Y1373157D01*
X65110868Y1588774D01*
X65073741Y1807718D01*
X65051048Y2029704D01*
X65043358Y2254442D01*
X65047697Y2495902D01*
X65060350Y2744928D01*
X65080767Y3000643D01*
X65108400Y3262167D01*
X65183118Y3799136D01*
X65280115Y4348810D01*
X65395001Y4904166D01*
X65523387Y5458180D01*
X65660884Y6003830D01*
X65803101Y6534090D01*
X65553596Y6597250D01*
X65264711Y6678877D01*
X64942119Y6780076D01*
X64591493Y6901951D01*
X64407439Y6970988D01*
X64218505Y7045607D01*
X64025398Y7125949D01*
X63828828Y7212150D01*
X63629505Y7304349D01*
X63428137Y7402684D01*
X63225433Y7507292D01*
X63022102Y7618313D01*
X62825155Y7118008D01*
X62543559Y6518149D01*
X62184019Y5836926D01*
X61753238Y5092529D01*
X61257919Y4303149D01*
X60704766Y3486977D01*
X60100481Y2662203D01*
X59451768Y1847018D01*
X58765331Y1059611D01*
X58047872Y318174D01*
X57306094Y-359103D01*
X56928181Y-667997D01*
X56546702Y-954030D01*
X56162495Y-1214927D01*
X55776398Y-1448415D01*
X55389249Y-1652221D01*
X55001886Y-1824069D01*
X54615146Y-1961688D01*
X54229868Y-2062802D01*
X53846890Y-2125137D01*
X53467049Y-2146421D01*
X52904170Y-2127251D01*
X52333977Y-2069450D01*
X51762489Y-1972586D01*
X51195728Y-1836223D01*
X50639712Y-1659927D01*
X50100462Y-1443266D01*
X49583998Y-1185804D01*
X49096340Y-887108D01*
X48865194Y-722161D01*
X48643507Y-546743D01*
X48432032Y-360799D01*
X48231521Y-164275D01*
X48042726Y42882D01*
X47866401Y260729D01*
X47703297Y489317D01*
X47554167Y728703D01*
X47419763Y978940D01*
X47300838Y1240082D01*
X47198145Y1512184D01*
X47112436Y1795300D01*
X47044464Y2089484D01*
X46994980Y2394791D01*
X46964739Y2711274D01*
X46954491Y3038988D01*
X46980325Y4460845D01*
X47054496Y5871649D01*
X47172003Y7260267D01*
X47327845Y8615567D01*
X47517023Y9926417D01*
X47734535Y11181684D01*
X47975382Y12370236D01*
X48234564Y13480941D01*
X48507080Y14502666D01*
X48787929Y15424280D01*
X49072112Y16234649D01*
X49354629Y16922642D01*
X49630478Y17477126D01*
X49894661Y17886969D01*
X50142176Y18141038D01*
X50258120Y18206179D01*
X50368023Y18228202D01*
X50584164Y18221070D01*
X50804741Y18200107D01*
X51029012Y18165966D01*
X51256237Y18119296D01*
X51716585Y17990976D01*
X52179858Y17820356D01*
X52640128Y17612645D01*
X53091469Y17373051D01*
X53527955Y17106783D01*
X53943657Y16819050D01*
X54332651Y16515059D01*
X54689007Y16200020D01*
X55006801Y15879141D01*
X55280104Y15557631D01*
X55502990Y15240698D01*
X55593675Y15085576D01*
X55669533Y14933551D01*
X55729823Y14785275D01*
X55773805Y14641398D01*
X55800737Y14502572D01*
X55809879Y14369448D01*
X55807690Y14312593D01*
X55801269Y14255062D01*
X55790837Y14196887D01*
X55776613Y14138101D01*
X55758817Y14078739D01*
X55737670Y14018832D01*
X55686200Y13897521D01*
X55623964Y13774434D01*
X55552721Y13649838D01*
X55474231Y13523999D01*
X55390254Y13397184D01*
X55034679Y12885482D01*
X54949667Y12757779D01*
X54869728Y12630697D01*
X54796622Y12504503D01*
X54732109Y12379462D01*
X54552631Y12029021D01*
X54370626Y11635210D01*
X54188042Y11201299D01*
X54006823Y10730558D01*
X53828918Y10226257D01*
X53656272Y9691667D01*
X53490831Y9130057D01*
X53334541Y8544699D01*
X53189350Y7938861D01*
X53057202Y7315814D01*
X52940046Y6678828D01*
X52839826Y6031174D01*
X52758489Y5376122D01*
X52697981Y4716941D01*
X52660249Y4056902D01*
X52647240Y3399275D01*
X52653768Y3210282D01*
X52672797Y3027692D01*
X52703493Y2852302D01*
X52745023Y2684913D01*
X52796554Y2526323D01*
X52857252Y2377332D01*
X52926283Y2238738D01*
X53002816Y2111340D01*
X53086015Y1995937D01*
X53175048Y1893330D01*
X53269082Y1804316D01*
X53367282Y1729694D01*
X53417685Y1698030D01*
X53468817Y1670264D01*
X53520573Y1646495D01*
X53572851Y1626825D01*
X53625546Y1611351D01*
X53678553Y1600175D01*
X53731768Y1593396D01*
X53785088Y1591114D01*
X53950033Y1600245D01*
X54123895Y1627383D01*
X54306230Y1672148D01*
X54496597Y1734159D01*
X54694551Y1813037D01*
X54899652Y1908400D01*
X55111456Y2019869D01*
X55329521Y2147063D01*
X55782662Y2447103D01*
X56255535Y2805479D01*
X56744600Y3219146D01*
X57246316Y3685062D01*
X57757142Y4200182D01*
X58273538Y4761465D01*
X58791963Y5365866D01*
X59308876Y6010343D01*
X59820737Y6691851D01*
X60324006Y7407349D01*
X60815142Y8153792D01*
X61290604Y8928137D01*
X61130523Y9098894D01*
X60976644Y9276630D01*
X60829536Y9461459D01*
X60689767Y9653494D01*
X60557908Y9852849D01*
X60434527Y10059637D01*
X60320195Y10273972D01*
X60215480Y10495966D01*
X60120952Y10725734D01*
X60037180Y10963388D01*
X59964734Y11209043D01*
X59904184Y11462811D01*
X59856097Y11724807D01*
X59821045Y11995143D01*
X59799596Y12273933D01*
X59792320Y12561291D01*
X59820407Y12959107D01*
X59901395Y13420802D01*
X60030378Y13934020D01*
X60202448Y14486406D01*
X60412698Y15065605D01*
X60656221Y15659260D01*
X60928111Y16255016D01*
X61223459Y16840518D01*
X61537359Y17403410D01*
X61864904Y17931336D01*
X62201186Y18411942D01*
X62541299Y18832871D01*
X62880335Y19181768D01*
X63047916Y19325344D01*
X63213387Y19446278D01*
X63376136Y19543026D01*
X63535548Y19614044D01*
X63691011Y19657788D01*
X63841911Y19672712D01*
X63988817Y19666277D01*
X64132638Y19647355D01*
X64273271Y19616518D01*
X64410611Y19574341D01*
X64544555Y19521397D01*
X64675001Y19458259D01*
X64801843Y19385500D01*
X64924980Y19303694D01*
X65044306Y19213414D01*
X65159720Y19115233D01*
X65271116Y19009726D01*
X65378392Y18897465D01*
X65481445Y18779024D01*
X65580169Y18654976D01*
X65674463Y18525895D01*
X65764223Y18392353D01*
X65849345Y18254925D01*
X65929725Y18114184D01*
X66005260Y17970702D01*
X66075847Y17825054D01*
X66201761Y17529552D01*
X66306638Y17232265D01*
X66389651Y16937779D01*
X66449972Y16650682D01*
X66471363Y16511337D01*
X66486771Y16375560D01*
X66496092Y16243924D01*
X66499222Y16117002D01*
X66489122Y15940006D01*
X66460000Y15727281D01*
X66413619Y15482712D01*
X66351747Y15210186D01*
X66188584Y14596813D01*
X65984632Y13918253D01*
X65754012Y13205601D01*
X65510845Y12489950D01*
X65043350Y11174027D01*
X67068146Y10692524D01*
X67278354Y11182497D01*
X67565790Y11799685D01*
X67912608Y12484742D01*
X68102708Y12834176D01*
X68300960Y13178322D01*
X68505133Y13509763D01*
X68712997Y13821080D01*
X68922320Y14104854D01*
X69130873Y14353668D01*
X69336423Y14560104D01*
X69437375Y14645111D01*
X69536740Y14716742D01*
X69634239Y14774069D01*
X69729592Y14816165D01*
X69822523Y14842102D01*
X69912750Y14850954D01*
X70031706Y14843495D01*
X70162612Y14821624D01*
X70304437Y14786102D01*
X70456150Y14737688D01*
X70785115Y14605227D01*
X71141255Y14430324D01*
X71516320Y14219059D01*
X71902058Y13977514D01*
X72290218Y13711772D01*
X72672549Y13427912D01*
X73040801Y13132018D01*
X73386723Y12830171D01*
X73702063Y12528452D01*
X73978570Y12232942D01*
X74207995Y11949724D01*
X74302472Y11814625D01*
X74382085Y11684879D01*
X74445801Y11561247D01*
X74492589Y11444489D01*
X74521419Y11335365D01*
X74531258Y11234635D01*
X74529057Y11187413D01*
X74522555Y11136193D01*
X74497253Y11022728D01*
X74456556Y10896182D01*
X74401671Y10758498D01*
X74333804Y10611621D01*
X74254160Y10457494D01*
X74163947Y10298059D01*
X74064370Y10135260D01*
X73956635Y9971041D01*
X73841949Y9807344D01*
X73721517Y9646114D01*
X73596545Y9489293D01*
X73468240Y9338826D01*
X73337808Y9196654D01*
X73206455Y9064722D01*
X73075386Y8944973D01*
X72669180Y8188009D01*
X72266618Y7376828D01*
X71883271Y6530450D01*
X71703668Y6100006D01*
X71534708Y5667895D01*
X71378336Y5236493D01*
X71236500Y4808180D01*
X71111144Y4385331D01*
X71004216Y3970325D01*
X70917662Y3565539D01*
X70853428Y3173350D01*
X70813461Y2796135D01*
X70799705Y2436272D01*
X70801165Y2375486D01*
X70805458Y2317467D01*
X70812458Y2262160D01*
X70822039Y2209509D01*
X70834073Y2159460D01*
X70848435Y2111958D01*
X70864995Y2066948D01*
X70883629Y2024375D01*
X70904210Y1984184D01*
X70926609Y1946321D01*
X70950702Y1910731D01*
X70976360Y1877358D01*
X71003457Y1846148D01*
X71031866Y1817046D01*
X71061461Y1789997D01*
X71092114Y1764946D01*
X71123699Y1741839D01*
X71156089Y1720620D01*
X71189157Y1701234D01*
X71222777Y1683628D01*
X71291162Y1653531D01*
X71360230Y1629891D01*
X71428968Y1612269D01*
X71496359Y1600225D01*
X71561390Y1593320D01*
X71623047Y1591116D01*
X71799742Y1601564D01*
X71986280Y1632597D01*
X72182151Y1683749D01*
X72386845Y1754555D01*
X72599852Y1844546D01*
X72820662Y1953259D01*
X73048766Y2080227D01*
X73283652Y2224982D01*
X73771737Y2565995D01*
X74280838Y2972569D01*
X74806875Y3440974D01*
X75345770Y3967483D01*
X75893444Y4548366D01*
X76445817Y5179894D01*
X76998812Y5858338D01*
X77548349Y6579970D01*
X78090349Y7341061D01*
X78620734Y8137882D01*
X79135424Y8966704D01*
X79630341Y9823797D01*
X80179220Y13357280D01*
X80924550Y17414617D01*
X81822268Y21689135D01*
X82828316Y25874160D01*
X83898632Y29663019D01*
X84444122Y31313051D01*
X84989156Y32749039D01*
X85528227Y33932648D01*
X86055828Y34825544D01*
X86313606Y35150996D01*
X86566451Y35389394D01*
X86813675Y35535947D01*
X87054588Y35585862D01*
X87255756Y35578679D01*
G37*
G36*
X54048211Y28709315D02*
G01*
X54254633Y28696888D01*
X54467085Y28676459D01*
X54684697Y28648257D01*
X55131935Y28569459D01*
X55589407Y28462340D01*
X56050171Y28328744D01*
X56507286Y28170516D01*
X56953810Y27989501D01*
X57382802Y27787542D01*
X57588554Y27679286D01*
X57787321Y27566486D01*
X57978233Y27449372D01*
X58160424Y27328176D01*
X58333026Y27203128D01*
X58495171Y27074458D01*
X58645992Y26942397D01*
X58784621Y26807175D01*
X58910190Y26669024D01*
X59021832Y26528174D01*
X59118679Y26384855D01*
X59199862Y26239298D01*
X59264516Y26091733D01*
X59311771Y25942392D01*
X59340760Y25791504D01*
X59350616Y25639300D01*
X59340741Y25385607D01*
X59311617Y25133056D01*
X59263995Y24882103D01*
X59198627Y24633200D01*
X59116266Y24386800D01*
X59017663Y24143356D01*
X58903569Y23903322D01*
X58774738Y23667150D01*
X58631920Y23435294D01*
X58475868Y23208207D01*
X58307334Y22986343D01*
X58127068Y22770153D01*
X57734353Y22356613D01*
X57303736Y21971211D01*
X56841234Y21617574D01*
X56352861Y21299327D01*
X55844631Y21020094D01*
X55322560Y20783502D01*
X54792663Y20593175D01*
X54526659Y20516494D01*
X54260954Y20452739D01*
X53996299Y20402362D01*
X53733448Y20365818D01*
X53473151Y20343560D01*
X53216160Y20336039D01*
X52887986Y20346186D01*
X52546660Y20377438D01*
X52196917Y20431014D01*
X51843493Y20508132D01*
X51491126Y20610011D01*
X51316818Y20670616D01*
X51144550Y20737868D01*
X50974915Y20811919D01*
X50808503Y20892922D01*
X50645908Y20981029D01*
X50487721Y21076391D01*
X50334535Y21179163D01*
X50186941Y21289494D01*
X50045531Y21407539D01*
X49910897Y21533449D01*
X49783632Y21667377D01*
X49664328Y21809474D01*
X49553576Y21959893D01*
X49451968Y22118787D01*
X49360097Y22286308D01*
X49278555Y22462607D01*
X49207933Y22647838D01*
X49148824Y22842152D01*
X49101820Y23045703D01*
X49067513Y23258641D01*
X49046494Y23481119D01*
X49039356Y23713291D01*
X49046864Y23950118D01*
X49069026Y24186167D01*
X49105296Y24420997D01*
X49155132Y24654166D01*
X49217989Y24885231D01*
X49293322Y25113750D01*
X49380588Y25339281D01*
X49479243Y25561382D01*
X49588741Y25779612D01*
X49708540Y25993528D01*
X49838095Y26202687D01*
X49976862Y26406649D01*
X50124297Y26604970D01*
X50279854Y26797210D01*
X50442992Y26982925D01*
X50613164Y27161673D01*
X50789828Y27333013D01*
X50972439Y27496503D01*
X51160452Y27651700D01*
X51353324Y27798163D01*
X51550510Y27935449D01*
X51751467Y28063117D01*
X51955650Y28180723D01*
X52162515Y28287827D01*
X52371517Y28383986D01*
X52582113Y28468758D01*
X52793759Y28541701D01*
X53005911Y28602373D01*
X53218023Y28650331D01*
X53429552Y28685135D01*
X53639955Y28706341D01*
X53848686Y28713508D01*
X54048211Y28709315D01*
G37*
D11*
%TO.C,B1*%
X108547619Y28547619D02*
X108214285Y29023809D01*
X107976190Y28547619D02*
X107976190Y29547619D01*
X108357142Y29547619D01*
X108452380Y29500000D01*
X108500000Y29452380D01*
X108547619Y29357142D01*
X108547619Y29214285D01*
X108500000Y29119047D01*
X108452380Y29071428D01*
X108357142Y29023809D01*
X107976190Y29023809D01*
X108976190Y29071428D02*
X109309523Y29071428D01*
X109452380Y28547619D02*
X108976190Y28547619D01*
X108976190Y29547619D01*
X109452380Y29547619D01*
X109833333Y28595238D02*
X109976190Y28547619D01*
X110214285Y28547619D01*
X110309523Y28595238D01*
X110357142Y28642857D01*
X110404761Y28738095D01*
X110404761Y28833333D01*
X110357142Y28928571D01*
X110309523Y28976190D01*
X110214285Y29023809D01*
X110023809Y29071428D01*
X109928571Y29119047D01*
X109880952Y29166666D01*
X109833333Y29261904D01*
X109833333Y29357142D01*
X109880952Y29452380D01*
X109928571Y29500000D01*
X110023809Y29547619D01*
X110261904Y29547619D01*
X110404761Y29500000D01*
X110833333Y29071428D02*
X111166666Y29071428D01*
X111309523Y28547619D02*
X110833333Y28547619D01*
X110833333Y29547619D01*
X111309523Y29547619D01*
X111595238Y29547619D02*
X112166666Y29547619D01*
X111880952Y28547619D02*
X111880952Y29547619D01*
%TO.C,MCU1*%
%TO.C,B1*%
X107000000Y27250000D02*
X107000000Y27500000D01*
X113000000Y30750000D02*
X113000000Y30500000D01*
X113000000Y27250000D02*
X107000000Y27250000D01*
X113000000Y27250000D02*
X113000000Y27500000D01*
X113000000Y30750000D02*
X107000000Y30750000D01*
X107000000Y30750000D02*
X107000000Y30500000D01*
D12*
%TO.C,D9*%
X17650000Y46000000D02*
X17650000Y46550000D01*
X17650000Y46000000D02*
X17650000Y45450000D01*
X18250000Y46000000D02*
X18750000Y46000000D01*
X18250000Y45600000D02*
X17650000Y46000000D01*
X18250000Y46400000D02*
X18250000Y45600000D01*
X17650000Y46000000D02*
X18250000Y46400000D01*
X17250000Y46000000D02*
X17650000Y46000000D01*
%TO.C,D22*%
X71650000Y12000000D02*
X71650000Y11450000D01*
X71650000Y12000000D02*
X71650000Y12550000D01*
X71650000Y12000000D02*
X72250000Y12400000D01*
X72250000Y12400000D02*
X72250000Y11600000D01*
X72250000Y11600000D02*
X71650000Y12000000D01*
X71250000Y12000000D02*
X71650000Y12000000D01*
X72250000Y12000000D02*
X72750000Y12000000D01*
%TO.C,D23*%
X72250000Y28600000D02*
X71650000Y29000000D01*
X71650000Y29000000D02*
X72250000Y29400000D01*
X71250000Y29000000D02*
X71650000Y29000000D01*
X72250000Y29000000D02*
X72750000Y29000000D01*
X72250000Y29400000D02*
X72250000Y28600000D01*
X71650000Y29000000D02*
X71650000Y29550000D01*
X71650000Y29000000D02*
X71650000Y28450000D01*
%TO.C,D21*%
X71650000Y-5000000D02*
X72250000Y-4600000D01*
X71650000Y-5000000D02*
X71650000Y-5550000D01*
X71250000Y-5000000D02*
X71650000Y-5000000D01*
X72250000Y-4600000D02*
X72250000Y-5400000D01*
X72250000Y-5000000D02*
X72750000Y-5000000D01*
X72250000Y-5400000D02*
X71650000Y-5000000D01*
X71650000Y-5000000D02*
X71650000Y-4450000D01*
%TO.C,D2*%
X250000Y11600000D02*
X-350000Y12000000D01*
X-350000Y12000000D02*
X-350000Y11450000D01*
X250000Y12400000D02*
X250000Y11600000D01*
X-750000Y12000000D02*
X-350000Y12000000D01*
X-350000Y12000000D02*
X250000Y12400000D01*
X250000Y12000000D02*
X750000Y12000000D01*
X-350000Y12000000D02*
X-350000Y12550000D01*
%TO.C,D31*%
X107650000Y-5000000D02*
X108250000Y-4600000D01*
X107650000Y-5000000D02*
X107650000Y-5550000D01*
X107250000Y-5000000D02*
X107650000Y-5000000D01*
X108250000Y-5000000D02*
X108750000Y-5000000D01*
X107650000Y-5000000D02*
X107650000Y-4450000D01*
X108250000Y-5400000D02*
X107650000Y-5000000D01*
X108250000Y-4600000D02*
X108250000Y-5400000D01*
%TO.C,D24*%
X72250000Y45600000D02*
X71650000Y46000000D01*
X71650000Y46000000D02*
X72250000Y46400000D01*
X71650000Y46000000D02*
X71650000Y45450000D01*
X71250000Y46000000D02*
X71650000Y46000000D01*
X72250000Y46000000D02*
X72750000Y46000000D01*
X71650000Y46000000D02*
X71650000Y46550000D01*
X72250000Y46400000D02*
X72250000Y45600000D01*
%TO.C,D14*%
X36250000Y45600000D02*
X35650000Y46000000D01*
X35650000Y46000000D02*
X35650000Y45450000D01*
X36250000Y46000000D02*
X36750000Y46000000D01*
X35250000Y46000000D02*
X35650000Y46000000D01*
X35650000Y46000000D02*
X35650000Y46550000D01*
X36250000Y46400000D02*
X36250000Y45600000D01*
X35650000Y46000000D02*
X36250000Y46400000D01*
%TO.C,D1*%
X-750000Y-5000000D02*
X-350000Y-5000000D01*
X250000Y-5000000D02*
X750000Y-5000000D01*
X250000Y-4600000D02*
X250000Y-5400000D01*
X250000Y-5400000D02*
X-350000Y-5000000D01*
X-350000Y-5000000D02*
X250000Y-4600000D01*
X-350000Y-5000000D02*
X-350000Y-5550000D01*
X-350000Y-5000000D02*
X-350000Y-4450000D01*
%TO.C,D20*%
X53650000Y63000000D02*
X53650000Y62450000D01*
X53650000Y63000000D02*
X54250000Y63400000D01*
X54250000Y63000000D02*
X54750000Y63000000D01*
X53250000Y63000000D02*
X53650000Y63000000D01*
X54250000Y62600000D02*
X53650000Y63000000D01*
X54250000Y63400000D02*
X54250000Y62600000D01*
X53650000Y63000000D02*
X53650000Y63550000D01*
%TO.C,D28*%
X90250000Y28600000D02*
X89650000Y29000000D01*
X90250000Y29000000D02*
X90750000Y29000000D01*
X89650000Y29000000D02*
X90250000Y29400000D01*
X89250000Y29000000D02*
X89650000Y29000000D01*
X89650000Y29000000D02*
X89650000Y29550000D01*
X89650000Y29000000D02*
X89650000Y28450000D01*
X90250000Y29400000D02*
X90250000Y28600000D01*
%TO.C,D4*%
X250000Y45600000D02*
X-350000Y46000000D01*
X-350000Y46000000D02*
X-350000Y46550000D01*
X-350000Y46000000D02*
X-350000Y45450000D01*
X-750000Y46000000D02*
X-350000Y46000000D01*
X250000Y46400000D02*
X250000Y45600000D01*
X250000Y46000000D02*
X750000Y46000000D01*
X-350000Y46000000D02*
X250000Y46400000D01*
%TO.C,D26*%
X89650000Y-5000000D02*
X90250000Y-4600000D01*
X90250000Y-5000000D02*
X90750000Y-5000000D01*
X90250000Y-4600000D02*
X90250000Y-5400000D01*
X90250000Y-5400000D02*
X89650000Y-5000000D01*
X89650000Y-5000000D02*
X89650000Y-5550000D01*
X89650000Y-5000000D02*
X89650000Y-4450000D01*
X89250000Y-5000000D02*
X89650000Y-5000000D01*
%TO.C,D8*%
X17650000Y29000000D02*
X17650000Y29550000D01*
X17250000Y29000000D02*
X17650000Y29000000D01*
X18250000Y29400000D02*
X18250000Y28600000D01*
X18250000Y28600000D02*
X17650000Y29000000D01*
X18250000Y29000000D02*
X18750000Y29000000D01*
X17650000Y29000000D02*
X18250000Y29400000D01*
X17650000Y29000000D02*
X17650000Y28450000D01*
%TO.C,D5*%
X-750000Y63000000D02*
X-350000Y63000000D01*
X-350000Y63000000D02*
X250000Y63400000D01*
X250000Y63400000D02*
X250000Y62600000D01*
X250000Y63000000D02*
X750000Y63000000D01*
X-350000Y63000000D02*
X-350000Y63550000D01*
X-350000Y63000000D02*
X-350000Y62450000D01*
X250000Y62600000D02*
X-350000Y63000000D01*
%TO.C,D13*%
X36250000Y29000000D02*
X36750000Y29000000D01*
X35650000Y29000000D02*
X35650000Y28450000D01*
X36250000Y28600000D02*
X35650000Y29000000D01*
X35650000Y29000000D02*
X36250000Y29400000D01*
X35250000Y29000000D02*
X35650000Y29000000D01*
X35650000Y29000000D02*
X35650000Y29550000D01*
X36250000Y29400000D02*
X36250000Y28600000D01*
%TO.C,D12*%
X35650000Y12000000D02*
X35650000Y12550000D01*
X35650000Y12000000D02*
X36250000Y12400000D01*
X36250000Y12400000D02*
X36250000Y11600000D01*
X35250000Y12000000D02*
X35650000Y12000000D01*
X35650000Y12000000D02*
X35650000Y11450000D01*
X36250000Y12000000D02*
X36750000Y12000000D01*
X36250000Y11600000D02*
X35650000Y12000000D01*
D11*
%TO.C,MCU1*%
X102150000Y72740000D02*
X99610000Y72740000D01*
X99610000Y70200000D02*
X99610000Y72740000D01*
X102150000Y70200000D02*
X99610000Y70200000D01*
X102150000Y72740000D02*
X102150000Y70200000D01*
D12*
%TO.C,D27*%
X89650000Y12000000D02*
X90250000Y12400000D01*
X90250000Y12400000D02*
X90250000Y11600000D01*
X89650000Y12000000D02*
X89650000Y12550000D01*
X90250000Y11600000D02*
X89650000Y12000000D01*
X90250000Y12000000D02*
X90750000Y12000000D01*
X89650000Y12000000D02*
X89650000Y11450000D01*
X89250000Y12000000D02*
X89650000Y12000000D01*
%TO.C,D29*%
X89250000Y46000000D02*
X89650000Y46000000D01*
X89650000Y46000000D02*
X90250000Y46400000D01*
X90250000Y46400000D02*
X90250000Y45600000D01*
X90250000Y46000000D02*
X90750000Y46000000D01*
X89650000Y46000000D02*
X89650000Y45450000D01*
X89650000Y46000000D02*
X89650000Y46550000D01*
X90250000Y45600000D02*
X89650000Y46000000D01*
%TO.C,D16*%
X53650000Y-5000000D02*
X54250000Y-4600000D01*
X54250000Y-5000000D02*
X54750000Y-5000000D01*
X53650000Y-5000000D02*
X53650000Y-5550000D01*
X53650000Y-5000000D02*
X53650000Y-4450000D01*
X54250000Y-5400000D02*
X53650000Y-5000000D01*
X54250000Y-4600000D02*
X54250000Y-5400000D01*
X53250000Y-5000000D02*
X53650000Y-5000000D01*
%TO.C,D19*%
X54250000Y46400000D02*
X54250000Y45600000D01*
X53650000Y46000000D02*
X53650000Y46550000D01*
X54250000Y46000000D02*
X54750000Y46000000D01*
X54250000Y45600000D02*
X53650000Y46000000D01*
X53650000Y46000000D02*
X53650000Y45450000D01*
X53250000Y46000000D02*
X53650000Y46000000D01*
X53650000Y46000000D02*
X54250000Y46400000D01*
%TO.C,D7*%
X17650000Y12000000D02*
X17650000Y12550000D01*
X18250000Y12400000D02*
X18250000Y11600000D01*
X17650000Y12000000D02*
X18250000Y12400000D01*
X17250000Y12000000D02*
X17650000Y12000000D01*
X18250000Y12000000D02*
X18750000Y12000000D01*
X18250000Y11600000D02*
X17650000Y12000000D01*
X17650000Y12000000D02*
X17650000Y11450000D01*
%TO.C,D25*%
X71650000Y63000000D02*
X72250000Y63400000D01*
X71250000Y63000000D02*
X71650000Y63000000D01*
X72250000Y63400000D02*
X72250000Y62600000D01*
X72250000Y62600000D02*
X71650000Y63000000D01*
X71650000Y63000000D02*
X71650000Y62450000D01*
X71650000Y63000000D02*
X71650000Y63550000D01*
X72250000Y63000000D02*
X72750000Y63000000D01*
%TO.C,D6*%
X18250000Y-5400000D02*
X17650000Y-5000000D01*
X17250000Y-5000000D02*
X17650000Y-5000000D01*
X17650000Y-5000000D02*
X17650000Y-4450000D01*
X17650000Y-5000000D02*
X17650000Y-5550000D01*
X18250000Y-4600000D02*
X18250000Y-5400000D01*
X17650000Y-5000000D02*
X18250000Y-4600000D01*
X18250000Y-5000000D02*
X18750000Y-5000000D01*
%TO.C,D30*%
X89650000Y63000000D02*
X89650000Y62450000D01*
X89250000Y63000000D02*
X89650000Y63000000D01*
X90250000Y62600000D02*
X89650000Y63000000D01*
X90250000Y63000000D02*
X90750000Y63000000D01*
X89650000Y63000000D02*
X90250000Y63400000D01*
X89650000Y63000000D02*
X89650000Y63550000D01*
X90250000Y63400000D02*
X90250000Y62600000D01*
%TO.C,D10*%
X17250000Y63000000D02*
X17650000Y63000000D01*
X17650000Y63000000D02*
X18250000Y63400000D01*
X18250000Y63400000D02*
X18250000Y62600000D01*
X17650000Y63000000D02*
X17650000Y63550000D01*
X18250000Y63000000D02*
X18750000Y63000000D01*
X17650000Y63000000D02*
X17650000Y62450000D01*
X18250000Y62600000D02*
X17650000Y63000000D01*
%TO.C,D11*%
X36250000Y-5000000D02*
X36750000Y-5000000D01*
X36250000Y-5400000D02*
X35650000Y-5000000D01*
X35650000Y-5000000D02*
X35650000Y-5550000D01*
X35650000Y-5000000D02*
X35650000Y-4450000D01*
X35650000Y-5000000D02*
X36250000Y-4600000D01*
X36250000Y-4600000D02*
X36250000Y-5400000D01*
X35250000Y-5000000D02*
X35650000Y-5000000D01*
%TO.C,D15*%
X35250000Y63000000D02*
X35650000Y63000000D01*
X35650000Y63000000D02*
X36250000Y63400000D01*
X35650000Y63000000D02*
X35650000Y63550000D01*
X36250000Y62600000D02*
X35650000Y63000000D01*
X36250000Y63400000D02*
X36250000Y62600000D01*
X36250000Y63000000D02*
X36750000Y63000000D01*
X35650000Y63000000D02*
X35650000Y62450000D01*
%TO.C,D17*%
X53650000Y12000000D02*
X53650000Y11450000D01*
X53650000Y12000000D02*
X54250000Y12400000D01*
X53250000Y12000000D02*
X53650000Y12000000D01*
X54250000Y11600000D02*
X53650000Y12000000D01*
X53650000Y12000000D02*
X53650000Y12550000D01*
X54250000Y12400000D02*
X54250000Y11600000D01*
X54250000Y12000000D02*
X54750000Y12000000D01*
%TO.C,D3*%
X-350000Y29000000D02*
X-350000Y28450000D01*
X-750000Y29000000D02*
X-350000Y29000000D01*
X-350000Y29000000D02*
X-350000Y29550000D01*
X250000Y29400000D02*
X250000Y28600000D01*
X250000Y28600000D02*
X-350000Y29000000D01*
X-350000Y29000000D02*
X250000Y29400000D01*
X250000Y29000000D02*
X750000Y29000000D01*
%TO.C,D18*%
X54250000Y28600000D02*
X53650000Y29000000D01*
X53250000Y29000000D02*
X53650000Y29000000D01*
X53650000Y29000000D02*
X53650000Y28450000D01*
X54250000Y29000000D02*
X54750000Y29000000D01*
X54250000Y29400000D02*
X54250000Y28600000D01*
X53650000Y29000000D02*
X53650000Y29550000D01*
X53650000Y29000000D02*
X54250000Y29400000D01*
%TD*%
D13*
%TO.C,B1*%
X106750000Y29000000D03*
X113250000Y29000000D03*
%TD*%
M02*
