%TF.GenerationSoftware,KiCad,Pcbnew,6.0.2+dfsg-1*%
%TF.CreationDate,2023-06-27T17:47:54-07:00*%
%TF.ProjectId,swirlComplete,73776972-6c43-46f6-9d70-6c6574652e6b,v1.0.0*%
%TF.SameCoordinates,Original*%
%TF.FileFunction,Legend,Bot*%
%TF.FilePolarity,Positive*%
%FSLAX46Y46*%
G04 Gerber Fmt 4.6, Leading zero omitted, Abs format (unit mm)*
G04 Created by KiCad (PCBNEW 6.0.2+dfsg-1) date 2023-06-27 17:47:54*
%MOMM*%
%LPD*%
G01*
G04 APERTURE LIST*
%ADD10C,0.150000*%
%ADD11C,0.100000*%
G04 APERTURE END LIST*
D10*
%TO.C,B1*%
X111325380Y25547619D02*
X111658714Y26023809D01*
X111896809Y25547619D02*
X111896809Y26547619D01*
X111515857Y26547619D01*
X111420619Y26500000D01*
X111373000Y26452380D01*
X111325380Y26357142D01*
X111325380Y26214285D01*
X111373000Y26119047D01*
X111420619Y26071428D01*
X111515857Y26023809D01*
X111896809Y26023809D01*
X110896809Y26071428D02*
X110563476Y26071428D01*
X110420619Y25547619D02*
X110896809Y25547619D01*
X110896809Y26547619D01*
X110420619Y26547619D01*
X110039666Y25595238D02*
X109896809Y25547619D01*
X109658714Y25547619D01*
X109563476Y25595238D01*
X109515857Y25642857D01*
X109468238Y25738095D01*
X109468238Y25833333D01*
X109515857Y25928571D01*
X109563476Y25976190D01*
X109658714Y26023809D01*
X109849190Y26071428D01*
X109944428Y26119047D01*
X109992047Y26166666D01*
X110039666Y26261904D01*
X110039666Y26357142D01*
X109992047Y26452380D01*
X109944428Y26500000D01*
X109849190Y26547619D01*
X109611095Y26547619D01*
X109468238Y26500000D01*
X109039666Y26071428D02*
X108706333Y26071428D01*
X108563476Y25547619D02*
X109039666Y25547619D01*
X109039666Y26547619D01*
X108563476Y26547619D01*
X108277761Y26547619D02*
X107706333Y26547619D01*
X107992047Y25547619D02*
X107992047Y26547619D01*
X113000000Y24500000D02*
X113000000Y24250000D01*
X107000000Y27500000D02*
X107000000Y27750000D01*
X107000000Y24250000D02*
X107000000Y24500000D01*
X113000000Y24250000D02*
X107000000Y24250000D01*
X113000000Y27750000D02*
X113000000Y27500000D01*
X107000000Y27750000D02*
X113000000Y27750000D01*
D11*
%TO.C,D9*%
X17650000Y46000000D02*
X17650000Y46550000D01*
X18250000Y46400000D02*
X18250000Y45600000D01*
X17650000Y46000000D02*
X17650000Y45450000D01*
X17250000Y46000000D02*
X17650000Y46000000D01*
X17650000Y46000000D02*
X18250000Y46400000D01*
X18250000Y45600000D02*
X17650000Y46000000D01*
X18250000Y46000000D02*
X18750000Y46000000D01*
%TO.C,D8*%
X17650000Y29000000D02*
X17650000Y29550000D01*
X18250000Y29400000D02*
X18250000Y28600000D01*
X17650000Y29000000D02*
X18250000Y29400000D01*
X17250000Y29000000D02*
X17650000Y29000000D01*
X17650000Y29000000D02*
X17650000Y28450000D01*
X18250000Y29000000D02*
X18750000Y29000000D01*
X18250000Y28600000D02*
X17650000Y29000000D01*
%TO.C,D1*%
X250000Y-4600000D02*
X250000Y-5400000D01*
X-350000Y-5000000D02*
X250000Y-4600000D01*
X-350000Y-5000000D02*
X-350000Y-5550000D01*
X250000Y-5000000D02*
X750000Y-5000000D01*
X250000Y-5400000D02*
X-350000Y-5000000D01*
X-750000Y-5000000D02*
X-350000Y-5000000D01*
X-350000Y-5000000D02*
X-350000Y-4450000D01*
%TO.C,D18*%
X54250000Y29400000D02*
X54250000Y28600000D01*
X53250000Y29000000D02*
X53650000Y29000000D01*
X53650000Y29000000D02*
X53650000Y28450000D01*
X53650000Y29000000D02*
X54250000Y29400000D01*
X54250000Y28600000D02*
X53650000Y29000000D01*
X54250000Y29000000D02*
X54750000Y29000000D01*
X53650000Y29000000D02*
X53650000Y29550000D01*
%TO.C,D16*%
X53250000Y-5000000D02*
X53650000Y-5000000D01*
X54250000Y-5400000D02*
X53650000Y-5000000D01*
X53650000Y-5000000D02*
X54250000Y-4600000D01*
X53650000Y-5000000D02*
X53650000Y-4450000D01*
X54250000Y-4600000D02*
X54250000Y-5400000D01*
X53650000Y-5000000D02*
X53650000Y-5550000D01*
X54250000Y-5000000D02*
X54750000Y-5000000D01*
%TO.C,D4*%
X250000Y46000000D02*
X750000Y46000000D01*
X250000Y45600000D02*
X-350000Y46000000D01*
X-350000Y46000000D02*
X-350000Y45450000D01*
X-350000Y46000000D02*
X250000Y46400000D01*
X250000Y46400000D02*
X250000Y45600000D01*
X-750000Y46000000D02*
X-350000Y46000000D01*
X-350000Y46000000D02*
X-350000Y46550000D01*
%TO.C,D31*%
X108250000Y-4600000D02*
X108250000Y-5400000D01*
X108250000Y-5000000D02*
X108750000Y-5000000D01*
X107650000Y-5000000D02*
X107650000Y-4450000D01*
X107250000Y-5000000D02*
X107650000Y-5000000D01*
X107650000Y-5000000D02*
X107650000Y-5550000D01*
X107650000Y-5000000D02*
X108250000Y-4600000D01*
X108250000Y-5400000D02*
X107650000Y-5000000D01*
%TO.C,D6*%
X18250000Y-5400000D02*
X17650000Y-5000000D01*
X18250000Y-5000000D02*
X18750000Y-5000000D01*
X18250000Y-4600000D02*
X18250000Y-5400000D01*
X17250000Y-5000000D02*
X17650000Y-5000000D01*
X17650000Y-5000000D02*
X18250000Y-4600000D01*
X17650000Y-5000000D02*
X17650000Y-5550000D01*
X17650000Y-5000000D02*
X17650000Y-4450000D01*
%TO.C,D29*%
X90250000Y45600000D02*
X89650000Y46000000D01*
X89250000Y46000000D02*
X89650000Y46000000D01*
X89650000Y46000000D02*
X89650000Y46550000D01*
X90250000Y46400000D02*
X90250000Y45600000D01*
X89650000Y46000000D02*
X89650000Y45450000D01*
X89650000Y46000000D02*
X90250000Y46400000D01*
X90250000Y46000000D02*
X90750000Y46000000D01*
%TO.C,D23*%
X71650000Y29000000D02*
X71650000Y28450000D01*
X71650000Y29000000D02*
X71650000Y29550000D01*
X72250000Y29400000D02*
X72250000Y28600000D01*
X71250000Y29000000D02*
X71650000Y29000000D01*
X71650000Y29000000D02*
X72250000Y29400000D01*
X72250000Y29000000D02*
X72750000Y29000000D01*
X72250000Y28600000D02*
X71650000Y29000000D01*
%TO.C,D3*%
X250000Y29000000D02*
X750000Y29000000D01*
X250000Y28600000D02*
X-350000Y29000000D01*
X-750000Y29000000D02*
X-350000Y29000000D01*
X-350000Y29000000D02*
X-350000Y28450000D01*
X-350000Y29000000D02*
X-350000Y29550000D01*
X-350000Y29000000D02*
X250000Y29400000D01*
X250000Y29400000D02*
X250000Y28600000D01*
%TO.C,D15*%
X36250000Y63000000D02*
X36750000Y63000000D01*
X35650000Y63000000D02*
X36250000Y63400000D01*
X35650000Y63000000D02*
X35650000Y62450000D01*
X35650000Y63000000D02*
X35650000Y63550000D01*
X36250000Y62600000D02*
X35650000Y63000000D01*
X36250000Y63400000D02*
X36250000Y62600000D01*
X35250000Y63000000D02*
X35650000Y63000000D01*
%TO.C,D27*%
X90250000Y12000000D02*
X90750000Y12000000D01*
X90250000Y11600000D02*
X89650000Y12000000D01*
X89650000Y12000000D02*
X89650000Y12550000D01*
X89650000Y12000000D02*
X89650000Y11450000D01*
X89650000Y12000000D02*
X90250000Y12400000D01*
X90250000Y12400000D02*
X90250000Y11600000D01*
X89250000Y12000000D02*
X89650000Y12000000D01*
%TO.C,D24*%
X71650000Y46000000D02*
X72250000Y46400000D01*
X72250000Y46000000D02*
X72750000Y46000000D01*
X72250000Y46400000D02*
X72250000Y45600000D01*
X71250000Y46000000D02*
X71650000Y46000000D01*
X71650000Y46000000D02*
X71650000Y46550000D01*
X71650000Y46000000D02*
X71650000Y45450000D01*
X72250000Y45600000D02*
X71650000Y46000000D01*
%TO.C,D13*%
X35650000Y29000000D02*
X36250000Y29400000D01*
X36250000Y29400000D02*
X36250000Y28600000D01*
X35650000Y29000000D02*
X35650000Y29550000D01*
X36250000Y28600000D02*
X35650000Y29000000D01*
X35250000Y29000000D02*
X35650000Y29000000D01*
X36250000Y29000000D02*
X36750000Y29000000D01*
X35650000Y29000000D02*
X35650000Y28450000D01*
%TO.C,D2*%
X250000Y12400000D02*
X250000Y11600000D01*
X-350000Y12000000D02*
X-350000Y11450000D01*
X-350000Y12000000D02*
X250000Y12400000D01*
X250000Y12000000D02*
X750000Y12000000D01*
X250000Y11600000D02*
X-350000Y12000000D01*
X-750000Y12000000D02*
X-350000Y12000000D01*
X-350000Y12000000D02*
X-350000Y12550000D01*
%TO.C,D11*%
X36250000Y-5400000D02*
X35650000Y-5000000D01*
X35650000Y-5000000D02*
X36250000Y-4600000D01*
X35250000Y-5000000D02*
X35650000Y-5000000D01*
X35650000Y-5000000D02*
X35650000Y-5550000D01*
X36250000Y-4600000D02*
X36250000Y-5400000D01*
X36250000Y-5000000D02*
X36750000Y-5000000D01*
X35650000Y-5000000D02*
X35650000Y-4450000D01*
%TO.C,D30*%
X89650000Y63000000D02*
X89650000Y63550000D01*
X89650000Y63000000D02*
X89650000Y62450000D01*
X90250000Y63400000D02*
X90250000Y62600000D01*
X89250000Y63000000D02*
X89650000Y63000000D01*
X90250000Y63000000D02*
X90750000Y63000000D01*
X89650000Y63000000D02*
X90250000Y63400000D01*
X90250000Y62600000D02*
X89650000Y63000000D01*
%TO.C,D25*%
X71650000Y63000000D02*
X71650000Y62450000D01*
X72250000Y63400000D02*
X72250000Y62600000D01*
X71650000Y63000000D02*
X71650000Y63550000D01*
X71650000Y63000000D02*
X72250000Y63400000D01*
X72250000Y62600000D02*
X71650000Y63000000D01*
X71250000Y63000000D02*
X71650000Y63000000D01*
X72250000Y63000000D02*
X72750000Y63000000D01*
%TO.C,D28*%
X89250000Y29000000D02*
X89650000Y29000000D01*
X90250000Y29400000D02*
X90250000Y28600000D01*
X89650000Y29000000D02*
X90250000Y29400000D01*
X90250000Y29000000D02*
X90750000Y29000000D01*
X90250000Y28600000D02*
X89650000Y29000000D01*
X89650000Y29000000D02*
X89650000Y29550000D01*
X89650000Y29000000D02*
X89650000Y28450000D01*
%TO.C,D20*%
X53650000Y63000000D02*
X53650000Y62450000D01*
X53250000Y63000000D02*
X53650000Y63000000D01*
X53650000Y63000000D02*
X53650000Y63550000D01*
X54250000Y63000000D02*
X54750000Y63000000D01*
X54250000Y62600000D02*
X53650000Y63000000D01*
X53650000Y63000000D02*
X54250000Y63400000D01*
X54250000Y63400000D02*
X54250000Y62600000D01*
%TO.C,D12*%
X35650000Y12000000D02*
X35650000Y12550000D01*
X35250000Y12000000D02*
X35650000Y12000000D01*
X35650000Y12000000D02*
X35650000Y11450000D01*
X36250000Y11600000D02*
X35650000Y12000000D01*
X36250000Y12400000D02*
X36250000Y11600000D01*
X35650000Y12000000D02*
X36250000Y12400000D01*
X36250000Y12000000D02*
X36750000Y12000000D01*
%TO.C,D14*%
X35250000Y46000000D02*
X35650000Y46000000D01*
X35650000Y46000000D02*
X35650000Y46550000D01*
X35650000Y46000000D02*
X36250000Y46400000D01*
X36250000Y46000000D02*
X36750000Y46000000D01*
X36250000Y46400000D02*
X36250000Y45600000D01*
X36250000Y45600000D02*
X35650000Y46000000D01*
X35650000Y46000000D02*
X35650000Y45450000D01*
%TO.C,D5*%
X250000Y63400000D02*
X250000Y62600000D01*
X-350000Y63000000D02*
X-350000Y63550000D01*
X250000Y62600000D02*
X-350000Y63000000D01*
X-350000Y63000000D02*
X-350000Y62450000D01*
X250000Y63000000D02*
X750000Y63000000D01*
X-350000Y63000000D02*
X250000Y63400000D01*
X-750000Y63000000D02*
X-350000Y63000000D01*
%TO.C,D22*%
X72250000Y11600000D02*
X71650000Y12000000D01*
X71250000Y12000000D02*
X71650000Y12000000D01*
X72250000Y12400000D02*
X72250000Y11600000D01*
X71650000Y12000000D02*
X71650000Y11450000D01*
X71650000Y12000000D02*
X72250000Y12400000D01*
X71650000Y12000000D02*
X71650000Y12550000D01*
X72250000Y12000000D02*
X72750000Y12000000D01*
%TO.C,D7*%
X17250000Y12000000D02*
X17650000Y12000000D01*
X18250000Y12400000D02*
X18250000Y11600000D01*
X17650000Y12000000D02*
X17650000Y12550000D01*
X17650000Y12000000D02*
X18250000Y12400000D01*
X18250000Y12000000D02*
X18750000Y12000000D01*
X18250000Y11600000D02*
X17650000Y12000000D01*
X17650000Y12000000D02*
X17650000Y11450000D01*
%TO.C,D26*%
X90250000Y-5000000D02*
X90750000Y-5000000D01*
X90250000Y-4600000D02*
X90250000Y-5400000D01*
X89250000Y-5000000D02*
X89650000Y-5000000D01*
X90250000Y-5400000D02*
X89650000Y-5000000D01*
X89650000Y-5000000D02*
X89650000Y-4450000D01*
X89650000Y-5000000D02*
X90250000Y-4600000D01*
X89650000Y-5000000D02*
X89650000Y-5550000D01*
%TO.C,D17*%
X54250000Y12400000D02*
X54250000Y11600000D01*
X53650000Y12000000D02*
X53650000Y12550000D01*
X53650000Y12000000D02*
X54250000Y12400000D01*
X53650000Y12000000D02*
X53650000Y11450000D01*
X54250000Y12000000D02*
X54750000Y12000000D01*
X53250000Y12000000D02*
X53650000Y12000000D01*
X54250000Y11600000D02*
X53650000Y12000000D01*
%TO.C,D10*%
X18250000Y63400000D02*
X18250000Y62600000D01*
X18250000Y62600000D02*
X17650000Y63000000D01*
X18250000Y63000000D02*
X18750000Y63000000D01*
X17650000Y63000000D02*
X17650000Y63550000D01*
X17650000Y63000000D02*
X17650000Y62450000D01*
X17250000Y63000000D02*
X17650000Y63000000D01*
X17650000Y63000000D02*
X18250000Y63400000D01*
D10*
%TO.C,MCU1*%
X114850000Y72740000D02*
X117390000Y72740000D01*
X114850000Y72740000D02*
X114850000Y70200000D01*
X114850000Y70200000D02*
X117390000Y70200000D01*
X117390000Y70200000D02*
X117390000Y72740000D01*
D11*
%TO.C,D21*%
X72250000Y-5400000D02*
X71650000Y-5000000D01*
X71250000Y-5000000D02*
X71650000Y-5000000D01*
X71650000Y-5000000D02*
X71650000Y-4450000D01*
X72250000Y-5000000D02*
X72750000Y-5000000D01*
X71650000Y-5000000D02*
X72250000Y-4600000D01*
X72250000Y-4600000D02*
X72250000Y-5400000D01*
X71650000Y-5000000D02*
X71650000Y-5550000D01*
%TO.C,D19*%
X53650000Y46000000D02*
X53650000Y45450000D01*
X53250000Y46000000D02*
X53650000Y46000000D01*
X54250000Y46400000D02*
X54250000Y45600000D01*
X53650000Y46000000D02*
X53650000Y46550000D01*
X54250000Y45600000D02*
X53650000Y46000000D01*
X54250000Y46000000D02*
X54750000Y46000000D01*
X53650000Y46000000D02*
X54250000Y46400000D01*
%TD*%
M02*
